<?xml version="1.0" encoding="utf-8"?>
<!-- Generator: Adobe Illustrator 24.1.1, SVG Export Plug-In . SVG Version: 6.00 Build 0)  -->
<svg version="1.1" id="Layer_1" xmlns="http://www.w3.org/2000/svg" xmlns:xlink="http://www.w3.org/1999/xlink" x="0px" y="0px"
	 viewBox="0 0 719.55 564" style="enable-background:new 0 0 719.55 564;" xml:space="preserve">
<style type="text/css">
	.st0{fill:#245581;}
	.st1{fill:#FFFFFF;}
</style>
<g>
	<path class="st0" d="M-2372.47,358.83c0,84.33,68.37,152.7,152.7,152.7c62.26,0,115.83-37.27,139.59-90.71h128.56
		C-1979.72,542.95-2089.11,634-2219.77,634c-86.39,0-163.48-39.81-213.93-102.08c-38.3-47.28-61.23-107.5-61.23-173.08
		c0-84.33-68.37-152.7-152.7-152.7s-152.7,68.37-152.7,152.7V634h-122.46V48.89h122.46v80.99c43.69-29.19,96.2-46.22,152.7-46.22
		c86.39,0,163.48,39.81,213.93,102.08c50.45-62.28,127.54-102.08,213.93-102.08c53.91,0,104.2,15.5,146.65,42.3V-128h122.46v426.36
		h-128.87c-23.42-54.26-77.39-92.23-140.24-92.23C-2304.1,206.13-2372.47,274.5-2372.47,358.83z"/>
	<path class="st0" d="M-2067.06,358.83c0,22.07-4.69,43.04-13.11,61.99h-168.32V298.36h168.97
		C-2071.49,316.89-2067.06,337.35-2067.06,358.83z"/>
</g>
<g>
	<path class="st1" d="M407.33,360.33c0,62.42,50.6,113.02,113.02,113.02c46.08,0,85.73-27.58,103.32-67.14h95.15
		C698.03,496.61,617.07,564,520.36,564c-63.94,0-121-29.46-158.35-75.56c-28.35-34.99-45.32-79.56-45.32-128.11
		c0-62.42-50.6-113.02-113.02-113.02S90.64,297.91,90.64,360.33V564H0V130.93h90.64v59.95c32.34-21.61,71.21-34.21,113.02-34.21
		c63.94,0,121,29.46,158.35,75.56c37.34-46.09,94.4-75.56,158.35-75.56c39.91,0,77.12,11.47,108.55,31.31V0h90.64v315.57h-95.39
		c-17.33-40.16-57.28-68.26-103.8-68.26C457.94,247.31,407.33,297.91,407.33,360.33z"/>
	<path class="st1" d="M633.38,360.33c0,16.34-3.47,31.86-9.7,45.88H499.1v-90.64h125.06C630.1,329.29,633.38,344.43,633.38,360.33z"
		/>
</g>
<g>
	<path class="st0" d="M-854.4,351.89c0,54.89,44.5,99.4,99.4,99.4c40.53,0,75.39-24.26,90.86-59.05h83.68
		C-598.75,471.74-669.96,531-755,531c-56.23,0-106.41-25.91-139.25-66.45c-24.93-30.77-39.86-69.97-39.86-112.66
		c0-54.89-44.5-99.4-99.4-99.4c-54.89,0-99.4,44.5-99.4,99.4V531h-79.71V150.14h79.71v52.72c28.44-19,62.62-30.08,99.4-30.08
		c56.23,0,106.41,25.91,139.25,66.45c32.84-40.54,83.02-66.45,139.25-66.45c35.09,0,67.83,10.09,95.46,27.54V35h79.71v277.52h-83.89
		c-15.24-35.32-50.38-60.03-91.29-60.03C-809.9,252.49-854.4,296.99-854.4,351.89z"/>
	<path class="st0" d="M-655.61,351.89c0,14.37-3.05,28.02-8.53,40.35H-773.7v-79.71h109.99
		C-658.49,324.59-655.61,337.9-655.61,351.89z"/>
</g>
<g>
	<rect x="-3377.13" y="754.75" class="st0" width="41.25" height="41.25"/>
	<text transform="matrix(1 0 0 1 -3314.9055 770.7034)"><tspan x="0" y="0" style="font-family:'MyriadPro-Regular'; font-size:15.2357px;">Pantone 8484 C - Metallic Coated</tspan><tspan x="0" y="18.28" style="font-family:'MyriadPro-Regular'; font-size:15.2357px;">#245581 </tspan></text>
</g>
<g>
	<g>
		<path class="st0" d="M-2371.03-828.36c0,31.98,25.93,57.91,57.91,57.91c23.61,0,43.93-14.13,52.94-34.4h48.76
			c-10.66,46.32-52.15,80.85-101.7,80.85c-32.76,0-62-15.1-81.14-38.72c-14.52-17.93-23.22-40.77-23.22-65.64
			c0-31.98-25.93-57.91-57.91-57.91c-31.98,0-57.91,25.93-57.91,57.91V-724h-46.45v-221.91h46.45v30.72
			c16.57-11.07,36.49-17.53,57.91-17.53c32.76,0,62,15.1,81.14,38.72c19.13-23.62,48.37-38.72,81.14-38.72
			c20.45,0,39.52,5.88,55.62,16.04V-1013h46.45v161.7h-48.88c-8.88-20.58-29.35-34.98-53.19-34.98
			C-2345.1-886.28-2371.03-860.35-2371.03-828.36z"/>
		<path class="st0" d="M-2255.2-828.36c0,8.37-1.78,16.33-4.97,23.51h-63.84v-46.45h64.08
			C-2256.88-844.27-2255.2-836.51-2255.2-828.36z"/>
	</g>
	<g>
		<path class="st0" d="M-2152.47-830.84v5.08h9.53v4.91h-9.53v9.57h-5.88v-24.64h16.22v5.08H-2152.47z"/>
		<path class="st0" d="M-2126.06-810.62c-7.69,0-13.4-5.29-13.4-13.08c0-7.9,5.71-12.88,13.4-12.88c7.73,0,13.43,4.98,13.43,12.88
			C-2112.63-815.91-2118.34-810.62-2126.06-810.62z M-2126.06-831.22c-4.18,0-7.03,3.2-7.03,7.52c0,4.45,2.89,7.66,7.03,7.66
			s7.06-3.2,7.06-7.66C-2119-828.02-2121.89-831.22-2126.06-831.22z"/>
		<path class="st0" d="M-2099.2-830.84v19.56h-5.95v-19.56h-6.96v-5.08h19.87v5.08H-2099.2z"/>
		<path class="st0" d="M-2078.32-810.62c-7.69,0-13.4-5.29-13.4-13.08c0-7.9,5.71-12.88,13.4-12.88c7.73,0,13.43,4.98,13.43,12.88
			C-2064.89-815.91-2070.6-810.62-2078.32-810.62z M-2078.32-831.22c-4.18,0-7.03,3.2-7.03,7.52c0,4.45,2.89,7.66,7.03,7.66
			c4.14,0,7.06-3.2,7.06-7.66C-2071.26-828.02-2074.15-831.22-2078.32-831.22z"/>
		<path class="st0" d="M-2048.57-810.65c-7.86,0-13.54-5.22-13.54-12.98c0-7.9,5.85-12.94,13.36-12.94c3.86,0,7.45,1.29,9.5,3.27
			l-3.76,4.28c-1.15-1.32-3.13-2.3-5.53-2.3c-4.18,0-7.24,3.27-7.24,7.69c0,4.52,2.68,7.76,7.52,7.76c1.39,0,2.68-0.21,3.72-0.66
			v-4.49h-4.7v-4.8h10.16v13.05C-2041.47-811.52-2044.78-810.65-2048.57-810.65z"/>
		<path class="st0" d="M-2021.01-811.28l-5.32-9.78h-2.02v9.78h-5.85v-24.64h9.4c4.73,0,9.43,1.81,9.43,7.45
			c0,3.31-1.95,5.67-5.12,6.65l6.44,10.54H-2021.01z M-2025.22-831.12h-3.17v5.74h2.82c1.91,0,4.32-0.49,4.32-2.99
			C-2021.26-830.66-2023.45-831.12-2025.22-831.12z"/>
		<path class="st0" d="M-1994.43-811.28l-1.91-4.84h-9.53l-1.81,4.84h-6.47l10.33-24.64h5.78l10.23,24.64H-1994.43z
			 M-2001.04-829.34l-3.13,8.46h6.19L-2001.04-829.34z"/>
		<path class="st0" d="M-1979.89-830.84v5.08h9.53v4.91h-9.53v9.57h-5.88v-24.64h16.22v5.08H-1979.89z"/>
		<path class="st0" d="M-1965.73-811.28v-24.64h5.99v24.64H-1965.73z"/>
		<path class="st0" d="M-1949.3-810.62c-4.14,0-7.1-2.4-8-5.78l5.25-1.77c0.31,1.29,1.22,2.16,2.47,2.16c1.95,0,2.4-1.5,2.4-3.65
			v-16.25h5.99v16.22C-1941.19-815.8-1942.59-810.62-1949.3-810.62z"/>
		<path class="st0" d="M-1919.97-811.28l-1.91-4.84h-9.53l-1.81,4.84h-6.47l10.33-24.64h5.78l10.23,24.64H-1919.97z
			 M-1926.58-829.34l-3.13,8.46h6.19L-1926.58-829.34z"/>
		<path class="st0" d="M-1885.83-811.28l-2.33-2.4c-1.57,1.67-3.79,2.89-7.2,2.89c-4.49,0-8.84-2.33-8.84-7.34
			c0-3.48,2.44-5.64,5.15-6.82c-1.53-1.5-2.54-3.24-2.54-5.36c0-4.45,4.04-6.26,7.69-6.26c3.76,0,7.52,1.91,7.52,6.26
			c0,3.13-2.23,5.08-4.94,6.44l3.1,3.17l2.47-3.79h6.33l-5.32,7.13l6.12,6.09H-1885.83z M-1895.89-821.69
			c-1.39,0.56-2.61,1.46-2.61,3.31c0,1.95,1.7,3.1,3.34,3.1c1.53,0,2.75-0.7,3.62-1.88L-1895.89-821.69z M-1893.84-832.4
			c-1.36,0-2.37,0.97-2.37,2.26c0,1.15,0.66,2.23,1.84,3.2c1.57-0.63,2.85-1.71,2.85-3.2
			C-1891.51-831.39-1892.41-832.4-1893.84-832.4z"/>
		<path class="st0" d="M-2146.14-769.53h-5.95l-9.33-24.64h6.68l5.71,17.47h0.14l5.67-17.47h6.58L-2146.14-769.53z"/>
		<path class="st0" d="M-2134.62-769.53v-24.64h5.99v24.64H-2134.62z"/>
		<path class="st0" d="M-2114.37-769.53h-9.19v-24.64h8.91c6.99,0,14.09,2.92,14.09,12.25
			C-2100.56-773.25-2107.59-769.53-2114.37-769.53z M-2114.79-789.08h-2.96v14.41h2.82c4.25,0,8.18-1.74,8.18-7.24
			C-2106.75-787.45-2110.68-789.08-2114.79-789.08z"/>
		<path class="st0" d="M-2096.63-769.53v-24.64h16.56v5.05h-10.82v4.63h10.23v4.77h-10.23v5.12h11.45v5.08H-2096.63z"/>
		<path class="st0" d="M-2063.26-768.86c-7.69,0-13.4-5.29-13.4-13.08c0-7.9,5.71-12.88,13.4-12.88c7.73,0,13.43,4.98,13.43,12.88
			C-2049.83-774.15-2055.53-768.86-2063.26-768.86z M-2063.26-789.47c-4.18,0-7.03,3.2-7.03,7.52c0,4.45,2.89,7.66,7.03,7.66
			c4.14,0,7.06-3.2,7.06-7.66C-2056.19-786.26-2059.08-789.47-2063.26-789.47z"/>
		<path class="st0" d="M-2028.29-778.82h-2.96v9.29h-5.95v-24.64h9.05c5.39,0,9.64,1.95,9.64,7.59
			C-2018.51-780.87-2023.14-778.82-2028.29-778.82z M-2028.64-789.36h-2.61v5.81h2.51c2.23,0,4.28-0.66,4.28-2.99
			C-2024.46-788.91-2026.51-789.36-2028.64-789.36z"/>
		<path class="st0" d="M-2001.74-769.53l-5.32-9.78h-2.02v9.78h-5.85v-24.64h9.4c4.73,0,9.43,1.81,9.43,7.45
			c0,3.31-1.95,5.67-5.12,6.65l6.44,10.54H-2001.74z M-2005.95-789.36h-3.17v5.74h2.82c1.91,0,4.32-0.49,4.32-2.99
			C-2001.98-788.91-2004.17-789.36-2005.95-789.36z"/>
		<path class="st0" d="M-1979.61-768.86c-7.69,0-13.4-5.29-13.4-13.08c0-7.9,5.71-12.88,13.4-12.88c7.73,0,13.43,4.98,13.43,12.88
			C-1966.18-774.15-1971.88-768.86-1979.61-768.86z M-1979.61-789.47c-4.18,0-7.03,3.2-7.03,7.52c0,4.45,2.89,7.66,7.03,7.66
			c4.14,0,7.06-3.2,7.06-7.66C-1972.54-786.26-1975.43-789.47-1979.61-789.47z"/>
		<path class="st0" d="M-1953.06-769.53h-9.19v-24.64h8.91c6.99,0,14.09,2.92,14.09,12.25
			C-1939.24-773.25-1946.27-769.53-1953.06-769.53z M-1953.48-789.08h-2.96v14.41h2.82c4.25,0,8.18-1.74,8.18-7.24
			C-1945.44-787.45-1949.37-789.08-1953.48-789.08z"/>
		<path class="st0" d="M-1925.05-768.86c-6.47,0-10.51-4.04-10.51-9.95v-15.35h5.92v14.86c0,2.64,1.29,5.08,4.63,5.08
			c3.38,0,4.63-2.44,4.63-5.08v-14.86h5.95v15.35C-1914.44-772.9-1918.61-768.86-1925.05-768.86z"/>
		<path class="st0" d="M-1894.57-769.53l-9.15-11.34h-0.07v11.34h-5.85v-24.64h5.85v10.02h0.1l8.8-10.02h7.45l-10.61,11.34
			l11.24,13.29H-1894.57z"/>
		<path class="st0" d="M-1874.18-768.86c-7.59,0-13.26-5.29-13.26-13.01c0-7.9,5.85-12.94,13.36-12.94c3.45,0,7.17,1.25,9.22,3.62
			l-4.04,4.04c-1.11-1.53-3.1-2.26-4.98-2.26c-4.14,0-7.1,3.2-7.1,7.55c0,4.49,2.89,7.55,6.99,7.55c2.33,0,4.18-1.04,5.22-2.51
			l4.14,3.9C-1866.77-770.43-1870.04-768.86-1874.18-768.86z"/>
		<path class="st0" d="M-1862.07-769.53v-24.64h5.99v24.64H-1862.07z"/>
		<path class="st0" d="M-1845.65-768.86c-4.14,0-7.1-2.4-8-5.78l5.25-1.77c0.31,1.29,1.22,2.16,2.47,2.16c1.95,0,2.4-1.5,2.4-3.65
			v-16.25h5.99v16.22C-1837.54-774.05-1838.93-768.86-1845.65-768.86z"/>
		<path class="st0" d="M-1816.31-769.53l-1.91-4.84h-9.53l-1.81,4.84h-6.47l10.33-24.64h5.78l10.23,24.64H-1816.31z
			 M-1822.92-787.59l-3.13,8.46h6.19L-1822.92-787.59z"/>
	</g>
</g>
<g>
	<g>
		<path class="st0" d="M-236.32-808.33c0,77.03,62.45,139.48,139.48,139.48c56.87,0,105.79-34.04,127.5-82.86h117.42
			C122.41-640.16,22.5-557-96.84-557c-78.91,0-149.32-36.36-195.4-93.24c-34.98-43.18-55.93-98.19-55.93-158.09
			c0-77.03-62.45-139.48-139.48-139.48s-139.48,62.45-139.48,139.48V-557h-111.86v-534.43h111.86v73.98
			c39.91-26.67,87.87-42.22,139.48-42.22c78.91,0,149.32,36.36,195.4,93.24c46.08-56.88,116.5-93.24,195.4-93.24
			c49.24,0,95.18,14.15,133.95,38.64V-1253h111.86v389.43H31.26c-21.39-49.56-70.69-84.24-128.1-84.24
			C-173.87-947.81-236.32-885.36-236.32-808.33z"/>
		<path class="st0" d="M42.64-808.33c0,20.16-4.28,39.32-11.97,56.62h-153.74v-111.86H31.26C38.59-846.64,42.64-827.96,42.64-808.33
			z"/>
	</g>
	<g>
		<path class="st0" d="M290.03-814.3v12.24H313v11.82h-22.96v23.05h-14.16v-59.33h39.05v12.24H290.03z"/>
		<path class="st0" d="M353.64-765.61c-18.52,0-32.27-12.74-32.27-31.51c0-19.02,13.74-31.01,32.27-31.01
			c18.6,0,32.35,11.98,32.35,31.01C385.98-778.35,372.24-765.61,353.64-765.61z M353.64-815.22c-10.06,0-16.93,7.71-16.93,18.1
			c0,10.73,6.96,18.44,16.93,18.44s17.01-7.71,17.01-18.44C370.65-807.51,363.69-815.22,353.64-815.22z"/>
		<path class="st0" d="M418.33-814.3v47.1H404v-47.1h-16.76v-12.24h47.85v12.24H418.33z"/>
		<path class="st0" d="M468.61-765.61c-18.52,0-32.26-12.74-32.26-31.51c0-19.02,13.74-31.01,32.26-31.01
			c18.61,0,32.35,11.98,32.35,31.01C500.96-778.35,487.21-765.61,468.61-765.61z M468.61-815.22c-10.06,0-16.93,7.71-16.93,18.1
			c0,10.73,6.96,18.44,16.93,18.44c9.97,0,17.01-7.71,17.01-18.44C485.62-807.51,478.66-815.22,468.61-815.22z"/>
		<path class="st0" d="M540.26-765.69c-18.94,0-32.6-12.57-32.6-31.26c0-19.02,14.08-31.18,32.18-31.18c9.3,0,17.93,3.1,22.88,7.88
			l-9.05,10.31c-2.77-3.18-7.54-5.53-13.33-5.53c-10.06,0-17.43,7.88-17.43,18.52c0,10.89,6.45,18.69,18.1,18.69
			c3.35,0,6.45-0.5,8.97-1.59v-10.81h-11.31v-11.56h24.47v31.43C557.35-767.79,549.39-765.69,540.26-765.69z"/>
		<path class="st0" d="M606.62-767.2l-12.82-23.55h-4.86v23.55h-14.08v-59.33h22.63c11.4,0,22.71,4.36,22.71,17.93
			c0,7.96-4.69,13.66-12.32,16.01l15.5,25.39H606.62z M596.48-814.97h-7.63v13.83h6.79c4.61,0,10.39-1.17,10.39-7.21
			C606.04-813.88,600.76-814.97,596.48-814.97z"/>
		<path class="st0" d="M670.65-767.2l-4.61-11.65h-22.96l-4.36,11.65h-15.59l24.89-59.33h13.91l24.64,59.33H670.65z M654.72-810.69
			l-7.54,20.36h14.92L654.72-810.69z"/>
		<path class="st0" d="M705.67-814.3v12.24h22.96v11.82h-22.96v23.05h-14.16v-59.33h39.05v12.24H705.67z"/>
		<path class="st0" d="M739.78-767.2v-59.33h14.41v59.33H739.78z"/>
		<path class="st0" d="M779.33-765.61c-9.97,0-17.09-5.78-19.27-13.91l12.65-4.27c0.76,3.1,2.93,5.2,5.95,5.2
			c4.69,0,5.78-3.6,5.78-8.8v-39.14h14.41v39.05C798.86-778.09,795.5-765.61,779.33-765.61z"/>
		<path class="st0" d="M849.97-767.2l-4.61-11.65H822.4l-4.36,11.65h-15.59l24.89-59.33h13.91l24.64,59.33H849.97z M834.05-810.69
			l-7.54,20.36h14.92L834.05-810.69z"/>
		<path class="st0" d="M932.18-767.2l-5.62-5.78c-3.77,4.02-9.13,6.96-17.35,6.96c-10.81,0-21.29-5.61-21.29-17.68
			c0-8.38,5.87-13.58,12.4-16.43c-3.69-3.6-6.12-7.79-6.12-12.91c0-10.73,9.72-15.08,18.52-15.08c9.05,0,18.1,4.61,18.1,15.08
			c0,7.54-5.36,12.24-11.9,15.5l7.46,7.63l5.95-9.13h15.25l-12.82,17.18l14.75,14.67H932.18z M907.96-792.26
			c-3.35,1.34-6.28,3.52-6.28,7.96c0,4.69,4.11,7.46,8.05,7.46c3.69,0,6.62-1.68,8.72-4.53L907.96-792.26z M912.91-818.07
			c-3.27,0-5.7,2.35-5.7,5.45c0,2.77,1.59,5.36,4.44,7.71c3.77-1.51,6.87-4.11,6.87-7.71C918.52-815.64,916.34-818.07,912.91-818.07
			z"/>
		<path class="st0" d="M305.28-666.64h-14.33l-22.46-59.33h16.09l13.74,42.07h0.34l13.66-42.07h15.84L305.28-666.64z"/>
		<path class="st0" d="M333.02-666.64v-59.33h14.41v59.33H333.02z"/>
		<path class="st0" d="M381.79-666.64h-22.12v-59.33h21.45c16.84,0,33.94,7.04,33.94,29.5
			C415.06-675.61,398.13-666.64,381.79-666.64z M380.79-713.74h-7.12v34.7h6.79c10.22,0,19.69-4.19,19.69-17.43
			C400.15-709.8,390.67-713.74,380.79-713.74z"/>
		<path class="st0" d="M424.53-666.64v-59.33h39.89v12.15h-26.06v11.15h24.64v11.48h-24.64v12.32h27.57v12.24H424.53z"/>
		<path class="st0" d="M504.89-665.05c-18.52,0-32.26-12.74-32.26-31.51c0-19.02,13.74-31.01,32.26-31.01
			c18.61,0,32.35,11.98,32.35,31.01C537.24-677.79,523.5-665.05,504.89-665.05z M504.89-714.66c-10.06,0-16.93,7.71-16.93,18.1
			c0,10.73,6.96,18.44,16.93,18.44c9.97,0,17.01-7.71,17.01-18.44C521.9-706.95,514.95-714.66,504.89-714.66z"/>
		<path class="st0" d="M589.11-689.02h-7.12v22.38h-14.33v-59.33h21.79c12.99,0,23.21,4.69,23.21,18.27
			C612.66-693.96,601.51-689.02,589.11-689.02z M588.27-714.41h-6.29v14h6.03c5.36,0,10.31-1.59,10.31-7.21
			C598.33-713.32,593.38-714.41,588.27-714.41z"/>
		<path class="st0" d="M653.05-666.64l-12.82-23.55h-4.86v23.55h-14.08v-59.33h22.63c11.4,0,22.71,4.36,22.71,17.93
			c0,7.96-4.69,13.66-12.32,16.01l15.5,25.39H653.05z M642.91-714.41h-7.63v13.83h6.79c4.61,0,10.39-1.17,10.39-7.21
			C652.46-713.32,647.18-714.41,642.91-714.41z"/>
		<path class="st0" d="M706.34-665.05c-18.52,0-32.26-12.74-32.26-31.51c0-19.02,13.74-31.01,32.26-31.01
			c18.61,0,32.35,11.98,32.35,31.01C738.69-677.79,724.95-665.05,706.34-665.05z M706.34-714.66c-10.06,0-16.93,7.71-16.93,18.1
			c0,10.73,6.96,18.44,16.93,18.44c9.97,0,17.01-7.71,17.01-18.44C723.36-706.95,716.4-714.66,706.34-714.66z"/>
		<path class="st0" d="M770.28-666.64h-22.13v-59.33h21.45c16.85,0,33.94,7.04,33.94,29.5
			C803.55-675.61,786.62-666.64,770.28-666.64z M769.28-713.74h-7.12v34.7h6.79c10.22,0,19.69-4.19,19.69-17.43
			C788.63-709.8,779.16-713.74,769.28-713.74z"/>
		<path class="st0" d="M837.74-665.05c-15.59,0-25.31-9.72-25.31-23.97v-36.96h14.25v35.78c0,6.37,3.1,12.24,11.15,12.24
			c8.13,0,11.14-5.87,11.14-12.24v-35.78h14.33v36.96C863.3-674.77,853.24-665.05,837.74-665.05z"/>
		<path class="st0" d="M911.15-666.64l-22.04-27.32h-0.17v27.32h-14.08v-59.33h14.08v24.14h0.25l21.2-24.14h17.93l-25.56,27.32
			l27.07,32.01H911.15z"/>
		<path class="st0" d="M960.25-665.05c-18.27,0-31.93-12.74-31.93-31.34c0-19.02,14.08-31.18,32.18-31.18
			c8.3,0,17.26,3.02,22.21,8.72l-9.72,9.72c-2.68-3.69-7.46-5.45-11.98-5.45c-9.97,0-17.1,7.71-17.1,18.19
			c0,10.81,6.96,18.19,16.85,18.19c5.61,0,10.06-2.51,12.57-6.03l9.97,9.39C978.1-668.82,970.22-665.05,960.25-665.05z"/>
		<path class="st0" d="M989.41-666.64v-59.33h14.41v59.33H989.41z"/>
		<path class="st0" d="M1028.96-665.05c-9.97,0-17.09-5.78-19.27-13.91l12.65-4.27c0.76,3.1,2.93,5.2,5.95,5.2
			c4.69,0,5.78-3.6,5.78-8.8v-39.14h14.41v39.05C1048.49-677.54,1045.14-665.05,1028.96-665.05z"/>
		<path class="st0" d="M1099.61-666.64l-4.61-11.65h-22.96l-4.36,11.65h-15.59l24.89-59.33h13.91l24.64,59.33H1099.61z
			 M1083.69-710.13l-7.54,20.36h14.92L1083.69-710.13z"/>
	</g>
</g>
<text transform="matrix(1 0 0 1 -2876.7532 -147.1443)"><tspan x="0" y="0" class="st0" style="font-family:'AvenirNextLTPro-Bold'; font-size:59.7188px;">FOTOGRAFIJA &amp;</tspan><tspan x="0" y="71.66" class="st0" style="font-family:'AvenirNextLTPro-Bold'; font-size:59.7188px;">VIDEO PRODUKCIJA</tspan></text>
</svg>
