<?xml version="1.0" encoding="utf-8"?>
<!-- Generator: Adobe Illustrator 24.1.1, SVG Export Plug-In . SVG Version: 6.00 Build 0)  -->
<svg version="1.1" id="Layer_1" xmlns="http://www.w3.org/2000/svg" xmlns:xlink="http://www.w3.org/1999/xlink" x="0px" y="0px"
	 viewBox="0 0 848.56 448.64" style="enable-background:new 0 0 848.56 448.64;" xml:space="preserve">
<style type="text/css">
	.st0{fill:#FFFFFF;stroke:#000000;stroke-width:0.763;stroke-miterlimit:10;}
	.st1{fill:#FFFFFF;stroke:#000000;stroke-width:0.7627;stroke-miterlimit:10;}
	.st2{fill:#3761A0;}
	.st3{fill:#666666;}
	.st4{fill:none;stroke:#3761A0;stroke-width:7.3076;stroke-miterlimit:10;}
	.st5{fill:none;stroke:#000000;stroke-miterlimit:10;}
	.st6{fill:none;stroke:#000000;stroke-width:0.7516;stroke-miterlimit:10;}
	.st7{fill:#FFFFFF;}
</style>
<g>
	<rect x="59.92" y="-1770.09" class="st0" width="488.49" height="547.6"/>
	<rect x="1036.52" y="-1770.09" class="st1" width="488.11" height="547.6"/>
	<rect x="548.42" y="-1770.09" width="488.11" height="547.6"/>
</g>
<rect x="1838.61" y="-2134.63" class="st2" width="32" height="32"/>
<g>
	<path d="M3342.58-2372.28h28.56v13.08c4.88-5.37,10.31-9.38,16.28-12.03c5.97-2.65,12.47-3.97,19.52-3.97
		c7.12,0,13.54,1.74,19.26,5.23c5.72,3.49,10.33,8.58,13.82,15.27c4.54-6.69,10.1-11.78,16.7-15.27c6.59-3.49,13.8-5.23,21.62-5.23
		c8.09,0,15.21,1.88,21.35,5.65c6.14,3.77,10.56,8.68,13.24,14.75c2.69,6.07,4.03,15.94,4.03,29.6v66.74h-28.77v-57.74
		c0-12.9-1.6-21.64-4.81-26.2c-3.21-4.57-8.02-6.85-14.44-6.85c-4.88,0-9.26,1.4-13.13,4.18c-3.87,2.79-6.75,6.64-8.63,11.56
		c-1.88,4.92-2.82,12.81-2.82,23.69v51.36h-28.77v-55.13c0-10.18-0.75-17.56-2.25-22.12c-1.5-4.57-3.76-7.97-6.76-10.2
		c-3.01-2.23-6.64-3.35-10.91-3.35c-4.75,0-9.07,1.41-12.95,4.24c-3.88,2.82-6.78,6.78-8.7,11.87c-1.92,5.09-2.88,13.11-2.88,24.06
		v50.63h-28.56V-2372.28z"/>
	<path d="M3595.46-2375.21c10.74,0,20.83,2.69,30.28,8.05c9.45,5.37,16.82,12.66,22.13,21.86c5.3,9.21,7.95,19.14,7.95,29.81
		c0,10.74-2.67,20.78-8,30.13c-5.33,9.35-12.6,16.65-21.81,21.92c-9.21,5.26-19.35,7.9-30.44,7.9c-16.32,0-30.25-5.81-41.79-17.42
		c-11.54-11.61-17.31-25.71-17.31-42.31c0-17.78,6.52-32.6,19.56-44.46C3567.46-2370.05,3580.61-2375.21,3595.46-2375.21z
		 M3595.93-2348.33c-8.87,0-16.26,3.09-22.16,9.26c-5.9,6.17-8.85,14.07-8.85,23.69c0,9.9,2.92,17.92,8.75,24.06
		c5.83,6.14,13.22,9.21,22.16,9.21c8.94,0,16.38-3.1,22.32-9.31c5.94-6.21,8.91-14.19,8.91-23.95c0-9.76-2.92-17.69-8.75-23.8
		C3612.47-2345.28,3605.01-2348.33,3595.93-2348.33z"/>
	<path d="M3761-2416.22h28.56v157.74H3761v-12.03c-5.57,5.3-11.16,9.12-16.77,11.45c-5.61,2.34-11.69,3.5-18.23,3.5
		c-14.7,0-27.41-5.7-38.14-17.1c-10.73-11.4-16.09-25.58-16.09-42.52c0-17.57,5.19-31.97,15.57-43.2
		c10.38-11.23,22.99-16.84,37.82-16.84c6.82,0,13.23,1.29,19.22,3.87c5.99,2.58,11.53,6.45,16.62,11.61V-2416.22z M3730.98-2348.85
		c-8.83,0-16.16,3.12-22,9.36c-5.84,6.24-8.76,14.24-8.76,24.01c0,9.83,2.97,17.92,8.91,24.27c5.94,6.35,13.26,9.52,21.95,9.52
		c8.97,0,16.4-3.12,22.31-9.36c5.91-6.24,8.86-14.42,8.86-24.53c0-9.9-2.96-17.92-8.86-24.06
		C3747.49-2345.78,3740.02-2348.85,3730.98-2348.85z"/>
	<path d="M3930.31-2307.11h-91.74c1.32,8.09,4.86,14.52,10.62,19.3c5.75,4.78,13.09,7.16,22.02,7.16c10.67,0,19.84-3.73,27.51-11.19
		l24.06,11.3c-6,8.51-13.18,14.8-21.55,18.88c-8.37,4.08-18.31,6.12-29.81,6.12c-17.85,0-32.39-5.63-43.62-16.89
		c-11.23-11.26-16.84-25.37-16.84-42.31c0-17.36,5.6-31.78,16.79-43.25c11.19-11.47,25.23-17.21,42.1-17.21
		c17.92,0,32.5,5.74,43.73,17.21c11.23,11.47,16.84,26.62,16.84,45.45L3930.31-2307.11z M3901.75-2329.61
		c-1.89-6.34-5.61-11.51-11.16-15.48c-5.55-3.97-12-5.96-19.33-5.96c-7.96,0-14.95,2.23-20.95,6.69
		c-3.77,2.79-7.27,7.71-10.48,14.75H3901.75z"/>
	<path d="M3944.59-2372.28h24.48v14.33c2.65-5.65,6.17-9.94,10.57-12.87c4.39-2.93,9.2-4.39,14.43-4.39c3.7,0,7.57,0.98,11.61,2.93
		l-8.89,24.58c-3.35-1.67-6.1-2.51-8.26-2.51c-4.39,0-8.11,2.72-11.14,8.16c-3.03,5.44-4.55,16.11-4.55,32.01l0.1,5.54v46.03h-28.35
		V-2372.28z"/>
</g>
<g>
	<path class="st3" d="M3362.58-2231.64v4.34c-1.63-0.7-3.02-1.05-4.19-1.05c-0.87,0-1.59,0.18-2.16,0.52
		c-0.57,0.35-0.93,0.75-1.08,1.2c-0.15,0.46-0.22,1.67-0.22,3.63l0,4.66h7.2v3.84h-7.21l-0.02,30.67h-4.44v-30.67h-4.54v-3.84h4.54
		v-5.39c0-2.47,0.23-4.24,0.68-5.3s1.23-1.91,2.32-2.55c1.09-0.64,2.41-0.97,3.95-0.97
		C3358.85-2232.53,3360.57-2232.23,3362.58-2231.64z"/>
	<path class="st3" d="M3384.45-2219.2c5.32,0,9.72,1.92,13.22,5.77c3.18,3.51,4.77,7.67,4.77,12.47c0,4.82-1.68,9.03-5.04,12.64
		c-3.36,3.6-7.67,5.41-12.95,5.41c-5.29,0-9.62-1.8-12.98-5.41c-3.36-3.61-5.04-7.82-5.04-12.64c0-4.78,1.59-8.92,4.77-12.43
		C3374.7-2217.27,3379.11-2219.2,3384.45-2219.2z M3384.44-2214.86c-3.69,0-6.86,1.36-9.52,4.09c-2.65,2.73-3.98,6.03-3.98,9.9
		c0,2.5,0.6,4.82,1.82,6.98c1.21,2.16,2.84,3.82,4.9,5c2.06,1.17,4.32,1.76,6.78,1.76s4.72-0.59,6.78-1.76
		c2.06-1.17,3.69-2.84,4.9-5c1.21-2.16,1.82-4.48,1.82-6.98c0-3.87-1.33-7.17-3.99-9.9
		C3391.27-2213.5,3388.11-2214.86,3384.44-2214.86z"/>
	<path class="st3" d="M3413.87-2231.13h4.44v12.82h7.04v3.84h-7.04v30.67h-4.44v-30.67h-6.06v-3.84h6.06V-2231.13z"/>
	<path class="st3" d="M3447.7-2219.2c5.32,0,9.72,1.92,13.22,5.77c3.18,3.51,4.77,7.67,4.77,12.47c0,4.82-1.68,9.03-5.04,12.64
		c-3.36,3.6-7.67,5.41-12.95,5.41c-5.29,0-9.62-1.8-12.98-5.41c-3.36-3.61-5.04-7.82-5.04-12.64c0-4.78,1.59-8.92,4.77-12.43
		C3437.94-2217.27,3442.36-2219.2,3447.7-2219.2z M3447.68-2214.86c-3.69,0-6.86,1.36-9.52,4.09c-2.65,2.73-3.98,6.03-3.98,9.9
		c0,2.5,0.6,4.82,1.82,6.98c1.21,2.16,2.84,3.82,4.9,5c2.06,1.17,4.32,1.76,6.78,1.76c2.46,0,4.72-0.59,6.78-1.76
		c2.06-1.17,3.69-2.84,4.9-5c1.21-2.16,1.82-4.48,1.82-6.98c0-3.87-1.33-7.17-3.99-9.9
		C3454.52-2213.5,3451.35-2214.86,3447.68-2214.86z"/>
	<path class="st3" d="M3512.15-2231.64l-19.38,54.17h-4.85l19.35-54.17H3512.15z"/>
	<path class="st3" d="M3532.39-2218.32h4.72l11.58,25.15l11.44-25.15h4.76l-15.8,34.51h-0.82L3532.39-2218.32z"/>
	<path class="st3" d="M3572.55-2232.53c1.01,0,1.88,0.36,2.59,1.08c0.72,0.72,1.07,1.59,1.07,2.6c0,0.99-0.36,1.85-1.07,2.57
		c-0.72,0.72-1.58,1.08-2.59,1.08c-0.99,0-1.84-0.36-2.56-1.08c-0.72-0.72-1.07-1.57-1.07-2.57c0-1.01,0.36-1.88,1.07-2.6
		C3570.7-2232.17,3571.56-2232.53,3572.55-2232.53z M3570.34-2218.32h4.44v34.51h-4.44V-2218.32z"/>
	<path class="st3" d="M3617.81-2231.64v47.83h-4.38v-5.93c-1.86,2.26-3.95,3.97-6.26,5.11s-4.85,1.71-7.6,1.71
		c-4.88,0-9.05-1.77-12.51-5.31c-3.46-3.54-5.19-7.85-5.19-12.93c0-4.97,1.75-9.22,5.23-12.75c3.49-3.53,7.69-5.3,12.59-5.3
		c2.83,0,5.4,0.6,7.69,1.81c2.3,1.2,4.31,3.01,6.04,5.42v-19.66H3617.81z M3600.06-2214.92c-2.47,0-4.75,0.61-6.84,1.82
		c-2.09,1.22-3.75,2.92-4.99,5.12c-1.23,2.2-1.85,4.52-1.85,6.97c0,2.43,0.62,4.75,1.87,6.97c1.24,2.22,2.92,3.94,5.02,5.18
		c2.1,1.24,4.36,1.85,6.77,1.85c2.43,0,4.73-0.61,6.91-1.84c2.18-1.22,3.85-2.88,5.02-4.97c1.17-2.09,1.76-4.45,1.76-7.07
		c0-3.99-1.31-7.33-3.94-10.01C3607.14-2213.58,3603.91-2214.92,3600.06-2214.92z"/>
	<path class="st3" d="M3656.27-2195.26l3.74,1.97c-1.23,2.41-2.65,4.36-4.25,5.83c-1.61,1.48-3.42,2.61-5.43,3.38
		c-2.01,0.77-4.28,1.16-6.83,1.16c-5.63,0-10.03-1.84-13.2-5.54c-3.18-3.69-4.76-7.86-4.76-12.51c0-4.38,1.34-8.28,4.03-11.7
		c3.41-4.36,7.97-6.53,13.68-6.53c5.88,0,10.58,2.23,14.1,6.69c2.5,3.15,3.77,7.08,3.81,11.8h-31.05c0.09,4.01,1.37,7.29,3.84,9.86
		c2.48,2.56,5.54,3.85,9.18,3.85c1.76,0,3.47-0.31,5.13-0.92c1.66-0.61,3.08-1.42,4.24-2.43
		C3653.65-2191.37,3654.91-2193,3656.27-2195.26z M3656.27-2204.55c-0.59-2.37-1.45-4.26-2.59-5.68c-1.13-1.42-2.63-2.56-4.49-3.43
		s-3.82-1.3-5.88-1.3c-3.39,0-6.3,1.09-8.73,3.27c-1.78,1.59-3.12,3.96-4.03,7.14H3656.27z"/>
	<path class="st3" d="M3685.12-2219.2c5.32,0,9.72,1.92,13.22,5.77c3.18,3.51,4.77,7.67,4.77,12.47c0,4.82-1.68,9.03-5.04,12.64
		c-3.36,3.6-7.67,5.41-12.95,5.41c-5.3,0-9.62-1.8-12.98-5.41c-3.36-3.61-5.04-7.82-5.04-12.64c0-4.78,1.59-8.92,4.77-12.43
		C3675.36-2217.27,3679.78-2219.2,3685.12-2219.2z M3685.1-2214.86c-3.69,0-6.86,1.36-9.52,4.09c-2.65,2.73-3.98,6.03-3.98,9.9
		c0,2.5,0.6,4.82,1.81,6.98c1.21,2.16,2.84,3.82,4.9,5c2.06,1.17,4.32,1.76,6.78,1.76c2.46,0,4.72-0.59,6.78-1.76
		c2.06-1.17,3.69-2.84,4.9-5c1.21-2.16,1.81-4.48,1.81-6.98c0-3.87-1.33-7.17-3.99-9.9
		C3691.94-2213.5,3688.77-2214.86,3685.1-2214.86z"/>
	<path class="st3" d="M3749.57-2231.64l-19.38,54.17h-4.85l19.35-54.17H3749.57z"/>
	<path class="st3" d="M3802.82-2218.32h4.44v27.5c0,4.84-0.42,8.38-1.27,10.63c-1.16,3.17-3.18,5.61-6.06,7.33
		c-2.88,1.71-6.33,2.57-10.37,2.57c-2.96,0-5.62-0.42-7.98-1.26c-2.36-0.84-4.28-1.96-5.76-3.37s-2.85-3.47-4.09-6.19h4.82
		c1.31,2.28,3,3.98,5.08,5.07c2.07,1.1,4.65,1.65,7.72,1.65c3.03,0,5.58-0.56,7.67-1.69c2.08-1.13,3.57-2.54,4.46-4.25
		c0.89-1.71,1.34-4.46,1.34-8.27v-1.78c-1.67,2.11-3.72,3.74-6.13,4.87c-2.41,1.13-4.97,1.7-7.68,1.7c-3.17,0-6.16-0.79-8.95-2.36
		c-2.79-1.57-4.95-3.69-6.48-6.36c-1.53-2.66-2.29-5.59-2.29-8.79c0-3.19,0.79-6.17,2.38-8.93s3.78-4.94,6.59-6.55
		c2.81-1.61,5.76-2.41,8.87-2.41c2.58,0,4.99,0.53,7.23,1.6c2.23,1.07,4.39,2.83,6.46,5.28V-2218.32z M3789.72-2214.92
		c-2.52,0-4.85,0.61-7.01,1.82c-2.15,1.22-3.85,2.9-5.07,5.04c-1.23,2.15-1.84,4.47-1.84,6.96c0,3.78,1.27,6.91,3.81,9.39
		c2.54,2.47,5.82,3.71,9.86,3.71c4.08,0,7.36-1.23,9.85-3.68c2.48-2.45,3.73-5.68,3.73-9.68c0-2.6-0.57-4.92-1.71-6.96
		c-1.14-2.04-2.76-3.65-4.85-4.84C3794.38-2214.33,3792.13-2214.92,3789.72-2214.92z"/>
	<path class="st3" d="M3814.45-2218.32h4.54v5.04c1.35-1.99,2.78-3.47,4.28-4.46c1.5-0.98,3.07-1.48,4.69-1.48
		c1.23,0,2.54,0.39,3.94,1.17l-2.32,3.74c-0.93-0.4-1.71-0.6-2.34-0.6c-1.48,0-2.91,0.61-4.28,1.82c-1.38,1.22-2.42,3.1-3.14,5.66
		c-0.55,1.97-0.83,5.94-0.83,11.93v11.67h-4.54V-2218.32z"/>
	<path class="st3" d="M3869.4-2218.32v34.51h-4.38v-5.93c-1.86,2.26-3.95,3.97-6.26,5.11c-2.31,1.14-4.85,1.71-7.59,1.71
		c-4.89,0-9.06-1.77-12.51-5.31c-3.46-3.54-5.18-7.85-5.18-12.93c0-4.97,1.74-9.22,5.23-12.75c3.49-3.53,7.69-5.3,12.59-5.3
		c2.83,0,5.4,0.6,7.69,1.81c2.29,1.2,4.31,3.01,6.04,5.42v-6.34H3869.4z M3851.65-2214.92c-2.47,0-4.75,0.61-6.84,1.82
		c-2.09,1.22-3.75,2.92-4.99,5.12c-1.24,2.2-1.85,4.52-1.85,6.97c0,2.43,0.62,4.75,1.87,6.97c1.25,2.22,2.92,3.94,5.02,5.18
		c2.1,1.24,4.36,1.85,6.76,1.85c2.43,0,4.73-0.61,6.91-1.84c2.17-1.22,3.85-2.88,5.02-4.97c1.17-2.09,1.76-4.45,1.76-7.07
		c0-3.99-1.31-7.33-3.94-10.01C3858.74-2213.58,3855.5-2214.92,3851.65-2214.92z"/>
	<path class="st3" d="M3892.95-2231.64v4.34c-1.63-0.7-3.02-1.05-4.19-1.05c-0.87,0-1.58,0.18-2.15,0.52
		c-0.57,0.35-0.93,0.75-1.08,1.2c-0.15,0.46-0.22,1.67-0.22,3.63l0,4.66h7.2v3.84h-7.21l-0.02,30.67h-4.44v-30.67h-4.54v-3.84h4.54
		v-5.39c0-2.47,0.23-4.24,0.68-5.3s1.23-1.91,2.31-2.55c1.09-0.64,2.41-0.97,3.95-0.97
		C3889.22-2232.53,3890.94-2232.23,3892.95-2231.64z"/>
	<path class="st3" d="M3900.02-2232.53c1.01,0,1.88,0.36,2.59,1.08s1.07,1.59,1.07,2.6c0,0.99-0.36,1.85-1.07,2.57
		c-0.72,0.72-1.58,1.08-2.59,1.08c-0.99,0-1.84-0.36-2.56-1.08c-0.72-0.72-1.07-1.57-1.07-2.57c0-1.01,0.36-1.88,1.07-2.6
		C3898.18-2232.17,3899.03-2232.53,3900.02-2232.53z M3897.82-2218.32h4.44v34.51h-4.44V-2218.32z"/>
	<path class="st3" d="M3910.81-2231.64h4.44v27.25l16-13.93h6.52l-18.97,16.46l20.08,18.05h-6.25l-17.38-15.54v15.54h-4.44V-2231.64
		z"/>
	<path class="st3" d="M3977.18-2218.32v34.51h-4.38v-5.93c-1.86,2.26-3.95,3.97-6.26,5.11c-2.31,1.14-4.85,1.71-7.59,1.71
		c-4.89,0-9.06-1.77-12.51-5.31c-3.46-3.54-5.18-7.85-5.18-12.93c0-4.97,1.74-9.22,5.23-12.75c3.49-3.53,7.69-5.3,12.59-5.3
		c2.83,0,5.4,0.6,7.69,1.81c2.29,1.2,4.31,3.01,6.04,5.42v-6.34H3977.18z M3959.43-2214.92c-2.47,0-4.75,0.61-6.84,1.82
		c-2.09,1.22-3.75,2.92-4.99,5.12c-1.24,2.2-1.85,4.52-1.85,6.97c0,2.43,0.62,4.75,1.87,6.97c1.25,2.22,2.92,3.94,5.02,5.18
		c2.1,1.24,4.36,1.85,6.76,1.85c2.43,0,4.73-0.61,6.91-1.84c2.17-1.22,3.85-2.88,5.02-4.97c1.17-2.09,1.76-4.45,1.76-7.07
		c0-3.99-1.31-7.33-3.94-10.01C3966.51-2213.58,3963.28-2214.92,3959.43-2214.92z"/>
</g>
<g>
	<g>
		<text transform="matrix(1 0 0 1 387.3319 -2094.3323)"><tspan x="0" y="0" style="font-family:'CenturyGothic'; font-size:20.3136px;">pantone : 8183 C</tspan><tspan x="0" y="24.38" style="font-family:'CenturyGothic'; font-size:20.3136px;">RGB (55, 97, 160)</tspan><tspan x="0" y="48.75" style="font-family:'CenturyGothic'; font-size:20.3136px;">#3761A0</tspan></text>
		<rect x="275.63" y="-2119.6" class="st2" width="86.3" height="86.3"/>
	</g>
	<g>
		<text transform="matrix(1 0 0 1 1075.7748 -2094.3328)"><tspan x="0" y="0" style="font-family:'CenturyGothic'; font-size:20.3136px;">pisava : Century Gothic</tspan><tspan x="0" y="24.38" style="font-family:'CenturyGothic'; font-size:20.3136px;">vrsta : </tspan><tspan x="62.88" y="24.38" style="font-family:'CenturyGothic-Bold'; font-size:20.3136px;">BOLD</tspan><tspan x="0" y="48.75" style="font-family:'CenturyGothic'; font-size:20.3136px;">razmak : 24,19pt</tspan></text>
		<rect x="964.08" y="-2115.86" class="st4" width="78.83" height="78.83"/>
	</g>
</g>
<g>
	<line class="st5" x1="2226.63" y1="-1828.3" x2="2226.63" y2="-1671.3"/>
	<g>
		<path d="M1911.78-1767.45h12.09v5.54c2.07-2.27,4.36-3.97,6.89-5.09c2.53-1.12,5.28-1.68,8.26-1.68c3.01,0,5.73,0.74,8.15,2.21
			c2.42,1.48,4.37,3.63,5.85,6.46c1.92-2.83,4.28-4.99,7.07-6.46c2.79-1.48,5.84-2.21,9.15-2.21c3.43,0,6.44,0.8,9.04,2.39
			c2.6,1.59,4.47,3.67,5.61,6.24c1.14,2.57,1.71,6.75,1.71,12.53v28.25h-12.18v-24.44c0-5.46-0.68-9.16-2.04-11.09
			c-1.36-1.93-3.4-2.9-6.11-2.9c-2.07,0-3.92,0.59-5.56,1.77c-1.64,1.18-2.86,2.81-3.65,4.89c-0.8,2.08-1.2,5.42-1.2,10.03v21.74
			h-12.18v-23.34c0-4.31-0.32-7.43-0.95-9.37c-0.64-1.93-1.59-3.37-2.86-4.32c-1.27-0.94-2.81-1.42-4.62-1.42
			c-2.01,0-3.84,0.6-5.48,1.79c-1.64,1.2-2.87,2.87-3.68,5.03c-0.81,2.15-1.22,5.55-1.22,10.18v21.43h-12.09V-1767.45z"/>
		<path d="M2018.83-1768.69c4.55,0,8.82,1.14,12.82,3.41c4,2.27,7.12,5.36,9.37,9.25c2.24,3.9,3.36,8.1,3.36,12.62
			c0,4.55-1.13,8.8-3.39,12.75c-2.26,3.96-5.34,7.05-9.23,9.28c-3.9,2.23-8.19,3.34-12.89,3.34c-6.91,0-12.8-2.46-17.69-7.37
			s-7.33-10.89-7.33-17.91c0-7.53,2.76-13.8,8.28-18.82C2006.97-1766.5,2012.54-1768.69,2018.83-1768.69z M2019.03-1757.31
			c-3.76,0-6.88,1.31-9.38,3.92c-2.5,2.61-3.75,5.96-3.75,10.03c0,4.19,1.23,7.59,3.7,10.18c2.47,2.6,5.6,3.9,9.38,3.9
			c3.78,0,6.93-1.31,9.45-3.94c2.51-2.63,3.77-6.01,3.77-10.14c0-4.13-1.23-7.49-3.7-10.07
			C2026.03-1756.02,2022.87-1757.31,2019.03-1757.31z"/>
		<path d="M2088.9-1786.04h12.09v66.77h-12.09v-5.09c-2.36,2.24-4.73,3.86-7.1,4.85c-2.37,0.99-4.95,1.48-7.72,1.48
			c-6.22,0-11.6-2.41-16.14-7.24c-4.54-4.83-6.81-10.83-6.81-18c0-7.44,2.2-13.53,6.59-18.29c4.39-4.75,9.73-7.13,16.01-7.13
			c2.89,0,5.6,0.55,8.14,1.64c2.54,1.09,4.88,2.73,7.03,4.91V-1786.04z M2076.19-1757.53c-3.74,0-6.84,1.32-9.31,3.96
			c-2.47,2.64-3.71,6.03-3.71,10.16c0,4.16,1.26,7.59,3.77,10.27c2.52,2.69,5.61,4.03,9.29,4.03c3.8,0,6.94-1.32,9.44-3.96
			c2.5-2.64,3.75-6.1,3.75-10.38c0-4.19-1.25-7.59-3.75-10.18C2083.18-1756.23,2080.02-1757.53,2076.19-1757.53z"/>
		<path d="M2160.57-1739.86h-38.83c0.56,3.42,2.06,6.15,4.49,8.17c2.44,2.02,5.54,3.03,9.32,3.03c4.52,0,8.4-1.58,11.65-4.74
			l10.18,4.78c-2.54,3.6-5.58,6.27-9.12,7.99c-3.54,1.73-7.75,2.59-12.62,2.59c-7.56,0-13.71-2.38-18.46-7.15
			c-4.75-4.77-7.13-10.74-7.13-17.91c0-7.35,2.37-13.45,7.11-18.31c4.74-4.86,10.68-7.28,17.82-7.28c7.59,0,13.76,2.43,18.51,7.28
			c4.75,4.86,7.13,11.27,7.13,19.24L2160.57-1739.86z M2148.48-1749.38c-0.8-2.69-2.37-4.87-4.72-6.55
			c-2.35-1.68-5.08-2.52-8.18-2.52c-3.37,0-6.33,0.94-8.87,2.83c-1.6,1.18-3.08,3.26-4.44,6.24H2148.48z"/>
		<path d="M2166.61-1767.45h10.36v6.07c1.12-2.39,2.61-4.21,4.47-5.45c1.86-1.24,3.9-1.86,6.11-1.86c1.56,0,3.2,0.41,4.92,1.24
			l-3.76,10.41c-1.42-0.71-2.58-1.06-3.5-1.06c-1.86,0-3.43,1.15-4.72,3.45s-1.93,6.82-1.93,13.55l0.04,2.35v19.48h-12V-1767.45z"/>
	</g>
	<g>
		<path d="M2272.67-1786.44h4.19v5.62c1.46-2.07,2.95-3.59,4.49-4.54c2.11-1.28,4.34-1.91,6.67-1.91c1.58,0,3.07,0.31,4.49,0.93
			c1.42,0.62,2.57,1.44,3.47,2.47c0.9,1.03,1.68,2.5,2.33,4.41c1.39-2.55,3.13-4.49,5.22-5.81c2.09-1.32,4.33-1.99,6.74-1.99
			c2.25,0,4.23,0.57,5.95,1.7c1.72,1.14,3,2.72,3.83,4.75c0.83,2.03,1.25,5.08,1.25,9.15v17.76h-4.27v-17.76
			c0-3.49-0.25-5.88-0.74-7.19c-0.5-1.3-1.35-2.36-2.55-3.15c-1.2-0.8-2.64-1.2-4.3-1.2c-2.03,0-3.88,0.6-5.56,1.79
			c-1.68,1.2-2.9,2.79-3.68,4.78c-0.77,1.99-1.16,5.32-1.16,9.98v12.73h-4.19v-16.65c0-3.93-0.24-6.59-0.73-8s-1.34-2.53-2.56-3.38
			s-2.66-1.27-4.33-1.27c-1.93,0-3.74,0.58-5.42,1.75c-1.68,1.17-2.93,2.73-3.74,4.71c-0.81,1.97-1.21,4.99-1.21,9.06v13.78h-4.19
			V-1786.44z"/>
		<path d="M2356.89-1764.71l3.53,1.85c-1.16,2.27-2.49,4.11-4.01,5.5c-1.52,1.4-3.22,2.46-5.12,3.18s-4.04,1.09-6.43,1.09
			c-5.31,0-9.45-1.74-12.45-5.22c-2.99-3.48-4.49-7.41-4.49-11.79c0-4.13,1.27-7.8,3.8-11.03c3.21-4.1,7.51-6.16,12.89-6.16
			c5.55,0,9.97,2.1,13.28,6.31c2.35,2.97,3.55,6.68,3.59,11.12h-29.26c0.08,3.78,1.29,6.87,3.62,9.29s5.22,3.62,8.65,3.62
			c1.66,0,3.27-0.29,4.83-0.86c1.57-0.58,2.9-1.34,4-2.29S2355.61-1762.59,2356.89-1764.71z M2356.89-1773.47
			c-0.56-2.23-1.37-4.02-2.44-5.35c-1.07-1.33-2.48-2.41-4.23-3.23c-1.76-0.82-3.6-1.23-5.54-1.23c-3.19,0-5.94,1.03-8.23,3.08
			c-1.68,1.49-2.94,3.74-3.8,6.73H2356.89z"/>
		<path d="M2401.14-1799v45.08h-4.12v-5.59c-1.75,2.13-3.72,3.74-5.9,4.81s-4.57,1.61-7.16,1.61c-4.6,0-8.53-1.67-11.79-5.01
			c-3.26-3.34-4.89-7.4-4.89-12.18c0-4.68,1.64-8.69,4.93-12.02c3.29-3.33,7.24-4.99,11.87-4.99c2.67,0,5.09,0.57,7.25,1.7
			c2.16,1.14,4.06,2.84,5.69,5.11V-1799H2401.14z M2384.42-1783.25c-2.33,0-4.48,0.57-6.45,1.72c-1.97,1.14-3.54,2.75-4.7,4.82
			c-1.16,2.07-1.75,4.26-1.75,6.57c0,2.29,0.59,4.48,1.76,6.57c1.18,2.09,2.75,3.72,4.73,4.88c1.98,1.16,4.11,1.75,6.37,1.75
			c2.29,0,4.46-0.58,6.51-1.73c2.05-1.15,3.63-2.72,4.73-4.69c1.1-1.97,1.66-4.19,1.66-6.66c0-3.76-1.24-6.91-3.72-9.43
			C2391.09-1781.98,2388.04-1783.25,2384.42-1783.25z"/>
		<path d="M2411.45-1799.84c0.95,0,1.77,0.34,2.44,1.02c0.67,0.68,1.01,1.49,1.01,2.45c0,0.94-0.34,1.74-1.01,2.42
			c-0.67,0.68-1.49,1.02-2.44,1.02c-0.93,0-1.74-0.34-2.41-1.02c-0.67-0.68-1.01-1.48-1.01-2.42c0-0.96,0.34-1.77,1.01-2.45
			C2409.72-1799.5,2410.52-1799.84,2411.45-1799.84z M2409.38-1786.44h4.19v32.52h-4.19V-1786.44z"/>
		<path d="M2454.05-1786.44v32.52h-4.13v-5.59c-1.75,2.13-3.72,3.74-5.9,4.81c-2.18,1.08-4.57,1.61-7.16,1.61
			c-4.6,0-8.53-1.67-11.79-5.01c-3.26-3.34-4.89-7.4-4.89-12.18c0-4.68,1.64-8.69,4.93-12.02c3.29-3.33,7.24-4.99,11.87-4.99
			c2.67,0,5.09,0.57,7.25,1.7c2.16,1.14,4.06,2.84,5.69,5.11v-5.98H2454.05z M2437.32-1783.25c-2.33,0-4.48,0.57-6.45,1.72
			c-1.97,1.14-3.54,2.75-4.7,4.82c-1.17,2.07-1.75,4.26-1.75,6.57c0,2.29,0.59,4.48,1.76,6.57c1.17,2.09,2.75,3.72,4.73,4.88
			c1.98,1.16,4.11,1.75,6.38,1.75c2.29,0,4.46-0.58,6.51-1.73c2.05-1.15,3.63-2.72,4.73-4.69c1.1-1.97,1.66-4.19,1.66-6.66
			c0-3.76-1.24-6.91-3.72-9.43C2444-1781.98,2440.95-1783.25,2437.32-1783.25z"/>
		<path d="M2305.1-1739.73v32.52h-4.13v-5.59c-1.75,2.13-3.72,3.74-5.9,4.81c-2.18,1.08-4.57,1.61-7.16,1.61
			c-4.6,0-8.53-1.67-11.79-5.01c-3.26-3.34-4.89-7.4-4.89-12.18c0-4.68,1.64-8.69,4.93-12.02c3.29-3.33,7.24-4.99,11.87-4.99
			c2.67,0,5.09,0.57,7.25,1.7c2.16,1.14,4.06,2.84,5.69,5.11v-5.98H2305.1z M2288.38-1736.53c-2.33,0-4.48,0.57-6.45,1.72
			c-1.97,1.14-3.54,2.75-4.7,4.82c-1.17,2.07-1.75,4.26-1.75,6.57c0,2.29,0.59,4.48,1.76,6.57c1.17,2.09,2.75,3.72,4.73,4.88
			c1.98,1.16,4.11,1.75,6.38,1.75c2.29,0,4.46-0.58,6.51-1.73c2.05-1.15,3.63-2.72,4.73-4.69c1.1-1.97,1.66-4.19,1.66-6.66
			c0-3.76-1.24-6.91-3.72-9.43C2295.05-1735.26,2292-1736.53,2288.38-1736.53z"/>
		<path d="M2341.94-1739.73h4.18v25.92c0,4.56-0.4,7.9-1.2,10.01c-1.1,2.99-3,5.29-5.71,6.91c-2.71,1.61-5.97,2.42-9.77,2.42
			c-2.79,0-5.3-0.4-7.52-1.18c-2.22-0.79-4.03-1.85-5.43-3.18c-1.39-1.33-2.68-3.27-3.86-5.83h4.54c1.24,2.15,2.83,3.75,4.79,4.78
			c1.96,1.04,4.38,1.55,7.27,1.55c2.85,0,5.26-0.53,7.23-1.59c1.96-1.06,3.37-2.4,4.21-4.01c0.84-1.61,1.26-4.21,1.26-7.79v-1.67
			c-1.58,1.99-3.5,3.52-5.77,4.59c-2.27,1.07-4.69,1.6-7.24,1.6c-2.99,0-5.8-0.74-8.44-2.23s-4.67-3.48-6.1-5.99
			s-2.15-5.27-2.15-8.28c0-3.01,0.75-5.81,2.24-8.41c1.5-2.6,3.57-4.66,6.21-6.17c2.64-1.51,5.43-2.27,8.36-2.27
			c2.43,0,4.7,0.5,6.81,1.51c2.1,1.01,4.13,2.67,6.09,4.98V-1739.73z M2329.6-1736.53c-2.37,0-4.57,0.57-6.61,1.72
			c-2.03,1.15-3.63,2.73-4.78,4.75c-1.16,2.02-1.73,4.21-1.73,6.56c0,3.57,1.2,6.52,3.59,8.85c2.39,2.33,5.49,3.5,9.3,3.5
			c3.84,0,6.94-1.16,9.28-3.47c2.34-2.31,3.51-5.35,3.51-9.12c0-2.45-0.54-4.64-1.61-6.56c-1.08-1.92-2.6-3.44-4.57-4.56
			C2333.99-1735.97,2331.87-1736.53,2329.6-1736.53z"/>
		<path d="M2381.86-1717.99l3.53,1.85c-1.16,2.27-2.49,4.11-4.01,5.5c-1.52,1.39-3.22,2.46-5.12,3.18c-1.9,0.73-4.04,1.09-6.43,1.09
			c-5.31,0-9.45-1.74-12.45-5.22c-2.99-3.48-4.49-7.41-4.49-11.79c0-4.12,1.27-7.8,3.8-11.03c3.21-4.1,7.51-6.16,12.9-6.16
			c5.54,0,9.97,2.1,13.28,6.31c2.35,2.97,3.55,6.68,3.59,11.12h-29.26c0.08,3.78,1.29,6.87,3.62,9.29s5.22,3.62,8.65,3.62
			c1.66,0,3.27-0.29,4.83-0.86c1.57-0.58,2.9-1.34,4-2.29C2379.4-1714.33,2380.58-1715.87,2381.86-1717.99z M2381.86-1726.75
			c-0.56-2.23-1.37-4.02-2.44-5.35c-1.07-1.33-2.48-2.41-4.24-3.23c-1.76-0.82-3.6-1.23-5.54-1.23c-3.19,0-5.94,1.03-8.23,3.08
			c-1.68,1.49-2.94,3.74-3.8,6.73H2381.86z"/>
		<path d="M2393.65-1739.73h4.19v5.83c1.67-2.23,3.53-3.9,5.56-5.01c2.03-1.11,4.24-1.66,6.64-1.66c2.43,0,4.59,0.62,6.47,1.85
			c1.88,1.24,3.27,2.9,4.17,4.99c0.9,2.09,1.35,5.35,1.35,9.77v16.74h-4.19v-15.51c0-3.75-0.16-6.25-0.47-7.5
			c-0.48-2.15-1.42-3.77-2.79-4.86c-1.38-1.09-3.17-1.63-5.38-1.63c-2.53,0-4.8,0.84-6.8,2.51c-2,1.67-3.32,3.75-3.96,6.22
			c-0.4,1.61-0.6,4.56-0.6,8.85v11.93h-4.19V-1739.73z"/>
		<path d="M2461.94-1732.97l-3.32,2.06c-2.87-3.81-6.78-5.71-11.73-5.71c-3.96,0-7.25,1.27-9.87,3.82
			c-2.62,2.55-3.93,5.64-3.93,9.28c0,2.37,0.6,4.6,1.81,6.69c1.2,2.09,2.86,3.71,4.96,4.87c2.1,1.15,4.45,1.73,7.06,1.73
			c4.78,0,8.68-1.9,11.7-5.71l3.32,2.18c-1.55,2.34-3.64,4.16-6.26,5.45s-5.6,1.94-8.95,1.94c-5.14,0-9.41-1.63-12.79-4.9
			c-3.39-3.27-5.08-7.24-5.08-11.93c0-3.15,0.79-6.07,2.38-8.77c1.58-2.7,3.76-4.81,6.53-6.32c2.77-1.51,5.87-2.27,9.3-2.27
			c2.15,0,4.23,0.33,6.23,0.99c2,0.66,3.7,1.51,5.1,2.57C2459.78-1735.95,2460.96-1734.6,2461.94-1732.97z"/>
		<path d="M2465.87-1739.73h4.42l11.18,25.04l10.85-25.04h4.45l-19.4,44.42h-4.42l6.26-14.36L2465.87-1739.73z"/>
	</g>
</g>
<g>
	<path d="M2310.69-1244.78h38.03v17.42c6.5-7.15,13.73-12.49,21.68-16.02c7.95-3.53,16.61-5.29,26-5.29
		c9.48,0,18.03,2.32,25.65,6.97c7.62,4.65,13.76,11.42,18.4,20.34c6.04-8.92,13.45-15.7,22.24-20.34
		c8.78-4.64,18.38-6.97,28.79-6.97c10.78,0,20.26,2.51,28.44,7.52c8.18,5.02,14.06,11.56,17.64,19.64
		c3.58,8.08,5.37,21.23,5.37,39.43v88.89h-38.31v-76.91c0-17.18-2.14-28.82-6.41-34.9c-4.27-6.08-10.68-9.13-19.23-9.13
		c-6.5,0-12.33,1.86-17.48,5.57c-5.16,3.72-8.99,8.85-11.49,15.39c-2.51,6.55-3.76,17.07-3.76,31.56v68.41h-38.31v-73.42
		c0-13.56-1-23.38-3-29.47c-2-6.08-5.01-10.61-9.01-13.58c-4-2.97-8.84-4.46-14.52-4.46c-6.33,0-12.08,1.88-17.25,5.64
		s-9.03,9.03-11.59,15.81c-2.56,6.78-3.84,17.46-3.84,32.04v67.43h-38.03V-1244.78z"/>
	<path d="M2647.51-1248.68c14.3,0,27.75,3.58,40.33,10.73c12.59,7.15,22.41,16.86,29.47,29.12c7.06,12.26,10.59,25.5,10.59,39.71
		c0,14.31-3.55,27.68-10.66,40.12c-7.1,12.45-16.79,22.18-29.05,29.19c-12.26,7.01-25.78,10.52-40.55,10.52
		c-21.73,0-40.29-7.73-55.66-23.2c-15.37-15.46-23.06-34.25-23.06-56.36c0-23.69,8.68-43.42,26.05-59.21
		C2610.21-1241.81,2627.72-1248.68,2647.51-1248.68z M2648.13-1212.87c-11.82,0-21.66,4.11-29.52,12.33
		c-7.86,8.22-11.79,18.74-11.79,31.56c0,13.19,3.88,23.87,11.65,32.04c7.77,8.17,17.61,12.26,29.52,12.26
		c11.91,0,21.82-4.13,29.72-12.4c7.91-8.27,11.86-18.9,11.86-31.9c0-13-3.88-23.57-11.65-31.7
		C2670.16-1208.81,2660.23-1212.87,2648.13-1212.87z"/>
	<path d="M2867.99-1303.3h38.03v210.1h-38.03v-16.02c-7.43,7.06-14.87,12.15-22.34,15.26c-7.47,3.11-15.56,4.67-24.28,4.67
		c-19.58,0-36.51-7.59-50.79-22.78c-14.29-15.19-21.43-34.06-21.43-56.64c0-23.4,6.91-42.58,20.73-57.54
		c13.82-14.95,30.61-22.43,50.38-22.43c9.09,0,17.62,1.72,25.6,5.15c7.98,3.44,15.35,8.59,22.13,15.46V-1303.3z M2828-1213.57
		c-11.76,0-21.52,4.16-29.3,12.47c-7.78,8.31-11.66,18.97-11.66,31.97c0,13.1,3.95,23.87,11.87,32.32
		c7.92,8.45,17.66,12.68,29.23,12.68c11.94,0,21.85-4.16,29.71-12.47c7.87-8.31,11.8-19.2,11.8-32.67c0-13.19-3.94-23.87-11.8-32.04
		C2849.99-1209.48,2840.04-1213.57,2828-1213.57z"/>
	<path d="M3093.49-1157.98H2971.3c1.76,10.78,6.48,19.34,14.14,25.71c7.66,6.36,17.44,9.54,29.33,9.54
		c14.21,0,26.42-4.97,36.64-14.91l32.04,15.05c-7.99,11.33-17.55,19.72-28.7,25.15c-11.14,5.43-24.38,8.15-39.71,8.15
		c-23.78,0-43.15-7.5-58.1-22.5c-14.96-15-22.43-33.79-22.43-56.36c0-23.13,7.45-42.33,22.36-57.61
		c14.91-15.28,33.6-22.92,56.08-22.92c23.87,0,43.28,7.64,58.24,22.92c14.95,15.28,22.43,35.46,22.43,60.54L3093.49-1157.98z
		 M3055.45-1187.94c-2.51-8.45-7.47-15.32-14.86-20.62c-7.4-5.29-15.98-7.94-25.75-7.94c-10.61,0-19.91,2.97-27.91,8.92
		c-5.02,3.72-9.68,10.26-13.96,19.64H3055.45z"/>
	<path d="M3112.5-1244.78h32.6v19.09c3.53-7.52,8.22-13.24,14.07-17.14c5.85-3.9,12.26-5.85,19.23-5.85c4.92,0,10.08,1.3,15.46,3.9
		l-11.84,32.74c-4.46-2.23-8.13-3.34-11.01-3.34c-5.85,0-10.8,3.62-14.84,10.87c-4.04,7.24-6.06,21.46-6.06,42.63l0.14,7.38v61.3
		h-37.76V-1244.78z"/>
</g>
<g>
	<path class="st2" d="M1961.69-612.78h38.03v17.42c6.5-7.15,13.73-12.49,21.68-16.02c7.95-3.53,16.61-5.29,26-5.29
		c9.48,0,18.03,2.32,25.65,6.97c7.62,4.64,13.76,11.42,18.4,20.34c6.04-8.92,13.45-15.7,22.24-20.34
		c8.78-4.64,18.38-6.97,28.79-6.97c10.78,0,20.26,2.51,28.44,7.52c8.18,5.02,14.06,11.56,17.64,19.64
		c3.58,8.08,5.37,21.23,5.37,39.43v88.89h-38.31v-76.91c0-17.18-2.14-28.82-6.41-34.9c-4.27-6.08-10.68-9.13-19.23-9.13
		c-6.5,0-12.33,1.86-17.48,5.57c-5.16,3.72-8.99,8.85-11.49,15.39c-2.51,6.55-3.76,17.07-3.76,31.56v68.41h-38.31v-73.42
		c0-13.56-1-23.38-3-29.47c-2-6.08-5.01-10.61-9.01-13.58c-4-2.97-8.84-4.46-14.52-4.46c-6.33,0-12.08,1.88-17.25,5.64
		s-9.03,9.03-11.59,15.81c-2.56,6.78-3.84,17.46-3.84,32.04v67.43h-38.03V-612.78z"/>
	<path class="st2" d="M2298.51-616.68c14.3,0,27.75,3.58,40.33,10.73c12.59,7.15,22.41,16.86,29.47,29.12
		c7.06,12.26,10.59,25.5,10.59,39.71c0,14.3-3.55,27.68-10.66,40.12c-7.1,12.45-16.79,22.18-29.05,29.19
		c-12.26,7.01-25.78,10.52-40.55,10.52c-21.73,0-40.29-7.73-55.66-23.2c-15.37-15.46-23.06-34.25-23.06-56.36
		c0-23.69,8.68-43.42,26.05-59.21C2261.21-609.81,2278.72-616.68,2298.51-616.68z M2299.13-580.87c-11.82,0-21.66,4.11-29.52,12.33
		c-7.86,8.22-11.79,18.74-11.79,31.56c0,13.19,3.88,23.87,11.65,32.04c7.77,8.17,17.61,12.26,29.52,12.26
		c11.91,0,21.82-4.13,29.72-12.4c7.91-8.27,11.86-18.9,11.86-31.9c0-13-3.88-23.57-11.65-31.7
		C2321.16-576.81,2311.23-580.87,2299.13-580.87z"/>
	<path class="st2" d="M2518.99-671.3h38.03v210.1h-38.03v-16.02c-7.43,7.06-14.87,12.14-22.34,15.26
		c-7.47,3.11-15.56,4.67-24.28,4.67c-19.58,0-36.51-7.59-50.79-22.78c-14.29-15.19-21.43-34.06-21.43-56.64
		c0-23.4,6.91-42.58,20.73-57.54c13.82-14.95,30.61-22.43,50.38-22.43c9.09,0,17.62,1.72,25.6,5.15
		c7.98,3.44,15.35,8.59,22.13,15.46V-671.3z M2479-581.57c-11.76,0-21.52,4.16-29.3,12.47c-7.78,8.31-11.66,18.97-11.66,31.97
		c0,13.1,3.95,23.87,11.87,32.32c7.92,8.45,17.66,12.68,29.23,12.68c11.94,0,21.85-4.16,29.71-12.47c7.87-8.31,11.8-19.2,11.8-32.67
		c0-13.19-3.94-23.87-11.8-32.04C2500.99-577.48,2491.04-581.57,2479-581.57z"/>
	<path class="st2" d="M2744.49-525.98H2622.3c1.76,10.78,6.48,19.34,14.14,25.71c7.66,6.36,17.44,9.54,29.33,9.54
		c14.21,0,26.42-4.97,36.64-14.91l32.04,15.05c-7.99,11.33-17.55,19.72-28.7,25.15c-11.14,5.43-24.38,8.15-39.71,8.15
		c-23.78,0-43.15-7.5-58.1-22.5c-14.96-15-22.43-33.79-22.43-56.36c0-23.13,7.45-42.33,22.36-57.61
		c14.91-15.28,33.6-22.92,56.08-22.92c23.87,0,43.28,7.64,58.24,22.92c14.95,15.28,22.43,35.46,22.43,60.54L2744.49-525.98z
		 M2706.45-555.94c-2.51-8.45-7.47-15.32-14.86-20.62c-7.4-5.29-15.98-7.94-25.75-7.94c-10.61,0-19.91,2.97-27.91,8.92
		c-5.02,3.72-9.68,10.26-13.96,19.64H2706.45z"/>
	<path class="st2" d="M2763.5-612.78h32.6v19.09c3.53-7.52,8.22-13.24,14.07-17.14c5.85-3.9,12.26-5.85,19.23-5.85
		c4.92,0,10.08,1.3,15.46,3.9l-11.84,32.74c-4.46-2.23-8.13-3.34-11.01-3.34c-5.85,0-10.8,3.62-14.84,10.87
		c-4.04,7.25-6.06,21.46-6.06,42.63l0.14,7.38v61.3h-37.76V-612.78z"/>
</g>
<polyline class="st5" points="2559.28,-1248.3 2559.28,-1393.3 2844.28,-1393.3 "/>
<text transform="matrix(1 0 0 1 2558.9055 -1411.0676)"><tspan x="0" y="0" style="font-family:'CenturyGothic'; font-size:31.697px;">razmak med </tspan><tspan x="198.06" y="0" style="font-family:'MyriadPro-Regular'; font-size:31.697px;">črkami : -10</tspan></text>
<text transform="matrix(1 0 0 1 2530.9055 -997.0677)" style="font-family:'CenturyGothic'; font-size:31.697px;">pisava : century gothic bold</text>
<text transform="matrix(1 0 0 1 3262.9055 -573.0677)"><tspan x="0" y="0" style="font-family:'CenturyGothic'; font-size:31.697px;">pantone : 8183 C</tspan><tspan x="0" y="38.04" style="font-family:'CenturyGothic'; font-size:31.697px;">RGB (55, 97, 160)</tspan><tspan x="0" y="76.07" style="font-family:'CenturyGothic'; font-size:31.697px;">#3761A0</tspan></text>
<text transform="matrix(1 0 0 1 2576.9055 -964.0677)" style="font-family:'CenturyGothic'; font-size:31.697px;">razmak vrstic : 24,19pt</text>
<polyline class="st5" points="2310.28,-1073.3 2310.28,-1041.3 3153.28,-1041.3 3153.28,-1073.3 "/>
<rect x="2951.28" y="-657.3" class="st2" width="236" height="236"/>
<g>
	<path class="st2" d="M425.17-331.29c4.41,0,8.56,1.1,12.44,3.31c3.88,2.21,6.91,5.2,9.09,8.98c2.18,3.78,3.26,7.86,3.26,12.25
		c0,4.41-1.1,8.54-3.29,12.38c-2.19,3.84-5.18,6.84-8.96,9c-3.78,2.16-7.95,3.24-12.51,3.24c-6.7,0-12.43-2.38-17.17-7.15
		c-4.74-4.77-7.11-10.56-7.11-17.38c0-7.31,2.68-13.39,8.04-18.26C413.66-329.17,419.06-331.29,425.17-331.29z M425.36-320.25
		c-3.64,0-6.68,1.27-9.1,3.8c-2.43,2.54-3.64,5.78-3.64,9.73c0,4.07,1.2,7.36,3.59,9.88c2.4,2.52,5.43,3.78,9.1,3.78
		c3.67,0,6.73-1.27,9.17-3.82c2.44-2.55,3.66-5.83,3.66-9.84c0-4.01-1.2-7.27-3.59-9.78C432.15-319,429.09-320.25,425.36-320.25z"/>
	<g>
		<path class="st2" d="M391.25-322.92c-1.1-2.49-2.92-4.51-5.44-6.06c-2.52-1.55-5.45-2.32-8.77-2.32c-3.22,0-6.17,0.72-8.88,2.16
			c-2.71,1.42-5,3.51-6.86,6.26c-1.43-2.75-3.33-4.84-5.68-6.26c-2.35-1.43-4.98-2.16-7.92-2.16c-2.89,0-5.57,0.54-8.02,1.64
			c-2.45,1.08-4.67,2.72-6.69,4.93v-5.37h-11.72v46.75h11.72v-20.8c0-4.49,0.4-7.79,1.19-9.88c0.79-2.09,1.98-3.72,3.58-4.88
			c1.59-1.16,3.37-1.74,5.32-1.74c1.76,0,3.24,0.46,4.48,1.38c1.23,0.92,2.16,2.31,2.78,4.18c0.62,1.89,0.93,4.91,0.93,9.09v22.65
			h11.81v-21.1c0-4.47,0.39-7.71,1.16-9.74c0.77-2.01,1.95-3.6,3.54-4.74c1.59-1.15,3.4-1.73,5.4-1.73c2.63,0,4.61,0.94,5.93,2.81
			c1.14,1.64,1.79,4.55,1.95,8.74v0.12c0.01,0.62,0.03,1.25,0.03,1.91v30.8h0.09v14.16l-0.12-0.12c-2.05-2.07-4.3-3.62-6.71-4.65
			c-2.45-1.06-5.09-1.59-7.89-1.59c-6.11,0-11.29,2.3-15.55,6.92c-4.26,4.61-6.39,10.52-6.39,17.74c0,6.96,2.2,12.78,6.61,17.47
			c4.4,4.69,9.63,7.02,15.66,7.02c2.69,0,5.19-0.48,7.49-1.43c2.31-0.97,4.6-2.53,6.9-4.71v4.95h11.72v-55.77h0.01v-34.49
			C392.92-316.37,392.36-320.42,391.25-322.92z M378.06-233.89c-2.43,2.57-5.49,3.85-9.17,3.85c-3.58,0-6.57-1.3-9.01-3.91
			c-2.44-2.61-3.67-5.93-3.67-9.97c0-4.02,1.2-7.3,3.6-9.86c2.39-2.56,5.41-3.85,9.04-3.85c3.71,0,6.78,1.27,9.21,3.78
			c2.43,2.53,3.64,5.82,3.64,9.89C381.7-239.81,380.49-236.44,378.06-233.89z"/>
		<path class="st2" d="M449.92-240.48h-37.69c0.54,3.32,2,5.97,4.36,7.93c2.36,1.96,5.38,2.94,9.05,2.94c4.38,0,8.15-1.53,11.3-4.6
			l9.88,4.64c-2.46,3.5-5.41,6.08-8.85,7.76c-3.44,1.68-7.52,2.51-12.25,2.51c-7.33,0-13.31-2.31-17.92-6.94
			c-4.61-4.63-6.92-10.42-6.92-17.38c0-7.13,2.3-13.06,6.9-17.77c4.6-4.71,10.36-7.07,17.3-7.07c7.36,0,13.35,2.36,17.96,7.07
			c4.61,4.71,6.92,10.94,6.92,18.67L449.92-240.48z M438.19-249.72c-0.77-2.61-2.3-4.73-4.58-6.36c-2.28-1.63-4.93-2.45-7.94-2.45
			c-3.27,0-6.14,0.92-8.61,2.75c-1.55,1.15-2.98,3.17-4.3,6.06H438.19z"/>
		<path class="st2" d="M457.93-267.25h10.06v5.89c1.09-2.32,2.54-4.08,4.34-5.29c1.8-1.2,3.78-1.8,5.93-1.8
			c1.52,0,3.11,0.4,4.77,1.2l-3.65,10.1c-1.37-0.69-2.51-1.03-3.39-1.03c-1.8,0-3.33,1.12-4.58,3.35
			c-1.25,2.23-1.87,6.62-1.87,13.15l0.04,2.28v18.91h-11.65V-267.25z"/>
	</g>
	<path class="st2" d="M381.18-276.26v14.16l-0.12-0.12v-46.75c0.01,0.62,0.03,1.25,0.03,1.91v30.8H381.18z"/>
</g>
<line class="st6" x1="2618.87" y1="-2374.3" x2="2618.87" y2="-2256.3"/>
<g>
	<path class="st2" d="M2382.23-2328.56h9.09v4.16c1.55-1.71,3.28-2.98,5.18-3.83c1.9-0.84,3.97-1.26,6.21-1.26
		c2.26,0,4.31,0.55,6.13,1.66c1.82,1.11,3.29,2.73,4.4,4.86c1.44-2.13,3.21-3.75,5.31-4.86s4.39-1.66,6.88-1.66
		c2.58,0,4.84,0.6,6.79,1.8c1.95,1.2,3.36,2.76,4.21,4.69c0.85,1.93,1.28,5.07,1.28,9.42v21.23h-9.15v-18.37
		c0-4.1-0.51-6.88-1.53-8.34c-1.02-1.45-2.55-2.18-4.59-2.18c-1.55,0-2.95,0.44-4.18,1.33c-1.23,0.89-2.15,2.11-2.75,3.68
		c-0.6,1.56-0.9,4.08-0.9,7.54v16.34h-9.15v-17.54c0-3.24-0.24-5.59-0.72-7.04c-0.48-1.45-1.2-2.53-2.15-3.24
		c-0.96-0.71-2.11-1.06-3.47-1.06c-1.51,0-2.89,0.45-4.12,1.35s-2.16,2.16-2.77,3.78c-0.61,1.62-0.92,4.17-0.92,7.65v16.11h-9.09
		V-2328.56z"/>
	<path class="st2" d="M2462.69-2329.49c3.42,0,6.63,0.85,9.63,2.56c3.01,1.71,5.35,4.03,7.04,6.96c1.69,2.93,2.53,6.09,2.53,9.48
		c0,3.42-0.85,6.61-2.55,9.58c-1.7,2.97-4.01,5.3-6.94,6.97c-2.93,1.67-6.16,2.51-9.69,2.51c-5.19,0-9.62-1.85-13.3-5.54
		c-3.67-3.69-5.51-8.18-5.51-13.46c0-5.66,2.07-10.37,6.22-14.14C2453.78-2327.85,2457.96-2329.49,2462.69-2329.49z
		 M2462.84-2320.94c-2.82,0-5.17,0.98-7.05,2.95c-1.88,1.96-2.82,4.48-2.82,7.54c0,3.15,0.93,5.7,2.78,7.65
		c1.86,1.95,4.21,2.93,7.05,2.93c2.84,0,5.21-0.99,7.1-2.96c1.89-1.97,2.83-4.51,2.83-7.62c0-3.11-0.93-5.63-2.78-7.57
		C2468.1-2319.97,2465.73-2320.94,2462.84-2320.94z"/>
	<path class="st2" d="M2515.36-2342.54h9.09v50.19h-9.09v-3.83c-1.77,1.69-3.55,2.9-5.34,3.64c-1.78,0.74-3.72,1.11-5.8,1.11
		c-4.68,0-8.72-1.81-12.13-5.44c-3.41-3.63-5.12-8.14-5.12-13.53c0-5.59,1.65-10.17,4.95-13.74c3.3-3.57,7.31-5.36,12.03-5.36
		c2.17,0,4.21,0.41,6.12,1.23c1.91,0.82,3.67,2.05,5.29,3.69V-2342.54z M2505.8-2321.11c-2.81,0-5.14,0.99-7,2.98
		c-1.86,1.99-2.79,4.53-2.79,7.64c0,3.13,0.94,5.7,2.84,7.72c1.89,2.02,4.22,3.03,6.98,3.03c2.85,0,5.22-0.99,7.1-2.98
		c1.88-1.99,2.82-4.59,2.82-7.8c0-3.15-0.94-5.7-2.82-7.65C2511.06-2320.13,2508.68-2321.11,2505.8-2321.11z"/>
	<path class="st2" d="M2569.22-2307.83h-29.19c0.42,2.57,1.55,4.62,3.38,6.14c1.83,1.52,4.17,2.28,7.01,2.28
		c3.39,0,6.31-1.19,8.75-3.56l7.65,3.59c-1.91,2.71-4.19,4.71-6.86,6.01c-2.66,1.3-5.82,1.95-9.48,1.95
		c-5.68,0-10.31-1.79-13.88-5.37c-3.57-3.58-5.36-8.07-5.36-13.46c0-5.52,1.78-10.11,5.34-13.76c3.56-3.65,8.03-5.47,13.4-5.47
		c5.7,0,10.34,1.83,13.91,5.47c3.57,3.65,5.36,8.47,5.36,14.46L2569.22-2307.83z M2560.13-2314.98c-0.6-2.02-1.78-3.66-3.55-4.93
		s-3.82-1.9-6.15-1.9c-2.53,0-4.76,0.71-6.67,2.13c-1.2,0.89-2.31,2.45-3.33,4.69H2560.13z"/>
	<path class="st2" d="M2573.76-2328.56h7.79v4.56c0.84-1.8,1.96-3.16,3.36-4.09c1.4-0.93,2.93-1.4,4.59-1.4
		c1.18,0,2.41,0.31,3.69,0.93l-2.83,7.82c-1.06-0.53-1.94-0.8-2.63-0.8c-1.4,0-2.58,0.87-3.54,2.6c-0.97,1.73-1.45,5.13-1.45,10.18
		l0.03,1.76v14.64h-9.02V-2328.56z"/>
</g>
<g>
	<path d="M2653.47-2342.84h3.15v4.22c1.09-1.56,2.22-2.7,3.37-3.41c1.59-0.96,3.26-1.44,5.02-1.44c1.18,0,2.31,0.23,3.37,0.7
		c1.06,0.46,1.93,1.08,2.61,1.85c0.68,0.77,1.26,1.88,1.75,3.31c1.05-1.92,2.35-3.37,3.92-4.37c1.57-1,3.26-1.49,5.06-1.49
		c1.69,0,3.18,0.43,4.47,1.28c1.29,0.85,2.25,2.04,2.88,3.57c0.63,1.53,0.94,3.82,0.94,6.87v13.34h-3.21v-13.34
		c0-2.62-0.19-4.42-0.56-5.4c-0.37-0.98-1.01-1.77-1.92-2.37c-0.9-0.6-1.98-0.9-3.23-0.9c-1.52,0-2.91,0.45-4.18,1.35
		c-1.26,0.9-2.18,2.1-2.76,3.59c-0.58,1.5-0.87,4-0.87,7.5v9.57h-3.15v-12.51c0-2.95-0.18-4.95-0.55-6.01
		c-0.37-1.06-1.01-1.9-1.92-2.54c-0.91-0.64-2-0.95-3.26-0.95c-1.45,0-2.81,0.44-4.08,1.31c-1.27,0.88-2.2,2.06-2.81,3.54
		c-0.61,1.48-0.91,3.75-0.91,6.81v10.36h-3.15V-2342.84z"/>
	<path d="M2716.77-2326.51l2.65,1.39c-0.87,1.71-1.87,3.09-3.01,4.13c-1.14,1.05-2.42,1.85-3.85,2.39
		c-1.42,0.55-3.04,0.82-4.83,0.82c-3.99,0-7.11-1.31-9.35-3.92c-2.25-2.61-3.37-5.57-3.37-8.86c0-3.1,0.95-5.86,2.86-8.29
		c2.41-3.09,5.64-4.63,9.69-4.63c4.17,0,7.5,1.58,9.98,4.74c1.77,2.23,2.67,5.02,2.7,8.36h-21.99c0.06,2.84,0.97,5.17,2.72,6.98
		c1.75,1.82,3.92,2.72,6.5,2.72c1.24,0,2.46-0.22,3.63-0.65c1.18-0.43,2.18-1.01,3-1.72
		C2714.92-2323.76,2715.81-2324.91,2716.77-2326.51z M2716.77-2333.09c-0.42-1.68-1.03-3.02-1.83-4.02c-0.8-1-1.86-1.81-3.18-2.43
		c-1.32-0.61-2.71-0.92-4.16-0.92c-2.4,0-4.46,0.77-6.19,2.31c-1.26,1.12-2.21,2.81-2.86,5.05H2716.77z"/>
	<path d="M2750.03-2352.28v33.88h-3.1v-4.2c-1.32,1.6-2.8,2.81-4.44,3.62c-1.64,0.81-3.43,1.21-5.38,1.21
		c-3.46,0-6.41-1.25-8.86-3.76c-2.45-2.51-3.67-5.56-3.67-9.15c0-3.52,1.24-6.53,3.71-9.03c2.47-2.5,5.44-3.75,8.92-3.75
		c2.01,0,3.82,0.43,5.45,1.28c1.63,0.85,3.05,2.13,4.28,3.84v-13.93H2750.03z M2737.46-2340.44c-1.75,0-3.37,0.43-4.85,1.29
		c-1.48,0.86-2.66,2.07-3.54,3.62c-0.87,1.56-1.31,3.2-1.31,4.94c0,1.72,0.44,3.37,1.32,4.94c0.88,1.57,2.07,2.79,3.56,3.67
		c1.49,0.88,3.09,1.31,4.79,1.31c1.72,0,3.35-0.43,4.89-1.3c1.54-0.87,2.73-2.04,3.56-3.52c0.83-1.48,1.25-3.15,1.25-5
		c0-2.83-0.93-5.19-2.79-7.09S2740.19-2340.44,2737.46-2340.44z"/>
	<path d="M2757.78-2352.9c0.72,0,1.33,0.25,1.83,0.76c0.51,0.51,0.76,1.12,0.76,1.84c0,0.7-0.25,1.31-0.76,1.82
		c-0.51,0.51-1.12,0.76-1.83,0.76c-0.7,0-1.3-0.25-1.81-0.76c-0.51-0.51-0.76-1.12-0.76-1.82c0-0.72,0.25-1.33,0.76-1.84
		C2756.48-2352.65,2757.08-2352.9,2757.78-2352.9z M2756.22-2342.84h3.15v24.44h-3.15V-2342.84z"/>
	<path d="M2789.8-2342.84v24.44h-3.1v-4.2c-1.32,1.6-2.8,2.81-4.44,3.62c-1.64,0.81-3.43,1.21-5.38,1.21
		c-3.46,0-6.41-1.25-8.86-3.76c-2.45-2.51-3.67-5.56-3.67-9.15c0-3.52,1.24-6.53,3.71-9.03c2.47-2.5,5.44-3.75,8.92-3.75
		c2.01,0,3.82,0.43,5.45,1.28c1.63,0.85,3.05,2.13,4.28,3.84v-4.49H2789.8z M2777.23-2340.44c-1.75,0-3.37,0.43-4.85,1.29
		c-1.48,0.86-2.66,2.07-3.53,3.62c-0.88,1.56-1.31,3.2-1.31,4.94c0,1.72,0.44,3.37,1.32,4.94c0.88,1.57,2.07,2.79,3.56,3.67
		c1.49,0.88,3.09,1.31,4.79,1.31c1.72,0,3.35-0.43,4.89-1.3c1.54-0.87,2.73-2.04,3.56-3.52c0.83-1.48,1.25-3.15,1.25-5
		c0-2.83-0.93-5.19-2.79-7.09S2779.95-2340.44,2777.23-2340.44z"/>
	<path d="M2677.85-2307.73v24.44h-3.1v-4.2c-1.32,1.6-2.8,2.81-4.44,3.62c-1.64,0.81-3.43,1.21-5.38,1.21
		c-3.46,0-6.41-1.25-8.86-3.76c-2.45-2.51-3.67-5.56-3.67-9.15c0-3.52,1.24-6.53,3.71-9.03c2.47-2.5,5.44-3.75,8.92-3.75
		c2.01,0,3.82,0.43,5.45,1.28c1.63,0.85,3.05,2.13,4.28,3.84v-4.49H2677.85z M2665.28-2305.32c-1.75,0-3.37,0.43-4.85,1.29
		c-1.48,0.86-2.66,2.07-3.53,3.62c-0.88,1.56-1.31,3.2-1.31,4.94c0,1.72,0.44,3.37,1.32,4.94c0.88,1.57,2.07,2.79,3.56,3.67
		c1.49,0.88,3.09,1.31,4.79,1.31c1.72,0,3.35-0.43,4.89-1.3c1.54-0.87,2.73-2.04,3.56-3.52c0.83-1.48,1.25-3.15,1.25-5
		c0-2.83-0.93-5.19-2.79-7.09C2670.29-2304.37,2668-2305.32,2665.28-2305.32z"/>
	<path d="M2705.54-2307.73h3.14v19.48c0,3.43-0.3,5.94-0.9,7.53c-0.82,2.25-2.25,3.98-4.29,5.19c-2.04,1.21-4.49,1.82-7.35,1.82
		c-2.1,0-3.98-0.3-5.65-0.89c-1.67-0.59-3.03-1.39-4.08-2.39c-1.05-1-2.01-2.46-2.9-4.38h3.41c0.93,1.62,2.13,2.82,3.6,3.59
		c1.47,0.78,3.29,1.17,5.47,1.17c2.14,0,3.95-0.4,5.43-1.2c1.48-0.8,2.53-1.8,3.16-3.01c0.63-1.21,0.94-3.16,0.94-5.86v-1.26
		c-1.18,1.5-2.63,2.65-4.34,3.45c-1.71,0.8-3.52,1.2-5.44,1.2c-2.25,0-4.36-0.56-6.34-1.67c-1.98-1.12-3.51-2.62-4.59-4.5
		c-1.08-1.89-1.62-3.96-1.62-6.22c0-2.26,0.56-4.37,1.69-6.32c1.12-1.95,2.68-3.5,4.67-4.64c1.99-1.14,4.08-1.71,6.29-1.71
		c1.83,0,3.54,0.38,5.12,1.13c1.58,0.76,3.11,2,4.58,3.74V-2307.73z M2696.26-2305.32c-1.78,0-3.44,0.43-4.97,1.29
		c-1.53,0.86-2.73,2.05-3.6,3.57c-0.87,1.52-1.3,3.16-1.3,4.93c0,2.68,0.9,4.9,2.7,6.65c1.8,1.75,4.13,2.63,6.99,2.63
		c2.89,0,5.22-0.87,6.98-2.61c1.76-1.74,2.64-4.02,2.64-6.85c0-1.84-0.4-3.49-1.21-4.93c-0.81-1.45-1.95-2.59-3.44-3.43
		C2699.56-2304.9,2697.97-2305.32,2696.26-2305.32z"/>
	<path d="M2735.54-2291.39l2.65,1.39c-0.87,1.71-1.87,3.09-3.01,4.13c-1.14,1.05-2.42,1.85-3.84,2.39
		c-1.42,0.55-3.04,0.82-4.84,0.82c-3.99,0-7.1-1.31-9.35-3.92c-2.25-2.61-3.37-5.57-3.37-8.86c0-3.1,0.95-5.86,2.85-8.29
		c2.41-3.09,5.64-4.63,9.69-4.63c4.17,0,7.5,1.58,9.98,4.74c1.77,2.23,2.67,5.02,2.7,8.36h-21.99c0.06,2.84,0.97,5.17,2.72,6.98
		c1.75,1.82,3.92,2.72,6.5,2.72c1.24,0,2.46-0.22,3.63-0.65c1.18-0.43,2.18-1.01,3-1.72
		C2733.69-2288.64,2734.58-2289.8,2735.54-2291.39z M2735.54-2297.98c-0.42-1.68-1.03-3.02-1.83-4.02c-0.8-1-1.86-1.81-3.18-2.43
		c-1.32-0.61-2.71-0.92-4.16-0.92c-2.4,0-4.46,0.77-6.19,2.31c-1.26,1.12-2.21,2.81-2.86,5.05H2735.54z"/>
	<path d="M2744.4-2307.73h3.15v4.38c1.26-1.68,2.65-2.93,4.18-3.76c1.53-0.83,3.19-1.25,4.99-1.25c1.83,0,3.45,0.46,4.86,1.39
		c1.42,0.93,2.46,2.18,3.13,3.75c0.67,1.57,1.01,4.02,1.01,7.35v12.58h-3.15v-11.66c0-2.82-0.12-4.7-0.35-5.64
		c-0.36-1.62-1.06-2.83-2.1-3.65c-1.03-0.82-2.38-1.22-4.04-1.22c-1.9,0-3.61,0.63-5.11,1.89c-1.51,1.26-2.5,2.82-2.98,4.67
		c-0.3,1.21-0.45,3.43-0.45,6.65v8.96h-3.15V-2307.73z"/>
	<path d="M2795.73-2302.65l-2.49,1.55c-2.15-2.86-5.09-4.29-8.82-4.29c-2.98,0-5.45,0.96-7.42,2.87c-1.97,1.91-2.95,4.24-2.95,6.98
		c0,1.78,0.45,3.46,1.36,5.03c0.91,1.57,2.15,2.79,3.73,3.66c1.58,0.87,3.35,1.3,5.31,1.3c3.59,0,6.52-1.43,8.8-4.29l2.49,1.64
		c-1.17,1.76-2.74,3.12-4.71,4.09c-1.97,0.97-4.21,1.45-6.73,1.45c-3.86,0-7.07-1.23-9.61-3.68c-2.55-2.46-3.82-5.44-3.82-8.96
		c0-2.37,0.6-4.56,1.79-6.59c1.19-2.03,2.83-3.61,4.91-4.75c2.08-1.14,4.41-1.71,6.99-1.71c1.62,0,3.18,0.25,4.68,0.74
		c1.5,0.49,2.78,1.14,3.83,1.93C2794.1-2304.89,2794.99-2303.88,2795.73-2302.65z"/>
	<path d="M2798.68-2307.73h3.32l8.4,18.82l8.16-18.82h3.35l-14.58,33.38h-3.32l4.71-10.79L2798.68-2307.73z"/>
</g>
<g>
	<path class="st2" d="M2196.98-2261.63c3.34,0,6.48,0.84,9.42,2.51c2.94,1.67,5.24,3.94,6.89,6.8c1.65,2.86,2.47,5.96,2.47,9.28
		c0,3.34-0.83,6.47-2.49,9.38c-1.66,2.91-3.92,5.18-6.79,6.82c-2.87,1.64-6.02,2.46-9.47,2.46c-5.08,0-9.41-1.81-13.01-5.42
		c-3.59-3.61-5.39-8-5.39-13.17c0-5.53,2.03-10.15,6.09-13.84C2188.26-2260.02,2192.35-2261.63,2196.98-2261.63z M2197.12-2253.26
		c-2.76,0-5.06,0.96-6.9,2.88c-1.84,1.92-2.76,4.38-2.76,7.37c0,3.08,0.91,5.58,2.72,7.49c1.81,1.91,4.11,2.86,6.9,2.86
		c2.78,0,5.1-0.97,6.95-2.9c1.85-1.93,2.77-4.42,2.77-7.45c0-3.04-0.91-5.51-2.72-7.41
		C2202.27-2252.31,2199.95-2253.26,2197.12-2253.26z"/>
	<g>
		<path class="st2" d="M2171.29-2255.28c-0.83-1.89-2.21-3.41-4.12-4.59c-1.91-1.17-4.13-1.76-6.64-1.76
			c-2.44,0-4.68,0.55-6.73,1.63c-2.05,1.08-3.79,2.66-5.19,4.74c-1.09-2.08-2.52-3.67-4.3-4.74c-1.78-1.09-3.78-1.63-6-1.63
			c-2.19,0-4.22,0.41-6.07,1.24c-1.86,0.82-3.54,2.06-5.07,3.74v-4.07h-8.88v35.42h8.88v-15.76c0-3.4,0.3-5.9,0.9-7.48
			c0.6-1.58,1.5-2.82,2.71-3.7c1.2-0.88,2.55-1.32,4.03-1.32c1.33,0,2.46,0.35,3.39,1.05c0.93,0.69,1.63,1.75,2.1,3.17
			c0.47,1.43,0.7,3.72,0.7,6.89v17.16h8.95v-15.98c0-3.38,0.29-5.84,0.88-7.38c0.59-1.53,1.48-2.73,2.68-3.59
			c1.2-0.87,2.57-1.31,4.09-1.31c2,0,3.49,0.71,4.49,2.13c0.86,1.24,1.36,3.44,1.48,6.62v0.09c0.01,0.47,0.02,0.95,0.02,1.45v23.33
			h0.07v10.73l-0.09-0.09c-1.56-1.56-3.26-2.74-5.09-3.52c-1.86-0.8-3.85-1.2-5.98-1.2c-4.63,0-8.55,1.74-11.78,5.24
			c-3.23,3.49-4.84,7.97-4.84,13.44c0,5.27,1.66,9.68,5.01,13.23c3.34,3.55,7.3,5.32,11.87,5.32c2.03,0,3.93-0.36,5.67-1.09
			c1.75-0.73,3.48-1.92,5.22-3.57v3.75h8.88v-42.25h0.01v-26.13C2172.55-2250.32,2172.13-2253.39,2171.29-2255.28z M2161.29-2187.83
			c-1.84,1.95-4.16,2.92-6.95,2.92c-2.71,0-4.98-0.99-6.83-2.96c-1.85-1.98-2.78-4.49-2.78-7.55c0-3.04,0.91-5.53,2.73-7.47
			c1.81-1.94,4.1-2.92,6.85-2.92c2.81,0,5.14,0.96,6.97,2.87c1.84,1.92,2.76,4.41,2.76,7.49
			C2164.05-2192.32,2163.13-2189.77,2161.29-2187.83z"/>
		<path class="st2" d="M2215.73-2192.83h-28.55c0.41,2.52,1.51,4.52,3.3,6.01c1.79,1.49,4.07,2.23,6.85,2.23
			c3.32,0,6.17-1.16,8.56-3.48l7.49,3.52c-1.87,2.65-4.1,4.61-6.71,5.88c-2.6,1.27-5.7,1.9-9.28,1.9c-5.56,0-10.08-1.75-13.58-5.26
			c-3.49-3.5-5.24-7.89-5.24-13.17c0-5.4,1.74-9.89,5.22-13.46c3.48-3.57,7.85-5.36,13.1-5.36c5.58,0,10.11,1.79,13.61,5.36
			c3.49,3.57,5.24,8.28,5.24,14.15L2215.73-2192.83z M2206.84-2199.83c-0.59-1.97-1.74-3.58-3.47-4.82s-3.73-1.86-6.02-1.86
			c-2.48,0-4.65,0.69-6.52,2.08c-1.17,0.87-2.26,2.4-3.26,4.59H2206.84z"/>
		<path class="st2" d="M2221.8-2213.11h7.62v4.46c0.82-1.76,1.92-3.09,3.29-4c1.37-0.91,2.86-1.37,4.49-1.37
			c1.15,0,2.35,0.3,3.61,0.91l-2.77,7.65c-1.04-0.52-1.9-0.78-2.57-0.78c-1.37,0-2.52,0.85-3.47,2.54
			c-0.94,1.69-1.42,5.01-1.42,9.96l0.03,1.73v14.32h-8.82V-2213.11z"/>
	</g>
	<path class="st2" d="M2163.66-2219.94v10.73l-0.09-0.09v-35.42c0.01,0.47,0.02,0.95,0.02,1.45v23.33H2163.66z"/>
</g>
<g>
	<path class="st2" d="M926.81-2990.02c25.79,0,50.03,6.45,72.72,19.34c22.69,12.9,40.4,30.4,53.13,52.5
		c12.72,22.11,19.09,45.97,19.09,71.59c0,25.79-6.4,49.91-19.21,72.35c-12.81,22.44-30.27,39.99-52.37,52.63
		c-22.11,12.64-46.48,18.97-73.11,18.97c-39.19,0-72.64-13.94-100.35-41.82c-27.72-27.88-41.57-61.75-41.57-101.61
		c0-42.71,15.66-78.29,46.97-106.76C859.57-2977.63,891.14-2990.02,926.81-2990.02z M927.94-2925.46c-21.3,0-39.04,7.41-53.22,22.23
		c-14.18,14.82-21.26,33.79-21.26,56.9c0,23.78,7,43.04,21.01,57.78c14.01,14.74,31.75,22.11,53.22,22.11
		c21.47,0,39.34-7.45,53.59-22.36c14.26-14.9,21.39-34.07,21.39-57.52c0-23.44-7-42.49-21.01-57.15
		C967.65-2918.14,949.74-2925.46,927.94-2925.46z"/>
	<g>
		<path class="st2" d="M728.57-2941.04c-6.42-14.57-17.06-26.34-31.78-35.4c-14.72-9.06-31.85-13.59-51.25-13.59
			c-18.79,0-36.08,4.23-51.93,12.6c-15.85,8.3-29.21,20.53-40.08,36.61c-8.38-16.08-19.47-28.31-33.21-36.61
			c-13.74-8.38-29.14-12.6-46.27-12.6c-16.91,0-32.53,3.17-46.87,9.59c-14.34,6.34-27.32,15.93-39.1,28.83v-31.4h-68.54v273.32
			h68.54v-121.6c0-26.27,2.34-45.52,6.94-57.74c4.6-12.23,11.55-21.74,20.91-28.53c9.28-6.79,19.7-10.19,31.1-10.19
			c10.27,0,18.95,2.72,26.19,8.08c7.17,5.36,12.61,13.51,16.23,24.46c3.62,11.02,5.43,28.68,5.43,53.14v132.39h69.06v-123.34
			c0-26.12,2.26-45.06,6.79-56.91c4.53-11.77,11.4-21.06,20.68-27.7c9.28-6.72,19.85-10.11,31.55-10.11
			c15.4,0,26.95,5.51,34.65,16.45c6.64,9.59,10.49,26.57,11.4,51.1v0.68c0.08,3.62,0.15,7.32,0.15,11.17v180.02h0.53v82.8
			l-0.68-0.68c-12-12.08-25.13-21.13-39.25-27.17c-14.34-6.19-29.74-9.28-46.12-9.28c-35.7,0-65.97,13.44-90.88,40.46
			c-24.91,26.95-37.36,61.52-37.36,103.71c0,40.68,12.83,74.73,38.65,102.13c25.74,27.4,56.31,41.06,91.56,41.06
			c15.7,0,30.34-2.79,43.78-8.38c13.51-5.66,26.87-14.79,40.31-27.55v28.91h68.54v-326h0.08v-201.61
			C738.31-2902.77,735.06-2926.47,728.57-2941.04z M651.43-2420.6c-14.19,15.02-32.08,22.49-53.59,22.49
			c-20.91,0-38.42-7.62-52.69-22.87c-14.27-15.25-21.44-34.65-21.44-58.27c0-23.47,7.02-42.65,21.06-57.67
			c13.96-14.95,31.63-22.49,52.84-22.49c21.66,0,39.63,7.4,53.82,22.12c14.19,14.79,21.29,34.04,21.29,57.82
			C672.71-2455.25,665.62-2435.55,651.43-2420.6z"/>
		<path class="st2" d="M1071.5-2459.15h-220.3c3.18,19.43,11.68,34.88,25.5,46.35c13.81,11.47,31.44,17.2,52.88,17.2
			c25.62,0,47.64-8.95,66.07-26.88l57.78,27.13c-14.4,20.44-31.65,35.55-51.75,45.34c-20.09,9.79-43.96,14.69-71.59,14.69
			c-42.88,0-77.79-13.52-104.75-40.57c-26.97-27.04-40.44-60.92-40.44-101.61c0-41.7,13.44-76.32,40.32-103.87
			c26.88-27.55,60.58-41.32,101.11-41.32c43.04,0,78.04,13.78,105,41.32c26.96,27.55,40.44,63.93,40.44,109.15L1071.5-2459.15z
			 M1002.92-2513.16c-4.53-15.24-13.46-27.63-26.8-37.18c-13.34-9.54-28.81-14.32-46.43-14.32c-19.12,0-35.9,5.36-50.32,16.08
			c-9.06,6.7-17.45,18.51-25.16,35.42H1002.92z"/>
		<path class="st2" d="M1118.32-2615.65h58.78v34.42c6.36-13.57,14.82-23.86,25.37-30.9c10.55-7.03,22.1-10.55,34.66-10.55
			c8.88,0,18.17,2.35,27.88,7.03l-21.35,59.03c-8.04-4.02-14.66-6.03-19.85-6.03c-10.55,0-19.47,6.53-26.75,19.59
			c-7.28,13.06-10.93,38.68-10.93,76.87l0.25,13.31v110.53h-68.07V-2615.65z"/>
	</g>
	<path class="st2" d="M669.7-2668.33v82.8l-0.68-0.68v-273.31c0.08,3.62,0.15,7.32,0.15,11.17v180.02H669.7z"/>
</g>
<g>
	<path class="st7" d="M1857.18-2124.88c0.49,0,0.96,0.12,1.39,0.37c0.43,0.25,0.77,0.58,1.01,1c0.24,0.42,0.36,0.88,0.36,1.37
		c0,0.49-0.12,0.95-0.37,1.38c-0.24,0.43-0.58,0.76-1,1s-0.89,0.36-1.4,0.36c-0.75,0-1.39-0.27-1.92-0.8
		c-0.53-0.53-0.79-1.18-0.79-1.94c0-0.82,0.3-1.49,0.9-2.04C1855.9-2124.64,1856.5-2124.88,1857.18-2124.88z M1857.2-2123.65
		c-0.41,0-0.75,0.14-1.02,0.42c-0.27,0.28-0.41,0.65-0.41,1.09c0,0.45,0.13,0.82,0.4,1.1c0.27,0.28,0.61,0.42,1.02,0.42
		c0.41,0,0.75-0.14,1.02-0.43s0.41-0.65,0.41-1.1c0-0.45-0.13-0.81-0.4-1.09C1857.96-2123.51,1857.62-2123.65,1857.2-2123.65z"/>
	<g>
		<path class="st7" d="M1853.4-2123.94c-0.12-0.28-0.33-0.5-0.61-0.68s-0.61-0.26-0.98-0.26c-0.36,0-0.69,0.08-0.99,0.24
			c-0.3,0.16-0.56,0.39-0.77,0.7c-0.16-0.31-0.37-0.54-0.63-0.7c-0.26-0.16-0.56-0.24-0.88-0.24c-0.32,0-0.62,0.06-0.89,0.18
			c-0.27,0.12-0.52,0.3-0.75,0.55v-0.6h-1.31v5.22h1.31v-2.32c0-0.5,0.04-0.87,0.13-1.1s0.22-0.42,0.4-0.54
			c0.18-0.13,0.38-0.19,0.59-0.19c0.2,0,0.36,0.05,0.5,0.15c0.14,0.1,0.24,0.26,0.31,0.47c0.07,0.21,0.1,0.55,0.1,1.01v2.53h1.32
			v-2.35c0-0.5,0.04-0.86,0.13-1.09c0.09-0.22,0.22-0.4,0.39-0.53c0.18-0.13,0.38-0.19,0.6-0.19c0.29,0,0.51,0.11,0.66,0.31
			c0.13,0.18,0.2,0.51,0.22,0.98v0.01c0,0.07,0,0.14,0,0.21v3.44h0.01v1.58l-0.01-0.01c-0.23-0.23-0.48-0.4-0.75-0.52
			c-0.27-0.12-0.57-0.18-0.88-0.18c-0.68,0-1.26,0.26-1.73,0.77c-0.48,0.51-0.71,1.17-0.71,1.98c0,0.78,0.24,1.43,0.74,1.95
			c0.49,0.52,1.08,0.78,1.75,0.78c0.3,0,0.58-0.05,0.84-0.16c0.26-0.11,0.51-0.28,0.77-0.53v0.55h1.31v-6.22h0v-3.85
			C1853.58-2123.21,1853.52-2123.67,1853.4-2123.94z M1851.92-2114.01c-0.27,0.29-0.61,0.43-1.02,0.43c-0.4,0-0.73-0.15-1.01-0.44
			c-0.27-0.29-0.41-0.66-0.41-1.11c0-0.45,0.13-0.81,0.4-1.1c0.27-0.29,0.6-0.43,1.01-0.43c0.41,0,0.76,0.14,1.03,0.42
			c0.27,0.28,0.41,0.65,0.41,1.1C1852.33-2114.67,1852.19-2114.29,1851.92-2114.01z"/>
		<path class="st7" d="M1859.94-2114.74h-4.21c0.06,0.37,0.22,0.67,0.49,0.88s0.6,0.33,1.01,0.33c0.49,0,0.91-0.17,1.26-0.51
			l1.1,0.52c-0.27,0.39-0.6,0.68-0.99,0.87s-0.84,0.28-1.37,0.28c-0.82,0-1.49-0.26-2-0.77c-0.51-0.52-0.77-1.16-0.77-1.94
			c0-0.8,0.26-1.46,0.77-1.98c0.51-0.53,1.16-0.79,1.93-0.79c0.82,0,1.49,0.26,2,0.79c0.51,0.53,0.77,1.22,0.77,2.08
			L1859.94-2114.74z M1858.63-2115.77c-0.09-0.29-0.26-0.53-0.51-0.71c-0.25-0.18-0.55-0.27-0.89-0.27c-0.37,0-0.69,0.1-0.96,0.31
			c-0.17,0.13-0.33,0.35-0.48,0.68H1858.63z"/>
		<path class="st7" d="M1860.84-2117.73h1.12v0.66c0.12-0.26,0.28-0.46,0.48-0.59c0.2-0.13,0.42-0.2,0.66-0.2
			c0.17,0,0.35,0.04,0.53,0.13l-0.41,1.13c-0.15-0.08-0.28-0.12-0.38-0.12c-0.2,0-0.37,0.12-0.51,0.37
			c-0.14,0.25-0.21,0.74-0.21,1.47l0,0.25v2.11h-1.3V-2117.73z"/>
	</g>
	<path class="st7" d="M1852.27-2118.74v1.58l-0.01-0.01v-5.22c0,0.07,0,0.14,0,0.21v3.44H1852.27z"/>
</g>
<g>
	<path d="M351.76-1581.21c6.69,0,12.98,1.67,18.87,5.02c5.89,3.35,10.48,7.88,13.78,13.62c3.3,5.73,4.95,11.93,4.95,18.57
		c0,6.69-1.66,12.95-4.98,18.77c-3.32,5.82-7.85,10.37-13.59,13.65c-5.74,3.28-12.06,4.92-18.96,4.92
		c-10.17,0-18.84-3.62-26.03-10.85c-7.19-7.23-10.78-16.02-10.78-26.36c0-11.08,4.06-20.31,12.19-27.7
		C334.32-1578,342.51-1581.21,351.76-1581.21z M352.06-1564.47c-5.53,0-10.13,1.92-13.81,5.77c-3.68,3.84-5.52,8.77-5.52,14.76
		c0,6.17,1.82,11.17,5.45,14.99c3.63,3.82,8.24,5.73,13.81,5.73c5.57,0,10.2-1.93,13.9-5.8c3.7-3.87,5.55-8.84,5.55-14.92
		c0-6.08-1.82-11.02-5.45-14.82C362.36-1562.57,357.71-1564.47,352.06-1564.47z"/>
	<g>
		<path d="M300.34-1568.51c-1.66-3.78-4.43-6.83-8.24-9.18c-3.82-2.35-8.26-3.52-13.3-3.52c-4.88,0-9.36,1.1-13.47,3.27
			c-4.11,2.15-7.58,5.33-10.4,9.5c-2.17-4.17-5.05-7.34-8.62-9.5c-3.56-2.17-7.56-3.27-12-3.27c-4.39,0-8.44,0.82-12.16,2.49
			c-3.72,1.64-7.09,4.13-10.14,7.48v-8.15h-17.78v70.9h17.78v-31.54c0-6.81,0.61-11.81,1.8-14.98c1.19-3.17,3-5.64,5.42-7.4
			c2.41-1.76,5.11-2.64,8.07-2.64c2.66,0,4.91,0.7,6.79,2.1c1.86,1.39,3.27,3.5,4.21,6.34c0.94,2.86,1.41,7.44,1.41,13.78v34.34
			h17.92v-31.99c0-6.77,0.59-11.69,1.76-14.76c1.17-3.05,2.96-5.46,5.37-7.19c2.41-1.74,5.15-2.62,8.18-2.62
			c3.99,0,6.99,1.43,8.99,4.27c1.72,2.49,2.72,6.89,2.96,13.26v0.18c0.02,0.94,0.04,1.9,0.04,2.9v46.7h0.14v21.48l-0.18-0.18
			c-3.11-3.13-6.52-5.48-10.18-7.05c-3.72-1.61-7.71-2.41-11.96-2.41c-9.26,0-17.11,3.49-23.58,10.5
			c-6.46,6.99-9.69,15.96-9.69,26.9c0,10.55,3.33,19.38,10.03,26.49c6.68,7.11,14.61,10.65,23.75,10.65c4.07,0,7.87-0.72,11.36-2.17
			c3.51-1.47,6.97-3.84,10.46-7.15v7.5h17.78v-84.57h0.02v-52.3C302.86-1558.58,302.02-1564.73,300.34-1568.51z M280.33-1433.5
			c-3.68,3.9-8.32,5.83-13.9,5.83c-5.42,0-9.97-1.98-13.67-5.93s-5.56-8.99-5.56-15.12c0-6.09,1.82-11.06,5.46-14.96
			c3.62-3.88,8.2-5.84,13.71-5.84c5.62,0,10.28,1.92,13.96,5.74c3.68,3.84,5.52,8.83,5.52,15
			C285.85-1442.49,284.01-1437.38,280.33-1433.5z"/>
		<path d="M389.3-1443.5h-57.15c0.82,5.04,3.03,9.05,6.61,12.02c3.58,2.98,8.16,4.46,13.72,4.46c6.65,0,12.36-2.32,17.14-6.97
			l14.99,7.04c-3.74,5.3-8.21,9.22-13.42,11.76c-5.21,2.54-11.4,3.81-18.57,3.81c-11.12,0-20.18-3.51-27.17-10.52
			c-7-7.02-10.49-15.8-10.49-26.36c0-10.82,3.49-19.8,10.46-26.95c6.97-7.15,15.72-10.72,26.23-10.72
			c11.16,0,20.24,3.57,27.24,10.72c6.99,7.15,10.49,16.58,10.49,28.31L389.3-1443.5z M371.51-1457.51
			c-1.18-3.95-3.49-7.17-6.95-9.64c-3.46-2.48-7.47-3.71-12.04-3.71c-4.96,0-9.31,1.39-13.05,4.17c-2.35,1.74-4.53,4.8-6.53,9.19
			H371.51z"/>
		<path d="M401.44-1484.1h15.25v8.93c1.65-3.52,3.85-6.19,6.58-8.02c2.74-1.82,5.73-2.74,8.99-2.74c2.3,0,4.71,0.61,7.23,1.82
			l-5.54,15.31c-2.09-1.04-3.8-1.56-5.15-1.56c-2.74,0-5.05,1.69-6.94,5.08c-1.89,3.39-2.83,10.04-2.83,19.94l0.07,3.45v28.67
			h-17.66V-1484.1z"/>
	</g>
	<path d="M285.06-1497.76v21.48l-0.18-0.18v-70.9c0.02,0.94,0.04,1.9,0.04,2.9v46.7H285.06z"/>
</g>
<g>
	<path class="st7" d="M827.18-1581.22c6.69,0,12.98,1.67,18.87,5.02c5.89,3.35,10.48,7.88,13.78,13.62
		c3.3,5.73,4.95,11.93,4.95,18.57c0,6.69-1.66,12.95-4.98,18.77c-3.32,5.82-7.85,10.37-13.59,13.65
		c-5.74,3.28-12.06,4.92-18.96,4.92c-10.17,0-18.84-3.62-26.03-10.85c-7.19-7.23-10.78-16.02-10.78-26.36
		c0-11.08,4.06-20.31,12.19-27.7C809.73-1578,817.92-1581.22,827.18-1581.22z M827.47-1564.47c-5.53,0-10.13,1.92-13.81,5.77
		c-3.68,3.84-5.52,8.77-5.52,14.76c0,6.17,1.82,11.17,5.45,14.99c3.63,3.82,8.24,5.73,13.81,5.73c5.57,0,10.2-1.93,13.9-5.8
		c3.7-3.87,5.55-8.84,5.55-14.92c0-6.08-1.82-11.02-5.45-14.82C837.77-1562.57,833.13-1564.47,827.47-1564.47z"/>
	<g>
		<path class="st7" d="M775.75-1568.51c-1.66-3.78-4.43-6.83-8.24-9.18c-3.82-2.35-8.26-3.52-13.3-3.52c-4.88,0-9.36,1.1-13.47,3.27
			c-4.11,2.15-7.58,5.33-10.4,9.5c-2.17-4.17-5.05-7.34-8.62-9.5c-3.56-2.17-7.56-3.27-12-3.27c-4.39,0-8.44,0.82-12.16,2.49
			c-3.72,1.64-7.09,4.13-10.14,7.48v-8.15h-17.78v70.9h17.78v-31.54c0-6.81,0.61-11.81,1.8-14.98c1.19-3.17,3-5.64,5.42-7.4
			c2.41-1.76,5.11-2.64,8.07-2.64c2.66,0,4.91,0.7,6.79,2.1c1.86,1.39,3.27,3.51,4.21,6.34c0.94,2.86,1.41,7.44,1.41,13.78v34.34
			h17.92v-31.99c0-6.77,0.59-11.69,1.76-14.76c1.17-3.05,2.96-5.46,5.37-7.19c2.41-1.74,5.15-2.62,8.18-2.62
			c3.99,0,6.99,1.43,8.99,4.27c1.72,2.49,2.72,6.89,2.96,13.26v0.18c0.02,0.94,0.04,1.9,0.04,2.9v46.7h0.14v21.48l-0.18-0.18
			c-3.11-3.13-6.52-5.48-10.18-7.05c-3.72-1.61-7.71-2.41-11.96-2.41c-9.26,0-17.11,3.49-23.58,10.5
			c-6.46,6.99-9.69,15.96-9.69,26.9c0,10.55,3.33,19.38,10.03,26.49c6.68,7.11,14.61,10.65,23.75,10.65c4.07,0,7.87-0.72,11.36-2.17
			c3.51-1.47,6.97-3.84,10.46-7.15v7.5h17.78v-84.57h0.02v-52.3C778.28-1558.58,777.44-1564.73,775.75-1568.51z M755.74-1433.5
			c-3.68,3.9-8.32,5.84-13.9,5.84c-5.42,0-9.97-1.98-13.67-5.93c-3.7-3.96-5.56-8.99-5.56-15.12c0-6.09,1.82-11.06,5.46-14.96
			c3.62-3.88,8.2-5.84,13.71-5.84c5.62,0,10.28,1.92,13.96,5.74c3.68,3.84,5.52,8.83,5.52,15
			C761.26-1442.49,759.42-1437.38,755.74-1433.5z"/>
		<path class="st7" d="M864.71-1443.5h-57.15c0.82,5.04,3.03,9.05,6.61,12.02c3.58,2.98,8.16,4.46,13.72,4.46
			c6.65,0,12.36-2.32,17.14-6.97l14.99,7.04c-3.74,5.3-8.21,9.22-13.42,11.76c-5.21,2.54-11.4,3.81-18.57,3.81
			c-11.12,0-20.18-3.51-27.17-10.52c-7-7.02-10.49-15.8-10.49-26.36c0-10.82,3.49-19.8,10.46-26.95
			c6.97-7.15,15.72-10.72,26.23-10.72c11.16,0,20.24,3.57,27.24,10.72c6.99,7.15,10.49,16.58,10.49,28.31L864.71-1443.5z
			 M846.92-1457.51c-1.18-3.95-3.49-7.17-6.95-9.64c-3.46-2.48-7.47-3.71-12.04-3.71c-4.96,0-9.31,1.39-13.05,4.17
			c-2.35,1.74-4.53,4.8-6.53,9.19H846.92z"/>
		<path class="st7" d="M876.86-1484.1h15.25v8.93c1.65-3.52,3.85-6.19,6.58-8.02c2.74-1.82,5.73-2.74,8.99-2.74
			c2.3,0,4.71,0.61,7.23,1.82l-5.54,15.31c-2.09-1.04-3.8-1.56-5.15-1.56c-2.74,0-5.05,1.69-6.94,5.08s-2.83,10.04-2.83,19.94
			l0.07,3.45v28.67h-17.66V-1484.1z"/>
	</g>
	<path class="st7" d="M760.48-1497.76v21.48l-0.18-0.18v-70.9c0.02,0.94,0.04,1.9,0.04,2.9v46.7H760.48z"/>
</g>
<g>
	<path class="st2" d="M1315.48-1583.04c6.69,0,12.98,1.67,18.87,5.02c5.89,3.35,10.48,7.88,13.78,13.62
		c3.3,5.73,4.95,11.93,4.95,18.57c0,6.69-1.66,12.95-4.98,18.77c-3.32,5.82-7.85,10.37-13.59,13.65
		c-5.74,3.28-12.06,4.92-18.96,4.92c-10.17,0-18.84-3.62-26.03-10.85c-7.19-7.23-10.78-16.02-10.78-26.36
		c0-11.08,4.06-20.31,12.19-27.7C1298.03-1579.82,1306.22-1583.04,1315.48-1583.04z M1315.77-1566.29c-5.53,0-10.13,1.92-13.81,5.77
		c-3.68,3.84-5.52,8.77-5.52,14.76c0,6.17,1.82,11.17,5.45,14.99c3.63,3.82,8.24,5.73,13.81,5.73c5.57,0,10.2-1.93,13.9-5.8
		c3.7-3.87,5.55-8.84,5.55-14.92c0-6.08-1.82-11.02-5.45-14.82C1326.07-1564.39,1321.43-1566.29,1315.77-1566.29z"/>
	<g>
		<path class="st2" d="M1264.05-1570.33c-1.66-3.78-4.43-6.83-8.24-9.18c-3.82-2.35-8.26-3.52-13.3-3.52
			c-4.88,0-9.36,1.1-13.47,3.27c-4.11,2.15-7.58,5.33-10.4,9.5c-2.17-4.17-5.05-7.34-8.62-9.5c-3.56-2.17-7.56-3.27-12-3.27
			c-4.39,0-8.44,0.82-12.16,2.49c-3.72,1.64-7.09,4.13-10.14,7.48v-8.15h-17.78v70.9h17.78v-31.54c0-6.81,0.61-11.81,1.8-14.98
			c1.19-3.17,3-5.64,5.42-7.4c2.41-1.76,5.11-2.64,8.07-2.64c2.66,0,4.91,0.7,6.79,2.1c1.86,1.39,3.27,3.5,4.21,6.34
			c0.94,2.86,1.41,7.44,1.41,13.78v34.34h17.92v-31.99c0-6.77,0.59-11.69,1.76-14.76c1.17-3.05,2.96-5.46,5.37-7.19
			c2.41-1.74,5.15-2.62,8.18-2.62c3.99,0,6.99,1.43,8.99,4.27c1.72,2.49,2.72,6.89,2.96,13.26v0.18c0.02,0.94,0.04,1.9,0.04,2.9
			v46.7h0.14v21.48l-0.18-0.18c-3.11-3.13-6.52-5.48-10.18-7.05c-3.72-1.61-7.71-2.41-11.96-2.41c-9.26,0-17.11,3.49-23.58,10.5
			c-6.46,6.99-9.69,15.96-9.69,26.9c0,10.55,3.33,19.38,10.03,26.49c6.68,7.11,14.61,10.65,23.75,10.65c4.07,0,7.87-0.72,11.36-2.17
			c3.51-1.47,6.97-3.84,10.46-7.15v7.5h17.78v-84.57h0.02v-52.3C1266.58-1560.41,1265.74-1566.55,1264.05-1570.33z M1244.04-1435.32
			c-3.68,3.9-8.32,5.83-13.9,5.83c-5.42,0-9.97-1.98-13.67-5.93c-3.7-3.96-5.56-8.99-5.56-15.12c0-6.09,1.82-11.06,5.46-14.96
			c3.62-3.88,8.2-5.84,13.71-5.84c5.62,0,10.28,1.92,13.96,5.74c3.68,3.84,5.52,8.83,5.52,15
			C1249.56-1444.31,1247.72-1439.2,1244.04-1435.32z"/>
		<path class="st2" d="M1353.01-1445.32h-57.15c0.82,5.04,3.03,9.05,6.61,12.02c3.58,2.98,8.16,4.46,13.72,4.46
			c6.65,0,12.36-2.32,17.14-6.97l14.99,7.04c-3.74,5.3-8.21,9.22-13.42,11.76c-5.21,2.54-11.4,3.81-18.57,3.81
			c-11.12,0-20.18-3.51-27.17-10.52c-7-7.02-10.49-15.8-10.49-26.36c0-10.82,3.49-19.8,10.46-26.95
			c6.97-7.15,15.72-10.72,26.23-10.72c11.16,0,20.24,3.57,27.24,10.72c6.99,7.15,10.49,16.58,10.49,28.31L1353.01-1445.32z
			 M1335.22-1459.34c-1.18-3.95-3.49-7.17-6.95-9.64c-3.46-2.48-7.47-3.71-12.04-3.71c-4.96,0-9.31,1.39-13.05,4.17
			c-2.35,1.74-4.53,4.8-6.53,9.19H1335.22z"/>
		<path class="st2" d="M1365.16-1485.92h15.25v8.93c1.65-3.52,3.85-6.19,6.58-8.02c2.74-1.82,5.73-2.74,8.99-2.74
			c2.3,0,4.71,0.61,7.23,1.82l-5.54,15.31c-2.09-1.04-3.8-1.56-5.15-1.56c-2.74,0-5.05,1.69-6.94,5.08
			c-1.89,3.39-2.83,10.04-2.83,19.94l0.07,3.45v28.67h-17.66V-1485.92z"/>
	</g>
	<path class="st2" d="M1248.78-1499.59v21.48l-0.18-0.18v-70.9c0.02,0.94,0.04,1.9,0.04,2.9v46.7H1248.78z"/>
</g>
<g>
	<path class="st7" d="M501.72,5.59c17.23,0,33.43,4.31,48.59,12.92c15.16,8.62,27,20.31,35.5,35.08
		c8.5,14.77,12.75,30.72,12.75,47.84c0,17.23-4.28,33.35-12.84,48.34c-8.56,15-20.23,26.72-34.99,35.17
		c-14.77,8.45-31.06,12.67-48.85,12.67c-26.18,0-48.54-9.32-67.05-27.95c-18.52-18.63-27.78-41.26-27.78-67.89
		c0-28.54,10.46-52.31,31.39-71.34C456.79,13.87,477.88,5.59,501.72,5.59z M502.47,48.72c-14.24,0-26.09,4.95-35.56,14.85
		c-9.47,9.9-14.21,22.58-14.21,38.02c0,15.89,4.68,28.76,14.04,38.61c9.36,9.85,21.21,14.77,35.56,14.77
		c14.35,0,26.28-4.98,35.81-14.94c9.53-9.96,14.29-22.77,14.29-38.44c0-15.66-4.68-28.39-14.04-38.19
		C529.01,53.62,517.04,48.72,502.47,48.72z"/>
	<g>
		<path class="st7" d="M369.26,38.31c-4.29-9.73-11.4-17.6-21.23-23.65c-9.83-6.05-21.28-9.08-34.25-9.08
			c-12.56,0-24.11,2.82-34.7,8.42c-10.59,5.55-19.52,13.72-26.78,24.46c-5.6-10.74-13.01-18.91-22.19-24.46
			c-9.18-5.6-19.47-8.42-30.92-8.42c-11.3,0-21.74,2.12-31.32,6.41c-9.58,4.24-18.26,10.64-26.13,19.27V10.27h-45.8V192.9h45.8
			v-81.25c0-17.55,1.56-30.41,4.64-38.58S154.1,58.54,160.35,54c6.2-4.54,13.16-6.81,20.78-6.81c6.86,0,12.66,1.82,17.5,5.4
			c4.79,3.58,8.42,9.03,10.84,16.34c2.42,7.36,3.63,19.17,3.63,35.51v88.46h46.15v-82.41c0-17.45,1.51-30.11,4.54-38.03
			c3.03-7.87,7.62-14.07,13.82-18.51c6.2-4.49,13.26-6.76,21.08-6.76c10.29,0,18.01,3.68,23.15,10.99
			c4.44,6.41,7.01,17.75,7.62,34.14v0.45c0.05,2.42,0.1,4.89,0.1,7.46v120.29h0.35v55.33l-0.45-0.45
			c-8.02-8.07-16.79-14.12-26.23-18.16c-9.58-4.14-19.87-6.2-30.82-6.2c-23.86,0-44.08,8.98-60.72,27.03
			c-16.64,18.01-24.97,41.1-24.97,69.3c0,27.18,8.57,49.93,25.82,68.24c17.2,18.31,37.62,27.44,61.18,27.44
			c10.49,0,20.28-1.87,29.25-5.6c9.03-3.78,17.95-9.89,26.93-18.41v19.32h45.8V220.54h0.05V85.82
			C375.76,63.88,373.59,48.05,369.26,38.31z M317.71,386.07c-9.48,10.04-21.43,15.03-35.81,15.03c-13.97,0-25.67-5.09-35.2-15.28
			s-14.32-23.15-14.32-38.94c0-15.69,4.69-28.5,14.07-38.53c9.33-9.99,21.13-15.03,35.3-15.03c14.47,0,26.48,4.94,35.96,14.78
			c9.48,9.89,14.22,22.75,14.22,38.63C331.94,362.92,327.19,376.08,317.71,386.07z"/>
		<path class="st7" d="M598.4,360.31h-147.2c2.12,12.98,7.8,23.3,17.04,30.97c9.23,7.66,21.01,11.5,35.33,11.5
			c17.12,0,31.83-5.98,44.14-17.96l38.61,18.13c-9.62,13.65-21.15,23.75-34.58,30.3c-13.43,6.54-29.37,9.82-47.84,9.82
			c-28.65,0-51.98-9.03-69.99-27.11c-18.02-18.07-27.02-40.7-27.02-67.89c0-27.86,8.98-51,26.94-69.41
			c17.96-18.41,40.48-27.61,67.56-27.61c28.76,0,52.14,9.21,70.16,27.61c18.01,18.41,27.02,42.72,27.02,72.93L598.4,360.31z
			 M552.57,324.22c-3.03-10.18-9-18.46-17.91-24.84c-8.91-6.38-19.25-9.57-31.02-9.57c-12.78,0-23.99,3.58-33.62,10.74
			c-6.05,4.48-11.66,12.37-16.81,23.67H552.57z"/>
		<path class="st7" d="M629.68,255.74h39.28v23c4.25-9.06,9.9-15.95,16.95-20.65c7.05-4.7,14.77-7.05,23.16-7.05
			c5.93,0,12.14,1.57,18.63,4.7l-14.27,39.44c-5.37-2.69-9.79-4.03-13.26-4.03c-7.05,0-13.01,4.36-17.88,13.09s-7.3,25.85-7.3,51.36
			l0.17,8.9v73.85h-45.49V255.74z"/>
	</g>
	<path class="st7" d="M329.92,220.54v55.33l-0.45-0.45V92.78c0.05,2.42,0.1,4.89,0.1,7.46v120.29H329.92z"/>
</g>
<g>
	<path class="st2" d="M-74.68,0.04c3.75,0,7.27,0.94,10.57,2.81c3.3,1.87,5.87,4.42,7.72,7.63c1.85,3.21,2.77,6.68,2.77,10.41
		c0,3.75-0.93,7.26-2.79,10.52c-1.86,3.26-4.4,5.81-7.61,7.65c-3.21,1.84-6.76,2.76-10.63,2.76c-5.7,0-10.56-2.03-14.59-6.08
		c-4.03-4.05-6.04-8.98-6.04-14.77c0-6.21,2.28-11.38,6.83-15.52C-84.46,1.84-79.87,0.04-74.68,0.04z M-74.52,9.42
		c-3.1,0-5.68,1.08-7.74,3.23c-2.06,2.15-3.09,4.91-3.09,8.27c0,3.46,1.02,6.26,3.05,8.4c2.04,2.14,4.62,3.21,7.74,3.21
		c3.12,0,5.72-1.08,7.79-3.25c2.07-2.17,3.11-4.95,3.11-8.36c0-3.41-1.02-6.18-3.05-8.31C-68.75,10.49-71.35,9.42-74.52,9.42z"/>
	<g>
		<path class="st2" d="M-103.5,7.16c-0.93-2.12-2.48-3.83-4.62-5.15c-2.14-1.32-4.63-1.98-7.45-1.98c-2.73,0-5.25,0.61-7.55,1.83
			c-2.3,1.21-4.25,2.98-5.83,5.32c-1.22-2.34-2.83-4.11-4.83-5.32c-2-1.22-4.24-1.83-6.73-1.83c-2.46,0-4.73,0.46-6.81,1.39
			c-2.08,0.92-3.97,2.32-5.68,4.19V1.06h-9.96v39.73h9.96V23.11c0-3.82,0.34-6.62,1.01-8.39s1.68-3.16,3.04-4.15
			c1.35-0.99,2.86-1.48,4.52-1.48c1.49,0,2.75,0.4,3.81,1.17c1.04,0.78,1.83,1.96,2.36,3.56c0.53,1.6,0.79,4.17,0.79,7.73v19.25
			h10.04V22.86c0-3.8,0.33-6.55,0.99-8.27c0.66-1.71,1.66-3.06,3.01-4.03c1.35-0.98,2.89-1.47,4.59-1.47c2.24,0,3.92,0.8,5.04,2.39
			c0.97,1.39,1.53,3.86,1.66,7.43v0.1c0.01,0.53,0.02,1.06,0.02,1.62v26.17h0.08v12.04l-0.1-0.1c-1.74-1.76-3.65-3.07-5.71-3.95
			c-2.08-0.9-4.32-1.35-6.7-1.35c-5.19,0-9.59,1.95-13.21,5.88c-3.62,3.92-5.43,8.94-5.43,15.08c0,5.91,1.87,10.86,5.62,14.85
			c3.74,3.98,8.19,5.97,13.31,5.97c2.28,0,4.41-0.41,6.36-1.22c1.96-0.82,3.91-2.15,5.86-4.01v4.2h9.96V46.81h0.01V17.5
			C-102.09,12.72-102.56,9.28-103.5,7.16z M-114.72,82.82c-2.06,2.18-4.66,3.27-7.79,3.27c-3.04,0-5.59-1.11-7.66-3.32
			c-2.07-2.22-3.12-5.04-3.12-8.47c0-3.41,1.02-6.2,3.06-8.38c2.03-2.17,4.6-3.27,7.68-3.27c3.15,0,5.76,1.08,7.82,3.22
			c2.06,2.15,3.09,4.95,3.09,8.41C-111.62,77.78-112.65,80.65-114.72,82.82z"/>
		<path class="st2" d="M-53.65,77.22h-32.03c0.46,2.82,1.7,5.07,3.71,6.74c2.01,1.67,4.57,2.5,7.69,2.5c3.72,0,6.93-1.3,9.6-3.91
			l8.4,3.94c-2.09,2.97-4.6,5.17-7.52,6.59c-2.92,1.42-6.39,2.14-10.41,2.14c-6.23,0-11.31-1.97-15.23-5.9
			c-3.92-3.93-5.88-8.86-5.88-14.77c0-6.06,1.95-11.1,5.86-15.1c3.91-4,8.81-6.01,14.7-6.01c6.26,0,11.34,2,15.27,6.01
			c3.92,4.01,5.88,9.29,5.88,15.87L-53.65,77.22z M-63.62,69.36c-0.66-2.22-1.96-4.02-3.9-5.4c-1.94-1.39-4.19-2.08-6.75-2.08
			c-2.78,0-5.22,0.78-7.32,2.34c-1.32,0.97-2.54,2.69-3.66,5.15H-63.62z"/>
		<path class="st2" d="M-46.84,54.46h8.55v5c0.92-1.97,2.15-3.47,3.69-4.49c1.53-1.02,3.21-1.53,5.04-1.53
			c1.29,0,2.64,0.34,4.05,1.02l-3.1,8.58c-1.17-0.58-2.13-0.88-2.89-0.88c-1.53,0-2.83,0.95-3.89,2.85
			c-1.06,1.9-1.59,5.62-1.59,11.17l0.04,1.94V94.2h-9.9V54.46z"/>
	</g>
	<path class="st2" d="M-112.06,46.81v12.04l-0.1-0.1V19.01c0.01,0.53,0.02,1.06,0.02,1.62v26.17H-112.06z"/>
</g>
<g>
	<path class="st2" d="M1400.07-367.29c7.25,0,14.06,1.81,20.44,5.44c6.38,3.62,11.35,8.54,14.93,14.75
		c3.58,6.21,5.36,12.92,5.36,20.12c0,7.25-1.8,14.03-5.4,20.33c-3.6,6.31-8.51,11.24-14.72,14.79c-6.21,3.55-13.06,5.33-20.55,5.33
		c-11.01,0-20.41-3.92-28.2-11.75s-11.68-17.35-11.68-28.56c0-12,4.4-22,13.2-30C1381.17-363.81,1390.05-367.29,1400.07-367.29z
		 M1400.39-349.15c-5.99,0-10.97,2.08-14.96,6.25c-3.98,4.17-5.98,9.5-5.98,15.99c0,6.68,1.97,12.1,5.9,16.24
		c3.94,4.14,8.92,6.21,14.96,6.21c6.03,0,11.05-2.09,15.06-6.28c4.01-4.19,6.01-9.58,6.01-16.17c0-6.59-1.97-11.94-5.9-16.06
		C1411.55-347.09,1406.52-349.15,1400.39-349.15z"/>
	<g>
		<path class="st2" d="M1344.36-353.53c-1.8-4.09-4.79-7.4-8.93-9.95c-4.14-2.55-8.95-3.82-14.4-3.82c-5.28,0-10.14,1.19-14.59,3.54
			c-4.45,2.33-8.21,5.77-11.26,10.29c-2.35-4.52-5.47-7.95-9.33-10.29c-3.86-2.35-8.19-3.54-13-3.54c-4.75,0-9.14,0.89-13.17,2.69
			c-4.03,1.78-7.68,4.48-10.99,8.1v-8.82h-19.26v76.81h19.26v-34.17c0-7.38,0.66-12.79,1.95-16.23c1.29-3.44,3.25-6.11,5.88-8.02
			c2.61-1.91,5.54-2.86,8.74-2.86c2.88,0,5.32,0.76,7.36,2.27c2.02,1.51,3.54,3.8,4.56,6.87c1.02,3.1,1.53,8.06,1.53,14.93v37.21
			h19.41v-34.66c0-7.34,0.64-12.66,1.91-15.99c1.27-3.31,3.2-5.92,5.81-7.79c2.61-1.89,5.58-2.84,8.87-2.84
			c4.33,0,7.57,1.55,9.74,4.62c1.87,2.69,2.95,7.47,3.2,14.36v0.19c0.02,1.02,0.04,2.06,0.04,3.14v50.59h0.15v23.27l-0.19-0.19
			c-3.37-3.39-7.06-5.94-11.03-7.64c-4.03-1.74-8.36-2.61-12.96-2.61c-10.03,0-18.54,3.78-25.54,11.37
			c-7,7.57-10.5,17.29-10.5,29.15c0,11.43,3.61,21,10.86,28.7c7.23,7.7,15.82,11.54,25.73,11.54c4.41,0,8.53-0.78,12.3-2.35
			c3.8-1.59,7.55-4.16,11.33-7.74v8.12h19.26v-91.62h0.02v-56.66C1347.1-342.77,1346.18-349.43,1344.36-353.53z M1322.68-207.27
			c-3.99,4.22-9.02,6.32-15.06,6.32c-5.88,0-10.8-2.14-14.81-6.43c-4.01-4.29-6.02-9.74-6.02-16.38c0-6.6,1.97-11.99,5.92-16.21
			c3.92-4.2,8.89-6.32,14.85-6.32c6.09,0,11.14,2.08,15.12,6.22c3.99,4.16,5.98,9.57,5.98,16.25
			C1328.66-217,1326.67-211.47,1322.68-207.27z"/>
		<path class="st2" d="M1440.73-218.1h-61.91c0.89,5.46,3.28,9.8,7.17,13.03c3.88,3.22,8.83,4.84,14.86,4.84
			c7.2,0,13.39-2.52,18.57-7.55l16.24,7.62c-4.05,5.74-8.89,9.99-14.54,12.74c-5.65,2.75-12.35,4.13-20.12,4.13
			c-12.05,0-21.86-3.8-29.44-11.4c-7.58-7.6-11.37-17.12-11.37-28.56c0-11.72,3.78-21.45,11.33-29.19
			c7.55-7.74,17.03-11.61,28.42-11.61c12.1,0,21.93,3.87,29.51,11.61c7.58,7.74,11.37,17.97,11.37,30.67L1440.73-218.1z
			 M1421.46-233.28c-1.27-4.28-3.78-7.77-7.53-10.45c-3.75-2.68-8.1-4.02-13.05-4.02c-5.37,0-10.09,1.51-14.14,4.52
			c-2.55,1.88-4.9,5.2-7.07,9.95H1421.46z"/>
		<path class="st2" d="M1453.89-262.08h16.52v9.67c1.79-3.81,4.17-6.71,7.13-8.68c2.96-1.98,6.21-2.97,9.74-2.97
			c2.49,0,5.11,0.66,7.84,1.98l-6,16.59c-2.26-1.13-4.12-1.69-5.58-1.69c-2.97,0-5.47,1.84-7.52,5.51
			c-2.05,3.67-3.07,10.87-3.07,21.6l0.07,3.74v31.06h-19.13V-262.08z"/>
	</g>
	<path class="st2" d="M1327.81-276.89v23.27l-0.19-0.19v-76.81c0.02,1.02,0.04,2.06,0.04,3.14v50.59H1327.81z"/>
</g>
</svg>
