<?xml version="1.0" encoding="utf-8"?>
<!-- Generator: Adobe Illustrator 24.1.1, SVG Export Plug-In . SVG Version: 6.00 Build 0)  -->
<svg version="1.1" id="Layer_1" xmlns="http://www.w3.org/2000/svg" xmlns:xlink="http://www.w3.org/1999/xlink" x="0px" y="0px"
	 viewBox="0 0 588.89 114.22" style="enable-background:new 0 0 588.89 114.22;" xml:space="preserve">
<style type="text/css">
	.st0{fill:#04658E;}
	.st1{fill:#ACCCDA;}
	.st2{fill:none;stroke:#000000;stroke-width:0.7071;stroke-miterlimit:10;}
	.st3{fill:none;stroke:#000000;stroke-width:0.8315;stroke-miterlimit:10;}
	.st4{fill:none;stroke:#000000;stroke-width:0.6567;stroke-miterlimit:10;}
	.st5{fill:none;stroke:#000000;stroke-miterlimit:10;}
	.st6{fill:#FFFFFF;}
	.st7{fill:#F2F2F2;}
	.st8{fill:#FF00FF;}
</style>
<g>
	<polygon class="st0" points="3229.67,196.46 3285.78,252.57 3229.67,252.57 	"/>
	<polygon class="st0" points="3336.33,196.46 3336.33,237.03 3295.76,196.46 	"/>
	<polygon class="st0" points="3336.33,252.57 3336.33,252.57 3301.31,252.57 3245.2,196.46 3280.22,196.46 	"/>
</g>
<g>
	<polygon points="787.18,525.13 911.25,649.2 787.18,649.2 	"/>
	<polygon points="1023.04,525.13 1023.04,614.85 933.31,525.13 	"/>
	<polygon points="1023.04,649.2 1023.04,649.2 945.6,649.2 821.53,525.13 898.97,525.13 	"/>
</g>
<g>
	<polygon points="3429.21,1277.99 3553.29,1402.06 3429.21,1402.06 	"/>
	<polygon points="3665.07,1277.99 3665.07,1367.71 3575.35,1277.99 	"/>
	<polygon points="3665.07,1402.05 3665.07,1402.06 3587.63,1402.06 3463.56,1277.99 3541,1277.99 	"/>
</g>
<g>
	<polygon class="st0" points="793.33,683.15 917.4,807.22 793.33,807.22 	"/>
	<polygon class="st0" points="1029.18,683.14 1029.18,772.87 939.46,683.14 	"/>
	<polygon class="st0" points="1029.18,807.21 1029.18,807.22 951.75,807.22 827.67,683.14 905.11,683.14 	"/>
</g>
<rect x="1083.67" y="536.2" class="st0" width="257.33" height="257.33"/>
<rect x="1387.67" y="532.29" class="st1" width="257.33" height="257.33"/>
<g>
	<g>
		<polygon class="st0" points="2872.7,440.64 3119.13,687.06 2872.7,687.06 		"/>
		<polygon class="st0" points="3341.14,440.63 3341.14,618.83 3162.94,440.63 		"/>
		<polygon class="st0" points="3341.14,687.05 3341.14,687.06 3187.34,687.06 2940.92,440.63 3094.73,440.63 		"/>
	</g>
	<polyline class="st2" points="3162.94,435.41 3162.94,431.63 3341.14,431.63 3341.14,435.41 	"/>
	<polyline class="st2" points="3346.7,440.63 3350.48,440.63 3350.48,618.83 3346.7,618.83 	"/>
	<polyline class="st3" points="2866.14,687.06 2862.37,687.06 2862.37,440.63 2866.14,440.63 	"/>
	<polyline class="st3" points="3119.13,692.06 3119.13,695.84 2872.7,695.84 2872.7,692.06 	"/>
	<polyline class="st4" points="2940.92,435.41 2940.92,431.63 3094.61,431.63 3094.61,435.41 	"/>
	<polyline class="st4" points="3341.14,693.08 3341.14,696.86 3187.44,696.86 3187.44,693.08 	"/>
	<g>
		<text transform="matrix(1 0 0 1 3465.9385 501.5714)" style="font-family:'ArialMT'; font-size:18.8354px;">Computer Aided Design (CAD)</text>
		<text transform="matrix(1 0 0 1 3463.1484 573.8513)" style="font-family:'ArialMT'; font-size:18.8354px;">Graphic Design / Web Design</text>
		<text transform="matrix(1 0 0 1 3465.9385 646.1309)" style="font-family:'ArialMT'; font-size:18.8354px;">Photography</text>
	</g>
	<polyline class="st5" points="3350.48,529.73 3401.81,529.73 3401.81,509.52 3721.81,509.52 	"/>
	<polyline class="st5" points="3254.14,431.63 3254.14,417.52 3416.81,417.52 3416.81,509.52 	"/>
	<polyline class="st5" points="3264.29,696.86 3264.29,705.86 3416.81,705.86 3416.81,579.63 3710.7,579.63 	"/>
	<polyline class="st5" points="3017.77,431.63 3017.77,417.52 3103.59,417.52 3340.98,654.91 3416.81,654.91 	"/>
	<polyline class="st5" points="2995.91,695.84 2995.91,726.3 3439.14,726.3 3439.14,654.91 3572.92,654.91 	"/>
	<polyline class="st5" points="2862.37,573.85 2843.59,573.85 2843.59,746.74 3217.29,746.74 3217.29,726.3 	"/>
</g>
<g>
	<rect x="3080.59" y="879.87" class="st0" width="156.69" height="156.69"/>
	<text transform="matrix(1 0 0 1 3270.5496 932.1635)"><tspan x="0" y="0" style="font-family:'ArialMT'; font-size:27.915px;">Pantone P 113-8 U</tspan><tspan x="0" y="33.5" style="font-family:'ArialMT'; font-size:27.915px;">RGB : 4 101 142</tspan><tspan x="0" y="67" style="font-family:'ArialMT'; font-size:27.915px;">#04658E</tspan></text>
</g>
<rect x="2743" y="1154.52" width="542.78" height="371"/>
<g>
	<polygon class="st6" points="2893.27,1277.99 3017.34,1402.06 2893.27,1402.06 	"/>
	<polygon class="st6" points="3129.13,1277.99 3129.13,1367.71 3039.4,1277.99 	"/>
	<polygon class="st6" points="3129.13,1402.06 3129.13,1402.06 3051.69,1402.06 2927.62,1277.99 3005.06,1277.99 	"/>
</g>
<g>
	<polygon class="st0" points="787.18,821.45 1132.91,1167.17 787.18,1167.17 	"/>
	<polygon class="st0" points="1444.4,821.44 1444.4,1071.45 1194.39,821.44 	"/>
	<polygon class="st0" points="1444.4,1167.16 1444.4,1167.17 1228.62,1167.17 882.89,821.44 1098.68,821.44 	"/>
</g>
<g>
	<path class="st1" d="M2398.3,516.75h-317c-143.32,0-259.5,116.18-259.5,259.5v312.33c0,143.32,116.18,259.5,259.5,259.5h317
		c143.32,0,259.5-116.18,259.5-259.5V776.25C2657.8,632.93,2541.62,516.75,2398.3,516.75z M2589.8,1090.94
		c0,103.32-83.76,187.07-187.07,187.07h-323.67c-103.32,0-187.07-83.75-187.07-187.07V772.82c0-103.32,83.75-187.07,187.07-187.07
		h323.67c103.31,0,187.07,83.75,187.07,187.07V1090.94z"/>
	<path class="st1" d="M2240.8,723.8c-116.18,0-210.36,94.18-210.36,210.36s94.18,210.36,210.36,210.36s210.36-94.18,210.36-210.36
		S2356.98,723.8,2240.8,723.8z M2239.8,1086.08c-83.01,0-150.29-67.29-150.29-150.3c0-83,67.28-150.29,150.29-150.29
		c83,0,150.29,67.29,150.29,150.29C2390.09,1018.79,2322.8,1086.08,2239.8,1086.08z"/>
	<circle class="st1" cx="2462.96" cy="708.31" r="47.36"/>
</g>
<g>
	<polygon class="st1" points="808.51,1212.32 1098,1501.79 808.51,1501.79 	"/>
	<polygon class="st1" points="1358.82,1212.3 1358.82,1421.64 1149.47,1212.3 	"/>
	<polygon class="st1" points="1358.82,1501.79 1358.82,1501.79 1178.13,1501.79 888.64,1212.3 1069.33,1212.3 	"/>
</g>
<g>
	<polygon class="st0" points="1405.09,-68.37 1665.91,192.44 1405.09,192.44 	"/>
	<polygon class="st0" points="1900.91,-68.39 1900.91,120.22 1712.29,-68.39 	"/>
	<polygon class="st0" points="1900.91,192.44 1900.91,192.44 1738.11,192.44 1477.29,-68.39 1640.09,-68.39 	"/>
</g>
<path class="st1" d="M1763.67,888.04h-250.68c-15.17,0-27.46,12.3-27.46,27.47v250.67c0,15.17,12.29,27.47,27.46,27.47h250.68
	c15.17,0,27.46-12.3,27.46-27.47V915.51C1791.13,900.34,1778.84,888.04,1763.67,888.04z M1580.44,1152.12c0,4.5-3.65,8.15-8.14,8.15
	h-34.82c-4.5,0-8.15-3.65-8.15-8.15v-143.75c0-4.49,3.65-8.14,8.15-8.14h34.82c4.49,0,8.14,3.65,8.14,8.14V1152.12z M1554.89,986.74
	c-17.92,0-32.45-14.52-32.45-32.44c0-17.92,14.53-32.45,32.45-32.45c17.91,0,32.44,14.53,32.44,32.45
	C1587.33,972.22,1572.8,986.74,1554.89,986.74z M1758.94,1083.77v68.35c0,4.5-3.65,8.15-8.14,8.15h-35.16
	c-4.5,0-8.14-3.65-8.14-8.15v-72.62c0-0.36,0.02-0.71,0.07-1.05l-0.07-0.01c1.75-39.42-25.59-37.09-25.59-37.09
	c-21.65-0.33-27.28,21.3-28.66,29.89v80.88c0,4.5-3.65,8.15-8.15,8.15h-34.96c-4.5,0-8.14-3.65-8.14-8.15v-143.75
	c0-4.49,3.64-8.14,8.14-8.14h34.96c4.5,0,8.15,3.65,8.15,8.14v11.46c15-24.58,46.97-21.98,46.97-21.98
	C1770.44,996.08,1758.94,1083.77,1758.94,1083.77z"/>
<path class="st7" d="M359.47-262.24c-0.01,0-0.01,0-0.02,0l0.03,0.03C359.48-262.22,359.47-262.23,359.47-262.24z"/>
<path class="st7" d="M415.39-110.12c-4.7,6.48-13.59,9.06-20.77,6.08c-2.87-1.19-5.69-2.48-8.4-4c-1.79-1.01-3.7-1.43-5.72-1.08
	c-3.35,0.58-5.86,3.34-6.28,6.84c-0.47,4.01,1.05,7.1,4.38,9.34c0.4,0.28,1.06,0.31,1.1,0.99c-0.27,0.26-0.53,0.15-0.77,0.04
	c-5.87-2.81-8.47-9.76-6.13-15.13c2.56-5.84,9.44-8.48,15.23-5.73c2.71,1.29,5.45,2.48,8.22,3.62c6.73,2.77,15.36-2.08,16.03-9.61
	c0.33-3.69-0.83-6.82-3.88-8.99c-3.08-2.2-6.48-2.43-9.87-0.7c-3.96,2.01-7.98,3.88-12.23,5.22c-2.4,0.76-4.84,1.36-7.36,1.56
	c-10.64,0.86-18.28-6.24-19.79-15.88c-0.59-3.8-0.17-7.49,1.39-11c2.57-5.77,7.15-9.07,13.19-10.48c1.94-0.45,1.59-0.5,1.6-1.96
	v-54.95c0-0.27-0.02-0.54,0-0.81c0.03-0.63-0.3-0.82-0.89-0.82c-4.34,0.01-8.67,0.02-13.01,0c-0.71,0-0.96,0.31-0.92,0.97
	c0.02,0.32,0,0.64,0,0.96v34.55c0,0.22-0.01,0.43,0,0.65c0.04,1.14,0.04,1.14,1.16,1.18c0.27,0.01,0.54,0,0.81,0
	c2.25,0,4.5-0.02,6.74,0c2.04,0.02,1.94-0.37,1.94,2.01c0.01,2.79,0,5.58,0,8.36c0,0.48,0,0.97-0.02,1.45
	c-0.06,1.13-0.07,1.17-1.19,1.17c-7.06,0.01-14.13,0.01-21.2,0c-1.12-0.01-1.12-0.04-1.15-1.19c-0.01-0.22,0-0.43,0-0.65v-60.42
	c0-2.17-0.27-1.96,1.98-1.96c5.79-0.01,11.57,0,17.35-0.01c0.58,0,1.17,0.12,1.92-0.19c-1.4-3.38-2.17-6.89-1.92-10.63
	c-0.88,0.07-1.13,0.71-1.45,1.21c-1.16,1.78-1.7,3.8-2.17,5.84c-0.07,0.34,0.05,0.78-0.52,1.01c-1.3-7.91-1.19-15.47,4.29-22.02
	c-1.82-0.14-3.81,0.96-7.1,3.9c-0.35-1.84,0.88-5.01,2.79-7.31c1.79-2.14,4.14-3.44,6.93-4.43c-0.84-0.59-1.55-0.69-2.29-0.71
	c-2.12-0.07-4.13,0.5-6.13,1.11c-0.59,0.19-1.14,0.58-1.81,0.48c-0.16-0.34,0.09-0.58,0.26-0.83c2.89-4.47,7-6.97,12.28-7.52
	c1.86-0.19,3.73-0.09,5.67,0.14c-1.17-1.92-2.87-2.33-9.73-2.41c-0.09-0.63,0.48-0.78,0.82-1.02c3.63-2.55,7.72-3.3,12.06-2.97
	c2.95,0.22,5.81,0.89,8.6,1.87c0.39,0.14,0.77,0.4,1.33,0.19c-0.53-1.14-1.69-1.36-2.59-1.88c-0.92-0.53-1.91-0.94-2.88-1.41
	c0.3-0.31,0.65-0.15,0.95-0.11c1.76,0.28,3.53,0.22,5.29,0.07c2.3-0.19,4.59-0.32,6.9-0.2c1.52,0.09,2.94,0.5,4.15,1.4
	c-0.02,0.3-0.14,0.46-0.33,0.59c-3.56,2.45-5.14,6-5.16,10.17c0,1.87-0.61,2.72-2.24,3.58c-6.55,3.46-10.43,8.89-11.09,16.39
	c-0.53,5.92,1.27,11.22,4.68,15.98c4.42,6.18,10.54,9.91,17.75,12c2.34,0.68,4.74,1.11,7.48,1.41c-2.39,1.39-4.65,2.29-7.01,2.94
	c-6.12,1.67-11.98,1.07-17.55-2.01c-0.47-0.26-0.93-0.52-1.33-0.9c-5.85-5.54-10.14-12.04-11.75-20.04
	c-1.71-8.44-0.32-16.29,5.05-23.23c1.59-2.05,3.57-3.68,5.64-5.22c-3.11,1.27-5.72,3.25-7.89,5.79c-4.74,5.53-6.57,12.03-6.34,19.2
	c0.22,6.79,2.49,12.92,6.24,18.47c2.32,3.42,5.18,6.43,8.5,8.92c0.84,0.63,1.08,1.29,1.08,2.29c-0.03,16.82-0.02,33.64-0.02,50.46
	c0,2.07,0,2.06,2,2.35c1.16,0.17,2.32,0.39,3.49,0.53c3.96,0.5,7.3-0.67,9.8-3.86c0.5-0.64,0.96-1.02,1.83-1.01
	c3.59,0.05,7.17,0.01,10.76,0.03c1.34,0,1.42,0.09,0.93,1.39c-2.92,7.86-8.5,12.5-16.78,13.89c-3.74,0.62-7.36-0.19-10.99-0.8
	c-3.54-0.6-7.05-1.31-10.58-1.94c-5.16-0.91-10.35,3-10.95,8.23c-0.83,7.21,5.37,12.76,12.49,11.25c5.16-1.1,10.04-2.92,14.82-5.13
	c6.22-2.88,12.15-2.05,17.48,2.17C419.63-127.46,420.76-117.53,415.39-110.12z"/>
<path class="st7" d="M394.1-230.51c4.05,0,7.79,0,11.54,0c9.42,0.01,18.84,0.03,28.26,0c1.04,0,1.8,0.27,2.54,1.02
	c1.87,1.91,3.81,3.76,5.76,5.6c0.59,0.56,0.84,1.13,0.84,1.96c-0.02,15.69-0.02,31.38,0,47.07c0,0.83-0.27,1.4-0.85,1.95
	c-2.06,1.95-4.1,3.92-6.11,5.93c-0.54,0.54-1.1,0.74-1.85,0.74c-13.49-0.02-26.98-0.01-40.47-0.02c-1.23,0-1.26-0.03-1.26-1.24
	c-0.01-3.43-0.01-6.85,0-10.28c0-1.46,0.01-1.47,1.51-1.47c10.81,0,21.62,0.01,32.44-0.01c1.1,0,2.5,0.5,3.22-0.29
	c0.64-0.7,0.19-2.05,0.19-3.11c0.01-11.03,0.01-22.06,0.01-33.09c0-2,0.17-1.82-1.82-1.79c-5.48,0.09-10.91-0.29-16.24-1.61
	c-6.1-1.52-11.47-4.39-15.84-8.97C395.34-228.78,394.72-229.43,394.1-230.51z"/>
<path class="st7" d="M443.41-278.64c-2.63-0.68-5.3-0.63-7.98-0.45c-0.7,0.05-1.39,0.09-2.08,0.15c-0.57,0.06-0.86-0.12-0.99-0.73
	c-0.27-1.32-1.24-2.09-2.34-2.71c-0.94-0.52-1.97-0.83-3.02-1.05c-2.21-0.45-4.42-0.85-6.62-1.3c-3.72-0.75-7.2-2.02-10.13-4.55
	c-0.41-0.36-0.9-1.79-1.68-0.24c-0.08,0.15-0.3,0.02-0.41-0.07c-1.79-1.53-4.05-1.87-6.23-2.36c-2.04-0.46-4.09-0.87-5.89-2
	c-0.25-0.15-0.51-0.13-0.83,0.07c0.19,0.8,0.74,1.37,1.33,1.89c0.98,0.87,2.17,1.37,3.38,1.81c0.85,0.31,1.74,0.57,2.48,1.1
	c0.52,0.38,1.19,0.74,0.95,1.75c-2.12-1.54-4.43-1.55-6.83-1.55c-4.01-0.01-8.03-0.28-11.72-2.19c-0.26-0.14-0.51-0.11-0.8,0.09
	c0.1,0.79,0.73,1.25,1.27,1.72c1.3,1.1,2.88,1.62,4.52,1.94c2.22,0.44,4.46,0.55,6.71,0.63c0.75,0.03,1.5,0.04,2.24,0.15
	c0.46,0.06,1.09,0.12,1.13,0.7c0.05,0.67-0.52,0.85-1.1,0.9c-0.42,0.04-0.85,0.14-1.27,0.16c-2.62,0.15-5.26,0.26-7.87-0.01
	c-5.22-0.52-10.35-1.34-13.98-5.77c-0.19-0.23-0.4-0.3-0.7-0.18c-0.33,0.13-0.3,0.4-0.27,0.66c0.4,3.66,1.91,6.55,5.54,7.97
	c1.2,0.47,2.45,0.76,3.73,0.93c3.68,0.48,7.38,0.25,11.06,0.1c1.99-0.08,3.97,0.04,5.94,0.26c1.44,0.16,2.83,0.55,4.1,1.29
	c1.2,0.7,2.07,1.68,2.61,2.95c0.21,0.48,0.14,0.82-0.38,1.02c-0.8,0.32-1.55,0.74-2.24,1.25c-2.3,1.69-3.55,3.92-3.49,6.81
	c0.58,0.16,0.92-0.17,1.29-0.34c1.22-0.55,2.47-1.04,3.79-1.3c3.05-0.61,5.99-0.46,8.57,1.5c0.98,0.75,2.07,1.49,2.36,2.84
	c-0.47-0.23-0.94-0.44-1.41-0.67c-1.88-0.95-3.87-1.58-5.98-1.71c-3.89-0.24-6.91,1.33-9.17,4.5c1.42-0.45,2.78-1.03,4.24-1.3
	c2.09-0.39,4.16-0.41,6.13,0.53c0.54,0.26,1.18,0.47,1.42,1.25c-1.47-0.1-2.83-0.47-4.23-0.35c-1.43,0.13-2.84,0.28-3.87,1.83
	c4.33-0.86,8.19-0.1,11.75,2.07c0.85,0.52,1.44,0.52,2.25-0.07c1.56-1.14,3.19-1.04,4.76,0.1c0.92,0.66,1.68,1.49,2.47,2.29
	c0.95,0.95,1.87,1.92,2.98,2.68c1.35,0.92,2.81,1.29,4.42,1.09c1.27-0.16,2.27-0.76,2.67-2c0.7-2.18,0.36-4.28-0.76-6.52
	c-0.36,1.03-0.58,1.84-0.94,2.58c-0.32,0.66-0.79,0.66-1.23,0.07c-0.21-0.3-0.34-0.66-0.51-0.99c-0.33-0.63-0.33-1.42-0.86-2.05
	c-0.16,0.24-0.25,0.36-0.33,0.49c-1.35,2.09-2.6,2.28-4.44,0.67c-0.28-0.25-0.55-0.51-0.8-0.79c-1.97-2.22-3.37-4.82-4.91-7.33
	c-0.28-0.45-0.2-0.78,0.21-1.1c0.82-0.63,1.74-1.05,2.73-1.32c2.26-0.62,4.55-0.55,6.85-0.2c1.42,0.22,2.81,0.64,4.27,0.72
	c2.22,0.13,4.35-0.26,6.31-1.29c0.47,0.76-0.1,1.66,0.59,2.41c0.46-0.84,0.81-1.62,1.29-2.31c0.59-0.86,1.16-0.78,1.69,0.14
	c0.41,0.7,0.39,1.56,0.9,2.28c0.66-0.7,0.9-1.59,1.19-2.44C448.41-275.08,447-277.71,443.41-278.64z M425.8-275.5
	c-0.85,0.31-1.54,0.37-2.06-0.7c-0.47-0.98-1.49-1.49-2.55-1.77c-0.61-0.16-1.22-0.28-1.87-0.43c2.08-1.74,6.48-1.06,8.53,2.24
	C427.18-275.67,426.44-275.73,425.8-275.5z"/>
<path class="st7" d="M630.89-261.52c0-0.51,0-1.01,0-1.52c0-7.23,0-14.46,0-21.69c0-0.37,0.01-0.75,0-1.12
	c-0.01-0.48,0.22-0.67,0.68-0.67c1.28,0.01,2.57,0,3.85,0c0.47,0,0.68,0.23,0.66,0.69c-0.01,0.37,0,0.75,0,1.12
	c0,17.88,0,35.77,0,53.65c0,2.17,0.25,1.88-1.84,1.91c-0.7,0.01-1.39,0.01-2.09,0c-1.25-0.01-1.26-0.02-1.49-1.3
	c-0.35-2-0.68-4.01-1.04-6.01c-1.06-6-2.13-12.01-3.19-18.01c-0.03-0.15,0.02-0.34-0.35-0.47c0,0.63,0,1.22,0,1.8
	c0,7.34,0,14.67,0,22.01c0,0.37-0.02,0.75,0,1.12c0.04,0.6-0.2,0.87-0.83,0.86c-1.18-0.03-2.36-0.03-3.53,0
	c-0.6,0.02-0.91-0.17-0.87-0.81c0.02-0.32,0-0.64,0-0.96c0-17.94,0-35.87,0-53.81c0-2.06-0.2-1.79,1.79-1.81
	c0.86-0.01,1.72,0.08,2.57-0.03c0.83-0.11,1.02,0.31,1.13,0.96c0.34,2,0.69,4.01,1.04,6.01c0.98,5.64,1.96,11.28,2.96,16.91
	c0.07,0.4,0.21,0.79,0.32,1.19C630.75-261.49,630.82-261.51,630.89-261.52z"/>
<path class="st7" d="M529.07-181.68c0.26,0.81,0.66,1.13,1.03,1.4c1.39,0.96,1.63,2.27,1.61,3.88c-0.08,7.28-0.03,14.56-0.04,21.84
	c0,0.43,0,0.86-0.01,1.28c-0.01,0.39-0.23,0.58-0.61,0.58c-1.34,0-2.68-0.01-4.01,0.01c-0.51,0.01-0.65-0.27-0.65-0.7
	c0-0.37,0-0.75,0-1.12c0-7.28,0-14.56,0-21.84c0-0.32,0.01-0.64,0-0.96c-0.03-1.21-0.04-1.22-1.28-1.23
	c-1.18-0.02-2.36,0.02-3.53-0.01c-0.66-0.02-1.01,0.18-0.96,0.9c0.03,0.53,0,1.07,0,1.61c0,7.12,0,14.24,0,21.36
	c0,0.37-0.01,0.75,0,1.12c0.03,0.57-0.15,0.91-0.81,0.89c-1.23-0.03-2.46-0.02-3.69,0c-0.54,0.01-0.79-0.22-0.77-0.76
	c0.01-0.32,0-0.64,0-0.96c0-17.93,0-35.87,0-53.8c0-1.86-0.31-1.77,1.83-1.77c3.37,0,6.74,0.03,10.11-0.02
	c0.93-0.01,1.54,0.38,2.26,0.92c1.76,1.32,2.21,2.97,2.16,5.12c-0.14,6.1-0.08,12.2-0.02,18.31c0.01,1.23-0.26,2.18-1.25,2.91
	C529.95-182.38,529.45-181.98,529.07-181.68z M526.4-194.3c0-3.1,0.01-6.2,0-9.31c0-1.11-0.03-1.13-1.17-1.14
	c-1.12-0.02-2.25-0.01-3.37,0c-1.21,0.01-1.23,0.02-1.23,1.21c-0.01,4.97,0,9.95,0,14.92c0,1.23,0.03,2.46-0.01,3.69
	c-0.02,0.74,0.21,1.07,1.01,1.03c1.17-0.05,2.35,0,3.53-0.02c1.22-0.01,1.24-0.03,1.25-1.24C526.41-188.2,526.4-191.25,526.4-194.3z
	"/>
<path class="st7" d="M482.42-181.38c0-8.89,0-17.77,0-26.66c0-0.37,0.02-0.75,0-1.12c-0.04-0.63,0.24-0.84,0.85-0.83
	c3.91,0.02,7.81,0.01,11.72,0.01c0.39,0,0.73,0.09,1.02,0.38c0.76,0.76,1.52,1.51,2.29,2.25c0.3,0.28,0.4,0.61,0.39,1.01
	c-0.01,0.32,0,0.64,0,0.96c0,16.06-0.01,32.11,0.02,48.17c0,1.12-0.43,1.83-1.13,2.65c-1.3,1.52-2.78,2.04-4.76,1.93
	c-2.99-0.17-5.99-0.04-8.99-0.05c-1.39,0-1.41-0.01-1.41-1.39c-0.01-6.48,0-12.95,0-19.43
	C482.42-176.14,482.42-178.76,482.42-181.38z M493.41-181.23c0-7.18,0-14.35,0-21.53c0-0.32-0.03-0.65,0.01-0.96
	c0.08-0.73-0.15-1.08-0.96-1.04c-1.01,0.06-2.03,0.01-3.05,0.02c-2.05,0.02-1.76-0.22-1.76,1.81c-0.01,14.4,0,28.81,0,43.21
	c0,0.32,0.02,0.64,0,0.96c-0.03,0.51,0.13,0.81,0.71,0.8c1.45-0.02,2.89-0.01,4.34,0c0.55,0,0.76-0.26,0.74-0.79
	c-0.02-0.37,0-0.75,0-1.12C493.41-166.99,493.41-174.11,493.41-181.23z"/>
<path class="st7" d="M550.28-257.8c0-8.89,0-17.77,0-26.66c0-0.37,0.03-0.75-0.01-1.12c-0.06-0.63,0.22-0.84,0.83-0.83
	c1.44,0.03,2.89,0.01,4.33,0.01c2.35,0,4.71,0.02,7.06-0.01c0.69-0.01,1.19,0.18,1.7,0.67c2.38,2.28,2.4,2.26,2.4,5.63
	c0,5.94-0.04,11.88,0.03,17.82c0.02,1.36-0.36,2.31-1.36,3.2c-1.44,1.29-1.44,1.4,0.04,2.7c0.97,0.85,1.32,1.75,1.31,3.05
	c-0.06,7.44-0.03,14.88-0.03,22.32c0,0.37-0.02,0.75,0,1.12c0.02,0.54-0.22,0.77-0.76,0.77c-1.28-0.01-2.57-0.02-3.85,0
	c-0.57,0.01-0.76-0.26-0.74-0.78c0.02-0.37,0-0.75,0-1.12c0-7.33,0-14.67,0-22c0-0.37-0.02-0.75,0-1.12
	c0.03-0.51-0.12-0.8-0.71-0.79c-1.44,0.02-2.89,0.01-4.33,0c-0.55,0-0.76,0.26-0.74,0.79c0.02,0.37,0,0.75,0,1.12
	c0,7.33,0,14.67,0,22c0,0.37-0.01,0.75,0,1.12c0.02,0.51-0.15,0.8-0.72,0.79c-1.23-0.02-2.46-0.02-3.69,0
	c-0.52,0.01-0.82-0.15-0.79-0.73c0.02-0.37,0-0.75,0-1.12C550.28-239.93,550.28-248.87,550.28-257.8z M555.48-270.9
	c0,3.16,0.02,6.32-0.02,9.48c-0.01,0.84,0.25,1.14,1.1,1.1c1.12-0.06,2.25-0.01,3.37-0.02c1.3-0.01,1.32-0.02,1.32-1.31
	c0.01-5.51,0-11.03,0-16.54c0-0.75-0.02-1.5,0-2.25c0.02-0.55-0.2-0.76-0.75-0.75c-1.28,0.02-2.57-0.01-3.85,0.01
	c-1.14,0.01-1.16,0.03-1.17,1.14C555.47-277,555.48-273.95,555.48-270.9z"/>
<path class="st7" d="M515.31-257.9c0-8.03,0.02-16.05-0.02-24.08c0-0.99,0.32-1.64,0.96-2.39c1.36-1.59,2.89-2.28,5.01-2.08
	c1.96,0.19,3.96,0.08,5.93,0.02c0.88-0.03,1.45,0.35,2.12,0.86c1.73,1.32,2.19,2.94,2.18,5.11c-0.1,15.52-0.06,31.03-0.03,46.55
	c0,1.2-0.34,2.04-1.17,2.96c-1.3,1.44-2.71,2-4.63,1.84c-2.07-0.16-4.17-0.06-6.25-0.02c-0.7,0.01-1.2-0.21-1.7-0.69
	c-2.39-2.28-2.4-2.26-2.4-5.61C515.31-242.92,515.31-250.41,515.31-257.9z M526.17-257.71c0-7.17,0-14.34,0-21.51
	c0-0.37-0.02-0.75,0-1.12c0.04-0.61-0.2-0.87-0.83-0.85c-1.23,0.03-2.46-0.01-3.69,0.01c-1.1,0.02-1.1,0.03-1.13,1.19
	c0,0.16,0,0.32,0,0.48c0,14.5,0,29.01,0,43.51c0,0.32,0,0.64,0,0.96c0,0.45,0.19,0.69,0.67,0.69c1.44-0.01,2.89,0,4.33,0
	c0.49,0,0.65-0.27,0.64-0.72c-0.01-0.37,0-0.75,0-1.12C526.17-243.37,526.17-250.54,526.17-257.71z"/>
<path class="st7" d="M556.51-190.83c-1.02,8.15-2.02,16.22-3.03,24.29c-0.53,4.25-1.08,8.49-1.59,12.74
	c-0.09,0.75-0.29,1.16-1.16,1.12c-1.33-0.07-2.66-0.02-3.88-0.02c-0.44-0.43-0.24-0.8-0.2-1.15c1.12-10.1,2.24-20.21,3.37-30.31
	c0.92-8.24,1.86-16.48,2.8-24.72c0.14-1.19,0.15-1.2,1.33-1.21c1.55-0.01,3.1-0.01,4.66,0c1.23,0.01,1.25,0.02,1.39,1.19
	c0.36,3.08,0.69,6.17,1.04,9.25c0.81,7.12,1.62,14.25,2.43,21.37c0.69,6.11,1.38,12.23,2.07,18.34c0.23,2.07,0.44,4.15,0.7,6.22
	c0.1,0.75-0.06,1.09-0.9,1.04c-0.96-0.06-1.93-0.05-2.89,0c-0.78,0.04-1.13-0.18-1.21-1.04c-0.22-2.29-0.56-4.57-0.84-6.85
	c-1.04-8.39-2.08-16.77-3.12-25.16c-0.16-1.33-0.3-2.66-0.47-3.98C556.95-190.07,557.04-190.48,556.51-190.83z"/>
<path class="st7" d="M602.39-229.15c-1.27-0.02-2.55,0.11-3.9-0.1c-0.43-3.42-0.86-6.82-1.28-10.21
	c-0.93-7.49-1.85-14.97-2.78-22.46c-0.17-1.38-0.3-2.76-0.45-4.14h-0.71c-1.23,9.78-2.46,19.55-3.68,29.32
	c-0.27,2.18-0.55,4.36-0.77,6.54c-0.08,0.78-0.37,1.12-1.21,1.07c-1.12-0.07-2.25-0.03-3.37-0.01c-0.65,0.02-0.81-0.25-0.73-0.88
	c0.34-2.86,0.65-5.74,0.97-8.61c0.7-6.27,1.41-12.54,2.12-18.82c0.81-7.23,1.63-14.46,2.44-21.69c0.23-2.02,0.49-4.04,0.67-6.06
	c0.11-1.17-0.02-1.34,1.41-1.33c1.55,0.02,3.1,0,4.66,0.01c1.17,0.01,1.2,0.02,1.34,1.25c0.36,3.13,0.7,6.27,1.05,9.41
	c0.81,7.12,1.63,14.25,2.44,21.37c0.68,6.06,1.37,12.12,2.05,18.18c0.23,2.02,0.47,4.04,0.67,6.06
	C603.44-229.18,603.4-229.14,602.39-229.15z"/>
<path class="st7" d="M485.51-281.19c0,0.76,0,1.34,0,1.93c0,14.35,0,28.71,0,43.06c0,0.21,0,0.43,0,0.64
	c0.03,1.17,0.03,1.19,1.14,1.21c1.18,0.02,2.36-0.02,3.53,0.01c0.64,0.01,0.99-0.13,0.98-0.88c-0.02-4.66-0.03-9.32,0-13.98
	c0-0.76-0.35-0.85-0.97-0.88c-2.07-0.07-2.09-0.09-2.06-2.17c0.01-0.95-0.41-2.16,0.19-2.8c0.67-0.72,1.93-0.22,2.92-0.26
	c1.44-0.06,2.89,0,4.34-0.02c0.61-0.01,0.87,0.21,0.85,0.84c-0.03,0.96-0.01,1.93-0.01,2.89c0,6-0.02,12,0.02,17.99
	c0.01,0.97-0.3,1.64-0.93,2.41c-1.4,1.68-3.03,2.27-5.18,2.08c-1.97-0.18-3.96-0.06-5.94-0.02c-0.7,0.01-1.2-0.22-1.7-0.69
	c-2.39-2.27-2.4-2.26-2.4-5.62c0-15.42,0.01-30.85-0.02-46.27c0-1.15,0.33-1.94,1.11-2.82c1.33-1.5,2.79-2.07,4.77-1.91
	c2.02,0.17,4.07,0.07,6.1,0.02c0.82-0.02,1.4,0.25,1.97,0.82c2.18,2.13,2.2,2.11,2.2,5.23c0,3.05-0.03,6.11,0.02,9.16
	c0.01,0.84-0.22,1.15-1.08,1.1c-1.07-0.07-2.14-0.06-3.21,0c-0.78,0.04-1.01-0.24-1-1.01c0.04-2.89,0.02-5.78,0.01-8.68
	c0-1.37-0.01-1.38-1.41-1.38C488.41-281.2,487.08-281.19,485.51-281.19z"/>
<path class="st7" d="M581.45-181.39c0-8.03,0.02-16.07-0.02-24.1c0-1.04,0.32-1.75,1.01-2.53c1.34-1.51,2.83-2.2,4.89-2.01
	c2.02,0.19,4.07,0.07,6.1,0.03c0.76-0.02,1.26,0.3,1.85,0.74c1.82,1.37,2.52,3.04,2.34,5.36c-0.23,2.87-0.05,5.78-0.05,8.67
	c0,1.68,0.16,1.5-1.58,1.51c-0.91,0.01-1.82-0.05-2.73,0.01c-0.82,0.06-0.98-0.3-0.97-1.03c0.03-2.89,0.01-5.78,0.01-8.68
	c0-1.28,0.16-1.35-1.28-1.34c-1.18,0-2.36,0.02-3.53-0.01c-0.61-0.01-0.9,0.2-0.84,0.84c0.03,0.32,0,0.64,0,0.96
	c0,14.41,0,28.81,0,43.22c0,1.89-0.27,1.78,1.83,1.78c0.96,0,1.93-0.02,2.89,0c0.68,0.02,0.95-0.24,0.93-0.94
	c-0.04-1.45-0.01-2.89-0.01-4.34c0-3.11-0.02-6.21,0.02-9.32c0.01-0.83-0.25-1.1-1.08-1.12c-1.99-0.03-1.99-0.08-1.99-2.1
	c0-0.64-0.01-1.29,0-1.93c0.02-1.18,0.03-1.2,1.12-1.21c1.98-0.02,3.96-0.01,5.94,0c1.23,0.01,1.25,0.02,1.25,1.22
	c0.01,2.68,0,5.36,0,8.03c0,4.23-0.02,8.46,0.02,12.69c0.01,0.87-0.33,1.45-0.86,2.11c-1.4,1.72-3.07,2.4-5.3,2.18
	c-1.96-0.19-3.96-0.06-5.94-0.03c-0.63,0.01-1.1-0.18-1.57-0.61c-2.45-2.27-2.47-2.26-2.47-5.59
	C581.45-166.39,581.45-173.89,581.45-181.39z"/>
<path class="st7" d="M658.25-193.71c0-3.18,0.01-6.23,0-9.28c-0.01-2,0.28-1.74-1.82-1.76c-0.96-0.01-1.93,0.03-2.89-0.01
	c-0.72-0.04-0.95,0.27-0.89,0.94c0.03,0.37,0,0.75,0,1.12c0,14.24,0,28.48,0,42.73c0,0.37,0.03,0.75,0,1.12
	c-0.06,0.72,0.29,0.92,0.95,0.9c1.23-0.03,2.46-0.05,3.69,0c0.81,0.03,0.98-0.32,0.97-1.05c-0.03-2.68-0.02-5.35-0.01-8.03
	c0-0.53-0.09-1.07,0.11-1.65c1.36-0.2,2.75-0.01,4.13-0.1c0.83-0.06,1.11,0.22,1.09,1.08c-0.05,3.1-0.12,6.21,0.02,9.31
	c0.08,1.85-0.37,3.23-1.83,4.46c-0.96,0.81-1.8,1.31-3.1,1.25c-2.35-0.1-4.71-0.05-7.06-0.02c-0.75,0.01-1.3-0.22-1.84-0.74
	c-2.36-2.25-2.37-2.24-2.37-5.48c0-15.47,0.01-30.95-0.03-46.42c0-1.17,0.39-1.94,1.15-2.8c1.28-1.44,2.66-2.07,4.61-1.91
	c2.07,0.17,4.17,0.06,6.26,0.03c0.74-0.01,1.26,0.26,1.85,0.72c1.85,1.42,2.56,3.13,2.38,5.51c-0.23,2.98-0.08,5.99-0.04,8.99
	c0.01,0.84-0.23,1.13-1.08,1.09C661.12-193.76,659.73-193.71,658.25-193.71z"/>
<path class="st7" d="M396.91-240.01c-2.14,0-4.28-0.02-6.42,0.01c-0.74,0.01-1.02-0.26-1.14-0.99c-0.63-3.8-0.2-7.46,1.23-11.02
	c0.26-0.65,0.59-0.9,1.29-0.9c5.67,0.02,11.35,0.02,17.02,0.01c0.58,0,1.01,0.17,1.42,0.58c2.1,2.07,4.21,4.12,6.34,6.15
	c0.5,0.48,0.72,0.99,0.71,1.69c-0.03,3.11-0.04,6.21,0,9.32c0.01,0.85-0.27,1.12-1.11,1.11c-3.64-0.03-7.28-0.03-10.92,0
	c-0.84,0.01-1.15-0.3-1.11-1.13c0.04-1.02,0.01-2.03,0.01-3.05c0.01-1.92,0.07-1.78-1.71-1.78
	C400.65-240.01,398.78-240.01,396.91-240.01z"/>
<path class="st7" d="M616.4-204.89c0-1.44,0.01-2.93-0.01-4.42c-0.01-0.61,0.35-0.68,0.83-0.68c1.55,0.01,3.11,0,4.66,0
	c1.82,0,3.64-0.01,5.46,0c1.27,0.01,1.28,0.02,1.29,1.35c0.01,1.02-0.02,2.04,0.01,3.05c0.02,0.62-0.24,0.87-0.85,0.85
	c-0.69-0.03-1.39,0-2.09,0c-0.4,0-0.58,0.19-0.57,0.59c0.01,0.37,0,0.75,0,1.12c0,14.41,0,28.81,0,43.22c0,0.27,0.03,0.54-0.01,0.8
	c-0.13,0.89,0.3,1.08,1.1,1.08c0.78,0,1.81-0.39,2.27,0.27c0.36,0.51,0.15,1.45,0.13,2.19c-0.02,0.85,0.36,1.9-0.16,2.49
	c-0.6,0.68-1.72,0.25-2.6,0.26c-3.1,0.04-6.2,0.01-9.45,0.01c0-1.59,0-3.08,0-4.57c0-0.46,0.18-0.69,0.66-0.68
	c0.7,0.01,1.39-0.01,2.09-0.01c0.54,0,0.78-0.24,0.75-0.78c-0.02-0.32,0-0.64,0-0.96c0-14.41,0-28.81,0-43.22
	c0-2.05,0.28-1.79-1.76-1.83C617.61-204.76,617.07-204.66,616.4-204.89z"/>
<path class="st7" d="M396.78-207.18c1.47,0.44,2.69,0.81,3.91,1.18c5.11,1.57,10.22,3.14,15.33,4.72c1.31,0.41,1.32,0.42,1.32,1.73
	c0.01,4.93,0.01,9.85,0,14.78c0,1.29-0.02,1.31-1.33,1.31c-3.53,0.01-7.06,0.01-10.6,0c-1.14,0-1.16-0.03-1.17-1.17
	c-0.02-2.03-0.03-4.07,0.01-6.1c0.02-0.83-0.23-1.25-1.09-1.46c-1.82-0.44-3.6-1.02-5.41-1.51c-0.56-0.15-0.98-0.31-0.98-1.02
	C396.79-198.79,396.78-202.85,396.78-207.18z"/>
<path class="st7" d="M548.29-108.11c0-1.73,0.09-3.42-0.02-5.1c-0.42-6.74-0.26-13.49-0.32-20.23c-0.01-0.78,0.26-1.09,1.02-1
	c0.16,0.02,0.32,0.01,0.48,0.01c2.06-0.02,1.75,0.08,1.75,1.73c0.01,10.92,0,21.84,0,32.76c0,0.32-0.02,0.64,0,0.96
	c0.03,0.58-0.27,0.69-0.79,0.73c-2.76,0.19-2.76,0.2-3.25-2.52c-1.42-7.84-2.85-15.68-4.29-23.52c-0.11-0.6-0.33-1.19-0.58-2.08
	c0.79,9.17,0.98,18.04,0.86,26.92c-0.02,1.14-0.03,1.18-1.17,1.18c-2.45,0-2.12,0.24-2.12-1.98c-0.01-10.81-0.01-21.63,0-32.44
	c0-1.88-0.14-1.74,1.73-1.74c1.82,0,1.82,0,2.16,1.88c1.4,7.85,2.81,15.7,4.21,23.54C548.03-108.7,548-108.37,548.29-108.11z"/>
<path class="st7" d="M660.98-106.5c0.17-3.02-0.11-6.01-0.28-8.99c-0.34-6-0.1-11.99-0.2-17.99c-0.01-0.7,0.24-0.99,0.92-0.95
	c0.05,0,0.11,0,0.16,0c2.12-0.12,2.12-0.12,2.12,1.98c0,10.82,0,21.63,0,32.45c0,1.84,0.18,1.74-1.72,1.74c-0.16,0-0.32,0-0.48,0
	c-1.3-0.02-1.32-0.02-1.55-1.28c-1.1-6-2.19-12-3.29-17.99c-0.44-2.41-0.9-4.82-1.44-7.22c-0.24,0.6-0.16,1.21-0.11,1.81
	c0.69,7.8,0.59,15.62,0.57,23.44c0,1.22-0.03,1.24-1.25,1.24c-2.27,0-1.97,0.18-1.97-1.96c0-10.82,0-21.63,0-32.45
	c0-1.75-0.33-1.76,1.7-1.75c0.16,0,0.32,0,0.48,0c1.3,0.03,1.33,0.02,1.55,1.27c1.44,8.06,2.87,16.12,4.31,24.18
	C660.64-108.15,660.82-107.33,660.98-106.5z"/>
<path class="st7" d="M641.81-116.32c0,4.66,0,9.31,0,13.97c0,0.53,0.02,1.08-0.06,1.6c-0.23,1.47-1.08,2.33-2.55,2.43
	c-1.54,0.1-3.1,0.12-4.65,0.02c-1.59-0.1-2.52-1.07-2.75-2.64c-0.07-0.47-0.07-0.96-0.07-1.44c0-9.31-0.01-18.62,0-27.93
	c0-0.53,0.02-1.07,0.11-1.6c0.25-1.36,1.08-2.25,2.42-2.43c1.7-0.22,3.42-0.2,5.12,0c1.33,0.16,2.11,0.97,2.35,2.28
	c0.1,0.52,0.08,1.06,0.08,1.6C641.81-125.73,641.81-121.03,641.81-116.32z M635.03-116.48c0,4.34,0,8.67,0,13.01
	c0,2.65,0.03,2.67,2.67,2.43c0.05,0,0.11-0.01,0.16-0.01c0.54,0,0.76-0.3,0.75-0.81c0-0.37,0.01-0.75,0.01-1.12
	c0-8.94,0-17.88,0-26.82c0-1.87,0-1.87-1.81-1.87c-1.81,0-1.78-0.19-1.78,1.7C635.03-125.47,635.03-120.98,635.03-116.48z"/>
<path class="st7" d="M508.71-116.31c0,4.6,0,9.2,0,13.81c0,0.64,0,1.29-0.11,1.92c-0.22,1.3-1.04,2.12-2.36,2.27
	c-1.65,0.19-3.32,0.17-4.97,0.01c-1.4-0.14-2.33-1.08-2.58-2.47c-0.09-0.52-0.08-1.07-0.08-1.6c0-9.31,0-18.62,0-27.93
	c0-0.43-0.02-0.86,0.03-1.28c0.19-1.55,1.13-2.58,2.67-2.76c1.59-0.18,3.21-0.16,4.8-0.01c1.49,0.15,2.28,0.99,2.51,2.48
	c0.08,0.52,0.07,1.07,0.07,1.6C508.72-125.63,508.71-120.97,508.71-116.31z M505.45-116.33c0-4.33,0-8.66,0-12.99
	c0-2.41-0.51-2.81-2.91-2.34c-0.45,0.09-0.65,0.3-0.66,0.74c-0.01,0.32-0.01,0.64-0.01,0.96c0,9.04-0.01,18.07,0,27.11
	c0,1.86-0.26,1.89,1.96,1.87c1.62-0.01,1.63-0.01,1.63-1.71C505.45-107.24,505.45-111.78,505.45-116.33z"/>
<path class="st7" d="M529.39-117.34c0,5.03,0,10.06,0,15.09c0,0.53,0.02,1.08-0.08,1.6c-0.25,1.37-1.12,2.25-2.49,2.32
	c-1.6,0.09-3.21,0.09-4.81,0c-1.48-0.09-2.41-1.07-2.6-2.58c-0.08-0.63-0.08-1.28-0.08-1.92c0-9.9-0.01-19.8,0-29.7
	c0-2.06-0.28-1.9,1.88-1.9c1.39,0,1.4,0.02,1.4,1.43c0,10.01,0,20.02,0,30.03c0,2.14-0.21,1.93,2.02,1.94
	c1.55,0.01,1.56-0.01,1.56-1.63c0-9.95-0.01-19.91,0.01-29.86c0-1.85-0.47-1.92,1.89-1.9c1.29,0.01,1.3,0.02,1.3,1.36
	C529.39-127.83,529.39-122.59,529.39-117.34z"/>
<path class="st7" d="M561.81-116.36c0-5.52,0-11.03,0-16.55c0-1.5,0.01-1.51,1.48-1.52c1.77-0.01,3.53-0.05,5.3,0.02
	c2.25,0.09,3.22,1.07,3.22,3.32c0.02,9.85,0.02,19.71-0.01,29.56c-0.01,2.24-1.03,3.22-3.26,3.26c-1.77,0.03-3.53,0.01-5.3,0.01
	c-1.42-0.01-1.43-0.01-1.44-1.39c-0.01-2.84,0-5.68,0-8.51C561.81-110.9,561.81-113.63,561.81-116.36z M568.62-116.32
	C568.62-116.32,568.62-116.32,568.62-116.32c0-4.34,0.02-8.67,0-13.01c-0.02-2.64,0.47-2.33-2.41-2.34c-1.12,0-1.12,0.03-1.16,1.19
	c-0.01,0.21,0,0.43,0,0.64c0,8.89-0.01,17.77,0.01,26.66c0,2.43-0.38,2.18,2.25,2.18c1.29,0,1.31-0.02,1.31-1.36
	C568.62-107,568.62-111.66,568.62-116.32z"/>
<path class="st7" d="M586.68-125.23c-0.25,2.88-0.5,5.69-0.75,8.5c-0.51,5.76-1.02,11.52-1.54,17.27c-0.11,1.19-0.14,1.21-1.32,1.19
	c-2.04-0.05-2.09,0.44-1.83-1.97c1.11-10.48,2.27-20.96,3.41-31.44c0.01-0.05,0.01-0.11,0.01-0.16c0.13-0.78-0.23-1.92,0.44-2.27
	c0.97-0.51,2.2-0.19,3.32-0.14c0.6,0.03,0.51,0.61,0.56,1c0.28,2.39,0.54,4.79,0.8,7.18c0.94,8.62,1.86,17.24,2.81,25.86
	c0.22,2.04,0.25,2.04-1.8,1.99c-1.19-0.03-1.24-0.02-1.36-1.2c-0.31-3.14-0.59-6.29-0.87-9.43c-0.46-5.12-0.9-10.24-1.36-15.35
	C587.16-124.57,587.2-124.97,586.68-125.23z"/>
<path class="st7" d="M602.08-115c0-4.87,0-9.74,0-14.6c0-0.37-0.03-0.75,0-1.12c0.05-0.72-0.31-0.88-0.97-0.91
	c-1.7-0.08-1.87-0.35-1.66-2.12c0.05-0.47,0.24-0.67,0.69-0.67c2.46,0,4.92,0.01,7.38,0c0.51,0,0.82,0.19,0.8,0.74
	c-0.01,0.32-0.03,0.65,0,0.96c0.1,0.85-0.27,1.19-1.1,1.1c-0.26-0.03-0.54,0.02-0.8,0c-0.75-0.05-1.08,0.3-1.04,1.04
	c0.02,0.43,0,0.86,0,1.28c0,9.68,0,19.37,0,29.05c0,0.37-0.02,0.75,0,1.12c0.03,0.6-0.22,0.82-0.84,0.87
	c-2.45,0.18-2.46,0.19-2.46-2.3C602.08-105.37,602.08-110.19,602.08-115z"/>
<path class="st7" d="M481.57-116.47c0-5.52,0-11.03,0-16.55c0-1.39,0.01-1.4,1.41-1.42c1.55-0.02,3.11-0.02,4.66,0
	c1.15,0.02,1.15,0.04,1.17,1.18c0.01,0.27-0.01,0.54,0,0.8c0.01,0.53-0.23,0.78-0.77,0.78c-0.75-0.01-1.5,0.02-2.25,0.02
	c-0.63,0-0.99,0.22-0.99,0.94c0.02,4.02,0.01,8.03,0,12.05c0,0.68,0.27,0.98,0.95,0.96c0.7-0.02,1.39,0.02,2.09-0.01
	c0.66-0.03,1.03,0.19,0.97,0.91c-0.02,0.21,0,0.43,0,0.64c-0.03,1.17-0.03,1.17-1.14,1.21c-0.7,0.02-1.39,0.01-2.09,0.02
	c-0.52,0.01-0.78,0.27-0.77,0.8c0.01,0.37-0.01,0.75-0.01,1.12c0,4.5,0.01,9-0.01,13.5c0,1.22-0.03,1.25-1.25,1.24
	c-2.25-0.01-1.98,0.21-1.98-1.97C481.56-105.65,481.57-111.06,481.57-116.47z"/>
<path class="st7" d="M619.59-98.27c-0.27,0-0.54,0.04-0.8-0.01c-0.54-0.09-1.39,0.32-1.56-0.36c-0.18-0.74-0.49-1.68,0.32-2.36
	c0.55-0.46,0.35-1.09,0.35-1.65c0.02-4.55,0.01-9.1,0.01-13.66c0-4.61,0.01-9.21-0.01-13.82c0-0.59,0.13-1.16-0.53-1.71
	c-0.61-0.51-0.27-1.51-0.19-2.29c0.03-0.33,0.4-0.31,0.65-0.31c1.12-0.01,2.25,0,3.37-0.01c0.52,0,0.83,0.2,0.76,0.76
	c-0.09,0.74,0.32,1.6-0.57,2.17c-0.32,0.2-0.18,0.7-0.18,1.07c0,9.37-0.01,18.74,0,28.12c0,0.51-0.04,0.97,0.47,1.42
	c0.66,0.58,0.32,1.5,0.28,2.28c-0.01,0.32-0.35,0.35-0.62,0.36C620.77-98.27,620.18-98.28,619.59-98.27
	C619.59-98.28,619.59-98.27,619.59-98.27z"/>
<path class="st7" d="M660.5-235.01c0,1.78-0.01,3.16,0.01,4.55c0.01,0.47-0.15,0.8-0.52,1.09c-2.67,2.13-5.33,4.27-8.28,6.63
	c0-1.83-0.01-3.35,0-4.87c0-0.28,0.17-0.49,0.39-0.67C654.8-230.44,657.5-232.6,660.5-235.01z"/>
<path class="st7" d="M359.45-262.23c-0.13,0.17,0.17,0.08-0.04,0.13c-0.03,0.01-0.09,0-0.09,0c-0.01-0.11,0.04-0.15,0.16-0.1
	C359.48-262.2,359.45-262.23,359.45-262.23z"/>
<path class="st8" d="M1266.99-147.46"/>
<g>
	<g>
		<path class="st7" d="M780.41-34.88c-1.44,21.57-18.6,38.82-40.12,40.42C741.73-16.03,758.89-33.28,780.41-34.88z"/>
		<path class="st7" d="M874.89,52.34c-21.57-1.44-38.82-18.6-40.42-40.12C856.04,13.66,873.29,30.82,874.89,52.34z"/>
		<path class="st7" d="M781.96,50.61c0,0.45,0.01,0.9,0.02,1.35c-22.35-0.85-40.37-18.57-41.71-40.79c0.69,0.03,1.38,0.05,2.08,0.05
			c24.02,0,43.5-19.48,43.5-43.5c0-0.9-0.03-1.79-0.09-2.67c22.62,1.06,40.71,19.39,41.4,42.1c-0.56-0.03-1.13-0.04-1.7-0.04
			C801.44,7.11,781.96,26.58,781.96,50.61z"/>
		<path class="st7" d="M693.57,59.42c21.57,1.44,38.82,18.6,40.42,40.12C712.42,98.1,695.17,80.94,693.57,59.42z"/>
		<path class="st7" d="M779.06,57.87c0.45,0,0.9-0.01,1.35-0.02c-0.85,22.35-18.57,40.37-40.79,41.71c0.03-0.69,0.05-1.38,0.05-2.08
			c0-24.02-19.48-43.5-43.5-43.5c-0.9,0-1.79,0.03-2.67,0.09c1.06-22.62,19.39-40.71,42.1-41.4c-0.03,0.56-0.04,1.13-0.04,1.7
			C735.56,38.39,755.03,57.87,779.06,57.87z"/>
		<path class="st7" d="M786.9,59.42c21.57,1.44,38.82,18.6,40.42,40.12C805.74,98.1,788.49,80.94,786.9,59.42z"/>
		<path class="st7" d="M872.39,57.87c0.45,0,0.9-0.01,1.35-0.02c-0.85,22.35-18.57,40.37-40.79,41.71c0.03-0.69,0.05-1.38,0.05-2.08
			c0-24.02-19.48-43.5-43.5-43.5c-0.9,0-1.79,0.03-2.67,0.09c1.06-22.62,19.39-40.71,42.1-41.4c-0.03,0.56-0.04,1.13-0.04,1.7
			C828.89,38.39,848.35,57.87,872.39,57.87z"/>
	</g>
	<polygon class="st7" points="958.37,-16.39 958.37,-6.22 940.02,-6.22 940.02,53.11 928.11,53.11 928.11,-6.22 908.93,-6.22 
		908.93,-16.39 	"/>
	<polygon class="st7" points="962.18,93.07 962.18,99.56 941.84,99.56 941.84,65.22 949.22,65.22 949.22,93.07 	"/>
	<polygon class="st7" points="1031.57,71.74 1031.57,79.15 1044.86,79.15 1044.86,85.66 1031.57,85.66 1031.57,92.95 1046.76,92.95 
		1046.76,99.45 1024.19,99.45 1024.19,65.11 1046.76,65.11 1046.76,71.74 	"/>
	<polygon class="st7" points="1077.88,65.11 1077.88,99.45 1070.49,99.45 1070.49,99.42 1070.49,99.45 1057.79,79.21 1057.79,99.45 
		1050.39,99.45 1050.39,65.11 1057.8,65.11 1070.49,85.72 1070.49,65.11 	"/>
	<rect x="1082.78" y="65.11" class="st7" width="7.39" height="34.34"/>
	<path class="st7" d="M1135.21,65.1h-7.39l-12.63,34.34h7.87l2.79-7.59h11.33l2.79,7.59h7.87L1135.21,65.1z M1128.23,85.41
		l3.29-8.95l3.29,8.95H1128.23z"/>
	<polygon class="st7" points="975.96,-6.22 975.96,13.28 1003.46,13.28 1003.46,23.28 975.96,23.28 975.96,43.11 1007.24,43.11 
		1007.24,53.11 964.06,53.11 964.06,-16.39 1007.24,-16.39 1007.24,-6.22 	"/>
	<polygon class="st7" points="1067.9,-16.39 1067.9,53.11 1055.99,53.11 1055.99,53.01 1055.83,53.11 1025.9,5.94 1025.9,53.11 
		1013.99,53.11 1013.99,-16.39 1025.9,-16.39 1025.9,-16.24 1025.94,-16.27 1055.99,31.09 1055.99,-16.39 	"/>
	<rect x="1078.26" y="-16.39" class="st7" width="11.91" height="69.5"/>
	<path class="st7" d="M977.36,65.25c-7.88,0-14.28,7.68-14.28,17.16c0,9.47,6.4,17.15,14.28,17.15c7.89,0,14.28-7.68,14.28-17.15
		C991.64,72.93,985.25,65.25,977.36,65.25z M977.35,94.03c-4.35,0-7.87-5.2-7.87-11.61c0-6.41,3.52-11.61,7.87-11.61
		s7.87,5.2,7.87,11.61C985.22,88.83,981.7,94.03,977.35,94.03z"/>
	<polygon class="st7" points="992.52,65.25 998.97,65.25 1006.78,91.23 1014.51,65.25 1021.09,65.25 1010.92,99.45 1002.82,99.45 	
		"/>
	<path class="st7" d="M1121.38,53.12c-6.3,0.07-11.83-0.97-16.76-4.24c-2.84-1.88-5-4.4-6.69-7.37c-0.46-0.81-0.27-1.22,0.38-1.72
		c1.97-1.5,3.94-3,5.87-4.57c0.79-0.64,1.2-0.57,1.67,0.34c2.1,4.06,5.37,6.69,9.89,7.55c4.5,0.86,9,1.08,13.18-1.3
		c3.33-1.9,4.59-4.94,4.47-8.66c-0.11-3.41-1.93-5.64-4.83-7.17c-3.3-1.73-6.95-2.45-10.47-3.5c-3.63-1.09-7.21-2.28-10.39-4.39
		c-5.68-3.77-7.98-9.17-7.61-15.86c0.52-9.22,6.76-16.31,15.86-17.98c6.37-1.17,12.63-0.96,18.67,1.57
		c3.51,1.47,6.48,3.68,8.78,6.76c0.57,0.76,0.55,1.23-0.22,1.81c-2.02,1.51-4.02,3.05-5.96,4.66c-0.77,0.63-1.11,0.41-1.63-0.29
		c-4.26-5.67-13.02-6.98-18.58-4.57c-4.02,1.74-5.59,5.09-5.47,9.38c0.11,3.98,2.38,6.3,5.8,7.72c3.7,1.53,7.62,2.36,11.42,3.57
		c3.88,1.23,7.57,2.8,10.67,5.54c4.34,3.84,5.78,8.78,5.27,14.35c-0.8,8.7-5.61,14.27-13.77,17.02
		C1127.68,52.85,1124.31,53.26,1121.38,53.12z"/>
	<path class="st7" d="M926.36,99.55c-4.52-0.01-8.15-0.89-11.01-3.87c-1.97-2.06-1.96-2.19,0.18-4.01c0.07-0.06,0.13-0.12,0.2-0.17
		c0.76-0.59,1.47-1.54,2.3-1.68c0.95-0.15,1.19,1.22,1.83,1.85c2.12,2.1,6.66,2.85,9.25,1.41c1.37-0.76,2.12-1.9,2.09-3.55
		c-0.03-1.67-0.92-2.73-2.32-3.39c-2.03-0.96-4.26-1.38-6.37-2.13c-2.99-1.06-5.65-2.58-6.82-5.75c-2.46-6.68,2.02-13.41,9.21-13.83
		c3.46-0.2,6.88-0.02,9.92,1.98c0.07,0.05,0.15,0.09,0.23,0.14c3.37,2.27,3.4,2.7,0.26,5.1c-0.59,0.45-1.13,1.16-1.79,1.29
		c-0.77,0.15-1.07-0.89-1.7-1.29c-2.27-1.46-4.65-2.05-7.26-1.06c-1.57,0.6-2.35,1.87-2.5,3.44c-0.13,1.43,0.42,2.68,1.73,3.47
		c2.07,1.23,4.47,1.54,6.7,2.35c2.87,1.05,5.55,2.33,6.93,5.29c2.57,5.52-0.72,12.28-6.65,13.81
		C929.12,99.36,927.48,99.57,926.36,99.55z"/>
	<path class="st7" d="M1114.1,78.53c0,3.2,0.02,6.4-0.01,9.6c-0.06,7.27-4.22,11.16-11.49,10.85c-3.2-0.14-5.73-1.42-7.57-4.06
		c-0.6-0.87-0.73-1.53,0.39-2.12c0.93-0.48,1.79-1.1,2.65-1.69c0.6-0.42,0.93-0.38,1.39,0.29c1.34,1.96,3.5,2.59,5.64,1.82
		c1.35-0.48,2.14-1.45,2.48-2.79c0.28-1.1,0.43-2.22,0.43-3.37c-0.02-6.48-0.01-12.96-0.01-19.44c0-1.76,0-1.76,1.82-1.76
		c0.8,0,1.6,0,2.4,0c1.89,0,1.89,0,1.89,1.95C1114.1,71.37,1114.1,74.95,1114.1,78.53z"/>
</g>
<g>
	<path class="st7" d="M112.9,58.76c-0.08,7.3-1.6,14.14-6.24,20.05c-4.79,6.12-11.17,9.44-18.75,10.35
		c-7.08,0.85-13.83-0.33-19.83-4.49C61.53,80.13,58.01,73.7,56.68,66c-1.25-7.22-0.65-14.32,2.41-21.01
		c4.04-8.83,11-14.07,20.6-15.65c6.79-1.12,13.39-0.38,19.47,3.04c7.16,4.03,11.12,10.38,12.93,18.22
		C112.71,53.29,112.96,56,112.9,58.76z M102.38,58.52c0.09-4.35-0.96-9.05-3.36-13.44c-5.76-10.56-19.91-11.8-27.34-2.37
		c-6.48,8.23-6.87,22.64-0.85,31.56c6.18,9.16,17.9,10.27,25.48,2.22C100.86,71.67,102.41,65.65,102.38,58.52z"/>
	<path class="st7" d="M393.95,56.11c-3.39,0-6.59-0.04-9.79,0.03c-0.9,0.02-1.2-0.47-1.58-1.07c-3.97-6.35-7.98-12.67-11.91-19.04
		c-0.61-1-1.22-1.47-2.45-1.43c-3.1,0.1-6.2,0.09-9.3,0.01c-1.26-0.03-1.56,0.39-1.55,1.59c0.06,6.13,0,12.27,0.05,18.4
		c0.01,1.16-0.22,1.63-1.5,1.56c-2.1-0.11-4.21-0.08-6.32-0.01c-1.05,0.03-1.51-0.12-1.5-1.37c0.05-15.94,0.04-31.89,0.01-47.83
		c0-0.93,0.16-1.29,1.21-1.28c8.77,0.08,17.55-0.06,26.32,0.18c4.58,0.13,8.76,1.68,12.37,4.78c5.92,5.07,6.79,17.23-4.51,21.84
		c-0.22,0.09-0.43,0.18-0.64,0.26c-1.04,0.4-2.71,0.28-2.98,1.2c-0.27,0.95,1,1.96,1.63,2.93c3.89,6,7.8,11.98,11.7,17.97
		C393.46,55.18,393.65,55.58,393.95,56.11z M366.3,12.13c-2.73,0-5.08,0.07-7.41-0.03c-1.22-0.05-1.47,0.41-1.46,1.51
		c0.05,4.5,0.05,9,0,13.49c-0.01,1.15,0.36,1.49,1.51,1.47c4.27-0.06,8.54,0.02,12.81-0.05c1.97-0.03,3.91-0.35,5.79-1.01
		c3.41-1.19,5.39-3.78,5.4-7.11c0.01-3.37-1.96-5.97-5.28-7.23C373.83,11.72,369.84,12.25,366.3,12.13z"/>
	<path class="st7" d="M481.97,30.89c0-7.89,0.04-15.78-0.04-23.66c-0.01-1.33,0.35-1.61,1.63-1.59c7.84,0.09,15.69-0.02,23.52,0.16
		c5.91,0.13,11.15,2.12,15.33,6.49c2.45,2.56,3.58,5.68,4,9.1c0.85,6.98,1.05,14.01-0.34,20.91c-1.46,7.24-6.76,10.93-13.45,12.91
		c-3.05,0.9-6.23,0.9-9.39,0.91c-6.55,0.03-13.11-0.03-19.66,0.04c-1.27,0.01-1.66-0.23-1.65-1.59
		C482.01,46.66,481.97,38.78,481.97,30.89z M491.19,30.69c0,5.84,0,11.68,0.01,17.52c0,0.65-0.26,1.49,0.92,1.45
		c5.13-0.18,10.3,0.49,15.39-0.39c5.04-0.88,9-3.74,9.71-9.83c0.62-5.31,0.65-10.6,0.18-15.89c-0.59-6.65-3.88-10.11-10.38-11.12
		c-4.71-0.73-9.45-0.12-14.17-0.37c-1.3-0.07-1.7,0.28-1.68,1.63C491.23,19.35,491.19,25.02,491.19,30.69z"/>
	<path class="st7" d="M288.07,30.87c0.08-3.2-0.06-6.4,0.23-9.62c0.54-6.03,3.71-10.38,8.87-12.85c10.04-4.81,20.1-4.78,29.58,1.69
		c3.4,2.32,5.52,5.61,6.08,9.8c0.96,7.15,0.87,14.32,0.11,21.47c-0.58,5.42-3.8,9.13-8.35,11.79c-5,2.92-10.45,3.64-16.15,3.29
		c-4.3-0.27-8.31-1.27-12.04-3.48c-5.63-3.34-8.18-8.35-8.32-14.73C288.03,35.78,288.07,33.32,288.07,30.87z M297.3,30.93
		c0,1.87-0.11,3.74,0.02,5.6c0.2,2.88,0.18,5.87,1.98,8.36c2.71,3.73,6.62,5.14,11.04,5.19c6.95,0.07,13.42-3.25,13.65-12.02
		c0.12-4.78,0.31-9.56-0.05-14.33c-0.24-3.21-0.66-6.38-3.41-8.66c-4.32-3.59-9.29-4.12-14.45-2.77c-5.68,1.49-8.03,4.72-8.58,10.6
		C297.26,25.57,297.28,28.25,297.3,30.93z"/>
	<path class="st7" d="M586.92,56.11c-2.8,0-5.59-0.05-8.38,0.03c-1.02,0.03-1.42-0.38-1.78-1.24c-1.08-2.62-2.28-5.2-3.34-7.83
		c-0.37-0.91-0.86-1.21-1.82-1.2c-7.61,0.03-15.21,0.04-22.82-0.01c-1.08-0.01-1.53,0.41-1.9,1.34c-1.06,2.63-2.25,5.22-3.32,7.85
		c-0.33,0.81-0.7,1.11-1.62,1.09c-2.84-0.08-5.69-0.03-8.69-0.03c2.08-4.58,4.1-9.06,6.14-13.51c5.45-11.86,10.92-23.71,16.35-35.58
		c0.44-0.96,0.89-1.46,2.04-1.38c2.03,0.14,4.48-0.57,6,0.33c1.41,0.84,1.86,3.31,2.68,5.09c6.66,14.51,13.31,29.03,19.96,43.55
		C586.65,55.08,587.01,55.5,586.92,56.11z M560.33,39.77c2.81,0,5.62-0.07,8.42,0.03c1.42,0.05,1.55-0.37,1.03-1.56
		c-2.95-6.79-5.85-13.6-8.76-20.4c-0.13-0.31-0.18-0.73-0.6-0.76c-0.48-0.03-0.45,0.47-0.57,0.76c-3.05,6.89-6.07,13.78-9.14,20.66
		c-0.46,1.04-0.25,1.31,0.85,1.29C554.48,39.74,557.4,39.77,560.33,39.77z"/>
	<path class="st7" d="M233.97,5.76c8.94,0,17.72-0.14,26.5,0.05c5.18,0.11,9.93,1.72,13.73,5.52c6.38,6.39,4.82,17.16-3.15,21.53
		c-3.45,1.89-7.13,3.01-11.08,3.06c-5.03,0.06-10.06,0.12-15.1,0.06c-1.44-0.02-1.74,0.44-1.72,1.78c0.07,5.43-0.07,10.87,0.09,16.3
		c0.05,1.87-0.55,2.21-2.2,2.09c-1.92-0.14-3.87-0.13-5.79,0c-1.14,0.08-1.3-0.29-1.3-1.31c0.04-7.83,0.02-15.66,0.02-23.49
		C233.97,22.82,233.97,14.3,233.97,5.76z M243.19,20.86c0,2.45,0.05,4.9-0.02,7.35c-0.03,1.09,0.35,1.4,1.41,1.39
		c4.21-0.05,8.42,0.07,12.62-0.06c2.31-0.07,4.63-0.27,6.8-1.3c4.01-1.9,5.95-6.41,4.33-10.32c-1.38-3.33-4.16-4.9-7.51-5.41
		c-5.51-0.84-11.08-0.21-16.62-0.39c-0.94-0.03-1.01,0.49-1.01,1.22C243.21,15.85,243.19,18.35,243.19,20.86z"/>
	<path class="st7" d="M175.54,50.08c1.86-1.51,3.57-2.82,5.19-4.23c0.9-0.79,1.45-0.16,2.13,0.26c7.51,4.59,15.48,5.14,23.72,2.48
		c3.02-0.97,4.83-3.66,4.85-6.56c0.02-3.07-1.45-5.13-4.62-6.45c-3.29-1.37-6.84-1.27-10.29-1.73c-4.6-0.61-9.26-1.11-13.3-3.62
		c-7.44-4.62-7.6-15.23-0.43-20.68c3.15-2.4,6.81-3.55,10.62-3.99c6.47-0.74,12.91-0.55,19.07,1.99c2.05,0.84,3.95,1.9,5.71,3.27
		c-1.58,1.25-3.18,2.35-4.55,3.67c-0.95,0.91-1.54,0.65-2.51,0.11c-6.33-3.51-12.98-4.23-19.8-1.72c-3.79,1.39-5.75,5.59-4.34,9.05
		c1.23,3.03,4.05,4,6.97,4.57c4.85,0.95,9.84,1,14.67,2.13c5.09,1.2,9.45,3.48,11.22,8.81c2.31,6.95-0.7,13.11-7.58,16.32
		c-5.49,2.57-11.39,3.04-17.41,2.7c-4.5-0.26-8.89-0.83-13.06-2.63C179.6,52.86,177.59,51.62,175.54,50.08z"/>
	<path class="st7" d="M1.87,53.49c0-15.31,0.02-30.62-0.03-45.93C1.83,6.09,2.22,5.71,3.67,5.73C9.93,5.81,16.2,5.78,22.46,5.75
		c0.98-0.01,1.47,0.09,1.29,1.29c-0.17,1.14-0.11,2.34-0.02,3.5c0.09,1.12-0.35,1.37-1.39,1.36c-3.57-0.06-7.14,0.02-10.71-0.04
		c-1.23-0.02-1.75,0.23-1.75,1.62c0.04,26.76,0.04,53.53,0,80.29c0,1.29,0.44,1.54,1.61,1.51c3.57-0.07,7.14,0.01,10.71-0.04
		c1.08-0.02,1.63,0.2,1.53,1.43c-0.13,1.56,0.48,3.6-0.3,4.57c-0.83,1.04-2.96,0.32-4.52,0.33c-5.15,0.04-10.3-0.03-15.45,0.05
		c-1.36,0.02-1.63-0.41-1.63-1.68C1.88,84.46,1.87,68.97,1.87,53.49z"/>
	<path class="st7" d="M141.66,53.64c0,15.37-0.03,30.74,0.04,46.11c0.01,1.61-0.47,1.9-1.95,1.88c-6.09-0.08-12.18-0.08-18.26,0
		c-1.36,0.02-1.75-0.39-1.62-1.68c0.16-1.5-0.62-3.45,0.3-4.39c0.92-0.95,2.88-0.26,4.39-0.29c2.63-0.05,5.27-0.05,7.9,0.01
		c0.98,0.02,1.42-0.29,1.32-1.29c-0.04-0.41,0-0.82,0-1.23c0-26.12,0-52.25,0-78.37c0-2.52,0-2.52-2.61-2.52
		c-3.4,0-6.79-0.05-10.19,0.03c-0.96,0.02-1.14-0.25-1.11-1.11c0.06-1.34,0.05-2.69,0-4.03c-0.02-0.76,0.26-1.02,1.02-1.01
		c6.62,0.02,13.23,0.03,19.85,0c1.2-0.01,0.91,0.79,0.91,1.43c0.01,6.6,0.01,13.21,0.01,19.81
		C141.66,35.87,141.66,44.76,141.66,53.64z"/>
	<path class="st7" d="M444.19,12.13c-5.12,0-10.32,0.09-15.52-0.05c-1.77-0.05-2.07,0.52-2.06,2.15
		c0.07,13.43,0.02,26.86,0.07,40.29c0.01,1.29-0.25,1.72-1.6,1.63c-1.98-0.13-3.99-0.16-5.96,0c-1.56,0.13-1.81-0.49-1.79-1.85
		c0.07-4.61,0.02-9.23,0.03-13.84c0.01-8.99-0.01-17.99,0.05-26.98c0.01-1.09-0.28-1.39-1.36-1.38c-4.85,0.05-9.71-0.02-14.56,0.05
		c-1.23,0.02-1.84-0.17-1.67-1.58c0.2-1.61-0.67-3.78,0.35-4.7c0.88-0.79,3.01-0.21,4.59-0.21c12.28,0,24.57,0,36.85,0
		c2.6,0,2.6,0,2.6,2.68C444.19,9.56,444.19,10.77,444.19,12.13z"/>
	<path class="st7" d="M455.63,56.1c0-0.62,0-1.25,0-1.89c0-15.55,0.03-31.09-0.05-46.64c-0.01-1.72,0.44-2.08,2.05-1.94
		c1.98,0.17,3.98,0.09,5.97,0.02c0.94-0.03,1.3,0.17,1.3,1.21c-0.03,16.01-0.03,32.03,0,48.04c0,1.04-0.35,1.24-1.3,1.22
		C460.99,56.06,458.37,56.1,455.63,56.1z"/>
	<path class="st7" d="M351.06,109.47c1.29-1.46,2.39-1.8,4.24-0.76c4.42,2.49,9.95,0.77,11.66-3.28c0.69-1.64,0.46-3.33,0.44-5.01
		c-0.02-1.19-0.68-0.6-1.13-0.26c-3.06,2.34-6.54,2.34-10.02,1.56c-3-0.68-4.97-2.66-5.73-5.73c-0.82-3.31-0.76-6.61,0.2-9.85
		c1.17-3.94,6.37-6.18,11.57-5.16c1.52,0.3,2.9,0.86,4.09,1.81c0.79,0.63,1.11,0.54,1.07-0.49c-0.08-2.12,1.53-0.95,2.37-1.16
		c1.14-0.29,1.14,0.54,1.14,1.37c-0.02,6.89,0.05,13.79-0.03,20.68c-0.04,3.41-1.57,6.11-4.77,7.5
		C360.96,112.97,355.91,112.56,351.06,109.47z M367.49,91.39c-0.12-1.02-0.17-2.19-0.4-3.33c-0.52-2.64-2.69-4.58-5.26-4.83
		c-3.94-0.37-6.53,0.85-7.62,3.75c-0.79,2.11-0.76,4.32-0.54,6.56c0.26,2.57,1.16,4.67,3.73,5.59c2.64,0.95,5.29,0.92,7.63-0.79
		C367.33,96.67,367.23,94.02,367.49,91.39z"/>
	<path class="st7" d="M313.89,102.09c1.98-4.35,3.94-8.67,5.91-12.99c2.45-5.37,4.91-10.74,7.38-16.11c0.4-0.87,0.7-1.72,2.05-1.63
		c1.31,0.08,2.16,0.16,2.81,1.62c4.16,9.35,8.47,18.63,12.73,27.93c0.17,0.36,0.32,0.73,0.48,1.09c-0.18,0.1-0.26,0.2-0.35,0.2
		c-3.44,0.14-3.74,0.23-4.8-3.07c-1.08-3.36-2.94-4.36-6.36-4.04c-3.77,0.35-7.59,0.12-11.39,0.06c-1.03-0.02-1.61,0.28-1.96,1.26
		c-0.35,0.98-0.85,1.9-1.27,2.85C317.68,102.52,317.69,102.52,313.89,102.09z M329.49,75.87c-2.37,5.33-4.61,10.41-6.89,15.47
		c-0.47,1.04-0.33,1.41,0.91,1.39c4.03-0.06,8.05-0.07,12.08,0c1.54,0.03,1.45-0.54,0.96-1.63c-1.69-3.75-3.31-7.53-5.01-11.27
		C330.96,78.55,330.63,77.12,329.49,75.87z"/>
	<path class="st7" d="M177.49,86.8c0-4.67,0-9.34,0-14.01c0-0.66-0.23-1.43,0.95-1.39c5.6,0.21,11.23-0.4,16.81,0.36
		c4.43,0.6,7.55,3.41,8.26,7.31c0.63,3.49-0.92,6.7-4.11,8.48c-1.86,1.04-3.86,1.66-5.99,1.7c-3.51,0.07-7.02,0.11-10.52,0.04
		c-1.35-0.03-1.69,0.43-1.65,1.71c0.08,3.27-0.07,6.54,0.07,9.8c0.08,1.81-1.04,1.39-2.02,1.42c-1,0.03-1.89,0.19-1.85-1.42
		C177.57,96.14,177.49,91.47,177.49,86.8z M188.4,74.11c-2.28,0-4.15,0.03-6.02-0.01c-0.81-0.02-1.14,0.23-1.13,1.09
		c0.03,3.5,0.04,7,0,10.5c-0.01,1.02,0.49,1.13,1.3,1.11c2.05-0.03,4.09,0.01,6.14-0.02c2.04-0.03,4.08,0.17,6.1-0.33
		c3.17-0.78,5.11-3.01,5.14-5.96c0.03-3.14-1.69-5.18-4.97-6.05C192.64,73.84,190.3,74.27,188.4,74.11z"/>
	<path class="st7" d="M47.15,73.16c-2.85,9.18-5.89,17.98-10.08,26.36c-0.87,1.73-1.72,3.01-3.94,2.9
		c-1.43-0.07-2.87,0.32-4.48,0.52c1.97-5.75,3.64-11.44,4.93-17.23c0.74-3.34,1.38-6.7,1.98-10.06c0.18-1.04,0.54-1.4,1.66-1.47
		C40.47,73.95,43.7,73.53,47.15,73.16z"/>
	<path class="st7" d="M211.22,86.75c0-4.67,0.07-9.34-0.04-14.01c-0.03-1.52,0.79-1.39,1.73-1.33c0.88,0.06,2.03-0.47,1.95,1.3
		c-0.13,3.03,0,6.07-0.05,9.1c-0.02,1.22,0.26,1.47,1.35,0.77c3.08-2,6.46-2.1,9.93-1.37c3.61,0.76,5.93,3.49,6,7.29
		c0.08,4.2-0.03,8.41,0.04,12.61c0.03,1.75-1.18,1.03-1.92,1.08c-0.75,0.05-1.78,0.45-1.74-1.11c0.09-3.79,0-7.59,0.04-11.38
		c0.03-2.65-0.62-4.95-3.36-5.89c-3.06-1.05-6.11-1.04-8.73,1.19c-1.34,1.14-1.6,2.78-1.6,4.46c0.01,3.62-0.07,7.24,0.04,10.86
		c0.05,1.5-0.31,1.92-1.88,1.98c-1.81,0.07-1.8-0.77-1.79-2.07C211.25,95.74,211.22,91.25,211.22,86.75z"/>
	<path class="st7" d="M400.64,99.43c-2.74,2.46-6.21,3.12-9.81,3.01c-3.35-0.1-6.71-0.63-8.93-3.58c-2.86-3.8-2.79-8.04-1.27-12.26
		c1.35-3.74,4.48-5.38,8.26-5.69c3.94-0.33,7.72,0.11,10.46,3.51c1.62,2.01,1.99,4.4,2.17,6.86c0.08,1.11-0.6,1.02-1.33,1.02
		c-5.03-0.01-10.05-0.01-15.08,0c-1.9,0-2.11,0.27-1.71,2.14c0.68,3.17,2.73,5.07,6.32,5.58c2.34,0.34,4.77,0.25,6.75-1.12
		C398.16,97.72,399.42,97.73,400.64,99.43z M390.54,90.3c2.04,0,4.09-0.03,6.13,0.01c1.02,0.02,1.25-0.31,1.11-1.36
		c-0.47-3.54-3.44-5.96-7.46-5.82c-3.83,0.14-6.34,2.19-6.98,5.39c-0.22,1.11-0.14,1.91,1.41,1.81
		C386.68,90.2,388.61,90.3,390.54,90.3z"/>
	<path class="st7" d="M414.04,83.17c2.61-1.82,5.52-2.61,8.71-2.31c1.28,0.12,2.54,0.32,3.73,0.85c2.91,1.29,4.44,3.56,4.51,6.69
		c0.09,4.2-0.03,8.41,0.06,12.62c0.04,1.66-1.05,1.18-1.87,1.2c-0.87,0.02-1.86,0.35-1.82-1.26c0.1-3.8,0.05-7.6,0.03-11.39
		c-0.02-3.38-1.23-5.14-4.02-5.97c-3.43-1.02-7.14-0.07-8.73,2.26c-0.72,1.05-0.87,2.26-0.87,3.5c0.01,3.8-0.08,7.6,0.04,11.39
		c0.05,1.53-0.69,1.56-1.78,1.49c-0.99-0.06-2.05,0.34-2.01-1.45c0.11-5.96,0.03-11.92,0.05-17.88c0-0.83-0.42-2.05,1.21-1.81
		c1.06,0.15,2.83-0.76,2.5,1.6C413.77,82.78,413.88,82.88,414.04,83.17z"/>
	<path class="st7" d="M309.18,91.64c0.15,7.34-4.04,10.83-10.78,10.79c-7.06-0.05-10.92-3.18-10.94-11.01
		c-0.02-6.83,3.97-10.61,11.03-10.59C305.48,80.85,309.21,84.62,309.18,91.64z M305.64,91.75c0-5.16-1.36-7.29-5.33-8.36
		c-3.61-0.97-7.8,0.92-8.71,3.99c-0.72,2.44-0.59,4.97-0.28,7.45c0.25,2,1.47,3.47,3.32,4.4C300.4,102.14,305.63,98.59,305.64,91.75
		z"/>
	<path class="st7" d="M240.64,91.6c-0.33-7.41,4.47-10.78,10.77-10.77c7.09,0,10.9,3.84,10.86,10.92
		c-0.04,8.19-4.64,10.69-10.91,10.69C244.57,102.42,240.36,98.93,240.64,91.6z M258.66,91.96c0-0.77,0.01-1.3,0-1.82
		c-0.04-3.27-1.57-5.6-4.27-6.52c-3.24-1.1-6.81-0.2-8.77,2.13c-1.72,2.04-1.42,4.47-1.41,6.83c0.02,6.14,5.64,9.46,11.09,6.58
		C258.35,97.55,258.78,94.76,258.66,91.96z"/>
	<path class="st7" d="M486.14,81.22c-4.17,9.07-8.22,18-12.37,26.89c-1.14,2.45-5.25,4.06-7.69,3.27c-0.94-0.31-0.43-1.06-0.53-1.62
		c-0.11-0.57,0.17-0.86,0.79-0.83c1.41,0.07,2.87,0.08,3.87-1.12c1.35-1.63,1.87-3.71,2.76-5.59c0.27-0.58-0.23-1.11-0.46-1.62
		c-2.73-5.97-5.45-11.94-8.24-17.88c-0.59-1.26-0.51-1.63,1.02-1.66c1.54-0.03,2.35,0.35,2.96,1.87c1.87,4.69,3.95,9.3,5.95,13.95
		c0.18,0.41,0.17,1.02,0.75,1.03c0.53,0.01,0.5-0.59,0.64-0.93c1.83-4.26,3.64-8.53,5.42-12.81
		C482.34,80.94,482.32,80.93,486.14,81.22z"/>
	<path class="st7" d="M84.38,17.38c-3.98,0-7.95-0.03-11.93,0.02c-1.03,0.01-1.49-0.21-1.41-1.34c0.12-1.68-0.55-3.87,0.28-4.93
		c0.88-1.13,3.17-0.34,4.83-0.35c6.67-0.05,13.33,0.02,20-0.05c1.38-0.01,2.06,0.25,1.88,1.79c-0.18,1.55,0.64,3.58-0.33,4.55
		c-0.97,0.97-3,0.27-4.56,0.29C90.23,17.41,87.3,17.38,84.38,17.38z"/>
	<path class="st7" d="M47.59,39.58c-0.03,4.43-2.73,7.22-6.98,7.21c-4.04-0.01-6.86-3.08-6.83-7.43c0.03-4.23,2.98-7.24,7.08-7.21
		C45.02,32.16,47.62,35.04,47.59,39.58z"/>
	<path class="st7" d="M459.68,99.54c-4.32,4.33-14.48,3.56-17.82-0.73c-2.69-3.45-2.94-7.21-1.74-11.21
		c1.13-3.76,3.93-5.63,7.58-6.39c4.34-0.9,8.46-0.53,12.01,2.48c-1.3,1.71-2.55,1.67-4.37,0.57c-3.71-2.22-8.9-1.02-11.11,2.24
		c-1.96,2.89-1.6,8.64,0.71,11.18c2.34,2.58,7.32,3.15,10.7,1.23C457.82,97.67,457.82,97.67,459.68,99.54z"/>
	<path class="st7" d="M275.24,77.78c0.06,3.82-0.54,3.28,3.36,3.33c0.58,0.01,1.17,0.02,1.75,0.01c0.69-0.01,0.68,0.47,0.69,0.95
		c0.01,0.53-0.09,0.91-0.74,0.91c-1.23-0.01-2.46,0.04-3.68-0.01c-0.94-0.04-1.39,0.26-1.38,1.28c0.03,4.08-0.04,8.17,0.03,12.26
		c0.04,2.31,1.32,3.27,4,3.31c0.85,0.01,1.94-0.39,1.81,1.25c-0.07,0.92-0.32,1.26-1.22,1.17c-0.64-0.06-1.28-0.03-1.93-0.06
		c-3.73-0.16-6.5-2.21-6.32-6.67c0.14-3.5-0.04-7,0.06-10.5c0.04-1.51-0.25-2.32-1.97-2.05c-0.55,0.09-1.3,0.29-1.34-0.81
		c-0.04-1.1,0.58-1.15,1.32-1.03c1.69,0.28,2.16-0.49,1.97-2.04c-0.09-0.75-0.02-1.52-0.02-2.27c0-2.31,0.71-2.83,3.02-2.33
		c0.57,0.12,0.6,0.4,0.59,0.84C275.22,76.15,275.24,76.97,275.24,77.78z"/>
</g>
</svg>
