<?xml version="1.0" encoding="utf-8"?>
<!-- Generator: Adobe Illustrator 24.1.1, SVG Export Plug-In . SVG Version: 6.00 Build 0)  -->
<svg version="1.1" id="Layer_1" xmlns="http://www.w3.org/2000/svg" xmlns:xlink="http://www.w3.org/1999/xlink" x="0px" y="0px"
	 viewBox="0 0 305.6 305.61" style="enable-background:new 0 0 305.6 305.61;" xml:space="preserve">
<style type="text/css">
	.st0{fill:#04658E;}
	.st1{fill:#ACCCDA;}
	.st2{fill:none;stroke:#000000;stroke-width:0.7071;stroke-miterlimit:10;}
	.st3{fill:none;stroke:#000000;stroke-width:0.8315;stroke-miterlimit:10;}
	.st4{fill:none;stroke:#000000;stroke-width:0.6567;stroke-miterlimit:10;}
	.st5{fill:none;stroke:#000000;stroke-miterlimit:10;}
	.st6{fill:#FFFFFF;}
	.st7{fill:#F2F2F2;}
</style>
<g>
	<polygon class="st0" points="2417.47,267.74 2473.58,323.85 2417.47,323.85 	"/>
	<polygon class="st0" points="2524.13,267.74 2524.13,308.32 2483.56,267.74 	"/>
	<polygon class="st0" points="2524.13,323.85 2524.13,323.85 2489.11,323.85 2433,267.74 2468.02,267.74 	"/>
</g>
<g>
	<polygon points="-25.02,596.42 99.05,720.48 -25.02,720.48 	"/>
	<polygon points="210.84,596.41 210.84,686.13 121.11,596.41 	"/>
	<polygon points="210.84,720.48 210.84,720.48 133.4,720.48 9.33,596.41 86.77,596.41 	"/>
</g>
<g>
	<polygon points="2617.01,1349.27 2741.09,1473.34 2617.01,1473.34 	"/>
	<polygon points="2852.87,1349.27 2852.87,1438.99 2763.15,1349.27 	"/>
	<polygon points="2852.87,1473.34 2852.87,1473.34 2775.43,1473.34 2651.36,1349.27 2728.8,1349.27 	"/>
</g>
<g>
	<polygon class="st0" points="-18.87,754.43 105.2,878.5 -18.87,878.5 	"/>
	<polygon class="st0" points="216.98,754.43 216.98,844.15 127.26,754.43 	"/>
	<polygon class="st0" points="216.98,878.49 216.98,878.5 139.55,878.5 15.47,754.43 92.91,754.43 	"/>
</g>
<rect x="271.47" y="607.48" class="st0" width="257.33" height="257.33"/>
<rect x="575.47" y="603.57" class="st1" width="257.33" height="257.33"/>
<g>
	<g>
		<polygon class="st0" points="2060.5,511.92 2306.93,758.34 2060.5,758.34 		"/>
		<polygon class="st0" points="2528.94,511.92 2528.94,690.12 2350.74,511.92 		"/>
		<polygon class="st0" points="2528.94,758.33 2528.94,758.34 2375.14,758.34 2128.72,511.92 2282.53,511.92 		"/>
	</g>
	<polyline class="st2" points="2350.74,506.69 2350.74,502.92 2528.94,502.92 2528.94,506.69 	"/>
	<polyline class="st2" points="2534.5,511.92 2538.28,511.92 2538.28,690.12 2534.5,690.12 	"/>
	<polyline class="st3" points="2053.94,758.34 2050.17,758.34 2050.17,511.92 2053.94,511.92 	"/>
	<polyline class="st3" points="2306.93,763.34 2306.93,767.12 2060.5,767.12 2060.5,763.34 	"/>
	<polyline class="st4" points="2128.72,506.69 2128.72,502.92 2282.41,502.92 2282.41,506.69 	"/>
	<polyline class="st4" points="2528.94,764.36 2528.94,768.14 2375.24,768.14 2375.24,764.36 	"/>
	<g>
		<text transform="matrix(1 0 0 1 2653.7385 572.8537)" style="font-family:'ArialMT'; font-size:18.8354px;">Computer Aided Design (CAD)</text>
		<text transform="matrix(1 0 0 1 2650.9485 645.1335)" style="font-family:'ArialMT'; font-size:18.8354px;">Graphic Design / Web Design</text>
		<text transform="matrix(1 0 0 1 2653.7385 717.4131)" style="font-family:'ArialMT'; font-size:18.8354px;">Photography</text>
	</g>
	<polyline class="st5" points="2538.28,601.02 2589.61,601.02 2589.61,580.81 2909.61,580.81 	"/>
	<polyline class="st5" points="2441.94,502.92 2441.94,488.81 2604.61,488.81 2604.61,580.81 	"/>
	<polyline class="st5" points="2452.09,768.14 2452.09,777.14 2604.61,777.14 2604.61,650.92 2898.5,650.92 	"/>
	<polyline class="st5" points="2205.57,502.92 2205.57,488.81 2291.39,488.81 2528.78,726.19 2604.61,726.19 	"/>
	<polyline class="st5" points="2183.71,767.12 2183.71,797.58 2626.94,797.58 2626.94,726.19 2760.72,726.19 	"/>
	<polyline class="st5" points="2050.17,645.13 2031.39,645.13 2031.39,818.03 2405.09,818.03 2405.09,797.58 	"/>
</g>
<g>
	<rect x="2268.39" y="951.16" class="st0" width="156.69" height="156.69"/>
	<text transform="matrix(1 0 0 1 2458.3496 1003.4457)"><tspan x="0" y="0" style="font-family:'ArialMT'; font-size:27.915px;">Pantone P 113-8 U</tspan><tspan x="0" y="33.5" style="font-family:'ArialMT'; font-size:27.915px;">RGB : 4 101 142</tspan><tspan x="0" y="67" style="font-family:'ArialMT'; font-size:27.915px;">#04658E</tspan></text>
</g>
<rect x="1930.8" y="1225.81" width="542.78" height="371"/>
<g>
	<polygon class="st6" points="2081.07,1349.28 2205.14,1473.34 2081.07,1473.34 	"/>
	<polygon class="st6" points="2316.93,1349.27 2316.93,1438.99 2227.2,1349.27 	"/>
	<polygon class="st6" points="2316.93,1473.34 2316.93,1473.34 2239.49,1473.34 2115.42,1349.27 2192.86,1349.27 	"/>
</g>
<g>
	<polygon class="st0" points="-25.02,892.73 320.71,1238.45 -25.02,1238.45 	"/>
	<polygon class="st0" points="632.2,892.72 632.2,1142.73 382.19,892.72 	"/>
	<polygon class="st0" points="632.2,1238.44 632.2,1238.45 416.42,1238.45 70.69,892.72 286.48,892.72 	"/>
</g>
<g>
	<path class="st1" d="M1586.1,588.04h-317c-143.32,0-259.5,116.18-259.5,259.5v312.33c0,143.32,116.18,259.5,259.5,259.5h317
		c143.32,0,259.5-116.18,259.5-259.5V847.54C1845.6,704.21,1729.42,588.04,1586.1,588.04z M1777.6,1162.22
		c0,103.32-83.76,187.07-187.07,187.07h-323.67c-103.32,0-187.07-83.75-187.07-187.07V844.1c0-103.32,83.75-187.07,187.07-187.07
		h323.67c103.31,0,187.07,83.75,187.07,187.07V1162.22z"/>
	<path class="st1" d="M1428.6,795.08c-116.18,0-210.36,94.18-210.36,210.36c0,116.18,94.18,210.36,210.36,210.36
		c116.18,0,210.36-94.18,210.36-210.36C1638.96,889.27,1544.78,795.08,1428.6,795.08z M1427.6,1157.36
		c-83.01,0-150.29-67.29-150.29-150.3c0-83,67.28-150.29,150.29-150.29c83,0,150.29,67.29,150.29,150.29
		C1577.89,1090.07,1510.6,1157.36,1427.6,1157.36z"/>
	<circle class="st1" cx="1650.76" cy="779.6" r="47.36"/>
</g>
<g>
	<path class="st7" d="M1616.69-117.69h-176.84c-79.95,0-144.77,64.81-144.77,144.77v174.24c0,79.95,64.81,144.77,144.77,144.77
		h176.84c79.95,0,144.77-64.81,144.77-144.77V27.07C1761.45-52.88,1696.64-117.69,1616.69-117.69z M1723.52,202.63
		c0,57.64-46.73,104.36-104.36,104.36H1438.6c-57.64,0-104.36-46.72-104.36-104.36V25.16c0-57.64,46.72-104.36,104.36-104.36h180.56
		c57.63,0,104.36,46.72,104.36,104.36V202.63z"/>
	<path class="st7" d="M1528.82-2.19c-64.81,0-117.35,52.54-117.35,117.35s52.54,117.35,117.35,117.35s117.35-52.54,117.35-117.35
		S1593.64-2.19,1528.82-2.19z M1528.27,199.91c-46.31,0-83.84-37.54-83.84-83.85c0-46.3,37.53-83.84,83.84-83.84
		c46.3,0,83.84,37.54,83.84,83.84C1612.11,162.38,1574.57,199.91,1528.27,199.91z"/>
	<circle class="st7" cx="1652.76" cy="-10.83" r="26.42"/>
</g>
<g>
	<polygon class="st1" points="-3.69,1283.6 285.8,1573.07 -3.69,1573.07 	"/>
	<polygon class="st1" points="546.62,1283.58 546.62,1492.92 337.27,1283.58 	"/>
	<polygon class="st1" points="546.62,1573.07 546.62,1573.07 365.93,1573.07 76.44,1283.58 257.13,1283.58 	"/>
</g>
<g>
	<polygon class="st7" points="592.89,2.91 853.71,263.72 592.89,263.72 	"/>
	<polygon class="st7" points="1088.71,2.89 1088.71,191.5 900.09,2.89 	"/>
	<polygon class="st7" points="1088.71,263.72 1088.71,263.72 925.91,263.72 665.09,2.89 827.89,2.89 	"/>
</g>
<path class="st1" d="M951.47,959.32H700.79c-15.17,0-27.46,12.3-27.46,27.47v250.67c0,15.17,12.29,27.47,27.46,27.47h250.68
	c15.17,0,27.46-12.3,27.46-27.47V986.8C978.93,971.63,966.64,959.32,951.47,959.32z M768.24,1223.41c0,4.5-3.65,8.15-8.14,8.15
	h-34.82c-4.5,0-8.15-3.65-8.15-8.15v-143.75c0-4.49,3.65-8.14,8.15-8.14h34.82c4.49,0,8.14,3.65,8.14,8.14V1223.41z M742.69,1058.03
	c-17.92,0-32.45-14.52-32.45-32.44c0-17.92,14.53-32.45,32.45-32.45c17.91,0,32.44,14.53,32.44,32.45
	C775.13,1043.51,760.6,1058.03,742.69,1058.03z M946.74,1155.06v68.35c0,4.5-3.65,8.15-8.14,8.15h-35.16c-4.5,0-8.14-3.65-8.14-8.15
	v-72.62c0-0.36,0.02-0.71,0.07-1.05l-0.07-0.01c1.75-39.42-25.59-37.09-25.59-37.09c-21.65-0.33-27.28,21.3-28.66,29.89v80.88
	c0,4.5-3.65,8.15-8.15,8.15h-34.96c-4.5,0-8.14-3.65-8.14-8.15v-143.75c0-4.49,3.64-8.14,8.14-8.14h34.96c4.5,0,8.15,3.65,8.15,8.14
	v11.46c15-24.58,46.97-21.98,46.97-21.98C958.24,1067.36,946.74,1155.06,946.74,1155.06z"/>
<path class="st7" d="M278.14,0H27.46C12.29,0,0,12.3,0,27.47v250.67c0,15.17,12.29,27.47,27.46,27.47h250.68
	c15.17,0,27.46-12.3,27.46-27.47V27.47C305.6,12.3,293.31,0,278.14,0z M94.91,264.08c0,4.5-3.65,8.15-8.14,8.15H51.95
	c-4.5,0-8.15-3.65-8.15-8.15V120.33c0-4.49,3.65-8.14,8.15-8.14h34.82c4.49,0,8.14,3.65,8.14,8.14V264.08z M69.36,98.7
	c-17.92,0-32.45-14.52-32.45-32.44c0-17.92,14.53-32.45,32.45-32.45c17.91,0,32.44,14.53,32.44,32.45
	C101.8,84.18,87.27,98.7,69.36,98.7z M273.41,195.73v68.35c0,4.5-3.65,8.15-8.14,8.15h-35.16c-4.5,0-8.14-3.65-8.14-8.15v-72.62
	c0-0.36,0.02-0.71,0.07-1.05l-0.07-0.01c1.75-39.42-25.59-37.09-25.59-37.09c-21.65-0.33-27.28,21.3-28.66,29.89v80.88
	c0,4.5-3.65,8.15-8.15,8.15h-34.96c-4.5,0-8.14-3.65-8.14-8.15V120.33c0-4.49,3.64-8.14,8.14-8.14h34.96c4.5,0,8.15,3.65,8.15,8.14
	v11.46c15-24.58,46.97-21.98,46.97-21.98C284.91,108.04,273.41,195.73,273.41,195.73z"/>
</svg>
