<?xml version="1.0" encoding="utf-8"?>
<!-- Generator: Adobe Illustrator 24.1.1, SVG Export Plug-In . SVG Version: 6.00 Build 0)  -->
<svg version="1.1" id="Layer_1" xmlns="http://www.w3.org/2000/svg" xmlns:xlink="http://www.w3.org/1999/xlink" x="0px" y="0px"
	 viewBox="0 0 323.11 206.67" style="enable-background:new 0 0 323.11 206.67;" xml:space="preserve">
<style type="text/css">
	.st0{fill:#04658E;}
	.st1{fill:#ACCCDA;}
	.st2{fill:none;stroke:#000000;stroke-width:0.7071;stroke-miterlimit:10;}
	.st3{fill:none;stroke:#000000;stroke-width:0.8315;stroke-miterlimit:10;}
	.st4{fill:none;stroke:#000000;stroke-width:0.6567;stroke-miterlimit:10;}
	.st5{fill:none;stroke:#000000;stroke-miterlimit:10;}
	.st6{fill:#FFFFFF;}
	.st7{fill:#F2F2F2;}
	.st8{fill:#FF00FF;}
</style>
<g>
	<polygon class="st0" points="2885.22,493.05 2941.33,549.16 2885.22,549.16 	"/>
	<polygon class="st0" points="2991.89,493.05 2991.89,533.62 2951.31,493.05 	"/>
	<polygon class="st0" points="2991.89,549.16 2991.89,549.16 2956.87,549.16 2900.76,493.05 2935.78,493.05 	"/>
</g>
<g>
	<polygon points="442.74,821.72 566.81,945.79 442.74,945.79 	"/>
	<polygon points="678.59,821.72 678.59,911.44 588.87,821.72 	"/>
	<polygon points="678.59,945.79 678.59,945.79 601.16,945.79 477.08,821.72 554.52,821.72 	"/>
</g>
<g>
	<polygon points="3084.77,1574.58 3208.84,1698.65 3084.77,1698.65 	"/>
	<polygon points="3320.63,1574.57 3320.63,1664.3 3230.9,1574.57 	"/>
	<polygon points="3320.63,1698.64 3320.63,1698.65 3243.19,1698.65 3119.12,1574.57 3196.56,1574.57 	"/>
</g>
<g>
	<polygon class="st0" points="448.88,979.74 572.95,1103.8 448.88,1103.8 	"/>
	<polygon class="st0" points="684.74,979.73 684.74,1069.45 595.02,979.73 	"/>
	<polygon class="st0" points="684.74,1103.8 684.74,1103.8 607.3,1103.8 483.23,979.73 560.67,979.73 	"/>
</g>
<rect x="739.22" y="832.79" class="st0" width="257.33" height="257.33"/>
<rect x="1043.22" y="828.88" class="st1" width="257.33" height="257.33"/>
<g>
	<g>
		<polygon class="st0" points="2528.26,737.23 2774.68,983.65 2528.26,983.65 		"/>
		<polygon class="st0" points="2996.7,737.22 2996.7,915.42 2818.5,737.22 		"/>
		<polygon class="st0" points="2996.7,983.64 2996.7,983.65 2842.9,983.65 2596.47,737.22 2750.28,737.22 		"/>
	</g>
	<polyline class="st2" points="2818.5,732 2818.5,728.22 2996.7,728.22 2996.7,732 	"/>
	<polyline class="st2" points="3002.25,737.22 3006.03,737.22 3006.03,915.42 3002.25,915.42 	"/>
	<polyline class="st3" points="2521.7,983.65 2517.92,983.65 2517.92,737.22 2521.7,737.22 	"/>
	<polyline class="st3" points="2774.68,988.65 2774.68,992.43 2528.26,992.43 2528.26,988.65 	"/>
	<polyline class="st4" points="2596.47,732 2596.47,728.22 2750.17,728.22 2750.17,732 	"/>
	<polyline class="st4" points="2996.7,989.67 2996.7,993.44 2843,993.44 2843,989.67 	"/>
	<g>
		<text transform="matrix(1 0 0 1 3121.4939 798.1598)" style="font-family:'ArialMT'; font-size:18.8354px;">Computer Aided Design (CAD)</text>
		<text transform="matrix(1 0 0 1 3118.7039 870.4396)" style="font-family:'ArialMT'; font-size:18.8354px;">Graphic Design / Web Design</text>
		<text transform="matrix(1 0 0 1 3121.4939 942.7192)" style="font-family:'ArialMT'; font-size:18.8354px;">Photography</text>
	</g>
	<polyline class="st5" points="3006.03,826.32 3057.36,826.32 3057.36,806.11 3377.36,806.11 	"/>
	<polyline class="st5" points="2909.7,728.22 2909.7,714.11 3072.36,714.11 3072.36,806.11 	"/>
	<polyline class="st5" points="2919.85,993.44 2919.85,1002.44 3072.36,1002.44 3072.36,876.22 3366.25,876.22 	"/>
	<polyline class="st5" points="2673.32,728.22 2673.32,714.11 2759.14,714.11 2996.53,951.5 3072.36,951.5 	"/>
	<polyline class="st5" points="2651.47,992.43 2651.47,1022.89 3094.7,1022.89 3094.7,951.5 3228.48,951.5 	"/>
	<polyline class="st5" points="2517.92,870.44 2499.14,870.44 2499.14,1043.33 2872.84,1043.33 2872.84,1022.89 	"/>
</g>
<g>
	<rect x="2736.14" y="1176.46" class="st0" width="156.69" height="156.69"/>
	<text transform="matrix(1 0 0 1 2926.105 1228.7518)"><tspan x="0" y="0" style="font-family:'ArialMT'; font-size:27.915px;">Pantone P 113-8 U</tspan><tspan x="0" y="33.5" style="font-family:'ArialMT'; font-size:27.915px;">RGB : 4 101 142</tspan><tspan x="0" y="67" style="font-family:'ArialMT'; font-size:27.915px;">#04658E</tspan></text>
</g>
<rect x="2398.56" y="1451.11" width="542.78" height="371"/>
<g>
	<polygon class="st6" points="2548.83,1574.58 2672.9,1698.65 2548.83,1698.65 	"/>
	<polygon class="st6" points="2784.68,1574.58 2784.68,1664.3 2694.96,1574.58 	"/>
	<polygon class="st6" points="2784.68,1698.65 2784.68,1698.65 2707.25,1698.65 2583.17,1574.58 2660.61,1574.58 	"/>
</g>
<g>
	<polygon class="st0" points="442.74,1118.04 788.47,1463.76 442.74,1463.76 	"/>
	<polygon class="st0" points="1099.95,1118.03 1099.95,1368.04 849.94,1118.03 	"/>
	<polygon class="st0" points="1099.95,1463.74 1099.95,1463.76 884.18,1463.76 538.44,1118.03 754.23,1118.03 	"/>
</g>
<g>
	<path class="st1" d="M2053.86,813.34h-317c-143.32,0-259.5,116.18-259.5,259.5v312.33c0,143.32,116.18,259.5,259.5,259.5h317
		c143.32,0,259.5-116.18,259.5-259.5v-312.33C2313.36,929.52,2197.18,813.34,2053.86,813.34z M2245.36,1387.53
		c0,103.32-83.76,187.07-187.07,187.07h-323.67c-103.32,0-187.07-83.75-187.07-187.07v-318.12c0-103.32,83.75-187.07,187.07-187.07
		h323.67c103.31,0,187.07,83.75,187.07,187.07V1387.53z"/>
	<path class="st1" d="M1896.36,1020.39c-116.18,0-210.36,94.18-210.36,210.36s94.18,210.36,210.36,210.36
		c116.18,0,210.36-94.18,210.36-210.36S2012.54,1020.39,1896.36,1020.39z M1895.36,1382.67c-83.01,0-150.29-67.29-150.29-150.3
		c0-83,67.28-150.29,150.29-150.29c83,0,150.29,67.29,150.29,150.29C2045.65,1315.38,1978.36,1382.67,1895.36,1382.67z"/>
	<circle class="st1" cx="2118.52" cy="1004.9" r="47.36"/>
</g>
<g>
	<polygon class="st1" points="464.06,1508.91 753.55,1798.38 464.06,1798.38 	"/>
	<polygon class="st1" points="1014.38,1508.89 1014.38,1718.22 805.02,1508.89 	"/>
	<polygon class="st1" points="1014.38,1798.38 1014.38,1798.38 833.69,1798.38 544.2,1508.89 724.89,1508.89 	"/>
</g>
<g>
	<polygon class="st0" points="1060.64,228.22 1321.47,489.02 1060.64,489.02 	"/>
	<polygon class="st0" points="1556.47,228.2 1556.47,416.81 1367.84,228.2 	"/>
	<polygon class="st0" points="1556.47,489.02 1556.47,489.02 1393.67,489.02 1132.84,228.2 1295.64,228.2 	"/>
</g>
<path class="st1" d="M1419.23,1184.63h-250.68c-15.17,0-27.46,12.3-27.46,27.47v250.67c0,15.17,12.29,27.47,27.46,27.47h250.68
	c15.17,0,27.46-12.3,27.46-27.47V1212.1C1446.69,1196.93,1434.4,1184.63,1419.23,1184.63z M1236,1448.71c0,4.5-3.65,8.15-8.14,8.15
	h-34.82c-4.5,0-8.15-3.65-8.15-8.15v-143.75c0-4.49,3.65-8.14,8.15-8.14h34.82c4.49,0,8.14,3.65,8.14,8.14V1448.71z
	 M1210.45,1283.33c-17.92,0-32.45-14.52-32.45-32.44s14.53-32.45,32.45-32.45c17.91,0,32.44,14.53,32.44,32.45
	S1228.36,1283.33,1210.45,1283.33z M1414.5,1380.36v68.35c0,4.5-3.65,8.15-8.14,8.15h-35.16c-4.5,0-8.14-3.65-8.14-8.15v-72.62
	c0-0.36,0.02-0.71,0.07-1.05l-0.07-0.01c1.75-39.42-25.59-37.09-25.59-37.09c-21.65-0.33-27.28,21.3-28.66,29.89v80.88
	c0,4.5-3.65,8.15-8.15,8.15h-34.96c-4.5,0-8.14-3.65-8.14-8.15v-143.75c0-4.49,3.64-8.14,8.14-8.14h34.96c4.5,0,8.15,3.65,8.15,8.14
	v11.46c15-24.58,46.97-21.98,46.97-21.98C1426,1292.67,1414.5,1380.36,1414.5,1380.36z"/>
<path class="st7" d="M15.03,34.35c-0.01,0-0.01,0-0.02,0l0.03,0.03C15.04,34.37,15.03,34.36,15.03,34.35z"/>
<path class="st7" d="M70.95,186.47c-4.7,6.48-13.59,9.06-20.77,6.08c-2.87-1.19-5.69-2.48-8.4-4c-1.79-1.01-3.7-1.43-5.72-1.08
	c-3.35,0.58-5.86,3.34-6.28,6.84c-0.47,4.01,1.05,7.1,4.38,9.34c0.4,0.28,1.06,0.31,1.1,0.99c-0.27,0.26-0.53,0.15-0.77,0.04
	c-5.87-2.81-8.47-9.76-6.13-15.13c2.56-5.84,9.44-8.48,15.23-5.73c2.71,1.29,5.45,2.48,8.22,3.62c6.73,2.77,15.36-2.08,16.03-9.61
	c0.33-3.69-0.83-6.82-3.88-8.99c-3.08-2.2-6.48-2.43-9.87-0.7c-3.96,2.01-7.98,3.88-12.23,5.22c-2.4,0.76-4.84,1.36-7.36,1.56
	c-10.64,0.86-18.28-6.24-19.79-15.88c-0.59-3.8-0.17-7.49,1.39-11c2.57-5.77,7.15-9.07,13.19-10.48c1.94-0.45,1.59-0.5,1.6-1.96
	V80.65c0-0.27-0.02-0.54,0-0.81c0.03-0.63-0.3-0.82-0.89-0.82c-4.34,0.01-8.67,0.02-13.01,0c-0.71,0-0.96,0.31-0.92,0.97
	c0.02,0.32,0,0.64,0,0.96v34.55c0,0.22-0.01,0.43,0,0.65c0.04,1.14,0.04,1.14,1.16,1.18c0.27,0.01,0.54,0,0.81,0
	c2.25,0,4.5-0.02,6.74,0c2.04,0.02,1.94-0.37,1.94,2.01c0.01,2.79,0,5.58,0,8.36c0,0.48,0,0.97-0.02,1.45
	c-0.06,1.13-0.07,1.17-1.19,1.17c-7.06,0.01-14.13,0.01-21.2,0c-1.12-0.01-1.12-0.04-1.15-1.19c-0.01-0.22,0-0.43,0-0.65V68.06
	c0-2.17-0.27-1.96,1.98-1.96c5.79-0.01,11.57,0,17.35-0.01c0.58,0,1.17,0.12,1.92-0.19c-1.4-3.38-2.17-6.89-1.92-10.63
	c-0.88,0.07-1.13,0.71-1.45,1.21c-1.16,1.78-1.7,3.8-2.17,5.84c-0.07,0.34,0.05,0.78-0.52,1.01c-1.3-7.91-1.19-15.47,4.29-22.02
	c-1.82-0.14-3.81,0.96-7.1,3.9c-0.35-1.84,0.88-5.01,2.79-7.31c1.79-2.14,4.14-3.44,6.93-4.43c-0.84-0.59-1.55-0.69-2.29-0.71
	c-2.12-0.07-4.13,0.5-6.13,1.11c-0.59,0.19-1.14,0.58-1.81,0.48c-0.16-0.34,0.09-0.58,0.26-0.83c2.89-4.47,7-6.97,12.28-7.52
	c1.86-0.19,3.73-0.09,5.67,0.14c-1.17-1.92-2.87-2.33-9.73-2.41c-0.09-0.63,0.48-0.78,0.82-1.02c3.63-2.55,7.72-3.3,12.06-2.97
	c2.95,0.22,5.81,0.89,8.6,1.87c0.39,0.14,0.77,0.4,1.33,0.19c-0.53-1.14-1.69-1.36-2.59-1.88c-0.92-0.53-1.91-0.94-2.88-1.41
	c0.3-0.31,0.65-0.15,0.95-0.11c1.76,0.28,3.53,0.22,5.29,0.07c2.3-0.19,4.59-0.32,6.9-0.2c1.52,0.09,2.94,0.5,4.15,1.4
	c-0.02,0.3-0.14,0.46-0.33,0.59c-3.56,2.45-5.14,6-5.16,10.17c0,1.87-0.61,2.72-2.24,3.58c-6.55,3.46-10.43,8.89-11.09,16.39
	c-0.53,5.92,1.27,11.22,4.68,15.98c4.42,6.18,10.54,9.91,17.75,12c2.34,0.68,4.74,1.11,7.48,1.41c-2.39,1.39-4.65,2.29-7.01,2.94
	c-6.12,1.67-11.98,1.07-17.55-2.01c-0.47-0.26-0.93-0.52-1.33-0.9c-5.85-5.54-10.14-12.04-11.75-20.04
	c-1.71-8.44-0.32-16.29,5.05-23.23c1.59-2.05,3.57-3.68,5.64-5.22c-3.11,1.27-5.72,3.25-7.89,5.79c-4.74,5.53-6.57,12.03-6.34,19.2
	c0.22,6.79,2.49,12.92,6.24,18.47c2.32,3.42,5.18,6.43,8.5,8.92c0.84,0.63,1.08,1.29,1.08,2.29c-0.03,16.82-0.02,33.64-0.02,50.46
	c0,2.07,0,2.06,2,2.35c1.16,0.17,2.32,0.39,3.49,0.53c3.96,0.5,7.3-0.67,9.8-3.86c0.5-0.64,0.96-1.02,1.83-1.01
	c3.59,0.05,7.17,0.01,10.76,0.03c1.34,0,1.42,0.09,0.93,1.39c-2.92,7.86-8.5,12.5-16.78,13.89c-3.74,0.62-7.36-0.19-10.99-0.8
	c-3.54-0.6-7.05-1.31-10.58-1.94c-5.16-0.91-10.35,3-10.95,8.23c-0.83,7.21,5.37,12.76,12.49,11.25c5.16-1.1,10.04-2.92,14.82-5.13
	c6.22-2.88,12.15-2.05,17.48,2.17C75.19,169.13,76.32,179.06,70.95,186.47z"/>
<path class="st7" d="M49.66,66.08c4.05,0,7.79,0,11.54,0c9.42,0.01,18.84,0.03,28.26,0c1.04,0,1.8,0.27,2.54,1.02
	c1.87,1.91,3.81,3.76,5.76,5.6c0.59,0.56,0.84,1.13,0.84,1.96c-0.02,15.69-0.02,31.38,0,47.07c0,0.83-0.27,1.4-0.85,1.95
	c-2.06,1.95-4.1,3.92-6.11,5.93c-0.54,0.54-1.1,0.74-1.85,0.74c-13.49-0.02-26.98-0.01-40.47-0.02c-1.23,0-1.26-0.03-1.26-1.24
	c-0.01-3.43-0.01-6.85,0-10.28c0-1.46,0.01-1.47,1.51-1.47c10.81,0,21.62,0.01,32.44-0.01c1.1,0,2.5,0.5,3.22-0.29
	c0.64-0.7,0.19-2.05,0.19-3.11c0.01-11.03,0.01-22.06,0.01-33.09c0-2,0.17-1.82-1.82-1.79c-5.48,0.09-10.91-0.29-16.24-1.61
	c-6.1-1.52-11.47-4.39-15.84-8.97C50.89,67.8,50.27,67.16,49.66,66.08z"/>
<path class="st7" d="M98.97,17.95c-2.63-0.68-5.3-0.63-7.98-0.45c-0.7,0.05-1.39,0.09-2.08,0.15c-0.57,0.06-0.86-0.12-0.99-0.73
	c-0.27-1.32-1.24-2.09-2.34-2.71c-0.94-0.52-1.97-0.83-3.02-1.05c-2.21-0.45-4.42-0.85-6.62-1.3c-3.72-0.75-7.2-2.02-10.13-4.55
	c-0.41-0.36-0.9-1.79-1.68-0.24c-0.08,0.15-0.3,0.02-0.41-0.07c-1.79-1.53-4.05-1.87-6.23-2.36c-2.04-0.46-4.09-0.87-5.89-2
	c-0.25-0.15-0.51-0.13-0.83,0.07c0.19,0.8,0.74,1.37,1.33,1.89c0.98,0.87,2.17,1.37,3.38,1.81c0.85,0.31,1.74,0.57,2.48,1.1
	c0.52,0.38,1.19,0.74,0.95,1.75c-2.12-1.54-4.43-1.55-6.83-1.55c-4.01-0.01-8.03-0.28-11.72-2.19c-0.26-0.14-0.51-0.11-0.8,0.09
	c0.1,0.79,0.73,1.25,1.27,1.72c1.3,1.1,2.88,1.62,4.52,1.94c2.22,0.44,4.46,0.55,6.71,0.63c0.75,0.03,1.5,0.04,2.24,0.15
	c0.46,0.06,1.09,0.12,1.13,0.7c0.05,0.67-0.52,0.85-1.1,0.9c-0.42,0.04-0.85,0.14-1.27,0.16c-2.62,0.15-5.26,0.26-7.87-0.01
	c-5.22-0.52-10.35-1.34-13.98-5.77c-0.19-0.23-0.4-0.3-0.7-0.18c-0.33,0.13-0.3,0.4-0.27,0.66c0.4,3.66,1.91,6.55,5.54,7.97
	c1.2,0.47,2.45,0.76,3.73,0.93c3.68,0.48,7.38,0.25,11.06,0.1c1.99-0.08,3.97,0.04,5.94,0.26c1.44,0.16,2.83,0.55,4.1,1.29
	c1.2,0.7,2.07,1.68,2.61,2.95c0.21,0.48,0.14,0.82-0.38,1.02c-0.8,0.32-1.55,0.74-2.24,1.25c-2.3,1.69-3.55,3.92-3.49,6.81
	c0.58,0.16,0.92-0.17,1.29-0.34c1.22-0.55,2.47-1.04,3.79-1.3c3.05-0.61,5.99-0.46,8.57,1.5c0.98,0.75,2.07,1.49,2.36,2.84
	c-0.47-0.23-0.94-0.44-1.41-0.67c-1.88-0.95-3.87-1.58-5.98-1.71c-3.89-0.24-6.91,1.33-9.17,4.5c1.42-0.45,2.78-1.03,4.24-1.3
	c2.09-0.39,4.16-0.41,6.13,0.53c0.54,0.26,1.18,0.47,1.42,1.25c-1.47-0.1-2.83-0.47-4.23-0.35c-1.43,0.13-2.84,0.28-3.87,1.83
	c4.33-0.86,8.19-0.1,11.75,2.07c0.85,0.52,1.44,0.52,2.25-0.07c1.56-1.14,3.19-1.04,4.76,0.1c0.92,0.66,1.68,1.49,2.47,2.29
	c0.95,0.95,1.87,1.92,2.98,2.68c1.35,0.92,2.81,1.29,4.42,1.09c1.27-0.16,2.27-0.76,2.67-2c0.7-2.18,0.36-4.28-0.76-6.52
	c-0.36,1.03-0.58,1.84-0.94,2.58c-0.32,0.66-0.79,0.66-1.23,0.07c-0.21-0.3-0.34-0.66-0.51-0.99c-0.33-0.63-0.33-1.42-0.86-2.05
	c-0.16,0.24-0.25,0.36-0.33,0.49c-1.35,2.09-2.6,2.28-4.44,0.67c-0.28-0.25-0.55-0.51-0.8-0.79c-1.97-2.22-3.37-4.82-4.91-7.33
	c-0.28-0.45-0.2-0.78,0.21-1.1c0.82-0.63,1.74-1.05,2.73-1.32c2.26-0.62,4.55-0.55,6.85-0.2c1.42,0.22,2.81,0.64,4.27,0.72
	c2.22,0.13,4.35-0.26,6.31-1.29c0.47,0.76-0.1,1.66,0.59,2.41c0.46-0.84,0.81-1.62,1.29-2.31c0.59-0.86,1.16-0.78,1.69,0.14
	c0.41,0.7,0.39,1.56,0.9,2.28c0.66-0.7,0.9-1.59,1.19-2.44C103.97,21.51,102.56,18.88,98.97,17.95z M81.36,21.09
	c-0.85,0.31-1.54,0.37-2.06-0.7c-0.47-0.98-1.49-1.49-2.55-1.77c-0.61-0.16-1.22-0.28-1.87-0.43c2.08-1.74,6.48-1.06,8.53,2.24
	C82.74,20.92,82,20.86,81.36,21.09z"/>
<path class="st7" d="M286.45,35.06c0-0.51,0-1.01,0-1.52c0-7.23,0-14.46,0-21.69c0-0.37,0.01-0.75,0-1.12
	c-0.01-0.48,0.22-0.67,0.68-0.67c1.28,0.01,2.57,0,3.85,0c0.47,0,0.68,0.23,0.66,0.69c-0.01,0.37,0,0.75,0,1.12
	c0,17.88,0,35.77,0,53.65c0,2.17,0.25,1.88-1.84,1.91c-0.7,0.01-1.39,0.01-2.09,0c-1.25-0.01-1.26-0.02-1.49-1.3
	c-0.35-2-0.68-4.01-1.04-6.01c-1.06-6-2.13-12.01-3.19-18.01c-0.03-0.15,0.02-0.34-0.35-0.47c0,0.63,0,1.22,0,1.8
	c0,7.34,0,14.67,0,22.01c0,0.37-0.02,0.75,0,1.12c0.04,0.6-0.2,0.87-0.83,0.86c-1.18-0.03-2.36-0.03-3.53,0
	c-0.6,0.02-0.91-0.17-0.87-0.81c0.02-0.32,0-0.64,0-0.96c0-17.94,0-35.87,0-53.81c0-2.06-0.2-1.79,1.79-1.81
	c0.86-0.01,1.72,0.08,2.57-0.03c0.83-0.11,1.02,0.31,1.13,0.96c0.34,2,0.69,4.01,1.04,6.01c0.98,5.64,1.96,11.28,2.96,16.91
	c0.07,0.4,0.21,0.79,0.32,1.19C286.3,35.1,286.38,35.08,286.45,35.06z"/>
<path class="st7" d="M184.62,114.91c0.26,0.81,0.66,1.13,1.03,1.4c1.39,0.96,1.63,2.27,1.61,3.88c-0.08,7.28-0.03,14.56-0.04,21.84
	c0,0.43,0,0.86-0.01,1.28c-0.01,0.39-0.23,0.58-0.61,0.58c-1.34,0-2.68-0.01-4.01,0.01c-0.51,0.01-0.65-0.27-0.65-0.7
	c0-0.37,0-0.75,0-1.12c0-7.28,0-14.56,0-21.84c0-0.32,0.01-0.64,0-0.96c-0.03-1.21-0.04-1.22-1.28-1.23
	c-1.18-0.02-2.36,0.02-3.53-0.01c-0.66-0.02-1.01,0.18-0.96,0.9c0.03,0.53,0,1.07,0,1.61c0,7.12,0,14.24,0,21.36
	c0,0.37-0.01,0.75,0,1.12c0.03,0.57-0.15,0.91-0.81,0.89c-1.23-0.03-2.46-0.02-3.69,0c-0.54,0.01-0.79-0.22-0.77-0.76
	c0.01-0.32,0-0.64,0-0.96c0-17.93,0-35.87,0-53.8c0-1.86-0.31-1.77,1.83-1.77c3.37,0,6.74,0.03,10.11-0.02
	c0.93-0.01,1.54,0.38,2.26,0.92c1.76,1.32,2.21,2.97,2.16,5.12c-0.14,6.1-0.08,12.2-0.02,18.31c0.01,1.23-0.26,2.18-1.25,2.91
	C185.5,114.2,185.01,114.61,184.62,114.91z M181.96,102.29c0-3.1,0.01-6.2,0-9.31c0-1.11-0.03-1.13-1.17-1.14
	c-1.12-0.02-2.25-0.01-3.37,0c-1.21,0.01-1.23,0.02-1.23,1.21c-0.01,4.97,0,9.95,0,14.92c0,1.23,0.03,2.46-0.01,3.69
	c-0.02,0.74,0.21,1.07,1.01,1.03c1.17-0.05,2.35,0,3.53-0.02c1.22-0.01,1.24-0.03,1.25-1.24
	C181.97,108.39,181.96,105.34,181.96,102.29z"/>
<path class="st7" d="M137.98,115.2c0-8.89,0-17.77,0-26.66c0-0.37,0.02-0.75,0-1.12c-0.04-0.63,0.24-0.84,0.85-0.83
	c3.91,0.02,7.81,0.01,11.72,0.01c0.39,0,0.73,0.09,1.02,0.38c0.76,0.76,1.52,1.51,2.29,2.25c0.3,0.28,0.4,0.61,0.39,1.01
	c-0.01,0.32,0,0.64,0,0.96c0,16.06-0.01,32.11,0.02,48.17c0,1.12-0.43,1.83-1.13,2.65c-1.3,1.52-2.78,2.04-4.76,1.93
	c-2.99-0.17-5.99-0.04-8.99-0.05c-1.39,0-1.41-0.01-1.41-1.39c-0.01-6.48,0-12.95,0-19.43C137.98,120.45,137.98,117.83,137.98,115.2
	z M148.96,115.36c0-7.18,0-14.35,0-21.53c0-0.32-0.03-0.65,0.01-0.96c0.08-0.73-0.15-1.08-0.96-1.04c-1.01,0.06-2.03,0.01-3.05,0.02
	c-2.05,0.02-1.76-0.22-1.76,1.81c-0.01,14.4,0,28.81,0,43.21c0,0.32,0.02,0.64,0,0.96c-0.03,0.51,0.13,0.81,0.71,0.8
	c1.45-0.02,2.89-0.01,4.34,0c0.55,0,0.76-0.26,0.74-0.79c-0.02-0.37,0-0.75,0-1.12C148.96,129.6,148.96,122.48,148.96,115.36z"/>
<path class="st7" d="M205.83,38.78c0-8.89,0-17.77,0-26.66c0-0.37,0.03-0.75-0.01-1.12c-0.06-0.63,0.22-0.84,0.83-0.83
	c1.44,0.03,2.89,0.01,4.33,0.01c2.35,0,4.71,0.02,7.06-0.01c0.69-0.01,1.19,0.18,1.7,0.67c2.38,2.28,2.4,2.26,2.4,5.63
	c0,5.94-0.04,11.88,0.03,17.82c0.02,1.36-0.36,2.31-1.36,3.2c-1.44,1.29-1.44,1.4,0.04,2.7c0.97,0.85,1.32,1.75,1.31,3.05
	c-0.06,7.44-0.03,14.88-0.03,22.32c0,0.37-0.02,0.75,0,1.12c0.02,0.54-0.22,0.77-0.76,0.77c-1.28-0.01-2.57-0.02-3.85,0
	c-0.57,0.01-0.76-0.26-0.74-0.78c0.02-0.37,0-0.75,0-1.12c0-7.33,0-14.67,0-22c0-0.37-0.02-0.75,0-1.12
	c0.03-0.51-0.12-0.8-0.71-0.79c-1.44,0.02-2.89,0.01-4.33,0c-0.55,0-0.76,0.26-0.74,0.79c0.02,0.37,0,0.75,0,1.12
	c0,7.33,0,14.67,0,22c0,0.37-0.01,0.75,0,1.12c0.02,0.51-0.15,0.8-0.72,0.79c-1.23-0.02-2.46-0.02-3.69,0
	c-0.52,0.01-0.82-0.15-0.79-0.73c0.02-0.37,0-0.75,0-1.12C205.83,56.66,205.83,47.72,205.83,38.78z M211.03,25.69
	c0,3.16,0.02,6.32-0.02,9.48c-0.01,0.84,0.25,1.14,1.1,1.1c1.12-0.06,2.25-0.01,3.37-0.02c1.3-0.01,1.32-0.02,1.32-1.31
	c0.01-5.51,0-11.03,0-16.54c0-0.75-0.02-1.5,0-2.25c0.02-0.55-0.2-0.76-0.75-0.75c-1.28,0.02-2.57-0.01-3.85,0.01
	c-1.14,0.01-1.16,0.03-1.17,1.14C211.03,19.58,211.03,22.64,211.03,25.69z"/>
<path class="st7" d="M170.87,38.69c0-8.03,0.02-16.05-0.02-24.08c0-0.99,0.32-1.64,0.96-2.39c1.36-1.59,2.89-2.28,5.01-2.08
	c1.96,0.19,3.96,0.08,5.93,0.02c0.88-0.03,1.45,0.35,2.12,0.86c1.73,1.32,2.19,2.94,2.18,5.11c-0.1,15.52-0.06,31.03-0.03,46.55
	c0,1.2-0.34,2.04-1.17,2.96c-1.3,1.44-2.71,2-4.63,1.84c-2.07-0.16-4.17-0.06-6.25-0.02c-0.7,0.01-1.2-0.21-1.7-0.69
	c-2.39-2.28-2.4-2.26-2.4-5.61C170.87,53.67,170.87,46.18,170.87,38.69z M181.73,38.88c0-7.17,0-14.34,0-21.51
	c0-0.37-0.02-0.75,0-1.12c0.04-0.61-0.2-0.87-0.83-0.85c-1.23,0.03-2.46-0.01-3.69,0.01c-1.1,0.02-1.1,0.03-1.13,1.19
	c0,0.16,0,0.32,0,0.48c0,14.5,0,29.01,0,43.51c0,0.32,0,0.64,0,0.96c0,0.45,0.19,0.69,0.67,0.69c1.44-0.01,2.89,0,4.33,0
	c0.49,0,0.65-0.27,0.64-0.72c-0.01-0.37,0-0.75,0-1.12C181.73,53.22,181.73,46.05,181.73,38.88z"/>
<path class="st7" d="M212.06,105.76c-1.02,8.15-2.02,16.22-3.03,24.29c-0.53,4.25-1.08,8.49-1.59,12.74
	c-0.09,0.75-0.29,1.16-1.16,1.12c-1.33-0.07-2.66-0.02-3.88-0.02c-0.44-0.43-0.24-0.8-0.2-1.15c1.12-10.1,2.24-20.21,3.37-30.31
	c0.92-8.24,1.86-16.48,2.8-24.72c0.14-1.19,0.15-1.2,1.33-1.21c1.55-0.01,3.1-0.01,4.66,0c1.23,0.01,1.25,0.02,1.39,1.19
	c0.36,3.08,0.69,6.17,1.04,9.25c0.81,7.12,1.62,14.25,2.43,21.37c0.69,6.11,1.38,12.23,2.07,18.34c0.23,2.07,0.44,4.15,0.7,6.22
	c0.1,0.75-0.06,1.09-0.9,1.04c-0.96-0.06-1.93-0.05-2.89,0c-0.78,0.04-1.13-0.18-1.21-1.04c-0.22-2.29-0.56-4.57-0.84-6.85
	c-1.04-8.39-2.08-16.77-3.12-25.16c-0.16-1.33-0.3-2.66-0.47-3.98C212.51,106.52,212.59,106.11,212.06,105.76z"/>
<path class="st7" d="M257.95,67.44c-1.27-0.02-2.55,0.11-3.9-0.1c-0.43-3.42-0.86-6.82-1.28-10.21c-0.93-7.49-1.85-14.97-2.78-22.46
	c-0.17-1.38-0.3-2.76-0.45-4.14h-0.71c-1.23,9.78-2.46,19.55-3.68,29.32c-0.27,2.18-0.55,4.36-0.77,6.54
	c-0.08,0.78-0.37,1.12-1.21,1.07c-1.12-0.07-2.25-0.03-3.37-0.01c-0.65,0.02-0.81-0.25-0.73-0.88c0.34-2.86,0.65-5.74,0.97-8.61
	c0.7-6.27,1.41-12.54,2.12-18.82c0.81-7.23,1.63-14.46,2.44-21.69c0.23-2.02,0.49-4.04,0.67-6.06c0.11-1.17-0.02-1.34,1.41-1.33
	c1.55,0.02,3.1,0,4.66,0.01c1.17,0.01,1.2,0.02,1.34,1.25c0.36,3.13,0.7,6.27,1.05,9.41c0.81,7.12,1.63,14.25,2.44,21.37
	c0.68,6.06,1.37,12.12,2.05,18.18c0.23,2.02,0.47,4.04,0.67,6.06C259,67.41,258.96,67.45,257.95,67.44z"/>
<path class="st7" d="M141.06,15.39c0,0.76,0,1.34,0,1.93c0,14.35,0,28.71,0,43.06c0,0.21,0,0.43,0,0.64
	c0.03,1.17,0.03,1.19,1.14,1.21c1.18,0.02,2.36-0.02,3.53,0.01c0.64,0.01,0.99-0.13,0.98-0.88c-0.02-4.66-0.03-9.32,0-13.98
	c0-0.76-0.35-0.85-0.97-0.88c-2.07-0.07-2.09-0.09-2.06-2.17c0.01-0.95-0.41-2.16,0.19-2.8c0.67-0.72,1.93-0.22,2.92-0.26
	c1.44-0.06,2.89,0,4.34-0.02c0.61-0.01,0.87,0.21,0.85,0.84c-0.03,0.96-0.01,1.93-0.01,2.89c0,6-0.02,12,0.02,17.99
	c0.01,0.97-0.3,1.64-0.93,2.41c-1.4,1.68-3.03,2.27-5.18,2.08c-1.97-0.18-3.96-0.06-5.94-0.02c-0.7,0.01-1.2-0.22-1.7-0.69
	c-2.39-2.27-2.4-2.26-2.4-5.62c0-15.42,0.01-30.85-0.02-46.27c0-1.15,0.33-1.94,1.11-2.82c1.33-1.5,2.79-2.07,4.77-1.91
	c2.02,0.17,4.07,0.07,6.1,0.02c0.82-0.02,1.4,0.25,1.97,0.82c2.18,2.13,2.2,2.11,2.2,5.23c0,3.05-0.03,6.11,0.02,9.16
	c0.01,0.84-0.22,1.15-1.08,1.1c-1.07-0.07-2.14-0.06-3.21,0c-0.78,0.04-1.01-0.24-1-1.01c0.04-2.89,0.02-5.78,0.01-8.68
	c0-1.37-0.01-1.38-1.41-1.38C143.97,15.39,142.63,15.39,141.06,15.39z"/>
<path class="st7" d="M237,115.2c0-8.03,0.02-16.07-0.02-24.1c0-1.04,0.32-1.75,1.01-2.53c1.34-1.51,2.83-2.2,4.89-2.01
	c2.02,0.19,4.07,0.07,6.1,0.03c0.76-0.02,1.26,0.3,1.85,0.74c1.82,1.37,2.52,3.04,2.34,5.36c-0.23,2.87-0.05,5.78-0.05,8.67
	c0,1.68,0.16,1.5-1.58,1.51c-0.91,0.01-1.82-0.05-2.73,0.01c-0.82,0.06-0.98-0.3-0.97-1.03c0.03-2.89,0.01-5.78,0.01-8.68
	c0-1.28,0.16-1.35-1.28-1.34c-1.18,0-2.36,0.02-3.53-0.01c-0.61-0.01-0.9,0.2-0.84,0.84c0.03,0.32,0,0.64,0,0.96
	c0,14.41,0,28.81,0,43.22c0,1.89-0.27,1.78,1.83,1.78c0.96,0,1.93-0.02,2.89,0c0.68,0.02,0.95-0.24,0.93-0.94
	c-0.04-1.45-0.01-2.89-0.01-4.34c0-3.11-0.02-6.21,0.02-9.32c0.01-0.83-0.25-1.1-1.08-1.12c-1.99-0.03-1.99-0.08-1.99-2.1
	c0-0.64-0.01-1.29,0-1.93c0.02-1.18,0.03-1.2,1.12-1.21c1.98-0.02,3.96-0.01,5.94,0c1.23,0.01,1.25,0.02,1.25,1.22
	c0.01,2.68,0,5.36,0,8.03c0,4.23-0.02,8.46,0.02,12.69c0.01,0.87-0.33,1.45-0.86,2.11c-1.4,1.72-3.07,2.4-5.3,2.18
	c-1.96-0.19-3.96-0.06-5.94-0.03c-0.63,0.01-1.1-0.18-1.57-0.61c-2.45-2.27-2.47-2.26-2.47-5.59C237,130.2,237,122.7,237,115.2z"/>
<path class="st7" d="M313.8,102.88c0-3.18,0.01-6.23,0-9.28c-0.01-2,0.28-1.74-1.82-1.76c-0.96-0.01-1.93,0.03-2.89-0.01
	c-0.72-0.04-0.95,0.27-0.89,0.94c0.03,0.37,0,0.75,0,1.12c0,14.24,0,28.48,0,42.73c0,0.37,0.03,0.75,0,1.12
	c-0.06,0.72,0.29,0.92,0.95,0.9c1.23-0.03,2.46-0.05,3.69,0c0.81,0.03,0.98-0.32,0.97-1.05c-0.03-2.68-0.02-5.35-0.01-8.03
	c0-0.53-0.09-1.07,0.11-1.65c1.36-0.2,2.75-0.01,4.13-0.1c0.83-0.06,1.11,0.22,1.09,1.08c-0.05,3.1-0.12,6.21,0.02,9.31
	c0.08,1.85-0.37,3.23-1.83,4.46c-0.96,0.81-1.8,1.31-3.1,1.25c-2.35-0.1-4.71-0.05-7.06-0.02c-0.75,0.01-1.3-0.22-1.84-0.74
	c-2.36-2.25-2.37-2.24-2.37-5.48c0-15.47,0.01-30.95-0.03-46.42c0-1.17,0.39-1.94,1.15-2.8c1.28-1.44,2.66-2.07,4.61-1.91
	c2.07,0.17,4.17,0.06,6.26,0.03c0.74-0.01,1.26,0.26,1.85,0.72c1.85,1.42,2.56,3.13,2.38,5.51c-0.23,2.98-0.08,5.99-0.04,8.99
	c0.01,0.84-0.23,1.13-1.08,1.09C316.67,102.83,315.29,102.88,313.8,102.88z"/>
<path class="st7" d="M52.46,56.58c-2.14,0-4.28-0.02-6.42,0.01c-0.74,0.01-1.02-0.26-1.14-0.99c-0.63-3.8-0.2-7.46,1.23-11.02
	c0.26-0.65,0.59-0.9,1.29-0.9c5.67,0.02,11.35,0.02,17.02,0.01c0.58,0,1.01,0.17,1.42,0.58c2.1,2.07,4.21,4.12,6.34,6.15
	c0.5,0.48,0.72,0.99,0.71,1.69c-0.03,3.11-0.04,6.21,0,9.32c0.01,0.85-0.27,1.12-1.11,1.11c-3.64-0.03-7.28-0.03-10.92,0
	c-0.84,0.01-1.15-0.3-1.11-1.13c0.04-1.02,0.01-2.03,0.01-3.05c0.01-1.92,0.07-1.78-1.71-1.78C56.21,56.58,54.34,56.58,52.46,56.58z
	"/>
<path class="st7" d="M271.96,91.69c0-1.44,0.01-2.93-0.01-4.42c-0.01-0.61,0.35-0.68,0.83-0.68c1.55,0.01,3.11,0,4.66,0
	c1.82,0,3.64-0.01,5.46,0c1.27,0.01,1.28,0.02,1.29,1.35c0.01,1.02-0.02,2.04,0.01,3.05c0.02,0.62-0.24,0.87-0.85,0.85
	c-0.69-0.03-1.39,0-2.09,0c-0.4,0-0.58,0.19-0.57,0.59c0.01,0.37,0,0.75,0,1.12c0,14.41,0,28.81,0,43.22c0,0.27,0.03,0.54-0.01,0.8
	c-0.13,0.89,0.3,1.08,1.1,1.08c0.78,0,1.81-0.39,2.27,0.27c0.36,0.51,0.15,1.45,0.13,2.19c-0.02,0.85,0.36,1.9-0.16,2.49
	c-0.6,0.68-1.72,0.25-2.6,0.26c-3.1,0.04-6.2,0.01-9.45,0.01c0-1.59,0-3.08,0-4.57c0-0.46,0.18-0.69,0.66-0.68
	c0.7,0.01,1.39-0.01,2.09-0.01c0.54,0,0.78-0.24,0.75-0.78c-0.02-0.32,0-0.64,0-0.96c0-14.41,0-28.81,0-43.22
	c0-2.05,0.28-1.79-1.76-1.83C273.17,91.83,272.63,91.93,271.96,91.69z"/>
<path class="st7" d="M52.34,89.41c1.47,0.44,2.69,0.81,3.91,1.18c5.11,1.57,10.22,3.14,15.33,4.72c1.31,0.41,1.32,0.42,1.32,1.73
	c0.01,4.93,0.01,9.85,0,14.78c0,1.29-0.02,1.31-1.33,1.31c-3.53,0.01-7.06,0.01-10.6,0c-1.14,0-1.16-0.03-1.17-1.17
	c-0.02-2.03-0.03-4.07,0.01-6.1c0.02-0.83-0.23-1.25-1.09-1.46c-1.82-0.44-3.6-1.02-5.41-1.51c-0.56-0.15-0.98-0.31-0.98-1.02
	C52.35,97.8,52.34,93.74,52.34,89.41z"/>
<path class="st7" d="M203.84,188.48c0-1.73,0.09-3.42-0.02-5.1c-0.42-6.74-0.26-13.49-0.32-20.23c-0.01-0.78,0.26-1.09,1.02-1
	c0.16,0.02,0.32,0.01,0.48,0.01c2.06-0.02,1.75,0.08,1.75,1.73c0.01,10.92,0,21.84,0,32.76c0,0.32-0.02,0.64,0,0.96
	c0.03,0.58-0.27,0.69-0.79,0.73c-2.76,0.19-2.76,0.2-3.25-2.52c-1.42-7.84-2.85-15.68-4.29-23.52c-0.11-0.6-0.33-1.19-0.58-2.08
	c0.79,9.17,0.98,18.04,0.86,26.92c-0.02,1.14-0.03,1.18-1.17,1.18c-2.45,0-2.12,0.24-2.12-1.98c-0.01-10.81-0.01-21.63,0-32.44
	c0-1.88-0.14-1.74,1.73-1.74c1.82,0,1.82,0,2.16,1.88c1.4,7.85,2.81,15.7,4.21,23.54C203.59,187.88,203.56,188.22,203.84,188.48z"/>
<path class="st7" d="M316.53,190.09c0.17-3.02-0.11-6.01-0.28-8.99c-0.34-6-0.1-11.99-0.2-17.99c-0.01-0.7,0.24-0.99,0.92-0.95
	c0.05,0,0.11,0,0.16,0c2.12-0.12,2.12-0.12,2.12,1.98c0,10.82,0,21.63,0,32.45c0,1.84,0.18,1.74-1.72,1.74c-0.16,0-0.32,0-0.48,0
	c-1.3-0.02-1.32-0.02-1.55-1.28c-1.1-6-2.19-12-3.29-17.99c-0.44-2.41-0.9-4.82-1.44-7.22c-0.24,0.6-0.16,1.21-0.11,1.81
	c0.69,7.8,0.59,15.62,0.57,23.44c0,1.22-0.03,1.24-1.25,1.24c-2.27,0-1.97,0.18-1.97-1.96c0-10.82,0-21.63,0-32.45
	c0-1.75-0.33-1.76,1.7-1.75c0.16,0,0.32,0,0.48,0c1.3,0.03,1.33,0.02,1.55,1.27c1.44,8.06,2.87,16.12,4.31,24.18
	C316.2,188.43,316.37,189.26,316.53,190.09z"/>
<path class="st7" d="M297.37,180.27c0,4.66,0,9.31,0,13.97c0,0.53,0.02,1.08-0.06,1.6c-0.23,1.47-1.08,2.33-2.55,2.43
	c-1.54,0.1-3.1,0.12-4.65,0.02c-1.59-0.1-2.52-1.07-2.75-2.64c-0.07-0.47-0.07-0.96-0.07-1.44c0-9.31-0.01-18.62,0-27.93
	c0-0.53,0.02-1.07,0.11-1.6c0.25-1.36,1.08-2.25,2.42-2.43c1.7-0.22,3.42-0.2,5.12,0c1.33,0.16,2.11,0.97,2.35,2.28
	c0.1,0.52,0.08,1.06,0.08,1.6C297.37,170.85,297.36,175.56,297.37,180.27z M290.58,180.11c0,4.34,0,8.67,0,13.01
	c0,2.65,0.03,2.67,2.67,2.43c0.05,0,0.11-0.01,0.16-0.01c0.54,0,0.76-0.3,0.75-0.81c0-0.37,0.01-0.75,0.01-1.12
	c0-8.94,0-17.88,0-26.82c0-1.87,0-1.87-1.81-1.87c-1.81,0-1.78-0.19-1.78,1.7C290.59,171.12,290.58,175.61,290.58,180.11z"/>
<path class="st7" d="M164.27,180.27c0,4.6,0,9.2,0,13.81c0,0.64,0,1.29-0.11,1.92c-0.22,1.3-1.04,2.12-2.36,2.27
	c-1.65,0.19-3.32,0.17-4.97,0.01c-1.4-0.14-2.33-1.08-2.58-2.47c-0.09-0.52-0.08-1.07-0.08-1.6c0-9.31,0-18.62,0-27.93
	c0-0.43-0.02-0.86,0.03-1.28c0.19-1.55,1.13-2.58,2.67-2.76c1.59-0.18,3.21-0.16,4.8-0.01c1.49,0.15,2.28,0.99,2.51,2.48
	c0.08,0.52,0.07,1.07,0.07,1.6C164.27,170.96,164.27,175.62,164.27,180.27z M161.01,180.26c0-4.33,0-8.66,0-12.99
	c0-2.41-0.51-2.81-2.91-2.34c-0.45,0.09-0.65,0.3-0.66,0.74c-0.01,0.32-0.01,0.64-0.01,0.96c0,9.04-0.01,18.07,0,27.11
	c0,1.86-0.26,1.89,1.96,1.87c1.62-0.01,1.63-0.01,1.63-1.71C161.01,189.35,161.01,184.81,161.01,180.26z"/>
<path class="st7" d="M184.94,179.25c0,5.03,0,10.06,0,15.09c0,0.53,0.02,1.08-0.08,1.6c-0.25,1.37-1.12,2.25-2.49,2.32
	c-1.6,0.09-3.21,0.09-4.81,0c-1.48-0.09-2.41-1.07-2.6-2.58c-0.08-0.63-0.08-1.28-0.08-1.92c0-9.9-0.01-19.8,0-29.7
	c0-2.06-0.28-1.9,1.88-1.9c1.39,0,1.4,0.02,1.4,1.43c0,10.01,0,20.02,0,30.03c0,2.14-0.21,1.93,2.02,1.94
	c1.55,0.01,1.56-0.01,1.56-1.63c0-9.95-0.01-19.91,0.01-29.86c0-1.85-0.47-1.92,1.89-1.9c1.29,0.01,1.3,0.02,1.3,1.36
	C184.95,168.76,184.94,174,184.94,179.25z"/>
<path class="st7" d="M217.36,180.22c0-5.52,0-11.03,0-16.55c0-1.5,0.01-1.51,1.48-1.52c1.77-0.01,3.53-0.05,5.3,0.02
	c2.25,0.09,3.22,1.07,3.22,3.32c0.02,9.85,0.02,19.71-0.01,29.56c-0.01,2.24-1.03,3.22-3.26,3.26c-1.77,0.03-3.53,0.01-5.3,0.01
	c-1.42-0.01-1.43-0.02-1.44-1.39c-0.01-2.84,0-5.68,0-8.51C217.36,185.69,217.36,182.96,217.36,180.22z M224.17,180.27
	C224.17,180.27,224.17,180.27,224.17,180.27c0-4.34,0.02-8.67,0-13.01c-0.02-2.64,0.47-2.33-2.41-2.34c-1.12,0-1.12,0.03-1.16,1.19
	c-0.01,0.21,0,0.43,0,0.64c0,8.89-0.01,17.77,0.01,26.66c0,2.43-0.38,2.18,2.25,2.18c1.29,0,1.31-0.02,1.31-1.36
	C224.18,189.59,224.17,184.93,224.17,180.27z"/>
<path class="st7" d="M242.24,171.36c-0.25,2.88-0.5,5.69-0.75,8.5c-0.51,5.76-1.02,11.52-1.54,17.27c-0.11,1.19-0.14,1.21-1.32,1.19
	c-2.04-0.05-2.09,0.44-1.83-1.97c1.11-10.48,2.27-20.96,3.41-31.44c0.01-0.05,0.01-0.11,0.01-0.16c0.13-0.78-0.23-1.92,0.44-2.27
	c0.97-0.51,2.2-0.19,3.32-0.14c0.6,0.03,0.51,0.61,0.56,1c0.28,2.39,0.54,4.79,0.8,7.18c0.94,8.62,1.86,17.24,2.81,25.86
	c0.22,2.04,0.25,2.04-1.8,1.99c-1.19-0.03-1.24-0.02-1.36-1.2c-0.31-3.14-0.59-6.29-0.87-9.43c-0.46-5.12-0.9-10.24-1.36-15.35
	C242.72,172.02,242.75,171.62,242.24,171.36z"/>
<path class="st7" d="M257.64,181.59c0-4.87,0-9.74,0-14.6c0-0.37-0.03-0.75,0-1.12c0.05-0.72-0.31-0.88-0.97-0.91
	c-1.7-0.08-1.87-0.35-1.66-2.12c0.05-0.47,0.24-0.67,0.69-0.67c2.46,0,4.92,0.01,7.38,0c0.51,0,0.82,0.19,0.8,0.74
	c-0.01,0.32-0.03,0.65,0,0.96c0.1,0.85-0.27,1.19-1.1,1.1c-0.26-0.03-0.54,0.02-0.8,0c-0.75-0.05-1.08,0.3-1.04,1.04
	c0.02,0.43,0,0.86,0,1.28c0,9.68,0,19.37,0,29.05c0,0.37-0.02,0.75,0,1.12c0.03,0.6-0.22,0.82-0.84,0.87
	c-2.45,0.18-2.46,0.19-2.46-2.3C257.64,191.22,257.64,186.4,257.64,181.59z"/>
<path class="st7" d="M137.12,180.12c0-5.52,0-11.03,0-16.55c0-1.39,0.01-1.4,1.41-1.42c1.55-0.02,3.11-0.02,4.66,0
	c1.15,0.02,1.15,0.04,1.17,1.18c0.01,0.27-0.01,0.54,0,0.8c0.01,0.53-0.23,0.78-0.77,0.78c-0.75-0.01-1.5,0.02-2.25,0.02
	c-0.63,0-0.99,0.22-0.99,0.94c0.02,4.02,0.01,8.03,0,12.05c0,0.68,0.27,0.98,0.95,0.96c0.7-0.02,1.39,0.02,2.09-0.01
	c0.66-0.03,1.03,0.19,0.97,0.91c-0.02,0.21,0,0.43,0,0.64c-0.03,1.17-0.03,1.17-1.14,1.21c-0.7,0.02-1.39,0.01-2.09,0.02
	c-0.52,0.01-0.78,0.27-0.77,0.8c0.01,0.37-0.01,0.75-0.01,1.12c0,4.5,0.01,9-0.01,13.5c0,1.22-0.03,1.25-1.25,1.24
	c-2.25-0.01-1.98,0.21-1.98-1.97C137.12,190.94,137.12,185.53,137.12,180.12z"/>
<path class="st7" d="M275.15,198.32c-0.27,0-0.54,0.04-0.8-0.01c-0.54-0.09-1.39,0.32-1.56-0.36c-0.18-0.74-0.49-1.68,0.32-2.36
	c0.55-0.46,0.35-1.09,0.35-1.65c0.02-4.55,0.01-9.1,0.01-13.66c0-4.61,0.01-9.21-0.01-13.82c0-0.59,0.13-1.16-0.53-1.71
	c-0.61-0.51-0.27-1.51-0.19-2.29c0.03-0.33,0.4-0.31,0.65-0.31c1.12-0.01,2.25,0,3.37-0.01c0.52,0,0.83,0.2,0.76,0.76
	c-0.09,0.74,0.32,1.6-0.57,2.17c-0.32,0.2-0.18,0.7-0.18,1.07c0,9.37-0.01,18.74,0,28.12c0,0.51-0.04,0.97,0.47,1.42
	c0.66,0.58,0.32,1.5,0.28,2.28c-0.01,0.32-0.35,0.35-0.62,0.36C276.33,198.31,275.74,198.31,275.15,198.32
	C275.15,198.31,275.15,198.32,275.15,198.32z"/>
<path class="st7" d="M316.05,61.58c0,1.78-0.01,3.16,0.01,4.55c0.01,0.47-0.15,0.8-0.52,1.09c-2.67,2.13-5.33,4.27-8.28,6.63
	c0-1.83-0.01-3.35,0-4.87c0-0.28,0.17-0.49,0.39-0.67C310.36,66.15,313.05,63.99,316.05,61.58z"/>
<path class="st7" d="M15.01,34.35c-0.13,0.17,0.17,0.08-0.04,0.13c-0.03,0.01-0.09,0-0.09,0c-0.01-0.11,0.04-0.15,0.16-0.1
	C15.03,34.38,15.01,34.35,15.01,34.35z"/>
<path class="st8" d="M922.54,149.13"/>
<g>
	<g>
		<path class="st7" d="M435.97,261.7c-1.44,21.57-18.6,38.82-40.12,40.42C397.29,280.55,414.45,263.3,435.97,261.7z"/>
		<path class="st7" d="M530.45,348.92c-21.57-1.44-38.82-18.6-40.42-40.12C511.6,310.24,528.85,327.4,530.45,348.92z"/>
		<path class="st7" d="M437.52,347.19c0,0.45,0.01,0.9,0.02,1.35c-22.35-0.85-40.37-18.57-41.71-40.79
			c0.69,0.03,1.38,0.05,2.08,0.05c24.02,0,43.5-19.48,43.5-43.5c0-0.9-0.03-1.79-0.09-2.67c22.62,1.06,40.71,19.39,41.4,42.1
			c-0.56-0.03-1.13-0.04-1.7-0.04C457,303.69,437.52,323.16,437.52,347.19z"/>
		<path class="st7" d="M349.13,356c21.57,1.44,38.82,18.6,40.42,40.12C367.98,394.68,350.73,377.52,349.13,356z"/>
		<path class="st7" d="M434.62,354.45c0.45,0,0.9-0.01,1.35-0.02c-0.85,22.35-18.57,40.37-40.79,41.71
			c0.03-0.69,0.05-1.38,0.05-2.08c0-24.02-19.48-43.5-43.5-43.5c-0.9,0-1.79,0.03-2.67,0.09c1.06-22.62,19.39-40.71,42.1-41.4
			c-0.03,0.56-0.04,1.13-0.04,1.7C391.12,334.97,410.59,354.45,434.62,354.45z"/>
		<path class="st7" d="M442.45,356c21.57,1.44,38.82,18.6,40.42,40.12C461.3,394.68,444.05,377.52,442.45,356z"/>
		<path class="st7" d="M527.94,354.45c0.45,0,0.9-0.01,1.35-0.02c-0.85,22.35-18.57,40.37-40.79,41.71
			c0.03-0.69,0.05-1.38,0.05-2.08c0-24.02-19.48-43.5-43.5-43.5c-0.9,0-1.79,0.03-2.67,0.09c1.06-22.62,19.39-40.71,42.1-41.4
			c-0.03,0.56-0.04,1.13-0.04,1.7C484.44,334.97,503.91,354.45,527.94,354.45z"/>
	</g>
	<polygon class="st7" points="613.93,280.19 613.93,290.36 595.57,290.36 595.57,349.69 583.67,349.69 583.67,290.36 564.49,290.36 
		564.49,280.19 	"/>
	<polygon class="st7" points="617.74,389.65 617.74,396.14 597.4,396.14 597.4,361.8 604.78,361.8 604.78,389.65 	"/>
	<polygon class="st7" points="687.13,368.32 687.13,375.73 700.41,375.73 700.41,382.24 687.13,382.24 687.13,389.53 702.32,389.53 
		702.32,396.03 679.75,396.03 679.75,361.69 702.32,361.69 702.32,368.32 	"/>
	<polygon class="st7" points="733.43,361.69 733.43,396.03 726.04,396.03 726.04,396 726.04,396.03 713.34,375.79 713.34,396.03 
		705.95,396.03 705.95,361.69 713.35,361.69 726.04,382.3 726.04,361.69 	"/>
	<rect x="738.34" y="361.7" class="st7" width="7.39" height="34.34"/>
	<path class="st7" d="M790.77,361.69h-7.39l-12.63,34.34h7.87l2.79-7.59h11.33l2.79,7.59h7.87L790.77,361.69z M783.79,382l3.29-8.95
		l3.29,8.95H783.79z"/>
	<polygon class="st7" points="631.52,290.36 631.52,309.86 659.02,309.86 659.02,319.86 631.52,319.86 631.52,339.69 662.79,339.69 
		662.79,349.69 619.61,349.69 619.61,280.19 662.79,280.19 662.79,290.36 	"/>
	<polygon class="st7" points="723.45,280.19 723.45,349.69 711.55,349.69 711.55,349.59 711.39,349.69 681.45,302.52 681.45,349.69 
		669.55,349.69 669.55,280.19 681.45,280.19 681.45,280.34 681.49,280.31 711.55,327.67 711.55,280.19 	"/>
	<rect x="733.82" y="280.2" class="st7" width="11.91" height="69.5"/>
	<path class="st7" d="M632.92,361.83c-7.88,0-14.28,7.68-14.28,17.16c0,9.47,6.4,17.15,14.28,17.15c7.89,0,14.28-7.68,14.28-17.15
		C647.19,369.51,640.8,361.83,632.92,361.83z M632.91,390.61c-4.35,0-7.87-5.2-7.87-11.61c0-6.41,3.52-11.61,7.87-11.61
		c4.35,0,7.87,5.2,7.87,11.61C640.77,385.41,637.25,390.61,632.91,390.61z"/>
	<polygon class="st7" points="648.08,361.83 654.53,361.83 662.34,387.82 670.07,361.83 676.64,361.83 666.47,396.03 658.37,396.03 
			"/>
	<path class="st7" d="M776.94,349.71c-6.3,0.07-11.83-0.97-16.76-4.24c-2.84-1.88-5-4.4-6.69-7.37c-0.46-0.81-0.27-1.22,0.38-1.72
		c1.97-1.5,3.94-3,5.87-4.57c0.79-0.64,1.2-0.57,1.67,0.34c2.1,4.06,5.37,6.69,9.89,7.55c4.5,0.86,9,1.08,13.18-1.3
		c3.33-1.9,4.59-4.94,4.47-8.66c-0.11-3.41-1.93-5.64-4.83-7.17c-3.3-1.73-6.95-2.45-10.47-3.5c-3.63-1.09-7.21-2.28-10.39-4.39
		c-5.68-3.77-7.98-9.17-7.61-15.86c0.52-9.22,6.76-16.31,15.86-17.98c6.37-1.17,12.63-0.96,18.67,1.57
		c3.51,1.47,6.48,3.68,8.78,6.76c0.57,0.76,0.55,1.23-0.22,1.81c-2.02,1.51-4.02,3.05-5.96,4.66c-0.77,0.63-1.11,0.41-1.63-0.29
		c-4.26-5.67-13.02-6.98-18.58-4.57c-4.02,1.74-5.59,5.09-5.47,9.38c0.11,3.98,2.38,6.3,5.8,7.72c3.7,1.53,7.62,2.36,11.42,3.57
		c3.88,1.23,7.57,2.8,10.67,5.54c4.34,3.84,5.78,8.78,5.27,14.35c-0.8,8.7-5.61,14.27-13.77,17.02
		C783.23,349.43,779.87,349.84,776.94,349.71z"/>
	<path class="st7" d="M581.92,396.14c-4.52-0.01-8.15-0.89-11.01-3.87c-1.97-2.06-1.96-2.19,0.18-4.01c0.07-0.06,0.13-0.12,0.2-0.17
		c0.76-0.59,1.47-1.54,2.3-1.68c0.95-0.15,1.19,1.22,1.83,1.85c2.12,2.1,6.66,2.85,9.25,1.41c1.37-0.76,2.12-1.9,2.09-3.55
		c-0.03-1.67-0.92-2.73-2.32-3.39c-2.03-0.96-4.26-1.38-6.37-2.13c-2.99-1.06-5.65-2.58-6.82-5.75c-2.46-6.68,2.02-13.41,9.21-13.83
		c3.46-0.2,6.88-0.02,9.92,1.98c0.07,0.05,0.15,0.09,0.23,0.14c3.37,2.27,3.4,2.7,0.26,5.1c-0.59,0.45-1.13,1.16-1.79,1.29
		c-0.77,0.15-1.07-0.89-1.7-1.29c-2.27-1.46-4.65-2.05-7.26-1.06c-1.57,0.6-2.35,1.87-2.5,3.44c-0.13,1.43,0.42,2.68,1.73,3.47
		c2.07,1.23,4.47,1.54,6.7,2.35c2.87,1.05,5.55,2.33,6.93,5.29c2.57,5.52-0.72,12.28-6.65,13.81
		C584.68,395.95,583.04,396.16,581.92,396.14z"/>
	<path class="st7" d="M769.66,375.11c0,3.2,0.02,6.4-0.01,9.6c-0.06,7.27-4.22,11.16-11.49,10.85c-3.2-0.14-5.73-1.42-7.57-4.06
		c-0.6-0.87-0.73-1.53,0.39-2.12c0.93-0.48,1.79-1.1,2.65-1.69c0.6-0.42,0.93-0.38,1.39,0.29c1.34,1.96,3.5,2.59,5.64,1.82
		c1.35-0.48,2.14-1.45,2.48-2.79c0.28-1.1,0.43-2.22,0.43-3.37c-0.02-6.48-0.01-12.96-0.01-19.44c0-1.76,0-1.76,1.82-1.76
		c0.8,0,1.6,0,2.4,0c1.89,0,1.89,0,1.89,1.95C769.66,367.96,769.66,371.54,769.66,375.11z"/>
</g>
<g>
	<path class="st7" d="M-176.44,302.32c-0.08,7.3-1.6,14.14-6.24,20.05c-4.79,6.12-11.17,9.44-18.75,10.35
		c-7.08,0.85-13.83-0.33-19.83-4.49c-6.55-4.54-10.07-10.98-11.4-18.68c-1.25-7.22-0.65-14.32,2.41-21.01
		c4.04-8.83,11-14.07,20.6-15.65c6.79-1.12,13.39-0.38,19.47,3.04c7.16,4.03,11.12,10.38,12.93,18.22
		C-176.63,296.84-176.37,299.56-176.44,302.32z M-186.95,302.08c0.09-4.35-0.96-9.05-3.36-13.44c-5.76-10.56-19.91-11.8-27.34-2.37
		c-6.48,8.23-6.87,22.64-0.85,31.56c6.18,9.16,17.9,10.27,25.48,2.22C-188.47,315.23-186.92,309.2-186.95,302.08z"/>
	<path class="st7" d="M104.61,299.67c-3.39,0-6.59-0.04-9.79,0.03c-0.9,0.02-1.2-0.47-1.58-1.07c-3.97-6.35-7.98-12.67-11.91-19.04
		c-0.61-1-1.22-1.47-2.45-1.43c-3.1,0.1-6.2,0.09-9.3,0.01c-1.26-0.03-1.56,0.39-1.55,1.59c0.06,6.13,0,12.27,0.05,18.4
		c0.01,1.16-0.22,1.63-1.5,1.56c-2.1-0.11-4.21-0.08-6.32-0.01c-1.05,0.03-1.51-0.12-1.5-1.37c0.05-15.94,0.04-31.89,0.01-47.83
		c0-0.93,0.16-1.29,1.21-1.28c8.77,0.08,17.55-0.06,26.32,0.18c4.58,0.13,8.76,1.68,12.37,4.78c5.92,5.07,6.79,17.23-4.51,21.84
		c-0.22,0.09-0.43,0.18-0.64,0.26c-1.04,0.4-2.71,0.28-2.98,1.2c-0.27,0.95,1,1.96,1.63,2.93c3.89,6,7.8,11.98,11.7,17.97
		C104.13,298.74,104.32,299.14,104.61,299.67z M76.96,255.68c-2.73,0-5.08,0.07-7.41-0.03c-1.22-0.05-1.47,0.41-1.46,1.51
		c0.05,4.5,0.05,9,0,13.49c-0.01,1.15,0.36,1.49,1.51,1.47c4.27-0.06,8.54,0.02,12.81-0.05c1.97-0.03,3.91-0.35,5.79-1.01
		c3.41-1.19,5.39-3.78,5.4-7.11c0.01-3.37-1.96-5.97-5.28-7.23C84.5,255.28,80.51,255.8,76.96,255.68z"/>
	<path class="st7" d="M192.63,274.44c0-7.89,0.04-15.78-0.04-23.66c-0.01-1.33,0.35-1.61,1.63-1.59c7.84,0.09,15.69-0.02,23.52,0.16
		c5.91,0.13,11.15,2.12,15.33,6.49c2.45,2.56,3.58,5.68,4,9.1c0.85,6.98,1.05,14.01-0.34,20.91c-1.46,7.24-6.76,10.93-13.45,12.91
		c-3.05,0.9-6.23,0.9-9.39,0.91c-6.55,0.03-13.11-0.03-19.66,0.04c-1.27,0.01-1.66-0.23-1.65-1.59
		C192.67,290.22,192.63,282.33,192.63,274.44z M201.85,274.24c0,5.84,0,11.68,0.01,17.52c0,0.65-0.26,1.49,0.92,1.45
		c5.13-0.18,10.3,0.49,15.39-0.39c5.04-0.88,9-3.74,9.71-9.83c0.62-5.31,0.65-10.6,0.18-15.89c-0.59-6.65-3.88-10.11-10.38-11.12
		c-4.71-0.73-9.45-0.12-14.17-0.37c-1.3-0.07-1.7,0.28-1.68,1.63C201.9,262.91,201.85,268.58,201.85,274.24z"/>
	<path class="st7" d="M-1.26,274.43c0.08-3.2-0.06-6.4,0.23-9.62c0.54-6.03,3.71-10.38,8.87-12.85c10.04-4.81,20.1-4.78,29.58,1.69
		c3.4,2.32,5.52,5.61,6.08,9.8c0.96,7.15,0.87,14.32,0.11,21.47c-0.58,5.42-3.8,9.13-8.35,11.79c-5,2.92-10.45,3.64-16.15,3.29
		c-4.3-0.27-8.31-1.27-12.04-3.48c-5.63-3.34-8.18-8.35-8.32-14.73C-1.3,279.33-1.26,276.88-1.26,274.43z M7.96,274.48
		c0,1.87-0.11,3.74,0.02,5.6c0.2,2.88,0.18,5.87,1.98,8.36c2.71,3.73,6.62,5.14,11.04,5.19c6.95,0.07,13.42-3.25,13.65-12.02
		c0.12-4.78,0.31-9.56-0.05-14.33c-0.24-3.21-0.66-6.38-3.41-8.66c-4.32-3.59-9.29-4.12-14.45-2.77c-5.68,1.49-8.03,4.72-8.58,10.6
		C7.93,269.12,7.95,271.8,7.96,274.48z"/>
	<path class="st7" d="M297.59,299.67c-2.8,0-5.59-0.05-8.38,0.03c-1.02,0.03-1.42-0.38-1.78-1.24c-1.08-2.62-2.28-5.2-3.34-7.83
		c-0.37-0.91-0.86-1.21-1.82-1.2c-7.61,0.03-15.21,0.04-22.82-0.01c-1.08-0.01-1.53,0.41-1.9,1.34c-1.06,2.63-2.25,5.22-3.32,7.85
		c-0.33,0.81-0.7,1.11-1.62,1.09c-2.84-0.08-5.69-0.03-8.69-0.03c2.08-4.58,4.1-9.06,6.14-13.51c5.45-11.86,10.92-23.71,16.35-35.58
		c0.44-0.96,0.89-1.46,2.04-1.38c2.03,0.14,4.48-0.57,6,0.33c1.41,0.84,1.86,3.31,2.68,5.09c6.66,14.51,13.31,29.03,19.96,43.55
		C297.32,298.63,297.67,299.06,297.59,299.67z M270.99,283.33c2.81,0,5.62-0.07,8.42,0.03c1.42,0.05,1.55-0.37,1.03-1.56
		c-2.95-6.79-5.85-13.6-8.76-20.4c-0.13-0.31-0.18-0.73-0.6-0.76c-0.48-0.03-0.45,0.47-0.57,0.76c-3.05,6.89-6.07,13.78-9.14,20.66
		c-0.46,1.04-0.25,1.31,0.85,1.29C265.14,283.29,268.07,283.33,270.99,283.33z"/>
	<path class="st7" d="M-55.36,249.31c8.94,0,17.72-0.14,26.5,0.05c5.18,0.11,9.93,1.72,13.73,5.52c6.38,6.39,4.82,17.16-3.15,21.53
		c-3.45,1.89-7.13,3.01-11.08,3.06c-5.03,0.06-10.06,0.12-15.1,0.06c-1.44-0.02-1.74,0.44-1.72,1.78c0.07,5.43-0.07,10.87,0.09,16.3
		c0.05,1.87-0.55,2.21-2.2,2.09c-1.92-0.14-3.87-0.13-5.79,0c-1.14,0.08-1.3-0.29-1.3-1.31c0.04-7.83,0.02-15.66,0.02-23.49
		C-55.36,266.38-55.36,257.86-55.36,249.31z M-46.14,264.42c0,2.45,0.05,4.9-0.02,7.35c-0.03,1.09,0.35,1.4,1.41,1.39
		c4.21-0.05,8.42,0.07,12.62-0.06c2.31-0.07,4.63-0.27,6.8-1.3c4.01-1.9,5.95-6.41,4.33-10.32c-1.38-3.33-4.16-4.9-7.51-5.41
		c-5.51-0.84-11.08-0.21-16.62-0.39c-0.94-0.03-1.01,0.49-1.01,1.22C-46.13,259.4-46.14,261.91-46.14,264.42z"/>
	<path class="st7" d="M-113.8,293.63c1.86-1.51,3.57-2.82,5.19-4.23c0.9-0.79,1.45-0.16,2.13,0.26c7.51,4.59,15.48,5.14,23.72,2.48
		c3.02-0.97,4.83-3.66,4.85-6.56c0.02-3.07-1.45-5.13-4.62-6.45c-3.29-1.37-6.84-1.27-10.29-1.73c-4.6-0.61-9.26-1.11-13.3-3.62
		c-7.44-4.62-7.6-15.23-0.43-20.68c3.15-2.4,6.81-3.55,10.62-3.99c6.47-0.74,12.91-0.55,19.07,1.99c2.05,0.84,3.95,1.9,5.71,3.27
		c-1.58,1.25-3.18,2.35-4.55,3.67c-0.95,0.91-1.54,0.65-2.51,0.11c-6.33-3.51-12.98-4.23-19.8-1.72c-3.79,1.39-5.75,5.59-4.34,9.05
		c1.23,3.03,4.05,4,6.97,4.57c4.85,0.95,9.84,1,14.67,2.13c5.09,1.2,9.45,3.48,11.22,8.81c2.31,6.95-0.7,13.11-7.58,16.32
		c-5.49,2.57-11.39,3.04-17.41,2.7c-4.5-0.26-8.89-0.83-13.06-2.63C-109.73,296.42-111.74,295.17-113.8,293.63z"/>
	<path class="st7" d="M-287.47,297.04c0-15.31,0.02-30.62-0.03-45.93c-0.01-1.47,0.39-1.84,1.84-1.82
		c6.26,0.08,12.53,0.05,18.79,0.02c0.98-0.01,1.47,0.09,1.29,1.29c-0.17,1.14-0.11,2.34-0.02,3.5c0.09,1.12-0.35,1.37-1.39,1.36
		c-3.57-0.06-7.14,0.02-10.71-0.04c-1.23-0.02-1.75,0.23-1.75,1.62c0.04,26.76,0.04,53.53,0,80.29c0,1.29,0.44,1.54,1.61,1.52
		c3.57-0.07,7.14,0.01,10.71-0.04c1.08-0.02,1.63,0.2,1.53,1.43c-0.13,1.56,0.48,3.6-0.3,4.57c-0.83,1.04-2.96,0.32-4.52,0.33
		c-5.15,0.04-10.3-0.03-15.45,0.05c-1.36,0.02-1.63-0.41-1.63-1.68C-287.45,328.01-287.47,312.53-287.47,297.04z"/>
	<path class="st7" d="M-147.67,297.2c0,15.37-0.03,30.74,0.04,46.11c0.01,1.61-0.47,1.9-1.95,1.88c-6.09-0.08-12.18-0.08-18.26,0
		c-1.36,0.02-1.75-0.39-1.62-1.68c0.16-1.5-0.62-3.45,0.3-4.39c0.92-0.95,2.88-0.26,4.39-0.29c2.63-0.05,5.27-0.05,7.9,0.01
		c0.98,0.02,1.42-0.29,1.32-1.29c-0.04-0.41,0-0.82,0-1.23c0-26.12,0-52.25,0-78.37c0-2.52,0-2.52-2.61-2.52
		c-3.4,0-6.79-0.05-10.19,0.03c-0.96,0.02-1.14-0.25-1.11-1.11c0.06-1.34,0.05-2.69,0-4.03c-0.02-0.76,0.26-1.02,1.02-1.01
		c6.62,0.02,13.23,0.03,19.85,0c1.2-0.01,0.91,0.79,0.91,1.43c0.01,6.6,0.01,13.21,0.01,19.81
		C-147.67,279.43-147.67,288.31-147.67,297.2z"/>
	<path class="st7" d="M154.85,255.68c-5.12,0-10.32,0.09-15.52-0.05c-1.77-0.05-2.07,0.52-2.06,2.15
		c0.07,13.43,0.02,26.86,0.07,40.29c0.01,1.29-0.25,1.72-1.6,1.63c-1.98-0.13-3.99-0.16-5.96,0c-1.56,0.13-1.81-0.49-1.79-1.85
		c0.07-4.61,0.02-9.23,0.03-13.84c0.01-8.99-0.01-17.99,0.05-26.98c0.01-1.09-0.28-1.39-1.36-1.38c-4.85,0.05-9.71-0.02-14.56,0.05
		c-1.23,0.02-1.84-0.17-1.67-1.58c0.2-1.61-0.67-3.78,0.35-4.7c0.88-0.79,3.01-0.21,4.59-0.21c12.28,0,24.57,0,36.85,0
		c2.6,0,2.6,0,2.6,2.68C154.85,253.11,154.85,254.33,154.85,255.68z"/>
	<path class="st7" d="M166.29,299.65c0-0.62,0-1.25,0-1.89c0-15.55,0.03-31.09-0.05-46.64c-0.01-1.72,0.44-2.08,2.05-1.94
		c1.98,0.17,3.98,0.09,5.97,0.02c0.94-0.03,1.3,0.17,1.3,1.21c-0.03,16.01-0.03,32.03,0,48.04c0,1.04-0.35,1.24-1.3,1.22
		C171.65,299.61,169.04,299.65,166.29,299.65z"/>
	<path class="st7" d="M61.73,353.03c1.29-1.46,2.39-1.8,4.24-0.76c4.42,2.49,9.95,0.77,11.66-3.28c0.69-1.64,0.46-3.33,0.44-5.01
		c-0.02-1.19-0.68-0.6-1.13-0.26c-3.06,2.34-6.54,2.34-10.02,1.56c-3-0.68-4.97-2.66-5.73-5.73c-0.82-3.31-0.76-6.61,0.2-9.85
		c1.17-3.94,6.37-6.18,11.57-5.16c1.52,0.3,2.9,0.86,4.09,1.81c0.79,0.63,1.11,0.54,1.07-0.49c-0.08-2.12,1.53-0.95,2.37-1.16
		c1.14-0.29,1.14,0.54,1.14,1.37c-0.02,6.89,0.05,13.79-0.03,20.68c-0.04,3.41-1.57,6.11-4.77,7.5
		C71.62,356.53,66.57,356.12,61.73,353.03z M78.16,334.94c-0.12-1.02-0.17-2.19-0.4-3.33c-0.52-2.64-2.69-4.58-5.26-4.83
		c-3.94-0.37-6.53,0.85-7.62,3.75c-0.79,2.11-0.76,4.32-0.54,6.56c0.26,2.57,1.16,4.67,3.73,5.59c2.64,0.95,5.29,0.92,7.63-0.79
		C78,340.22,77.9,337.57,78.16,334.94z"/>
	<path class="st7" d="M24.56,345.64c1.98-4.35,3.94-8.67,5.91-12.99c2.45-5.37,4.91-10.74,7.38-16.11c0.4-0.87,0.7-1.72,2.05-1.63
		c1.31,0.08,2.16,0.16,2.81,1.62c4.16,9.35,8.47,18.63,12.73,27.93c0.17,0.36,0.32,0.73,0.48,1.09c-0.18,0.1-0.26,0.2-0.35,0.2
		c-3.44,0.14-3.74,0.23-4.8-3.07c-1.08-3.36-2.94-4.36-6.36-4.04c-3.77,0.35-7.59,0.12-11.39,0.06c-1.03-0.02-1.61,0.28-1.96,1.26
		c-0.35,0.98-0.85,1.9-1.27,2.85C28.35,346.08,28.35,346.08,24.56,345.64z M40.15,319.42c-2.37,5.33-4.61,10.41-6.89,15.47
		c-0.47,1.04-0.33,1.41,0.91,1.39c4.03-0.06,8.05-0.07,12.08,0c1.54,0.03,1.45-0.54,0.96-1.63c-1.69-3.75-3.31-7.53-5.01-11.27
		C41.62,322.11,41.3,320.67,40.15,319.42z"/>
	<path class="st7" d="M-111.84,330.35c0-4.67,0-9.34,0-14.01c0-0.66-0.23-1.43,0.95-1.39c5.6,0.21,11.23-0.4,16.81,0.36
		c4.43,0.6,7.55,3.41,8.26,7.31c0.63,3.49-0.92,6.7-4.11,8.48c-1.86,1.04-3.86,1.66-5.99,1.7c-3.51,0.07-7.02,0.11-10.52,0.04
		c-1.35-0.03-1.69,0.43-1.65,1.71c0.08,3.27-0.07,6.54,0.07,9.8c0.08,1.81-1.04,1.39-2.02,1.42c-1,0.03-1.89,0.19-1.85-1.42
		C-111.76,339.7-111.84,335.02-111.84,330.35z M-100.94,317.66c-2.28,0-4.15,0.03-6.02-0.01c-0.81-0.02-1.14,0.23-1.13,1.09
		c0.03,3.5,0.04,7,0,10.5c-0.01,1.02,0.49,1.13,1.3,1.11c2.05-0.03,4.09,0.01,6.14-0.02c2.04-0.03,4.08,0.17,6.1-0.33
		c3.17-0.78,5.11-3.01,5.14-5.96c0.03-3.14-1.69-5.18-4.97-6.05C-96.7,317.39-99.03,317.83-100.94,317.66z"/>
	<path class="st7" d="M-242.18,316.72c-2.85,9.18-5.89,17.98-10.08,26.36c-0.87,1.73-1.72,3.01-3.94,2.9
		c-1.43-0.07-2.87,0.32-4.48,0.52c1.97-5.75,3.64-11.44,4.93-17.23c0.74-3.34,1.38-6.7,1.98-10.06c0.18-1.04,0.54-1.4,1.66-1.47
		C-248.86,317.51-245.64,317.08-242.18,316.72z"/>
	<path class="st7" d="M-78.11,330.31c0-4.67,0.07-9.34-0.04-14.01c-0.03-1.52,0.79-1.39,1.73-1.33c0.88,0.06,2.03-0.47,1.95,1.3
		c-0.13,3.03,0,6.07-0.05,9.1c-0.02,1.22,0.26,1.47,1.35,0.77c3.08-2,6.46-2.1,9.93-1.37c3.61,0.76,5.93,3.49,6,7.29
		c0.08,4.2-0.03,8.41,0.04,12.61c0.03,1.75-1.18,1.03-1.92,1.08c-0.75,0.05-1.78,0.45-1.74-1.11c0.09-3.79,0-7.59,0.04-11.38
		c0.03-2.65-0.62-4.95-3.36-5.89c-3.06-1.05-6.11-1.04-8.73,1.19c-1.34,1.14-1.6,2.78-1.6,4.46c0.01,3.62-0.07,7.24,0.04,10.86
		c0.05,1.5-0.31,1.92-1.88,1.98c-1.81,0.07-1.8-0.77-1.79-2.07C-78.08,339.3-78.11,334.8-78.11,330.31z"/>
	<path class="st7" d="M111.31,342.98c-2.74,2.46-6.21,3.12-9.81,3.01c-3.35-0.1-6.71-0.63-8.93-3.58c-2.86-3.8-2.79-8.04-1.27-12.26
		c1.35-3.74,4.48-5.38,8.26-5.69c3.94-0.33,7.72,0.11,10.46,3.51c1.62,2.01,1.99,4.4,2.17,6.86c0.08,1.11-0.6,1.02-1.33,1.02
		c-5.03-0.01-10.05-0.01-15.08,0c-1.9,0-2.11,0.27-1.71,2.14c0.68,3.17,2.73,5.07,6.32,5.58c2.34,0.34,4.77,0.25,6.75-1.12
		C108.83,341.27,110.09,341.29,111.31,342.98z M101.2,333.85c2.04,0,4.09-0.03,6.13,0.01c1.02,0.02,1.25-0.31,1.11-1.36
		c-0.47-3.54-3.44-5.96-7.46-5.82c-3.83,0.14-6.34,2.19-6.98,5.39c-0.22,1.11-0.14,1.91,1.41,1.81
		C97.34,333.76,99.28,333.85,101.2,333.85z"/>
	<path class="st7" d="M124.71,326.72c2.61-1.82,5.52-2.61,8.71-2.31c1.28,0.12,2.54,0.32,3.73,0.85c2.91,1.29,4.44,3.56,4.51,6.69
		c0.09,4.2-0.03,8.41,0.06,12.62c0.04,1.66-1.05,1.18-1.87,1.2c-0.87,0.02-1.86,0.35-1.82-1.26c0.1-3.8,0.05-7.6,0.03-11.39
		c-0.02-3.38-1.23-5.14-4.02-5.97c-3.43-1.02-7.14-0.07-8.73,2.26c-0.72,1.05-0.87,2.26-0.87,3.5c0.01,3.8-0.08,7.6,0.04,11.39
		c0.05,1.53-0.69,1.56-1.78,1.49c-0.99-0.06-2.05,0.34-2.01-1.45c0.11-5.96,0.03-11.92,0.05-17.88c0-0.83-0.42-2.05,1.21-1.81
		c1.06,0.15,2.83-0.76,2.5,1.6C124.44,326.33,124.55,326.44,124.71,326.72z"/>
	<path class="st7" d="M19.85,335.2c0.15,7.34-4.04,10.83-10.78,10.79c-7.06-0.05-10.92-3.18-10.94-11.01
		c-0.02-6.83,3.97-10.61,11.03-10.59C16.15,324.4,19.88,328.18,19.85,335.2z M16.3,335.3c0-5.16-1.36-7.29-5.33-8.36
		c-3.61-0.97-7.8,0.92-8.71,3.99c-0.72,2.44-0.59,4.97-0.28,7.45c0.25,2,1.47,3.47,3.32,4.4C11.06,345.69,16.3,342.14,16.3,335.3z"
		/>
	<path class="st7" d="M-48.69,335.15c-0.33-7.41,4.47-10.77,10.77-10.77c7.09,0,10.9,3.84,10.86,10.92
		c-0.04,8.19-4.64,10.69-10.91,10.69C-44.76,345.97-48.98,342.49-48.69,335.15z M-30.67,335.52c0-0.77,0.01-1.3,0-1.82
		c-0.04-3.27-1.57-5.6-4.27-6.52c-3.24-1.1-6.81-0.2-8.77,2.13c-1.72,2.04-1.42,4.47-1.41,6.83c0.02,6.14,5.64,9.46,11.09,6.58
		C-30.99,341.11-30.55,338.31-30.67,335.52z"/>
	<path class="st7" d="M196.81,324.78c-4.17,9.07-8.22,18-12.37,26.89c-1.14,2.45-5.25,4.06-7.69,3.27
		c-0.94-0.31-0.43-1.06-0.53-1.62c-0.11-0.57,0.17-0.86,0.79-0.83c1.41,0.07,2.87,0.08,3.87-1.12c1.35-1.63,1.87-3.71,2.76-5.59
		c0.27-0.58-0.23-1.11-0.46-1.62c-2.73-5.97-5.45-11.94-8.24-17.88c-0.59-1.26-0.51-1.63,1.02-1.66c1.54-0.03,2.35,0.35,2.96,1.87
		c1.87,4.69,3.95,9.3,5.95,13.95c0.18,0.41,0.17,1.02,0.75,1.03c0.53,0.01,0.5-0.59,0.64-0.93c1.83-4.26,3.64-8.53,5.42-12.81
		C193.01,324.49,192.99,324.48,196.81,324.78z"/>
	<path class="st7" d="M-204.95,260.94c-3.98,0-7.95-0.03-11.93,0.02c-1.03,0.01-1.49-0.21-1.41-1.34c0.12-1.68-0.55-3.87,0.28-4.93
		c0.88-1.13,3.17-0.34,4.83-0.35c6.67-0.05,13.33,0.02,20-0.05c1.38-0.01,2.06,0.25,1.88,1.79c-0.18,1.55,0.64,3.58-0.33,4.55
		c-0.97,0.97-3,0.27-4.56,0.29C-199.1,260.97-202.03,260.94-204.95,260.94z"/>
	<path class="st7" d="M-241.74,283.13c-0.03,4.43-2.73,7.22-6.98,7.21c-4.04-0.01-6.86-3.08-6.83-7.43
		c0.03-4.23,2.98-7.24,7.08-7.21C-244.32,275.72-241.71,278.6-241.74,283.13z"/>
	<path class="st7" d="M170.35,343.09c-4.32,4.33-14.48,3.56-17.82-0.73c-2.69-3.45-2.94-7.21-1.74-11.21
		c1.13-3.76,3.93-5.63,7.58-6.39c4.34-0.9,8.46-0.53,12.01,2.48c-1.3,1.71-2.55,1.67-4.37,0.57c-3.71-2.22-8.9-1.02-11.11,2.24
		c-1.96,2.89-1.6,8.64,0.71,11.18c2.34,2.58,7.32,3.15,10.7,1.23C168.49,341.23,168.49,341.23,170.35,343.09z"/>
	<path class="st7" d="M-14.1,321.34c0.06,3.82-0.54,3.28,3.36,3.33c0.58,0.01,1.17,0.02,1.75,0.01c0.69-0.01,0.68,0.47,0.69,0.95
		c0.01,0.53-0.09,0.91-0.74,0.91c-1.23-0.01-2.46,0.04-3.68-0.01c-0.94-0.04-1.39,0.26-1.38,1.28c0.03,4.08-0.04,8.17,0.03,12.26
		c0.04,2.31,1.32,3.27,4,3.31c0.85,0.01,1.94-0.39,1.81,1.25c-0.07,0.92-0.32,1.26-1.22,1.17c-0.64-0.06-1.28-0.03-1.93-0.06
		c-3.73-0.16-6.5-2.21-6.32-6.67c0.14-3.5-0.04-7,0.06-10.5c0.04-1.51-0.25-2.32-1.97-2.05c-0.55,0.09-1.3,0.29-1.34-0.81
		c-0.04-1.1,0.58-1.15,1.32-1.03c1.69,0.28,2.16-0.49,1.97-2.04c-0.09-0.75-0.02-1.52-0.02-2.27c0-2.31,0.71-2.83,3.02-2.33
		c0.57,0.12,0.6,0.4,0.59,0.84C-14.11,319.7-14.1,320.52-14.1,321.34z"/>
</g>
</svg>
