<?xml version="1.0" encoding="utf-8"?>
<!-- Generator: Adobe Illustrator 24.1.1, SVG Export Plug-In . SVG Version: 6.00 Build 0)  -->
<svg version="1.1" id="Layer_1" xmlns="http://www.w3.org/2000/svg" xmlns:xlink="http://www.w3.org/1999/xlink" x="0px" y="0px"
	 viewBox="0 0 466.38 463.77" style="enable-background:new 0 0 466.38 463.77;" xml:space="preserve">
<style type="text/css">
	.st0{fill:#04658E;}
	.st1{fill:#ACCCDA;}
	.st2{fill:none;stroke:#000000;stroke-width:0.7071;stroke-miterlimit:10;}
	.st3{fill:none;stroke:#000000;stroke-width:0.8315;stroke-miterlimit:10;}
	.st4{fill:none;stroke:#000000;stroke-width:0.6567;stroke-miterlimit:10;}
	.st5{fill:none;stroke:#000000;stroke-miterlimit:10;}
	.st6{fill:#FFFFFF;}
	.st7{fill:#F2F2F2;}
</style>
<g>
	<polygon class="st0" points="1122.39,385.44 1178.5,441.55 1122.39,441.55 	"/>
	<polygon class="st0" points="1229.05,385.43 1229.05,426.01 1188.48,385.43 	"/>
	<polygon class="st0" points="1229.05,441.55 1229.05,441.55 1194.03,441.55 1137.92,385.43 1172.94,385.43 	"/>
</g>
<g>
	<polygon points="-1320.1,714.11 -1196.03,838.18 -1320.1,838.18 	"/>
	<polygon points="-1084.24,714.11 -1084.24,803.83 -1173.96,714.11 	"/>
	<polygon points="-1084.24,838.17 -1084.24,838.18 -1161.68,838.18 -1285.75,714.11 -1208.31,714.11 	"/>
</g>
<g>
	<polygon points="1321.94,1466.97 1446.01,1591.04 1321.94,1591.04 	"/>
	<polygon points="1557.79,1466.96 1557.79,1556.69 1468.07,1466.96 	"/>
	<polygon points="1557.79,1591.03 1557.79,1591.04 1480.35,1591.04 1356.28,1466.96 1433.72,1466.96 	"/>
</g>
<g>
	<polygon class="st0" points="-1313.95,872.13 -1189.88,996.19 -1313.95,996.19 	"/>
	<polygon class="st0" points="-1078.1,872.12 -1078.1,961.84 -1167.82,872.12 	"/>
	<polygon class="st0" points="-1078.1,996.19 -1078.1,996.19 -1155.53,996.19 -1279.61,872.12 -1202.17,872.12 	"/>
</g>
<rect x="-1023.61" y="725.18" class="st0" width="257.33" height="257.33"/>
<rect x="-719.61" y="721.27" class="st1" width="257.33" height="257.33"/>
<g>
	<g>
		<polygon class="st0" points="765.42,629.62 1011.85,876.04 765.42,876.04 		"/>
		<polygon class="st0" points="1233.86,629.61 1233.86,807.81 1055.66,629.61 		"/>
		<polygon class="st0" points="1233.86,876.03 1233.86,876.04 1080.06,876.04 833.64,629.61 987.45,629.61 		"/>
	</g>
	<polyline class="st2" points="1055.66,624.39 1055.66,620.61 1233.86,620.61 1233.86,624.39 	"/>
	<polyline class="st2" points="1239.42,629.61 1243.2,629.61 1243.2,807.81 1239.42,807.81 	"/>
	<polyline class="st3" points="758.87,876.04 755.09,876.04 755.09,629.61 758.87,629.61 	"/>
	<polyline class="st3" points="1011.85,881.04 1011.85,884.81 765.42,884.81 765.42,881.04 	"/>
	<polyline class="st4" points="833.64,624.39 833.64,620.61 987.34,620.61 987.34,624.39 	"/>
	<polyline class="st4" points="1233.86,882.06 1233.86,885.83 1080.17,885.83 1080.17,882.06 	"/>
	<g>
		<text transform="matrix(1 0 0 1 1358.6593 690.5486)" style="font-family:'ArialMT'; font-size:18.8354px;">Computer Aided Design (CAD)</text>
		<text transform="matrix(1 0 0 1 1355.8693 762.8284)" style="font-family:'ArialMT'; font-size:18.8354px;">Graphic Design / Web Design</text>
		<text transform="matrix(1 0 0 1 1358.6593 835.1081)" style="font-family:'ArialMT'; font-size:18.8354px;">Photography</text>
	</g>
	<polyline class="st5" points="1243.2,718.71 1294.53,718.71 1294.53,698.5 1614.53,698.5 	"/>
	<polyline class="st5" points="1146.86,620.61 1146.86,606.5 1309.53,606.5 1309.53,698.5 	"/>
	<polyline class="st5" points="1157.01,885.83 1157.01,894.83 1309.53,894.83 1309.53,768.61 1603.42,768.61 	"/>
	<polyline class="st5" points="910.49,620.61 910.49,606.5 996.31,606.5 1233.7,843.89 1309.53,843.89 	"/>
	<polyline class="st5" points="888.63,884.81 888.63,915.28 1331.86,915.28 1331.86,843.89 1465.64,843.89 	"/>
	<polyline class="st5" points="755.09,762.83 736.31,762.83 736.31,935.72 1110.01,935.72 1110.01,915.28 	"/>
</g>
<g>
	<rect x="973.31" y="1068.85" class="st0" width="156.69" height="156.69"/>
	<text transform="matrix(1 0 0 1 1163.2704 1121.1407)"><tspan x="0" y="0" style="font-family:'ArialMT'; font-size:27.915px;">Pantone P 113-8 U</tspan><tspan x="0" y="33.5" style="font-family:'ArialMT'; font-size:27.915px;">RGB : 4 101 142</tspan><tspan x="0" y="67" style="font-family:'ArialMT'; font-size:27.915px;">#04658E</tspan></text>
</g>
<rect x="635.72" y="1343.5" width="542.78" height="371"/>
<g>
	<polygon class="st6" points="785.99,1466.97 910.06,1591.04 785.99,1591.04 	"/>
	<polygon class="st6" points="1021.85,1466.97 1021.85,1556.69 932.13,1466.97 	"/>
	<polygon class="st6" points="1021.85,1591.03 1021.85,1591.04 944.41,1591.04 820.34,1466.97 897.78,1466.97 	"/>
</g>
<g>
	<polygon class="st0" points="-1320.1,1010.43 -974.37,1356.15 -1320.1,1356.15 	"/>
	<polygon class="st0" points="-662.88,1010.41 -662.88,1260.43 -912.89,1010.41 	"/>
	<polygon class="st0" points="-662.88,1356.13 -662.88,1356.15 -878.66,1356.15 -1224.39,1010.41 -1008.6,1010.41 	"/>
</g>
<g>
	<path class="st1" d="M291.02,705.73h-317c-143.32,0-259.5,116.18-259.5,259.5v312.33c0,143.32,116.18,259.5,259.5,259.5h317
		c143.32,0,259.5-116.18,259.5-259.5V965.23C550.52,821.91,434.34,705.73,291.02,705.73z M482.52,1279.92
		c0,103.32-83.76,187.07-187.07,187.07H-28.22c-103.32,0-187.07-83.75-187.07-187.07V961.8c0-103.32,83.75-187.07,187.07-187.07
		h323.67c103.31,0,187.07,83.75,187.07,187.07V1279.92z"/>
	<path class="st1" d="M133.52,912.78c-116.18,0-210.36,94.18-210.36,210.36c0,116.18,94.18,210.36,210.36,210.36
		c116.18,0,210.36-94.18,210.36-210.36C343.88,1006.96,249.7,912.78,133.52,912.78z M132.52,1275.06
		c-83.01,0-150.29-67.29-150.29-150.3c0-83,67.28-150.29,150.29-150.29c83,0,150.29,67.29,150.29,150.29
		C282.81,1207.77,215.52,1275.06,132.52,1275.06z"/>
	<circle class="st1" cx="355.68" cy="897.29" r="47.36"/>
</g>
<g>
	<path class="st7" d="M321.61,0H144.77C64.81,0,0,64.81,0,144.77V319c0,79.95,64.81,144.77,144.77,144.77h176.84
		c79.95,0,144.77-64.81,144.77-144.77V144.77C466.38,64.81,401.56,0,321.61,0z M428.44,320.32c0,57.64-46.73,104.36-104.36,104.36
		H143.52c-57.64,0-104.36-46.72-104.36-104.36V142.85c0-57.64,46.72-104.36,104.36-104.36h180.56
		c57.63,0,104.36,46.72,104.36,104.36V320.32z"/>
	<path class="st7" d="M233.75,115.51c-64.81,0-117.35,52.54-117.35,117.35s52.54,117.35,117.35,117.35
		c64.81,0,117.35-52.54,117.35-117.35S298.56,115.51,233.75,115.51z M233.19,317.61c-46.31,0-83.84-37.54-83.84-83.85
		c0-46.3,37.53-83.84,83.84-83.84c46.3,0,83.84,37.54,83.84,83.84C317.03,280.07,279.49,317.61,233.19,317.61z"/>
	<circle class="st7" cx="357.68" cy="106.87" r="26.42"/>
</g>
<g>
	<polygon class="st1" points="-1298.77,1401.29 -1009.28,1690.77 -1298.77,1690.77 	"/>
	<polygon class="st1" points="-748.45,1401.28 -748.45,1610.61 -957.81,1401.28 	"/>
	<polygon class="st1" points="-748.45,1690.77 -748.45,1690.77 -929.14,1690.77 -1218.64,1401.28 -1037.95,1401.28 	"/>
</g>
<g>
	<polygon class="st7" points="-702.19,120.6 -441.37,381.41 -702.19,381.41 	"/>
	<polygon class="st7" points="-206.37,120.59 -206.37,309.2 -394.99,120.59 	"/>
	<polygon class="st7" points="-206.37,381.41 -206.37,381.41 -369.17,381.41 -629.99,120.59 -467.19,120.59 	"/>
</g>
<path class="st1" d="M-343.61,1077.02h-250.68c-15.17,0-27.46,12.3-27.46,27.47v250.67c0,15.17,12.29,27.47,27.46,27.47h250.68
	c15.17,0,27.46-12.3,27.46-27.47v-250.67C-316.15,1089.32-328.44,1077.02-343.61,1077.02z M-526.84,1341.1
	c0,4.5-3.65,8.15-8.14,8.15h-34.82c-4.5,0-8.15-3.65-8.15-8.15v-143.75c0-4.49,3.65-8.14,8.15-8.14h34.82
	c4.49,0,8.14,3.65,8.14,8.14V1341.1z M-552.39,1175.72c-17.92,0-32.45-14.52-32.45-32.44c0-17.92,14.53-32.45,32.45-32.45
	c17.91,0,32.44,14.53,32.44,32.45C-519.95,1161.2-534.48,1175.72-552.39,1175.72z M-348.34,1272.75v68.35c0,4.5-3.65,8.15-8.14,8.15
	h-35.16c-4.5,0-8.14-3.65-8.14-8.15v-72.62c0-0.36,0.02-0.71,0.07-1.05l-0.07-0.01c1.75-39.42-25.59-37.09-25.59-37.09
	c-21.65-0.33-27.28,21.3-28.66,29.89v80.88c0,4.5-3.65,8.15-8.15,8.15h-34.96c-4.5,0-8.14-3.65-8.14-8.15v-143.75
	c0-4.49,3.64-8.14,8.14-8.14h34.96c4.5,0,8.15,3.65,8.15,8.14v11.46c15-24.58,46.97-21.98,46.97-21.98
	C-336.84,1185.06-348.34,1272.75-348.34,1272.75z"/>
<path class="st7" d="M-1016.94,117.69h-250.68c-15.17,0-27.46,12.3-27.46,27.47v250.67c0,15.17,12.29,27.47,27.46,27.47h250.68
	c15.17,0,27.46-12.3,27.46-27.47V145.17C-989.48,130-1001.77,117.69-1016.94,117.69z M-1200.17,381.77c0,4.5-3.65,8.15-8.14,8.15
	h-34.82c-4.5,0-8.15-3.65-8.15-8.15V238.02c0-4.49,3.65-8.14,8.15-8.14h34.82c4.49,0,8.14,3.65,8.14,8.14V381.77z M-1225.72,216.39
	c-17.92,0-32.45-14.52-32.45-32.44c0-17.92,14.53-32.45,32.45-32.45c17.91,0,32.44,14.53,32.44,32.45
	C-1193.28,201.88-1207.81,216.39-1225.72,216.39z M-1021.67,313.43v68.35c0,4.5-3.65,8.15-8.14,8.15h-35.16
	c-4.5,0-8.14-3.65-8.14-8.15v-72.62c0-0.36,0.02-0.71,0.07-1.05l-0.07-0.01c1.75-39.42-25.59-37.09-25.59-37.09
	c-21.65-0.33-27.28,21.3-28.66,29.89v80.88c0,4.5-3.65,8.15-8.15,8.15h-34.96c-4.5,0-8.14-3.65-8.14-8.15V238.02
	c0-4.49,3.64-8.14,8.14-8.14h34.96c4.5,0,8.15,3.65,8.15,8.14v11.46c15-24.58,46.97-21.98,46.97-21.98
	C-1010.17,225.74-1021.67,313.43-1021.67,313.43z"/>
</svg>
