<?xml version="1.0" encoding="utf-8"?>
<!-- Generator: Adobe Illustrator 24.1.1, SVG Export Plug-In . SVG Version: 6.00 Build 0)  -->
<svg version="1.1" id="Layer_1" xmlns="http://www.w3.org/2000/svg" xmlns:xlink="http://www.w3.org/1999/xlink" x="0px" y="0px"
	 viewBox="0 0 565 140" style="enable-background:new 0 0 565 140;" xml:space="preserve">
<style type="text/css">
	.st0{fill:none;stroke:#000000;stroke-miterlimit:10;}
	.st1{fill:#FFFFFF;}
	.st2{fill:#3761A0;}
</style>
<g>
	<line class="st0" x1="-2656.65" y1="-347" x2="-2656.65" y2="-190"/>
	<g>
		<path d="M-2971.5-286.15h12.09v5.54c2.07-2.27,4.36-3.97,6.89-5.09c2.53-1.12,5.28-1.68,8.26-1.68c3.01,0,5.73,0.74,8.15,2.21
			c2.42,1.48,4.37,3.63,5.85,6.46c1.92-2.83,4.28-4.99,7.07-6.46c2.79-1.48,5.84-2.21,9.15-2.21c3.43,0,6.44,0.8,9.04,2.39
			c2.6,1.59,4.47,3.67,5.61,6.24s1.71,6.75,1.71,12.53v28.25h-12.18v-24.44c0-5.46-0.68-9.16-2.04-11.09
			c-1.36-1.93-3.4-2.9-6.11-2.9c-2.07,0-3.92,0.59-5.56,1.77c-1.64,1.18-2.86,2.81-3.65,4.89c-0.8,2.08-1.2,5.42-1.2,10.03v21.74
			h-12.18v-23.34c0-4.31-0.32-7.43-0.95-9.37c-0.64-1.93-1.59-3.37-2.86-4.32c-1.27-0.94-2.81-1.42-4.62-1.42
			c-2.01,0-3.84,0.6-5.48,1.79c-1.64,1.2-2.87,2.87-3.68,5.03c-0.81,2.15-1.22,5.55-1.22,10.18v21.43h-12.09V-286.15z"/>
		<path d="M-2864.45-287.39c4.55,0,8.82,1.14,12.82,3.41c4,2.27,7.12,5.36,9.37,9.25c2.24,3.9,3.36,8.1,3.36,12.62
			c0,4.55-1.13,8.8-3.39,12.75c-2.26,3.96-5.34,7.05-9.23,9.28c-3.9,2.23-8.19,3.34-12.89,3.34c-6.91,0-12.8-2.46-17.69-7.37
			c-4.89-4.92-7.33-10.89-7.33-17.91c0-7.53,2.76-13.8,8.28-18.82C-2876.3-285.21-2870.74-287.39-2864.45-287.39z M-2864.25-276.01
			c-3.76,0-6.88,1.31-9.38,3.92c-2.5,2.61-3.75,5.96-3.75,10.03c0,4.19,1.23,7.59,3.7,10.18c2.47,2.6,5.6,3.9,9.38,3.9
			c3.78,0,6.93-1.31,9.45-3.94c2.51-2.63,3.77-6.01,3.77-10.14c0-4.13-1.23-7.49-3.7-10.07
			C-2857.25-274.72-2860.41-276.01-2864.25-276.01z"/>
		<path d="M-2794.38-304.75h12.09v66.77h-12.09v-5.09c-2.36,2.24-4.73,3.86-7.1,4.85c-2.37,0.99-4.95,1.48-7.72,1.48
			c-6.22,0-11.6-2.41-16.14-7.24c-4.54-4.83-6.81-10.83-6.81-18c0-7.44,2.2-13.53,6.59-18.29c4.39-4.75,9.73-7.13,16.01-7.13
			c2.89,0,5.6,0.55,8.14,1.64c2.54,1.09,4.88,2.73,7.03,4.92V-304.75z M-2807.09-276.23c-3.74,0-6.84,1.32-9.31,3.96
			c-2.47,2.64-3.71,6.03-3.71,10.16c0,4.16,1.26,7.59,3.77,10.27c2.52,2.69,5.61,4.03,9.29,4.03c3.8,0,6.94-1.32,9.44-3.96
			c2.5-2.64,3.75-6.1,3.75-10.38c0-4.19-1.25-7.59-3.75-10.18C-2800.1-274.93-2803.26-276.23-2807.09-276.23z"/>
		<path d="M-2722.71-258.57h-38.83c0.56,3.43,2.06,6.15,4.49,8.17c2.44,2.02,5.54,3.03,9.32,3.03c4.52,0,8.4-1.58,11.65-4.74
			l10.18,4.78c-2.54,3.6-5.58,6.27-9.12,7.99c-3.54,1.73-7.75,2.59-12.62,2.59c-7.56,0-13.71-2.38-18.46-7.15
			c-4.75-4.77-7.13-10.74-7.13-17.91c0-7.35,2.37-13.45,7.11-18.31c4.74-4.86,10.68-7.28,17.82-7.28c7.59,0,13.76,2.43,18.51,7.28
			c4.75,4.86,7.13,11.27,7.13,19.24L-2722.71-258.57z M-2734.8-268.09c-0.8-2.69-2.37-4.87-4.72-6.55
			c-2.35-1.68-5.08-2.52-8.18-2.52c-3.37,0-6.33,0.94-8.87,2.83c-1.6,1.18-3.08,3.26-4.44,6.24H-2734.8z"/>
		<path d="M-2716.67-286.15h10.36v6.07c1.12-2.39,2.61-4.21,4.47-5.45c1.86-1.24,3.9-1.86,6.11-1.86c1.56,0,3.2,0.41,4.92,1.24
			l-3.76,10.41c-1.42-0.71-2.58-1.06-3.5-1.06c-1.86,0-3.43,1.15-4.72,3.45c-1.28,2.3-1.93,6.82-1.93,13.55l0.04,2.35v19.48h-12
			V-286.15z"/>
	</g>
	<g>
		<path d="M-2610.61-305.15h4.19v5.62c1.46-2.07,2.95-3.59,4.49-4.54c2.12-1.28,4.34-1.91,6.67-1.91c1.58,0,3.07,0.31,4.49,0.93
			c1.42,0.62,2.57,1.44,3.47,2.47c0.9,1.03,1.68,2.5,2.33,4.41c1.39-2.55,3.13-4.49,5.22-5.81c2.09-1.32,4.33-1.99,6.74-1.99
			c2.25,0,4.23,0.57,5.95,1.7c1.72,1.14,3,2.72,3.83,4.75c0.83,2.03,1.25,5.08,1.25,9.15v17.76h-4.27v-17.76
			c0-3.49-0.25-5.88-0.74-7.19c-0.5-1.3-1.35-2.36-2.55-3.15c-1.2-0.8-2.64-1.2-4.3-1.2c-2.03,0-3.88,0.6-5.56,1.79
			c-1.68,1.2-2.91,2.79-3.68,4.78c-0.77,1.99-1.16,5.32-1.16,9.98v12.73h-4.19v-16.65c0-3.93-0.24-6.59-0.73-8
			c-0.49-1.4-1.34-2.53-2.56-3.38s-2.66-1.27-4.33-1.27c-1.93,0-3.74,0.58-5.42,1.75c-1.68,1.17-2.93,2.74-3.74,4.71
			c-0.81,1.97-1.21,4.99-1.21,9.06v13.78h-4.19V-305.15z"/>
		<path d="M-2526.39-283.42l3.53,1.85c-1.16,2.27-2.49,4.11-4.01,5.5c-1.52,1.4-3.22,2.46-5.12,3.18c-1.89,0.73-4.04,1.09-6.43,1.09
			c-5.31,0-9.45-1.74-12.45-5.22c-2.99-3.48-4.49-7.41-4.49-11.79c0-4.12,1.27-7.8,3.8-11.03c3.21-4.1,7.51-6.16,12.89-6.16
			c5.55,0,9.97,2.1,13.28,6.31c2.35,2.97,3.55,6.68,3.59,11.12h-29.26c0.08,3.78,1.29,6.87,3.62,9.29c2.33,2.42,5.22,3.62,8.65,3.62
			c1.66,0,3.27-0.29,4.83-0.86c1.57-0.58,2.9-1.34,4-2.29C-2528.86-279.76-2527.67-281.29-2526.39-283.42z M-2526.39-292.18
			c-0.56-2.23-1.37-4.02-2.44-5.35c-1.07-1.33-2.48-2.41-4.23-3.23c-1.76-0.82-3.6-1.23-5.54-1.23c-3.19,0-5.94,1.03-8.23,3.08
			c-1.68,1.49-2.94,3.74-3.8,6.73H-2526.39z"/>
		<path d="M-2482.14-317.7v45.08h-4.12v-5.59c-1.75,2.13-3.72,3.74-5.9,4.81c-2.18,1.08-4.57,1.61-7.16,1.61
			c-4.6,0-8.53-1.67-11.79-5.01c-3.26-3.34-4.89-7.4-4.89-12.18c0-4.68,1.64-8.69,4.93-12.02c3.29-3.33,7.24-4.99,11.87-4.99
			c2.67,0,5.09,0.57,7.25,1.7c2.16,1.14,4.06,2.84,5.69,5.11v-18.53H-2482.14z M-2498.86-301.95c-2.33,0-4.48,0.57-6.45,1.72
			c-1.97,1.14-3.54,2.75-4.7,4.82c-1.16,2.07-1.75,4.26-1.75,6.57c0,2.29,0.59,4.48,1.76,6.57c1.18,2.09,2.75,3.72,4.73,4.88
			c1.98,1.16,4.11,1.75,6.37,1.75c2.29,0,4.46-0.58,6.51-1.73c2.05-1.15,3.63-2.72,4.73-4.69c1.1-1.97,1.66-4.19,1.66-6.66
			c0-3.76-1.24-6.91-3.72-9.43C-2492.19-300.69-2495.24-301.95-2498.86-301.95z"/>
		<path d="M-2471.83-318.54c0.95,0,1.77,0.34,2.44,1.02c0.67,0.68,1.01,1.49,1.01,2.45c0,0.94-0.34,1.74-1.01,2.42
			c-0.67,0.68-1.49,1.02-2.44,1.02c-0.93,0-1.74-0.34-2.41-1.02c-0.67-0.68-1.01-1.48-1.01-2.42c0-0.96,0.34-1.77,1.01-2.45
			C-2473.56-318.2-2472.76-318.54-2471.83-318.54z M-2473.9-305.15h4.19v32.52h-4.19V-305.15z"/>
		<path d="M-2429.23-305.15v32.52h-4.13v-5.59c-1.75,2.13-3.72,3.74-5.9,4.81c-2.18,1.08-4.57,1.61-7.16,1.61
			c-4.6,0-8.53-1.67-11.79-5.01c-3.26-3.34-4.89-7.4-4.89-12.18c0-4.68,1.64-8.69,4.93-12.02c3.29-3.33,7.24-4.99,11.87-4.99
			c2.67,0,5.09,0.57,7.25,1.7c2.16,1.14,4.06,2.84,5.69,5.11v-5.98H-2429.23z M-2445.95-301.95c-2.33,0-4.48,0.57-6.45,1.72
			c-1.97,1.14-3.54,2.75-4.7,4.82c-1.17,2.07-1.75,4.26-1.75,6.57c0,2.29,0.59,4.48,1.76,6.57c1.17,2.09,2.75,3.72,4.73,4.88
			c1.98,1.16,4.11,1.75,6.38,1.75c2.29,0,4.46-0.58,6.51-1.73c2.05-1.15,3.63-2.72,4.73-4.69c1.1-1.97,1.66-4.19,1.66-6.66
			c0-3.76-1.24-6.91-3.72-9.43C-2439.28-300.69-2442.33-301.95-2445.95-301.95z"/>
		<path d="M-2578.18-258.43v32.52h-4.13v-5.59c-1.75,2.13-3.72,3.74-5.9,4.81c-2.18,1.08-4.57,1.61-7.16,1.61
			c-4.6,0-8.53-1.67-11.79-5.01c-3.26-3.34-4.89-7.4-4.89-12.18c0-4.68,1.64-8.69,4.93-12.02c3.29-3.33,7.24-4.99,11.87-4.99
			c2.67,0,5.09,0.57,7.25,1.7c2.16,1.14,4.06,2.84,5.69,5.11v-5.98H-2578.18z M-2594.9-255.23c-2.33,0-4.48,0.57-6.45,1.72
			c-1.97,1.14-3.54,2.75-4.7,4.82c-1.17,2.07-1.75,4.26-1.75,6.57c0,2.29,0.59,4.48,1.76,6.57c1.17,2.09,2.75,3.72,4.73,4.88
			c1.98,1.16,4.11,1.75,6.38,1.75c2.29,0,4.46-0.58,6.51-1.73c2.05-1.15,3.63-2.72,4.73-4.69c1.1-1.97,1.66-4.19,1.66-6.66
			c0-3.76-1.24-6.91-3.72-9.43C-2588.23-253.97-2591.28-255.23-2594.9-255.23z"/>
		<path d="M-2541.34-258.43h4.18v25.92c0,4.56-0.4,7.9-1.2,10.01c-1.1,2.99-3,5.29-5.71,6.91c-2.71,1.61-5.97,2.42-9.77,2.42
			c-2.79,0-5.3-0.4-7.52-1.18c-2.22-0.79-4.03-1.85-5.43-3.18c-1.39-1.33-2.68-3.27-3.86-5.83h4.54c1.24,2.15,2.83,3.75,4.79,4.78
			c1.96,1.04,4.38,1.55,7.27,1.55c2.85,0,5.26-0.53,7.23-1.59c1.97-1.06,3.37-2.4,4.21-4.01c0.84-1.61,1.26-4.21,1.26-7.79v-1.67
			c-1.58,1.99-3.5,3.52-5.77,4.59c-2.27,1.07-4.69,1.6-7.24,1.6c-2.99,0-5.8-0.74-8.44-2.23c-2.63-1.48-4.67-3.48-6.1-5.99
			c-1.44-2.51-2.15-5.27-2.15-8.28c0-3.01,0.75-5.81,2.24-8.41c1.5-2.6,3.57-4.66,6.21-6.17c2.64-1.51,5.43-2.27,8.36-2.27
			c2.43,0,4.7,0.5,6.81,1.51c2.1,1.01,4.13,2.67,6.09,4.98V-258.43z M-2553.68-255.23c-2.37,0-4.57,0.57-6.61,1.72
			c-2.03,1.15-3.63,2.73-4.78,4.75c-1.16,2.02-1.73,4.21-1.73,6.56c0,3.57,1.2,6.52,3.59,8.85c2.39,2.33,5.49,3.5,9.3,3.5
			c3.84,0,6.94-1.16,9.28-3.47c2.34-2.31,3.51-5.35,3.51-9.12c0-2.45-0.54-4.64-1.61-6.56c-1.07-1.92-2.6-3.44-4.57-4.56
			C-2549.29-254.67-2551.41-255.23-2553.68-255.23z"/>
		<path d="M-2501.42-236.7l3.53,1.85c-1.16,2.27-2.49,4.11-4.01,5.5c-1.52,1.39-3.22,2.46-5.12,3.18c-1.89,0.73-4.04,1.09-6.43,1.09
			c-5.31,0-9.45-1.74-12.45-5.22c-2.99-3.48-4.49-7.41-4.49-11.79c0-4.12,1.27-7.8,3.8-11.03c3.21-4.1,7.51-6.16,12.9-6.16
			c5.54,0,9.97,2.1,13.28,6.31c2.35,2.97,3.55,6.68,3.59,11.12h-29.26c0.08,3.78,1.29,6.87,3.62,9.29c2.33,2.42,5.22,3.62,8.65,3.62
			c1.66,0,3.27-0.29,4.83-0.86c1.57-0.58,2.9-1.34,4-2.29C-2503.88-233.04-2502.7-234.58-2501.42-236.7z M-2501.42-245.46
			c-0.56-2.23-1.37-4.02-2.44-5.35c-1.07-1.33-2.48-2.41-4.24-3.23c-1.76-0.82-3.6-1.23-5.54-1.23c-3.19,0-5.94,1.03-8.23,3.08
			c-1.68,1.49-2.94,3.74-3.8,6.73H-2501.42z"/>
		<path d="M-2489.63-258.43h4.19v5.83c1.67-2.23,3.53-3.9,5.56-5.01c2.03-1.11,4.24-1.66,6.64-1.66c2.43,0,4.59,0.62,6.47,1.85
			c1.88,1.24,3.27,2.9,4.17,4.99c0.9,2.09,1.35,5.35,1.35,9.77v16.74h-4.19v-15.51c0-3.75-0.16-6.25-0.47-7.5
			c-0.48-2.15-1.42-3.77-2.79-4.86c-1.38-1.09-3.17-1.63-5.38-1.63c-2.53,0-4.8,0.84-6.8,2.51c-2,1.67-3.32,3.75-3.96,6.22
			c-0.4,1.61-0.6,4.56-0.6,8.85v11.93h-4.19V-258.43z"/>
		<path d="M-2421.34-251.67l-3.32,2.06c-2.87-3.81-6.78-5.71-11.73-5.71c-3.96,0-7.25,1.27-9.87,3.82
			c-2.62,2.55-3.93,5.64-3.93,9.28c0,2.37,0.6,4.6,1.81,6.69c1.2,2.09,2.86,3.71,4.96,4.87c2.1,1.15,4.45,1.73,7.06,1.73
			c4.78,0,8.68-1.9,11.7-5.71l3.32,2.18c-1.55,2.34-3.64,4.16-6.26,5.45s-5.6,1.94-8.95,1.94c-5.14,0-9.41-1.63-12.79-4.9
			c-3.39-3.27-5.08-7.24-5.08-11.93c0-3.15,0.79-6.07,2.38-8.77c1.58-2.7,3.76-4.81,6.53-6.32c2.77-1.51,5.87-2.27,9.3-2.27
			c2.15,0,4.23,0.33,6.23,0.99c2,0.66,3.7,1.51,5.1,2.57C-2423.5-254.65-2422.32-253.31-2421.34-251.67z"/>
		<path d="M-2417.41-258.43h4.42l11.18,25.04l10.85-25.04h4.45l-19.4,44.42h-4.42l6.26-14.36L-2417.41-258.43z"/>
	</g>
</g>
<g>
	<path d="M-2572.59,236.52h38.03v17.42c6.5-7.15,13.73-12.49,21.68-16.02c7.95-3.53,16.61-5.29,26-5.29
		c9.48,0,18.03,2.32,25.65,6.97c7.62,4.64,13.76,11.42,18.4,20.34c6.04-8.92,13.45-15.7,22.24-20.34
		c8.78-4.64,18.38-6.97,28.79-6.97c10.78,0,20.26,2.51,28.44,7.52c8.18,5.02,14.06,11.56,17.64,19.64
		c3.58,8.08,5.37,21.23,5.37,39.43v88.89h-38.31v-76.91c0-17.18-2.14-28.82-6.41-34.9c-4.27-6.08-10.68-9.13-19.23-9.13
		c-6.5,0-12.33,1.86-17.49,5.57c-5.15,3.72-8.99,8.85-11.49,15.39c-2.51,6.55-3.76,17.07-3.76,31.56v68.41h-38.31v-73.42
		c0-13.56-1-23.38-3-29.47c-2-6.08-5.01-10.61-9.01-13.58c-4-2.97-8.84-4.46-14.52-4.46c-6.33,0-12.08,1.88-17.25,5.64
		c-5.17,3.76-9.03,9.03-11.59,15.81c-2.56,6.78-3.84,17.46-3.84,32.04v67.43h-38.03V236.52z"/>
	<path d="M-2235.77,232.61c14.3,0,27.75,3.58,40.33,10.73c12.59,7.15,22.41,16.86,29.47,29.12c7.06,12.26,10.59,25.5,10.59,39.71
		c0,14.3-3.55,27.68-10.66,40.12c-7.1,12.45-16.79,22.18-29.05,29.19c-12.26,7.01-25.78,10.52-40.55,10.52
		c-21.73,0-40.29-7.73-55.66-23.2c-15.37-15.46-23.06-34.25-23.06-56.36c0-23.69,8.68-43.42,26.05-59.21
		C-2273.07,239.49-2255.56,232.61-2235.77,232.61z M-2235.15,268.42c-11.82,0-21.66,4.11-29.52,12.33
		c-7.86,8.22-11.79,18.74-11.79,31.56c0,13.19,3.88,23.87,11.65,32.04c7.77,8.17,17.61,12.26,29.52,12.26
		c11.91,0,21.82-4.13,29.72-12.4c7.91-8.27,11.86-18.9,11.86-31.9c0-13-3.88-23.57-11.65-31.7
		C-2213.12,272.48-2223.05,268.42-2235.15,268.42z"/>
	<path d="M-2015.29,178h38.03v210.1h-38.03v-16.02c-7.43,7.06-14.87,12.14-22.34,15.26c-7.47,3.11-15.56,4.67-24.28,4.67
		c-19.58,0-36.51-7.59-50.8-22.78c-14.29-15.19-21.43-34.06-21.43-56.64c0-23.4,6.91-42.58,20.73-57.54
		c13.82-14.95,30.61-22.43,50.38-22.43c9.09,0,17.62,1.72,25.6,5.15c7.98,3.44,15.35,8.59,22.13,15.46V178z M-2055.28,267.72
		c-11.76,0-21.52,4.16-29.3,12.47c-7.78,8.31-11.66,18.97-11.66,31.97c0,13.1,3.95,23.87,11.87,32.32
		c7.92,8.45,17.66,12.68,29.23,12.68c11.94,0,21.85-4.16,29.71-12.47c7.87-8.31,11.8-19.2,11.8-32.67c0-13.19-3.94-23.87-11.8-32.04
		C-2033.29,271.81-2043.24,267.72-2055.28,267.72z"/>
	<path d="M-1789.79,323.31h-122.19c1.76,10.78,6.48,19.34,14.14,25.71c7.66,6.36,17.44,9.54,29.33,9.54
		c14.21,0,26.42-4.97,36.64-14.91l32.04,15.05c-7.99,11.33-17.55,19.72-28.7,25.15c-11.14,5.43-24.38,8.15-39.71,8.15
		c-23.78,0-43.15-7.5-58.1-22.5c-14.96-15-22.43-33.79-22.43-56.36c0-23.13,7.45-42.33,22.36-57.61
		c14.91-15.28,33.6-22.92,56.08-22.92c23.87,0,43.28,7.64,58.24,22.92c14.95,15.28,22.43,35.46,22.43,60.54L-1789.79,323.31z
		 M-1827.83,293.36c-2.51-8.45-7.47-15.32-14.86-20.62c-7.4-5.29-15.98-7.94-25.75-7.94c-10.61,0-19.91,2.97-27.91,8.92
		c-5.02,3.72-9.68,10.26-13.96,19.64H-1827.83z"/>
	<path d="M-1770.78,236.52h32.6v19.09c3.53-7.52,8.22-13.24,14.07-17.14c5.85-3.9,12.26-5.85,19.23-5.85c4.92,0,10.08,1.3,15.46,3.9
		l-11.84,32.74c-4.46-2.23-8.13-3.34-11.01-3.34c-5.85,0-10.8,3.62-14.84,10.87c-4.04,7.25-6.06,21.46-6.06,42.63l0.14,7.38v61.3
		h-37.76V236.52z"/>
</g>
<g>
	<path class="st1" d="M1.86,39.19h24.17v11.07c4.13-4.54,8.73-7.94,13.78-10.18c5.05-2.24,10.56-3.36,16.53-3.36
		c6.02,0,11.46,1.48,16.3,4.43c4.84,2.95,8.74,7.26,11.7,12.93c3.84-5.67,8.55-9.98,14.13-12.93c5.58-2.95,11.68-4.43,18.3-4.43
		c6.85,0,12.88,1.59,18.08,4.78c5.2,3.19,8.93,7.35,11.21,12.48s3.41,13.49,3.41,25.06v56.49h-24.35V86.65
		c0-10.92-1.36-18.31-4.07-22.18c-2.72-3.87-6.79-5.8-12.22-5.8c-4.13,0-7.84,1.18-11.11,3.54c-3.28,2.36-5.71,5.62-7.3,9.78
		c-1.59,4.16-2.39,10.85-2.39,20.05v43.47H63.67V88.86c0-8.62-0.64-14.86-1.91-18.73c-1.27-3.87-3.18-6.74-5.72-8.63
		c-2.54-1.89-5.62-2.83-9.23-2.83c-4.02,0-7.68,1.2-10.96,3.59c-3.28,2.39-5.74,5.74-7.37,10.05c-1.63,4.31-2.44,11.1-2.44,20.36
		v42.85H1.86V39.19z"/>
	<path class="st1" d="M215.92,36.71c9.09,0,17.63,2.27,25.63,6.82c8,4.55,14.24,10.71,18.73,18.5c4.48,7.79,6.73,16.2,6.73,25.23
		c0,9.09-2.26,17.59-6.77,25.5c-4.51,7.91-10.67,14.09-18.46,18.55c-7.79,4.46-16.38,6.68-25.77,6.68
		c-13.81,0-25.6-4.91-35.37-14.74s-14.65-21.77-14.65-35.81c0-15.05,5.52-27.59,16.56-37.63C192.21,41.08,203.34,36.71,215.92,36.71
		z M216.31,59.46c-7.51,0-13.76,2.61-18.76,7.84c-5,5.22-7.49,11.91-7.49,20.05c0,8.38,2.47,15.17,7.41,20.36
		c4.94,5.19,11.19,7.79,18.76,7.79c7.57,0,13.86-2.63,18.89-7.88c5.03-5.25,7.54-12.01,7.54-20.28c0-8.26-2.47-14.98-7.41-20.14
		C230.31,62.05,224,59.46,216.31,59.46z"/>
	<path class="st1" d="M356.03,2h24.17v133.52h-24.17v-10.18c-4.72,4.49-9.45,7.72-14.2,9.7c-4.75,1.98-9.89,2.97-15.43,2.97
		c-12.44,0-23.2-4.83-32.28-14.48c-9.08-9.65-13.62-21.65-13.62-35.99c0-14.87,4.39-27.06,13.18-36.57
		c8.79-9.5,19.46-14.26,32.02-14.26c5.78,0,11.2,1.09,16.27,3.28c5.07,2.18,9.76,5.46,14.06,9.83V2z M330.62,59.02
		c-7.47,0-13.68,2.64-18.62,7.92c-4.94,5.28-7.41,12.06-7.41,20.32c0,8.32,2.51,15.17,7.54,20.54c5.03,5.37,11.22,8.06,18.58,8.06
		c7.59,0,13.88-2.64,18.88-7.92c5-5.28,7.5-12.2,7.5-20.76c0-8.38-2.5-15.17-7.5-20.37C344.6,61.62,338.27,59.02,330.62,59.02z"/>
	<path class="st1" d="M499.34,94.35h-77.65c1.12,6.85,4.12,12.29,8.99,16.34c4.87,4.04,11.08,6.06,18.64,6.06
		c9.03,0,16.79-3.16,23.29-9.47l20.36,9.56c-5.08,7.2-11.16,12.53-18.24,15.98c-7.08,3.45-15.49,5.18-25.23,5.18
		c-15.11,0-27.42-4.77-36.92-14.3c-9.51-9.53-14.26-21.47-14.26-35.81c0-14.7,4.74-26.9,14.21-36.61
		c9.47-9.71,21.35-14.57,35.64-14.57c15.17,0,27.51,4.86,37.01,14.57c9.5,9.71,14.26,22.53,14.26,38.47L499.34,94.35z M475.17,75.31
		c-1.6-5.37-4.75-9.74-9.45-13.1c-4.7-3.36-10.15-5.05-16.36-5.05c-6.74,0-12.65,1.89-17.74,5.67c-3.19,2.36-6.15,6.52-8.87,12.48
		H475.17z"/>
	<path class="st1" d="M511.43,39.19h20.72v12.13c2.24-4.78,5.22-8.41,8.94-10.89c3.72-2.48,7.79-3.72,12.22-3.72
		c3.13,0,6.4,0.83,9.83,2.48l-7.53,20.81c-2.83-1.42-5.17-2.12-7-2.12c-3.72,0-6.86,2.3-9.43,6.91c-2.57,4.6-3.85,13.64-3.85,27.09
		l0.09,4.69v38.96h-23.99V39.19z"/>
</g>
<g>
	<path class="st2" d="M-2921.59,868.52h38.03v17.42c6.5-7.15,13.73-12.49,21.68-16.02c7.95-3.53,16.61-5.29,26-5.29
		c9.48,0,18.03,2.32,25.65,6.97c7.62,4.64,13.76,11.42,18.4,20.34c6.04-8.92,13.45-15.7,22.24-20.34
		c8.78-4.64,18.38-6.97,28.79-6.97c10.78,0,20.26,2.51,28.44,7.52c8.18,5.02,14.06,11.56,17.64,19.64
		c3.58,8.08,5.37,21.23,5.37,39.43v88.89h-38.31v-76.91c0-17.18-2.14-28.82-6.41-34.9c-4.27-6.08-10.68-9.13-19.23-9.13
		c-6.5,0-12.33,1.86-17.49,5.57c-5.15,3.72-8.99,8.85-11.49,15.39c-2.51,6.55-3.76,17.07-3.76,31.56v68.41h-38.31v-73.42
		c0-13.56-1-23.38-3-29.47c-2-6.08-5.01-10.61-9.01-13.58c-4-2.97-8.84-4.46-14.52-4.46c-6.33,0-12.08,1.88-17.25,5.64
		s-9.03,9.03-11.59,15.81c-2.56,6.78-3.84,17.46-3.84,32.04v67.43h-38.03V868.52z"/>
	<path class="st2" d="M-2584.77,864.61c14.3,0,27.75,3.58,40.33,10.73c12.59,7.15,22.41,16.86,29.47,29.12
		c7.06,12.26,10.59,25.5,10.59,39.71c0,14.3-3.55,27.68-10.66,40.12c-7.1,12.45-16.79,22.18-29.05,29.19
		c-12.26,7.01-25.78,10.52-40.55,10.52c-21.73,0-40.29-7.73-55.66-23.2c-15.37-15.46-23.06-34.25-23.06-56.36
		c0-23.69,8.68-43.42,26.05-59.21C-2622.07,871.49-2604.56,864.61-2584.77,864.61z M-2584.15,900.42
		c-11.82,0-21.66,4.11-29.52,12.33c-7.86,8.22-11.79,18.74-11.79,31.56c0,13.19,3.88,23.87,11.65,32.04
		c7.77,8.17,17.61,12.26,29.52,12.26c11.91,0,21.82-4.13,29.72-12.4c7.91-8.27,11.86-18.9,11.86-31.9c0-13-3.88-23.57-11.65-31.7
		C-2562.12,904.48-2572.05,900.42-2584.15,900.42z"/>
	<path class="st2" d="M-2364.29,810h38.03v210.1h-38.03v-16.02c-7.43,7.06-14.87,12.14-22.34,15.26
		c-7.47,3.11-15.56,4.67-24.28,4.67c-19.58,0-36.51-7.59-50.8-22.78c-14.29-15.19-21.43-34.06-21.43-56.64
		c0-23.4,6.91-42.58,20.73-57.54c13.82-14.95,30.61-22.43,50.38-22.43c9.09,0,17.62,1.72,25.6,5.15
		c7.98,3.44,15.35,8.59,22.13,15.46V810z M-2404.28,899.72c-11.76,0-21.52,4.16-29.3,12.47c-7.78,8.31-11.66,18.97-11.66,31.97
		c0,13.1,3.95,23.87,11.87,32.32c7.92,8.45,17.66,12.68,29.23,12.68c11.94,0,21.85-4.16,29.71-12.47c7.87-8.31,11.8-19.2,11.8-32.67
		c0-13.19-3.94-23.87-11.8-32.04C-2382.29,903.81-2392.24,899.72-2404.28,899.72z"/>
	<path class="st2" d="M-2138.79,955.31h-122.19c1.76,10.78,6.48,19.34,14.14,25.71c7.66,6.36,17.44,9.54,29.33,9.54
		c14.21,0,26.42-4.97,36.64-14.91l32.04,15.05c-7.99,11.33-17.55,19.72-28.7,25.15c-11.14,5.43-24.38,8.15-39.71,8.15
		c-23.78,0-43.15-7.5-58.1-22.5c-14.96-15-22.43-33.79-22.43-56.36c0-23.13,7.45-42.33,22.36-57.61
		c14.91-15.28,33.6-22.92,56.08-22.92c23.87,0,43.28,7.64,58.24,22.92c14.95,15.28,22.43,35.46,22.43,60.54L-2138.79,955.31z
		 M-2176.83,925.36c-2.51-8.45-7.47-15.32-14.86-20.62c-7.4-5.29-15.98-7.94-25.75-7.94c-10.6,0-19.91,2.97-27.91,8.92
		c-5.02,3.72-9.68,10.26-13.96,19.64H-2176.83z"/>
	<path class="st2" d="M-2119.77,868.52h32.6v19.09c3.53-7.52,8.22-13.24,14.07-17.14c5.85-3.9,12.26-5.85,19.23-5.85
		c4.92,0,10.08,1.3,15.46,3.9l-11.84,32.74c-4.46-2.23-8.13-3.34-11.01-3.34c-5.85,0-10.8,3.62-14.84,10.87
		c-4.04,7.25-6.06,21.46-6.06,42.63l0.14,7.38v61.3h-37.76V868.52z"/>
</g>
<polyline class="st0" points="-2324,233 -2324,88 -2039,88 "/>
<text transform="matrix(1 0 0 1 -2324.3735 70.2275)"><tspan x="0" y="0" style="font-family:'CenturyGothic'; font-size:31.697px;">razmak med </tspan><tspan x="198.06" y="0" style="font-family:'MyriadPro-Regular'; font-size:31.697px;">črkami : -10</tspan></text>
<text transform="matrix(1 0 0 1 -2352.3735 484.2275)" style="font-family:'CenturyGothic'; font-size:31.697px;">pisava : century gothic bold</text>
<text transform="matrix(1 0 0 1 -1620.3735 908.2275)"><tspan x="0" y="0" style="font-family:'CenturyGothic'; font-size:31.697px;">pantone : 8183 C</tspan><tspan x="0" y="38.04" style="font-family:'CenturyGothic'; font-size:31.697px;">RGB (55, 97, 160)</tspan><tspan x="0" y="76.07" style="font-family:'CenturyGothic'; font-size:31.697px;">#3761A0</tspan></text>
<text transform="matrix(1 0 0 1 -2306.3735 517.2275)" style="font-family:'CenturyGothic'; font-size:31.697px;">razmak vrstic : 24,19pt</text>
<polyline class="st0" points="-2573,408 -2573,440 -1730,440 -1730,408 "/>
<rect x="-1932" y="824" class="st2" width="236" height="236"/>
</svg>
