<?xml version="1.0" encoding="utf-8"?>
<!-- Generator: Adobe Illustrator 24.1.1, SVG Export Plug-In . SVG Version: 6.00 Build 0)  -->
<svg version="1.1" id="Layer_1" xmlns="http://www.w3.org/2000/svg" xmlns:xlink="http://www.w3.org/1999/xlink" x="0px" y="0px"
	 viewBox="0 0 742 585" style="enable-background:new 0 0 742 585;" xml:space="preserve">
<style type="text/css">
	.st0{fill:#245581;}
	.st1{fill:#FFFFFF;}
</style>
<g>
	<path class="st0" d="M-2361.24,369.33c0,84.33,68.37,152.7,152.7,152.7c62.26,0,115.83-37.27,139.59-90.71h128.56
		c-28.11,122.13-137.49,213.18-268.15,213.18c-86.39,0-163.48-39.81-213.93-102.08c-38.3-47.28-61.23-107.5-61.23-173.08
		c0-84.33-68.37-152.7-152.7-152.7c-84.33,0-152.7,68.37-152.7,152.7V644.5h-122.46V59.39h122.46v80.99
		c43.69-29.19,96.2-46.22,152.7-46.22c86.39,0,163.48,39.81,213.93,102.08c50.45-62.28,127.54-102.08,213.93-102.08
		c53.91,0,104.2,15.5,146.65,42.3V-117.5h122.46v426.36h-128.87c-23.42-54.26-77.39-92.23-140.24-92.23
		C-2292.88,216.63-2361.24,285-2361.24,369.33z"/>
	<path class="st0" d="M-2055.84,369.33c0,22.07-4.69,43.04-13.11,61.99h-168.32V308.86h168.97
		C-2060.27,327.39-2055.84,347.85-2055.84,369.33z"/>
</g>
<g>
	<path class="st0" d="M418.56,370.83c0,62.42,50.6,113.02,113.02,113.02c46.08,0,85.73-27.58,103.32-67.14h95.15
		c-20.8,90.4-101.77,157.79-198.47,157.79c-63.94,0-121-29.46-158.35-75.56c-28.35-34.99-45.32-79.56-45.32-128.11
		c0-62.42-50.6-113.02-113.02-113.02s-113.02,50.6-113.02,113.02V574.5H11.23V141.43h90.64v59.95
		c32.34-21.61,71.21-34.21,113.02-34.21c63.94,0,121,29.46,158.35,75.56c37.34-46.09,94.4-75.56,158.35-75.56
		c39.91,0,77.12,11.47,108.55,31.31V10.5h90.64v315.57h-95.39c-17.33-40.16-57.28-68.26-103.8-68.26
		C469.16,257.81,418.56,308.41,418.56,370.83z"/>
	<path class="st0" d="M644.61,370.83c0,16.34-3.47,31.86-9.7,45.88H510.32v-90.64h125.06C641.33,339.79,644.61,354.93,644.61,370.83
		z"/>
</g>
<g>
	<path class="st0" d="M-843.17,362.39c0,54.89,44.5,99.4,99.4,99.4c40.53,0,75.39-24.26,90.86-59.05h83.68
		c-18.29,79.5-89.5,138.76-174.54,138.76c-56.23,0-106.41-25.91-139.25-66.45c-24.93-30.77-39.86-69.97-39.86-112.66
		c0-54.89-44.5-99.4-99.4-99.4c-54.89,0-99.4,44.5-99.4,99.4V541.5h-79.71V160.64h79.71v52.72c28.44-19,62.62-30.08,99.4-30.08
		c56.23,0,106.41,25.91,139.25,66.45c32.84-40.54,83.02-66.45,139.25-66.45c35.09,0,67.83,10.09,95.46,27.54V45.5h79.71v277.52
		h-83.89c-15.24-35.32-50.38-60.03-91.29-60.03C-798.67,262.99-843.17,307.49-843.17,362.39z"/>
	<path class="st0" d="M-644.38,362.39c0,14.37-3.05,28.02-8.53,40.35h-109.56v-79.71h109.99
		C-647.26,335.09-644.38,348.4-644.38,362.39z"/>
</g>
<g>
	<rect x="-3365.9" y="765.25" class="st0" width="41.25" height="41.25"/>
	<text transform="matrix(1 0 0 1 -3303.6797 781.2031)"><tspan x="0" y="0" style="font-family:'MyriadPro-Regular'; font-size:15.2357px;">Pantone 8484 C - Metallic Coated</tspan><tspan x="0" y="18.28" style="font-family:'MyriadPro-Regular'; font-size:15.2357px;">#245581 </tspan></text>
</g>
<g>
	<g>
		<path class="st0" d="M-2359.8-817.86c0,31.98,25.93,57.91,57.91,57.91c23.61,0,43.93-14.13,52.94-34.4h48.76
			c-10.66,46.32-52.15,80.85-101.7,80.85c-32.76,0-62-15.1-81.14-38.72c-14.52-17.93-23.22-40.77-23.22-65.64
			c0-31.98-25.93-57.91-57.91-57.91c-31.99,0-57.91,25.93-57.91,57.91v104.36h-46.45v-221.91h46.45v30.72
			c16.57-11.07,36.49-17.53,57.91-17.53c32.76,0,62,15.1,81.14,38.72c19.14-23.62,48.37-38.72,81.14-38.72
			c20.45,0,39.52,5.88,55.62,16.04v-96.32h46.45v161.7h-48.88c-8.88-20.58-29.35-34.98-53.19-34.98
			C-2333.87-875.78-2359.8-849.85-2359.8-817.86z"/>
		<path class="st0" d="M-2243.97-817.86c0,8.37-1.78,16.33-4.97,23.51h-63.84v-46.45h64.08
			C-2245.65-833.77-2243.97-826.01-2243.97-817.86z"/>
	</g>
	<g>
		<path class="st0" d="M-2141.25-820.34v5.08h9.53v4.91h-9.53v9.57h-5.88v-24.64h16.22v5.08H-2141.25z"/>
		<path class="st0" d="M-2114.84-800.12c-7.69,0-13.4-5.29-13.4-13.08c0-7.9,5.71-12.88,13.4-12.88c7.73,0,13.43,4.98,13.43,12.88
			C-2101.4-805.41-2107.11-800.12-2114.84-800.12z M-2114.84-820.72c-4.18,0-7.03,3.2-7.03,7.52c0,4.45,2.89,7.66,7.03,7.66
			c4.14,0,7.06-3.2,7.06-7.66C-2107.77-817.52-2110.66-820.72-2114.84-820.72z"/>
		<path class="st0" d="M-2087.97-820.34v19.56h-5.95v-19.56h-6.96v-5.08h19.87v5.08H-2087.97z"/>
		<path class="st0" d="M-2067.1-800.12c-7.69,0-13.4-5.29-13.4-13.08c0-7.9,5.71-12.88,13.4-12.88c7.73,0,13.43,4.98,13.43,12.88
			C-2053.67-805.41-2059.37-800.12-2067.1-800.12z M-2067.1-820.72c-4.18,0-7.03,3.2-7.03,7.52c0,4.45,2.89,7.66,7.03,7.66
			c4.14,0,7.06-3.2,7.06-7.66C-2060.03-817.52-2062.92-820.72-2067.1-820.72z"/>
		<path class="st0" d="M-2037.35-800.15c-7.86,0-13.54-5.22-13.54-12.98c0-7.9,5.85-12.94,13.36-12.94c3.86,0,7.45,1.29,9.5,3.27
			l-3.76,4.28c-1.15-1.32-3.13-2.3-5.53-2.3c-4.18,0-7.24,3.27-7.24,7.69c0,4.52,2.68,7.76,7.52,7.76c1.39,0,2.68-0.21,3.72-0.66
			v-4.49h-4.7v-4.8h10.16v13.05C-2030.25-801.02-2033.55-800.15-2037.35-800.15z"/>
		<path class="st0" d="M-2009.79-800.78l-5.32-9.78h-2.02v9.78h-5.85v-24.64h9.4c4.73,0,9.43,1.81,9.43,7.45
			c0,3.31-1.95,5.67-5.12,6.65l6.44,10.54H-2009.79z M-2014-820.62h-3.17v5.74h2.82c1.91,0,4.32-0.49,4.32-2.99
			C-2010.03-820.16-2012.22-820.62-2014-820.62z"/>
		<path class="st0" d="M-1983.2-800.78l-1.91-4.84h-9.53l-1.81,4.84h-6.47l10.33-24.64h5.78l10.23,24.64H-1983.2z M-1989.82-818.84
			l-3.13,8.46h6.19L-1989.82-818.84z"/>
		<path class="st0" d="M-1968.66-820.34v5.08h9.53v4.91h-9.53v9.57h-5.88v-24.64h16.22v5.08H-1968.66z"/>
		<path class="st0" d="M-1954.5-800.78v-24.64h5.99v24.64H-1954.5z"/>
		<path class="st0" d="M-1938.08-800.12c-4.14,0-7.1-2.4-8-5.78l5.25-1.77c0.31,1.29,1.22,2.16,2.47,2.16c1.95,0,2.4-1.5,2.4-3.65
			v-16.25h5.99v16.22C-1929.97-805.3-1931.36-800.12-1938.08-800.12z"/>
		<path class="st0" d="M-1908.74-800.78l-1.91-4.84h-9.53l-1.81,4.84h-6.47l10.33-24.64h5.78l10.23,24.64H-1908.74z
			 M-1915.35-818.84l-3.13,8.46h6.19L-1915.35-818.84z"/>
		<path class="st0" d="M-1874.61-800.78l-2.33-2.4c-1.57,1.67-3.79,2.89-7.2,2.89c-4.49,0-8.84-2.33-8.84-7.34
			c0-3.48,2.44-5.64,5.15-6.82c-1.53-1.5-2.54-3.24-2.54-5.36c0-4.45,4.04-6.26,7.69-6.26c3.76,0,7.52,1.91,7.52,6.26
			c0,3.13-2.23,5.08-4.94,6.44l3.1,3.17l2.47-3.79h6.33l-5.32,7.13l6.12,6.09H-1874.61z M-1884.66-811.19
			c-1.39,0.56-2.61,1.46-2.61,3.31c0,1.95,1.7,3.1,3.34,3.1c1.53,0,2.75-0.7,3.62-1.88L-1884.66-811.19z M-1882.61-821.9
			c-1.36,0-2.37,0.97-2.37,2.26c0,1.15,0.66,2.23,1.84,3.2c1.57-0.63,2.85-1.71,2.85-3.2
			C-1880.28-820.89-1881.18-821.9-1882.61-821.9z"/>
		<path class="st0" d="M-2134.91-759.03h-5.95l-9.33-24.64h6.68l5.71,17.47h0.14l5.67-17.47h6.58L-2134.91-759.03z"/>
		<path class="st0" d="M-2123.4-759.03v-24.64h5.99v24.64H-2123.4z"/>
		<path class="st0" d="M-2103.15-759.03h-9.19v-24.64h8.91c6.99,0,14.09,2.92,14.09,12.25
			C-2089.33-762.75-2096.36-759.03-2103.15-759.03z M-2103.56-778.58h-2.96v14.41h2.82c4.25,0,8.18-1.74,8.18-7.24
			C-2095.52-776.95-2099.46-778.58-2103.56-778.58z"/>
		<path class="st0" d="M-2085.4-759.03v-24.64h16.56v5.05h-10.82v4.63h10.23v4.77h-10.23v5.12h11.45v5.08H-2085.4z"/>
		<path class="st0" d="M-2052.03-758.36c-7.69,0-13.4-5.29-13.4-13.08c0-7.9,5.71-12.88,13.4-12.88c7.73,0,13.43,4.98,13.43,12.88
			C-2038.6-763.65-2044.31-758.36-2052.03-758.36z M-2052.03-778.97c-4.18,0-7.03,3.2-7.03,7.52c0,4.45,2.89,7.66,7.03,7.66
			c4.14,0,7.06-3.2,7.06-7.66C-2044.97-775.76-2047.86-778.97-2052.03-778.97z"/>
		<path class="st0" d="M-2017.06-768.32h-2.96v9.29h-5.95v-24.64h9.05c5.39,0,9.64,1.95,9.64,7.59
			C-2007.28-770.37-2011.91-768.32-2017.06-768.32z M-2017.41-778.86h-2.61v5.81h2.51c2.23,0,4.28-0.66,4.28-2.99
			C-2013.23-778.41-2015.29-778.86-2017.41-778.86z"/>
		<path class="st0" d="M-1990.51-759.03l-5.32-9.78h-2.02v9.78h-5.85v-24.64h9.4c4.73,0,9.43,1.81,9.43,7.45
			c0,3.31-1.95,5.67-5.12,6.65l6.44,10.54H-1990.51z M-1994.72-778.86h-3.17v5.74h2.82c1.91,0,4.32-0.49,4.32-2.99
			C-1990.76-778.41-1992.95-778.86-1994.72-778.86z"/>
		<path class="st0" d="M-1968.38-758.36c-7.69,0-13.4-5.29-13.4-13.08c0-7.9,5.71-12.88,13.4-12.88c7.73,0,13.43,4.98,13.43,12.88
			C-1954.95-763.65-1960.66-758.36-1968.38-758.36z M-1968.38-778.97c-4.18,0-7.03,3.2-7.03,7.52c0,4.45,2.89,7.66,7.03,7.66
			c4.14,0,7.06-3.2,7.06-7.66C-1961.32-775.76-1964.21-778.97-1968.38-778.97z"/>
		<path class="st0" d="M-1941.83-759.03h-9.19v-24.64h8.91c6.99,0,14.09,2.92,14.09,12.25
			C-1928.02-762.75-1935.05-759.03-1941.83-759.03z M-1942.25-778.58h-2.96v14.41h2.82c4.25,0,8.18-1.74,8.18-7.24
			C-1934.21-776.95-1938.15-778.58-1942.25-778.58z"/>
		<path class="st0" d="M-1913.82-758.36c-6.47,0-10.51-4.04-10.51-9.95v-15.35h5.92v14.86c0,2.64,1.29,5.08,4.63,5.08
			c3.38,0,4.63-2.44,4.63-5.08v-14.86h5.95v15.35C-1903.21-762.4-1907.39-758.36-1913.82-758.36z"/>
		<path class="st0" d="M-1883.34-759.03l-9.15-11.34h-0.07v11.34h-5.85v-24.64h5.85v10.02h0.1l8.8-10.02h7.45l-10.61,11.34
			l11.24,13.29H-1883.34z"/>
		<path class="st0" d="M-1862.95-758.36c-7.59,0-13.26-5.29-13.26-13.01c0-7.9,5.85-12.94,13.36-12.94c3.45,0,7.17,1.25,9.22,3.62
			l-4.04,4.04c-1.11-1.53-3.1-2.26-4.98-2.26c-4.14,0-7.1,3.2-7.1,7.55c0,4.49,2.89,7.55,6.99,7.55c2.33,0,4.18-1.04,5.22-2.51
			l4.14,3.9C-1855.54-759.93-1858.81-758.36-1862.95-758.36z"/>
		<path class="st0" d="M-1850.84-759.03v-24.64h5.99v24.64H-1850.84z"/>
		<path class="st0" d="M-1834.42-758.36c-4.14,0-7.1-2.4-8-5.78l5.25-1.77c0.31,1.29,1.22,2.16,2.47,2.16c1.95,0,2.4-1.5,2.4-3.65
			v-16.25h5.99v16.22C-1826.31-763.55-1827.7-758.36-1834.42-758.36z"/>
		<path class="st0" d="M-1805.09-759.03l-1.91-4.84h-9.53l-1.81,4.84h-6.47l10.33-24.64h5.78l10.23,24.64H-1805.09z M-1811.7-777.09
			l-3.13,8.46h6.19L-1811.7-777.09z"/>
	</g>
</g>
<g>
	<g>
		<path class="st0" d="M-225.09-797.83c0,77.03,62.45,139.48,139.48,139.48c56.87,0,105.79-34.04,127.5-82.86h117.42
			C133.64-629.66,33.73-546.5-85.61-546.5c-78.91,0-149.32-36.36-195.4-93.24c-34.98-43.18-55.93-98.19-55.93-158.09
			c0-77.03-62.45-139.48-139.48-139.48S-615.9-874.86-615.9-797.83v251.33h-111.86v-534.43h111.86v73.98
			c39.91-26.67,87.87-42.22,139.48-42.22c78.91,0,149.32,36.36,195.4,93.24c46.08-56.88,116.5-93.24,195.4-93.24
			c49.24,0,95.18,14.15,133.95,38.64v-231.97h111.86v389.43H42.48c-21.39-49.56-70.69-84.24-128.1-84.24
			C-162.64-937.31-225.09-874.86-225.09-797.83z"/>
		<path class="st0" d="M53.86-797.83c0,20.16-4.28,39.32-11.97,56.62h-153.74v-111.86H42.48C49.82-836.14,53.86-817.46,53.86-797.83
			z"/>
	</g>
	<g>
		<path class="st0" d="M301.26-803.8v12.24h22.96v11.82h-22.96v23.05H287.1v-59.33h39.05v12.24H301.26z"/>
		<path class="st0" d="M364.86-755.11c-18.52,0-32.27-12.74-32.27-31.51c0-19.02,13.74-31.01,32.27-31.01
			c18.6,0,32.35,11.98,32.35,31.01C397.21-767.85,383.47-755.11,364.86-755.11z M364.86-804.72c-10.06,0-16.93,7.71-16.93,18.1
			c0,10.73,6.96,18.44,16.93,18.44s17.01-7.71,17.01-18.44C381.87-797.01,374.92-804.72,364.86-804.72z"/>
		<path class="st0" d="M429.55-803.8v47.1h-14.33v-47.1h-16.76v-12.24h47.85v12.24H429.55z"/>
		<path class="st0" d="M479.83-755.11c-18.52,0-32.26-12.74-32.26-31.51c0-19.02,13.74-31.01,32.26-31.01
			c18.61,0,32.35,11.98,32.35,31.01C512.18-767.85,498.44-755.11,479.83-755.11z M479.83-804.72c-10.06,0-16.93,7.71-16.93,18.1
			c0,10.73,6.96,18.44,16.93,18.44c9.97,0,17.01-7.71,17.01-18.44C496.85-797.01,489.89-804.72,479.83-804.72z"/>
		<path class="st0" d="M551.48-755.19c-18.94,0-32.6-12.57-32.6-31.26c0-19.02,14.08-31.18,32.18-31.18c9.3,0,17.93,3.1,22.88,7.88
			l-9.05,10.31c-2.77-3.18-7.54-5.53-13.33-5.53c-10.06,0-17.43,7.88-17.43,18.52c0,10.89,6.45,18.69,18.1,18.69
			c3.35,0,6.45-0.5,8.97-1.59v-10.81h-11.31v-11.56h24.47v31.43C568.58-757.29,560.62-755.19,551.48-755.19z"/>
		<path class="st0" d="M617.85-756.7l-12.82-23.55h-4.86v23.55h-14.08v-59.33h22.63c11.4,0,22.71,4.36,22.71,17.93
			c0,7.96-4.69,13.66-12.32,16.01l15.5,25.39H617.85z M607.71-804.47h-7.63v13.83h6.79c4.61,0,10.39-1.17,10.39-7.21
			C617.26-803.38,611.98-804.47,607.71-804.47z"/>
		<path class="st0" d="M681.87-756.7l-4.61-11.65H654.3l-4.36,11.65h-15.59l24.89-59.33h13.91l24.64,59.33H681.87z M665.95-800.19
			l-7.54,20.36h14.92L665.95-800.19z"/>
		<path class="st0" d="M716.9-803.8v12.24h22.96v11.82H716.9v23.05h-14.16v-59.33h39.05v12.24H716.9z"/>
		<path class="st0" d="M751-756.7v-59.33h14.41v59.33H751z"/>
		<path class="st0" d="M790.56-755.11c-9.97,0-17.09-5.78-19.27-13.91l12.65-4.27c0.76,3.1,2.93,5.2,5.95,5.2
			c4.69,0,5.78-3.6,5.78-8.8v-39.14h14.41v39.05C810.08-767.59,806.73-755.11,790.56-755.11z"/>
		<path class="st0" d="M861.2-756.7l-4.61-11.65h-22.96l-4.36,11.65h-15.59l24.89-59.33h13.91l24.64,59.33H861.2z M845.28-800.19
			l-7.54,20.36h14.92L845.28-800.19z"/>
		<path class="st0" d="M943.41-756.7l-5.62-5.78c-3.77,4.02-9.13,6.96-17.35,6.96c-10.81,0-21.29-5.61-21.29-17.68
			c0-8.38,5.87-13.58,12.4-16.43c-3.69-3.6-6.12-7.79-6.12-12.91c0-10.73,9.72-15.08,18.52-15.08c9.05,0,18.1,4.61,18.1,15.08
			c0,7.54-5.36,12.24-11.9,15.5l7.46,7.63l5.95-9.13h15.25L946-771.37l14.75,14.67H943.41z M919.19-781.76
			c-3.35,1.34-6.28,3.52-6.28,7.96c0,4.69,4.11,7.46,8.05,7.46c3.69,0,6.62-1.68,8.72-4.53L919.19-781.76z M924.13-807.57
			c-3.27,0-5.7,2.35-5.7,5.45c0,2.77,1.59,5.36,4.44,7.71c3.77-1.51,6.87-4.11,6.87-7.71C929.75-805.14,927.57-807.57,924.13-807.57
			z"/>
		<path class="st0" d="M316.51-656.14h-14.33l-22.46-59.33h16.09l13.74,42.07h0.34l13.66-42.07h15.84L316.51-656.14z"/>
		<path class="st0" d="M344.25-656.14v-59.33h14.41v59.33H344.25z"/>
		<path class="st0" d="M393.02-656.14h-22.12v-59.33h21.45c16.84,0,33.94,7.04,33.94,29.5
			C426.29-665.11,409.36-656.14,393.02-656.14z M392.01-703.24h-7.12v34.7h6.79c10.22,0,19.69-4.19,19.69-17.43
			C411.37-699.3,401.9-703.24,392.01-703.24z"/>
		<path class="st0" d="M435.75-656.14v-59.33h39.89v12.15h-26.06v11.15h24.64v11.48h-24.64v12.32h27.57v12.24H435.75z"/>
		<path class="st0" d="M516.12-654.55c-18.52,0-32.26-12.74-32.26-31.51c0-19.02,13.74-31.01,32.26-31.01
			c18.61,0,32.35,11.98,32.35,31.01C548.46-667.29,534.72-654.55,516.12-654.55z M516.12-704.16c-10.06,0-16.93,7.71-16.93,18.1
			c0,10.73,6.96,18.44,16.93,18.44c9.97,0,17.01-7.71,17.01-18.44C533.13-696.45,526.17-704.16,516.12-704.16z"/>
		<path class="st0" d="M600.33-678.52h-7.12v22.38h-14.33v-59.33h21.79c12.99,0,23.21,4.69,23.21,18.27
			C623.88-683.46,612.74-678.52,600.33-678.52z M599.5-703.91h-6.29v14h6.03c5.36,0,10.31-1.59,10.31-7.21
			C609.55-702.82,604.61-703.91,599.5-703.91z"/>
		<path class="st0" d="M664.27-656.14l-12.82-23.55h-4.86v23.55h-14.08v-59.33h22.63c11.4,0,22.71,4.36,22.71,17.93
			c0,7.96-4.69,13.66-12.32,16.01l15.5,25.39H664.27z M654.13-703.91h-7.63v13.83h6.79c4.61,0,10.39-1.17,10.39-7.21
			C663.69-702.82,658.41-703.91,654.13-703.91z"/>
		<path class="st0" d="M717.57-654.55c-18.52,0-32.26-12.74-32.26-31.51c0-19.02,13.74-31.01,32.26-31.01
			c18.61,0,32.35,11.98,32.35,31.01C749.92-667.29,736.17-654.55,717.57-654.55z M717.57-704.16c-10.06,0-16.93,7.71-16.93,18.1
			c0,10.73,6.96,18.44,16.93,18.44c9.97,0,17.01-7.71,17.01-18.44C734.58-696.45,727.63-704.16,717.57-704.16z"/>
		<path class="st0" d="M781.51-656.14h-22.13v-59.33h21.45c16.85,0,33.94,7.04,33.94,29.5
			C814.78-665.11,797.85-656.14,781.51-656.14z M780.5-703.24h-7.12v34.7h6.79c10.22,0,19.69-4.19,19.69-17.43
			C799.86-699.3,790.39-703.24,780.5-703.24z"/>
		<path class="st0" d="M848.96-654.55c-15.59,0-25.31-9.72-25.31-23.97v-36.96h14.25v35.78c0,6.37,3.1,12.24,11.15,12.24
			c8.13,0,11.14-5.87,11.14-12.24v-35.78h14.33v36.96C874.52-664.27,864.47-654.55,848.96-654.55z"/>
		<path class="st0" d="M922.37-656.14l-22.04-27.32h-0.17v27.32h-14.08v-59.33h14.08v24.14h0.25l21.2-24.14h17.93l-25.56,27.32
			l27.07,32.01H922.37z"/>
		<path class="st0" d="M971.48-654.55c-18.27,0-31.93-12.74-31.93-31.34c0-19.02,14.08-31.18,32.18-31.18
			c8.3,0,17.26,3.02,22.21,8.72l-9.72,9.72c-2.68-3.69-7.46-5.45-11.98-5.45c-9.97,0-17.1,7.71-17.1,18.19
			c0,10.81,6.96,18.19,16.85,18.19c5.61,0,10.06-2.51,12.57-6.03l9.97,9.39C989.33-658.32,981.45-654.55,971.48-654.55z"/>
		<path class="st0" d="M1000.64-656.14v-59.33h14.41v59.33H1000.64z"/>
		<path class="st0" d="M1040.19-654.55c-9.97,0-17.09-5.78-19.27-13.91l12.65-4.27c0.76,3.1,2.93,5.2,5.95,5.2
			c4.69,0,5.78-3.6,5.78-8.8v-39.14h14.41v39.05C1059.72-667.04,1056.37-654.55,1040.19-654.55z"/>
		<path class="st0" d="M1110.83-656.14l-4.61-11.65h-22.96l-4.36,11.65h-15.59l24.89-59.33h13.91l24.64,59.33H1110.83z
			 M1094.91-699.64l-7.54,20.36h14.92L1094.91-699.64z"/>
	</g>
</g>
<text transform="matrix(1 0 0 1 -2865.5273 -136.6445)"><tspan x="0" y="0" class="st0" style="font-family:'AvenirNextLTPro-Bold'; font-size:59.7188px;">FOTOGRAFIJA &amp;</tspan><tspan x="0" y="71.66" class="st0" style="font-family:'AvenirNextLTPro-Bold'; font-size:59.7188px;">VIDEO PRODUKCIJA</tspan></text>
<rect x="-135.5" y="-287.5" class="st0" width="32" height="32"/>
<g>
	<path class="st1" d="M-118.01-269.05c0,1.96,1.59,3.54,3.54,3.54c1.44,0,2.69-0.86,3.24-2.1h2.98c-0.65,2.83-3.19,4.94-6.22,4.94
		c-2,0-3.79-0.92-4.96-2.37c-0.89-1.1-1.42-2.49-1.42-4.01c0-1.96-1.59-3.54-3.54-3.54s-3.54,1.59-3.54,3.54v6.38h-2.84v-13.57h2.84
		v1.88c1.01-0.68,2.23-1.07,3.54-1.07c2,0,3.79,0.92,4.96,2.37c1.17-1.44,2.96-2.37,4.96-2.37c1.25,0,2.42,0.36,3.4,0.98v-5.89h2.84
		v9.88h-2.99c-0.54-1.26-1.79-2.14-3.25-2.14C-116.43-272.59-118.01-271-118.01-269.05z"/>
	<path class="st1" d="M-110.93-269.05c0,0.51-0.11,1-0.3,1.44h-3.9v-2.84h3.92C-111.03-270.02-110.93-269.54-110.93-269.05z"/>
</g>
</svg>
