<?xml version="1.0" encoding="utf-8"?>
<!-- Generator: Adobe Illustrator 24.1.1, SVG Export Plug-In . SVG Version: 6.00 Build 0)  -->
<svg version="1.1" id="Layer_1" xmlns="http://www.w3.org/2000/svg" xmlns:xlink="http://www.w3.org/1999/xlink" x="0px" y="0px"
	 viewBox="0 0 1875 710" style="enable-background:new 0 0 1875 710;" xml:space="preserve">
<style type="text/css">
	.st0{fill:#245581;}
	.st1{fill:#FFFFFF;}
</style>
<g>
	<path class="st0" d="M-1627.74,1619.83c0,84.33,68.37,152.7,152.7,152.7c62.26,0,115.83-37.27,139.59-90.71h128.56
		C-1235,1803.95-1344.38,1895-1475.04,1895c-86.39,0-163.48-39.81-213.93-102.08c-38.3-47.28-61.23-107.5-61.23-173.08
		c0-84.33-68.37-152.7-152.7-152.7c-84.33,0-152.7,68.37-152.7,152.7V1895h-122.46v-585.11h122.46v80.99
		c43.69-29.19,96.2-46.22,152.7-46.22c86.39,0,163.48,39.81,213.93,102.08c50.45-62.28,127.54-102.08,213.93-102.08
		c53.91,0,104.2,15.5,146.65,42.3V1133h122.46v426.36h-128.87c-23.42-54.26-77.39-92.23-140.24-92.23
		C-1559.38,1467.13-1627.74,1535.5-1627.74,1619.83z"/>
	<path class="st0" d="M-1322.34,1619.83c0,22.07-4.69,43.04-13.11,61.99h-168.32v-122.46h168.97
		C-1326.77,1577.89-1322.34,1598.35-1322.34,1619.83z"/>
</g>
<g>
	<path class="st0" d="M-109.67,1612.89c0,54.89,44.5,99.4,99.4,99.4c40.53,0,75.39-24.26,90.86-59.05h83.68
		C145.97,1732.74,74.77,1792-10.28,1792c-56.23,0-106.41-25.91-139.25-66.45c-24.93-30.77-39.86-69.97-39.86-112.66
		c0-54.89-44.5-99.4-99.4-99.4s-99.4,44.5-99.4,99.4V1792h-79.71v-380.86h79.71v52.72c28.44-19,62.62-30.08,99.4-30.08
		c56.23,0,106.41,25.91,139.25,66.45c32.84-40.54,83.02-66.45,139.25-66.45c35.09,0,67.83,10.09,95.46,27.54V1296h79.71v277.52
		H81.01c-15.24-35.32-50.38-60.03-91.29-60.03C-65.17,1513.49-109.67,1557.99-109.67,1612.89z"/>
	<path class="st0" d="M89.12,1612.89c0,14.37-3.05,28.02-8.53,40.35H-28.98v-79.71H81.01C86.24,1585.59,89.12,1598.9,89.12,1612.89z
		"/>
</g>
<g>
	<rect x="-2632.4" y="2015.75" class="st0" width="41.25" height="41.25"/>
	<text transform="matrix(1 0 0 1 -2570.1797 2031.7031)"><tspan x="0" y="0" style="font-family:'MyriadPro-Regular'; font-size:15.2357px;">Pantone 8484 C - Metallic Coated</tspan><tspan x="0" y="18.28" style="font-family:'MyriadPro-Regular'; font-size:15.2357px;">#245581 </tspan></text>
</g>
<g>
	<g>
		<path class="st0" d="M-1626.3,432.64c0,31.98,25.93,57.91,57.91,57.91c23.61,0,43.93-14.13,52.94-34.4h48.76
			c-10.66,46.32-52.15,80.85-101.7,80.85c-32.76,0-62-15.1-81.14-38.72c-14.52-17.93-23.22-40.77-23.22-65.64
			c0-31.98-25.93-57.91-57.91-57.91s-57.91,25.93-57.91,57.91V537h-46.45V315.09h46.45v30.72c16.57-11.07,36.49-17.53,57.91-17.53
			c32.76,0,62,15.1,81.14,38.72c19.13-23.62,48.37-38.72,81.14-38.72c20.45,0,39.52,5.88,55.62,16.04V248h46.45v161.7h-48.88
			c-8.88-20.58-29.35-34.98-53.19-34.98C-1600.37,374.72-1626.3,400.65-1626.3,432.64z"/>
		<path class="st0" d="M-1510.47,432.64c0,8.37-1.78,16.33-4.97,23.51h-63.84V409.7h64.08
			C-1512.15,416.73-1510.47,424.49-1510.47,432.64z"/>
	</g>
	<g>
		<path class="st0" d="M-1407.75,430.16v5.08h9.53v4.91h-9.53v9.57h-5.88v-24.64h16.22v5.08H-1407.75z"/>
		<path class="st0" d="M-1381.34,450.38c-7.69,0-13.4-5.29-13.4-13.08c0-7.9,5.71-12.88,13.4-12.88c7.73,0,13.43,4.98,13.43,12.88
			C-1367.9,445.09-1373.61,450.38-1381.34,450.38z M-1381.34,429.78c-4.18,0-7.03,3.2-7.03,7.52c0,4.45,2.89,7.66,7.03,7.66
			c4.14,0,7.06-3.2,7.06-7.66C-1374.27,432.98-1377.16,429.78-1381.34,429.78z"/>
		<path class="st0" d="M-1354.47,430.16v19.56h-5.95v-19.56h-6.96v-5.08h19.87v5.08H-1354.47z"/>
		<path class="st0" d="M-1333.6,450.38c-7.69,0-13.4-5.29-13.4-13.08c0-7.9,5.71-12.88,13.4-12.88c7.73,0,13.43,4.98,13.43,12.88
			C-1320.17,445.09-1325.87,450.38-1333.6,450.38z M-1333.6,429.78c-4.18,0-7.03,3.2-7.03,7.52c0,4.45,2.89,7.66,7.03,7.66
			c4.14,0,7.06-3.2,7.06-7.66C-1326.53,432.98-1329.42,429.78-1333.6,429.78z"/>
		<path class="st0" d="M-1303.85,450.35c-7.86,0-13.54-5.22-13.54-12.98c0-7.9,5.85-12.94,13.36-12.94c3.86,0,7.45,1.29,9.5,3.27
			l-3.76,4.28c-1.15-1.32-3.13-2.3-5.53-2.3c-4.18,0-7.24,3.27-7.24,7.69c0,4.52,2.68,7.76,7.52,7.76c1.39,0,2.68-0.21,3.72-0.66
			v-4.49h-4.7v-4.8h10.16v13.05C-1296.75,449.48-1300.05,450.35-1303.85,450.35z"/>
		<path class="st0" d="M-1276.29,449.72l-5.32-9.78h-2.02v9.78h-5.85v-24.64h9.4c4.73,0,9.43,1.81,9.43,7.45
			c0,3.31-1.95,5.67-5.12,6.65l6.44,10.54H-1276.29z M-1280.5,429.88h-3.17v5.74h2.82c1.91,0,4.32-0.49,4.32-2.99
			C-1276.53,430.34-1278.72,429.88-1280.5,429.88z"/>
		<path class="st0" d="M-1249.7,449.72l-1.91-4.84h-9.53l-1.81,4.84h-6.47l10.33-24.64h5.78l10.23,24.64H-1249.7z M-1256.32,431.66
			l-3.13,8.46h6.19L-1256.32,431.66z"/>
		<path class="st0" d="M-1235.16,430.16v5.08h9.53v4.91h-9.53v9.57h-5.88v-24.64h16.22v5.08H-1235.16z"/>
		<path class="st0" d="M-1221,449.72v-24.64h5.99v24.64H-1221z"/>
		<path class="st0" d="M-1204.58,450.38c-4.14,0-7.1-2.4-8-5.78l5.25-1.77c0.31,1.29,1.22,2.16,2.47,2.16c1.95,0,2.4-1.5,2.4-3.65
			v-16.25h5.99v16.22C-1196.47,445.2-1197.86,450.38-1204.58,450.38z"/>
		<path class="st0" d="M-1175.24,449.72l-1.91-4.84h-9.53l-1.81,4.84h-6.47l10.33-24.64h5.78l10.23,24.64H-1175.24z
			 M-1181.85,431.66l-3.13,8.46h6.19L-1181.85,431.66z"/>
		<path class="st0" d="M-1141.11,449.72l-2.33-2.4c-1.57,1.67-3.79,2.89-7.2,2.89c-4.49,0-8.84-2.33-8.84-7.34
			c0-3.48,2.44-5.64,5.15-6.82c-1.53-1.5-2.54-3.24-2.54-5.36c0-4.45,4.04-6.26,7.69-6.26c3.76,0,7.52,1.91,7.52,6.26
			c0,3.13-2.23,5.08-4.94,6.44l3.1,3.17l2.47-3.79h6.33l-5.32,7.13l6.12,6.09H-1141.11z M-1151.16,439.31
			c-1.39,0.56-2.61,1.46-2.61,3.31c0,1.95,1.7,3.1,3.34,3.1c1.53,0,2.75-0.7,3.62-1.88L-1151.16,439.31z M-1149.11,428.6
			c-1.36,0-2.37,0.97-2.37,2.26c0,1.15,0.66,2.23,1.84,3.2c1.57-0.63,2.85-1.71,2.85-3.2
			C-1146.78,429.61-1147.68,428.6-1149.11,428.6z"/>
		<path class="st0" d="M-1401.41,491.47h-5.95l-9.33-24.64h6.68l5.71,17.47h0.14l5.67-17.47h6.58L-1401.41,491.47z"/>
		<path class="st0" d="M-1389.9,491.47v-24.64h5.99v24.64H-1389.9z"/>
		<path class="st0" d="M-1369.65,491.47h-9.19v-24.64h8.91c6.99,0,14.09,2.92,14.09,12.25
			C-1355.83,487.75-1362.86,491.47-1369.65,491.47z M-1370.06,471.92h-2.96v14.41h2.82c4.25,0,8.18-1.74,8.18-7.24
			C-1362.02,473.55-1365.96,471.92-1370.06,471.92z"/>
		<path class="st0" d="M-1351.9,491.47v-24.64h16.56v5.05h-10.82v4.63h10.23v4.77h-10.23v5.12h11.45v5.08H-1351.9z"/>
		<path class="st0" d="M-1318.53,492.14c-7.69,0-13.4-5.29-13.4-13.08c0-7.9,5.71-12.88,13.4-12.88c7.73,0,13.43,4.98,13.43,12.88
			C-1305.1,486.85-1310.81,492.14-1318.53,492.14z M-1318.53,471.53c-4.18,0-7.03,3.2-7.03,7.52c0,4.45,2.89,7.66,7.03,7.66
			c4.14,0,7.06-3.2,7.06-7.66C-1311.47,474.74-1314.36,471.53-1318.53,471.53z"/>
		<path class="st0" d="M-1283.56,482.18h-2.96v9.29h-5.95v-24.64h9.05c5.39,0,9.64,1.95,9.64,7.59
			C-1273.78,480.13-1278.41,482.18-1283.56,482.18z M-1283.91,471.64h-2.61v5.81h2.51c2.23,0,4.28-0.66,4.28-2.99
			C-1279.73,472.09-1281.79,471.64-1283.91,471.64z"/>
		<path class="st0" d="M-1257.01,491.47l-5.32-9.78h-2.02v9.78h-5.85v-24.64h9.4c4.73,0,9.43,1.81,9.43,7.45
			c0,3.31-1.95,5.67-5.12,6.65l6.44,10.54H-1257.01z M-1261.22,471.64h-3.17v5.74h2.82c1.91,0,4.32-0.49,4.32-2.99
			C-1257.26,472.09-1259.45,471.64-1261.22,471.64z"/>
		<path class="st0" d="M-1234.88,492.14c-7.69,0-13.4-5.29-13.4-13.08c0-7.9,5.71-12.88,13.4-12.88c7.73,0,13.43,4.98,13.43,12.88
			C-1221.45,486.85-1227.16,492.14-1234.88,492.14z M-1234.88,471.53c-4.18,0-7.03,3.2-7.03,7.52c0,4.45,2.89,7.66,7.03,7.66
			c4.14,0,7.06-3.2,7.06-7.66C-1227.82,474.74-1230.71,471.53-1234.88,471.53z"/>
		<path class="st0" d="M-1208.33,491.47h-9.19v-24.64h8.91c6.99,0,14.09,2.92,14.09,12.25
			C-1194.52,487.75-1201.55,491.47-1208.33,491.47z M-1208.75,471.92h-2.96v14.41h2.82c4.25,0,8.18-1.74,8.18-7.24
			C-1200.71,473.55-1204.65,471.92-1208.75,471.92z"/>
		<path class="st0" d="M-1180.32,492.14c-6.47,0-10.51-4.04-10.51-9.95v-15.35h5.92v14.86c0,2.64,1.29,5.08,4.63,5.08
			c3.38,0,4.63-2.44,4.63-5.08v-14.86h5.95v15.35C-1169.71,488.1-1173.89,492.14-1180.32,492.14z"/>
		<path class="st0" d="M-1149.84,491.47l-9.15-11.34h-0.07v11.34h-5.85v-24.64h5.85v10.02h0.1l8.8-10.02h7.45l-10.61,11.34
			l11.24,13.29H-1149.84z"/>
		<path class="st0" d="M-1129.45,492.14c-7.59,0-13.26-5.29-13.26-13.01c0-7.9,5.85-12.94,13.36-12.94c3.45,0,7.17,1.25,9.22,3.62
			l-4.04,4.04c-1.11-1.53-3.1-2.26-4.98-2.26c-4.14,0-7.1,3.2-7.1,7.55c0,4.49,2.89,7.55,6.99,7.55c2.33,0,4.18-1.04,5.22-2.51
			l4.14,3.9C-1122.04,490.57-1125.31,492.14-1129.45,492.14z"/>
		<path class="st0" d="M-1117.34,491.47v-24.64h5.99v24.64H-1117.34z"/>
		<path class="st0" d="M-1100.92,492.14c-4.14,0-7.1-2.4-8-5.78l5.25-1.77c0.31,1.29,1.22,2.16,2.47,2.16c1.95,0,2.4-1.5,2.4-3.65
			v-16.25h5.99v16.22C-1092.81,486.95-1094.2,492.14-1100.92,492.14z"/>
		<path class="st0" d="M-1071.59,491.47l-1.91-4.84h-9.53l-1.81,4.84h-6.47l10.33-24.64h5.78l10.23,24.64H-1071.59z M-1078.2,473.41
			l-3.13,8.46h6.19L-1078.2,473.41z"/>
	</g>
</g>
<g>
	<g>
		<path class="st1" d="M508.41,452.67c0,77.03,62.45,139.48,139.48,139.48c56.87,0,105.79-34.04,127.5-82.86h117.42
			C867.14,620.84,767.23,704,647.89,704c-78.91,0-149.32-36.36-195.4-93.24c-34.98-43.18-55.93-98.19-55.93-158.09
			c0-77.03-62.45-139.48-139.48-139.48S117.6,375.64,117.6,452.67V704H5.74V169.57H117.6v73.98
			c39.91-26.67,87.87-42.22,139.48-42.22c78.91,0,149.32,36.36,195.4,93.24c46.08-56.88,116.5-93.24,195.4-93.24
			c49.24,0,95.18,14.15,133.95,38.64V8h111.86v389.43H775.98c-21.39-49.56-70.69-84.24-128.1-84.24
			C570.86,313.19,508.41,375.64,508.41,452.67z"/>
		<path class="st1" d="M787.36,452.67c0,20.16-4.28,39.32-11.97,56.62H621.65V397.43h154.34
			C783.32,414.36,787.36,433.04,787.36,452.67z"/>
	</g>
	<g>
		<path class="st1" d="M1034.76,446.7v12.24h22.96v11.82h-22.96v23.05h-14.16v-59.33h39.05v12.24H1034.76z"/>
		<path class="st1" d="M1098.36,495.39c-18.52,0-32.27-12.74-32.27-31.51c0-19.02,13.74-31.01,32.27-31.01
			c18.6,0,32.35,11.98,32.35,31.01C1130.71,482.65,1116.97,495.39,1098.36,495.39z M1098.36,445.78c-10.06,0-16.93,7.71-16.93,18.1
			c0,10.73,6.96,18.44,16.93,18.44c9.97,0,17.01-7.71,17.01-18.44C1115.37,453.49,1108.42,445.78,1098.36,445.78z"/>
		<path class="st1" d="M1163.05,446.7v47.1h-14.33v-47.1h-16.76v-12.24h47.85v12.24H1163.05z"/>
		<path class="st1" d="M1213.33,495.39c-18.52,0-32.26-12.74-32.26-31.51c0-19.02,13.74-31.01,32.26-31.01
			c18.61,0,32.35,11.98,32.35,31.01C1245.68,482.65,1231.94,495.39,1213.33,495.39z M1213.33,445.78c-10.06,0-16.93,7.71-16.93,18.1
			c0,10.73,6.96,18.44,16.93,18.44c9.97,0,17.01-7.71,17.01-18.44C1230.35,453.49,1223.39,445.78,1213.33,445.78z"/>
		<path class="st1" d="M1284.98,495.31c-18.94,0-32.6-12.57-32.6-31.26c0-19.02,14.08-31.18,32.18-31.18c9.3,0,17.93,3.1,22.88,7.88
			l-9.05,10.31c-2.77-3.18-7.54-5.53-13.33-5.53c-10.06,0-17.43,7.88-17.43,18.52c0,10.89,6.45,18.69,18.1,18.69
			c3.35,0,6.45-0.5,8.97-1.59v-10.81h-11.31v-11.56h24.47v31.43C1302.08,493.21,1294.12,495.31,1284.98,495.31z"/>
		<path class="st1" d="M1351.35,493.8l-12.82-23.55h-4.86v23.55h-14.08v-59.33h22.63c11.4,0,22.71,4.36,22.71,17.93
			c0,7.96-4.69,13.66-12.32,16.01l15.5,25.39H1351.35z M1341.21,446.03h-7.63v13.83h6.79c4.61,0,10.39-1.17,10.39-7.21
			C1350.76,447.12,1345.48,446.03,1341.21,446.03z"/>
		<path class="st1" d="M1415.37,493.8l-4.61-11.65h-22.96l-4.36,11.65h-15.59l24.89-59.33h13.91l24.64,59.33H1415.37z
			 M1399.45,450.31l-7.54,20.36h14.92L1399.45,450.31z"/>
		<path class="st1" d="M1450.4,446.7v12.24h22.96v11.82h-22.96v23.05h-14.16v-59.33h39.05v12.24H1450.4z"/>
		<path class="st1" d="M1484.5,493.8v-59.33h14.41v59.33H1484.5z"/>
		<path class="st1" d="M1524.06,495.39c-9.97,0-17.09-5.78-19.27-13.91l12.65-4.27c0.76,3.1,2.93,5.2,5.95,5.2
			c4.69,0,5.78-3.6,5.78-8.8v-39.14h14.41v39.05C1543.58,482.91,1540.23,495.39,1524.06,495.39z"/>
		<path class="st1" d="M1594.7,493.8l-4.61-11.65h-22.96l-4.36,11.65h-15.59l24.89-59.33h13.91l24.64,59.33H1594.7z M1578.78,450.31
			l-7.54,20.36h14.92L1578.78,450.31z"/>
		<path class="st1" d="M1676.91,493.8l-5.62-5.78c-3.77,4.02-9.13,6.96-17.35,6.96c-10.81,0-21.29-5.61-21.29-17.68
			c0-8.38,5.87-13.58,12.4-16.43c-3.69-3.6-6.12-7.79-6.12-12.91c0-10.73,9.72-15.08,18.52-15.08c9.05,0,18.1,4.61,18.1,15.08
			c0,7.54-5.36,12.24-11.9,15.5l7.46,7.63l5.95-9.13h15.25l-12.82,17.18l14.75,14.67H1676.91z M1652.69,468.74
			c-3.35,1.34-6.28,3.52-6.28,7.96c0,4.69,4.11,7.46,8.05,7.46c3.69,0,6.62-1.68,8.72-4.53L1652.69,468.74z M1657.63,442.93
			c-3.27,0-5.7,2.35-5.7,5.45c0,2.77,1.59,5.36,4.44,7.71c3.77-1.51,6.87-4.11,6.87-7.71
			C1663.25,445.36,1661.07,442.93,1657.63,442.93z"/>
		<path class="st1" d="M1050.01,594.36h-14.33l-22.46-59.33h16.09l13.74,42.07h0.33l13.66-42.07h15.84L1050.01,594.36z"/>
		<path class="st1" d="M1077.75,594.36v-59.33h14.41v59.33H1077.75z"/>
		<path class="st1" d="M1126.52,594.36h-22.12v-59.33h21.45c16.84,0,33.94,7.04,33.94,29.5
			C1159.79,585.39,1142.86,594.36,1126.52,594.36z M1125.51,547.26h-7.12v34.7h6.79c10.22,0,19.69-4.19,19.69-17.43
			C1144.87,551.2,1135.4,547.26,1125.51,547.26z"/>
		<path class="st1" d="M1169.25,594.36v-59.33h39.89v12.15h-26.06v11.15h24.64v11.48h-24.64v12.32h27.57v12.24H1169.25z"/>
		<path class="st1" d="M1249.62,595.95c-18.52,0-32.26-12.74-32.26-31.51c0-19.02,13.74-31.01,32.26-31.01
			c18.61,0,32.35,11.98,32.35,31.01C1281.96,583.21,1268.22,595.95,1249.62,595.95z M1249.62,546.34c-10.06,0-16.93,7.71-16.93,18.1
			c0,10.73,6.96,18.44,16.93,18.44c9.97,0,17.01-7.71,17.01-18.44C1266.63,554.05,1259.67,546.34,1249.62,546.34z"/>
		<path class="st1" d="M1333.83,571.98h-7.12v22.38h-14.33v-59.33h21.79c12.99,0,23.21,4.69,23.21,18.27
			C1357.38,567.04,1346.24,571.98,1333.83,571.98z M1333,546.59h-6.29v14h6.03c5.36,0,10.31-1.59,10.31-7.21
			C1343.05,547.68,1338.11,546.59,1333,546.59z"/>
		<path class="st1" d="M1397.77,594.36l-12.82-23.55h-4.86v23.55h-14.08v-59.33h22.63c11.4,0,22.71,4.36,22.71,17.93
			c0,7.96-4.69,13.66-12.32,16.01l15.5,25.39H1397.77z M1387.63,546.59h-7.63v13.83h6.79c4.61,0,10.39-1.17,10.39-7.21
			C1397.19,547.68,1391.91,546.59,1387.63,546.59z"/>
		<path class="st1" d="M1451.07,595.95c-18.52,0-32.26-12.74-32.26-31.51c0-19.02,13.74-31.01,32.26-31.01
			c18.6,0,32.35,11.98,32.35,31.01C1483.42,583.21,1469.67,595.95,1451.07,595.95z M1451.07,546.34c-10.06,0-16.93,7.71-16.93,18.1
			c0,10.73,6.96,18.44,16.93,18.44c9.97,0,17.01-7.71,17.01-18.44C1468.08,554.05,1461.13,546.34,1451.07,546.34z"/>
		<path class="st1" d="M1515.01,594.36h-22.13v-59.33h21.45c16.85,0,33.94,7.04,33.94,29.5
			C1548.28,585.39,1531.35,594.36,1515.01,594.36z M1514,547.26h-7.12v34.7h6.79c10.22,0,19.69-4.19,19.69-17.43
			C1533.36,551.2,1523.89,547.26,1514,547.26z"/>
		<path class="st1" d="M1582.46,595.95c-15.59,0-25.31-9.72-25.31-23.97v-36.96h14.25v35.78c0,6.37,3.1,12.24,11.15,12.24
			c8.13,0,11.14-5.87,11.14-12.24v-35.78h14.33v36.96C1608.02,586.23,1597.97,595.95,1582.46,595.95z"/>
		<path class="st1" d="M1655.87,594.36l-22.04-27.32h-0.17v27.32h-14.08v-59.33h14.08v24.14h0.25l21.2-24.14h17.93l-25.56,27.32
			l27.07,32.01H1655.87z"/>
		<path class="st1" d="M1704.98,595.95c-18.27,0-31.93-12.74-31.93-31.34c0-19.02,14.08-31.18,32.18-31.18
			c8.3,0,17.26,3.02,22.21,8.72l-9.72,9.72c-2.68-3.69-7.46-5.45-11.98-5.45c-9.97,0-17.1,7.71-17.1,18.19
			c0,10.81,6.96,18.19,16.85,18.19c5.61,0,10.06-2.51,12.57-6.03l9.97,9.39C1722.83,592.18,1714.95,595.95,1704.98,595.95z"/>
		<path class="st1" d="M1734.14,594.36v-59.33h14.41v59.33H1734.14z"/>
		<path class="st1" d="M1773.69,595.95c-9.97,0-17.09-5.78-19.27-13.91l12.65-4.27c0.76,3.1,2.93,5.2,5.95,5.2
			c4.69,0,5.78-3.6,5.78-8.8v-39.14h14.41v39.05C1793.22,583.46,1789.87,595.95,1773.69,595.95z"/>
		<path class="st1" d="M1844.33,594.36l-4.61-11.65h-22.96l-4.36,11.65h-15.59l24.89-59.33h13.91l24.64,59.33H1844.33z
			 M1828.41,550.86l-7.54,20.36h14.92L1828.41,550.86z"/>
	</g>
</g>
<text transform="matrix(1 0 0 1 -2132.0273 1113.8555)"><tspan x="0" y="0" class="st0" style="font-family:'AvenirNextLTPro-Bold'; font-size:59.7188px;">FOTOGRAFIJA &amp;</tspan><tspan x="0" y="71.66" class="st0" style="font-family:'AvenirNextLTPro-Bold'; font-size:59.7188px;">VIDEO PRODUKCIJA</tspan></text>
</svg>
