<?xml version="1.0" encoding="utf-8"?>
<!-- Generator: Adobe Illustrator 24.1.1, SVG Export Plug-In . SVG Version: 6.00 Build 0)  -->
<svg version="1.1" id="Layer_1" xmlns="http://www.w3.org/2000/svg" xmlns:xlink="http://www.w3.org/1999/xlink" x="0px" y="0px"
	 viewBox="0 0 1053 548" style="enable-background:new 0 0 1053 548;" xml:space="preserve">
<style type="text/css">
	.st0{fill:#F2F2F2;}
</style>
<g>
	<path class="st0" d="M-2085.04-263.73c4.51,2.5,9.7,3.3,14.18,5.99c13,7.81,21.02,18.93,23.84,33.92c0.67,3.54-0.21,4.41-3.63,4.91
		c-24.18,3.55-42.85,21.93-46.45,45.77c-0.63,4.2-1.9,5.18-6.17,4.29c-19.51-4.05-34.33-18.68-38.26-38.12
		c-0.77-3.79-0.56-5.61,4.23-6.19c24.74-3,45.57-26.05,46.22-50.57C-2089.07-263.73-2087.06-263.73-2085.04-263.73z"/>
	<path class="st0" d="M-2193.92-174.27c1.97-1.22,1.72-3.46,2.39-5.26c6.26-16.97,18.15-27.58,35.76-31.81
		c4.02-0.97,6.18-0.98,6.99,4.52c3.28,22.29,21.01,40.18,43.36,44.8c7.89,1.63,8.04,1.67,5.88,9.48
		c-4.7,16.99-15.61,28.17-32.23,33.92c-2.18,0.75-4.75,0.48-6.51,2.39c-1.21,0-2.42,0-3.63,0c-1.97-2.81-1.03-6.19-1.79-9.27
		c-5.85-23.47-23.5-38.58-50.22-42.72C-2193.92-170.24-2193.92-172.25-2193.92-174.27z"/>
	<path class="st0" d="M-2039.07-116.23c-1.58-6.52-1.82-13.31-4.94-19.52c-8.48-16.88-21.55-27.84-40.3-31.14
		c-5.29-0.93-6.51-2.92-5.39-7.87c4.2-18.43,19.71-33.5,38.11-36.83c3.51-0.63,5.09-0.21,5.92,4.03
		c4.95,25.31,20.28,40.87,45.6,45.91c5.39,1.07,5.24,3.52,4.28,7.29c-4.56,17.96-15.49,30-33.2,35.82c-1.79,0.59-4.07,0.24-5.24,2.3
		C-2035.85-116.23-2037.46-116.23-2039.07-116.23z"/>
	<path class="st0" d="M-2098.35-263.73c-1.18,21.14-18.18,40.14-38.76,43.47c-4.15,0.67-5.45-0.48-4.45-4.73
		c4.5-19.06,16-31.47,34.71-37.26c1.24-0.39,2.95,0.25,3.66-1.47C-2101.58-263.73-2099.96-263.73-2098.35-263.73z"/>
	<path class="st0" d="M-2052.38-116.23c-0.96-2.3-3.28-1.94-5.08-2.57c-17.06-6.04-27.77-17.9-32.18-35.38
		c-1.49-5.89-0.57-6.68,5.35-5.57c18.33,3.42,34.17,19.84,37.11,38.31c0.29,1.84,0.48,3.52-0.35,5.22
		C-2049.15-116.23-2050.77-116.23-2052.38-116.23z"/>
	<path class="st0" d="M-2193.92-154.92c0-1.61,0-3.22,0-4.84c21.15-1.89,43.52,20.47,43.55,43.53c-1.61,0-3.23,0-4.84,0
		c-0.76-1.77-2.55-1.78-4-2.22c-16.36-4.97-27.1-15.63-32.56-31.78C-2192.3-151.82-2191.96-153.94-2193.92-154.92z"/>
	<path class="st0" d="M-1799.54-116.23c0.1-10.46,0.12-20.91,0.36-31.37c0.04-1.9-1.45-4.85,1.99-5.39c2.98-0.47,5.71-0.52,7.6,3.02
		c3.58,6.7,7.73,13.09,12.8,19.48c0-6.04,0.05-12.07-0.02-18.11c-0.03-2.62-0.08-4.71,3.65-4.61c3.46,0.09,3.21,2.12,3.21,4.42
		c-0.03,9.26-0.09,18.51,0.05,27.77c0.03,1.97-0.58,3.43-1.8,4.8c-2.02,0-4.03,0-6.05,0c-2.96-8.94-9.13-16-13.91-24.02
		c-0.51,3.85-0.31,7.57-0.57,11.25c-0.3,4.26,1.56,8.75-1.25,12.76C-1795.51-116.23-1797.53-116.23-1799.54-116.23z"/>
	<path class="st0" d="M-1885.44-116.23c-9.51-6.73-12.42-14.82-9.51-26.44c1.72-6.86,6.7-10.82,13.89-11.05
		c7.71-0.24,12.95,3.34,15.06,10.27c1.25,4.1,1.39,8.28,0.96,12.51c-0.77,7.49-4.8,12.36-11.93,14.71
		C-1879.79-116.23-1882.61-116.23-1885.44-116.23z M-1872-134.46c-0.22-2.27-0.2-4.31-0.65-6.25c-0.94-4.04-2.98-7.06-7.76-6.92
		c-4.67,0.13-6.63,2.95-7.53,7.16c-0.82,3.83-0.74,7.56,0.07,11.36c0.86,4.04,3.08,6.54,7.34,6.66c4.28,0.11,6.7-2.35,7.65-6.31
		C-1872.43-130.7-1872.27-132.71-1872-134.46z"/>
	<path class="st0" d="M-1726.96-116.23c0.03-0.92-1.03-1.4-0.56-2.68c3.83-10.32,7.53-20.69,11.13-31.1
		c0.68-1.96,1.49-3.29,3.7-3.09c2.09,0.18,5.15-1.06,5.95,1.54c3.61,11.82,9.73,22.85,11.23,35.33c-2.02,0-4.03,0-6.05,0
		c-1.8-4.91-2.5-10.47-10.43-9.12c-3.92,0.67-7.15,0.76-7.49,5.42c-0.14,1.96-1.94,2.35-2.65,3.69
		C-1723.73-116.23-1725.35-116.23-1726.96-116.23z M-1711.37-145.46c-1.82,5.77-3.12,9.93-4.44,14.13c9.7,1.16,9.71,1.15,6.81-7.73
		C-1709.54-140.69-1710.19-142.29-1711.37-145.46z"/>
	<path class="st0" d="M-1852.77-116.23c-1.57-10.39-6.07-19.93-8.7-30.01c-0.55-2.1-1.25-4.15-1.91-6.31
		c5.08-1.63,7.59-0.28,8.79,4.93c1.65,7.18,4.18,14.16,6.9,23.09c2.71-9.2,4.88-16.67,7.14-24.11c0.45-1.48,0.41-3.58,2.06-4.09
		c1.64-0.5,3.79-0.68,5.28-0.02c2.26,0.99,0.29,2.85-0.13,4.11c-3.63,10.81-5.94,22.07-10.96,32.41
		C-1847.13-116.23-1849.95-116.23-1852.77-116.23z"/>
	<path class="st0" d="M-1942.29-116.23c-1.96-1.31-4.03-2.48-5.85-3.97c-1.17-0.95-2.68-2.32-0.79-3.95c1.39-1.2,2.72-3.38,4.91-0.8
		c1.51,1.78,3.64,2.45,5.94,2.55c2.85,0.12,5.44-0.65,6.22-3.64c0.89-3.4-1.86-4.51-4.35-5.46c-2.06-0.79-4.29-1.17-6.3-2.05
		c-4.3-1.88-6.55-5.12-6.21-9.99c0.33-4.76,2.64-7.85,7.19-9.36c4.91-1.62,9.56-1.06,13.87,1.69c1.18,0.75,3.43,1.68,1.79,3.59
		c-1.1,1.29-2.35,3.65-4.92,1.89c-0.99-0.67-2.05-1.45-3.18-1.66c-2.85-0.53-5.87-0.76-7.09,2.73c-1.26,3.61,1.1,5.12,4.07,6.06
		c1.72,0.55,3.45,1.1,5.16,1.68c4.66,1.59,7.68,4.63,7.45,9.75c-0.22,4.84-2.62,8.38-7.54,9.76c-0.78,0.22-1.58,0.26-1.9,1.16
		C-1936.65-116.23-1939.47-116.23-1942.29-116.23z"/>
	<path class="st0" d="M-1746.32-116.23c-0.36-0.45-0.66-0.97-1.1-1.33c-1.76-1.44-4.98-2.52-3.39-5.35c1.53-2.72,3.9-1.83,6.55-0.25
		c3.77,2.24,7.23-0.32,7.44-5.4c0.27-6.62,0.07-13.25,0.08-19.88c0-2.36-0.61-4.9,3.38-4.76c3.52,0.13,3.1,2.33,3.1,4.53
		c0,6.03-0.28,12.07,0.07,18.07c0.41,7.04-2.11,11.93-8.88,14.37C-1741.48-116.23-1743.9-116.23-1746.32-116.23z"/>
	<path class="st0" d="M-1763.25-116.23c0.04-10.85,0.15-21.71,0.06-32.56c-0.02-2.89,0.45-4.41,3.85-4.44
		c3.35-0.02,3.41,1.73,3.39,4.17c-0.07,9.45-0.07,18.89,0.01,28.34c0.02,1.69-0.48,3.09-1.27,4.49
		C-1759.22-116.23-1761.24-116.23-1763.25-116.23z"/>
	<path class="st0" d="M-1792.51-189.85c0-15.62,0.19-31.25-0.12-46.87c-0.09-4.64,1.31-5.81,5.75-5.63
		c4.09,0.17,6.51,0.21,6.41,5.66c-0.37,20.53-0.07,41.06-0.26,61.6c-0.02,2.32,2.11,6.61-2.22,6.77c-4.13,0.15-9.12,2.57-12.42-2.94
		c-9.19-15.34-18.68-30.5-28.06-45.73c-0.94-1.52-1.91-3.02-3.07-4.84c-1.36,1.85-0.78,3.66-0.78,5.29
		c-0.02,14.69-0.2,29.4,0.19,44.08c0.15,5.53-3.17,4.38-6.21,4.38c-3.03,0-6.26,1.13-6.18-4.4c0.31-21.74,0.23-43.48,0.03-65.22
		c-0.04-3.92,1.36-4.46,4.84-4.65c5.73-0.32,9.34,1.11,12.49,6.61c8.97,15.67,18.82,30.82,28.33,46.18
		C-1793.36-189.66-1792.94-189.76-1792.51-189.85z"/>
	<path class="st0" d="M-1723.38-166.88c-9.27,0.05-17.32-2.48-23.4-10.11c-3.44-4.31,0.48-5.31,2.57-7.31
		c2.17-2.08,3.68-2.77,6.04,0.38c4.91,6.55,14.72,8.79,22.3,5.69c4.05-1.65,6.53-4.69,6.86-9.12c0.35-4.55-1.89-7.93-5.93-9.57
		c-5-2.03-10.3-3.32-15.41-5.12c-11.51-4.06-17.02-11.96-15.51-22c1.77-11.77,9.58-18.59,21.83-19.25
		c8.73-0.47,16.91,0.8,23.46,7.16c1.28,1.24,4.63,3.07,1.1,4.98c-2.54,1.37-3.78,7.33-8.51,2.94c-4.92-4.57-10.76-5.99-17.31-4.31
		c-4.85,1.24-7.55,4.28-8.01,9.31c-0.47,5.1,1.68,8.6,6.45,10.31c4.15,1.48,8.41,2.65,12.61,4c13.48,4.35,19.14,12.08,17.36,23.64
		c-1.69,11.02-11.05,18.16-24.1,18.39C-1721.77-166.87-1722.57-166.88-1723.38-166.88z"/>
	<path class="st0" d="M-1894.41-205.08c0-10.67,0.14-21.34-0.07-32c-0.07-3.73,0.71-5.32,4.9-5.23c12.48,0.27,24.97,0.29,37.45-0.01
		c4.33-0.1,4.24,2.05,4.31,5.14c0.07,3.27-0.21,5.17-4.41,5c-8.65-0.35-17.32,0.04-25.97-0.18c-3.39-0.08-4.4,0.92-4.49,4.38
		c-0.45,17.39-0.56,17.39,16.83,17.39c2.62,0,5.29,0.33,7.84-0.07c5.31-0.83,5.81,1.99,5.67,6.2c-0.09,2.95-1.09,3.77-3.89,3.71
		c-7.25-0.15-14.51,0.16-21.75-0.13c-3.83-0.15-4.95,1.23-4.67,4.83c0.45,5.78-2.33,13.22,1.01,16.96c3.44,3.84,11,0.89,16.74,1.21
		c4.02,0.22,8.07,0.27,12.08-0.02c3.76-0.27,5.28,0.67,5.18,4.84c-0.09,3.81-0.93,5.19-5.01,5.1c-12.28-0.27-24.57-0.26-36.85-0.01
		c-4.02,0.08-5.09-1.21-5-5.11C-1894.25-183.74-1894.41-194.42-1894.41-205.08z"/>
	<path class="st0" d="M-1922.23-200.37c0,9.26-0.34,18.54,0.13,27.78c0.28,5.5-3.06,4.53-6.15,4.51c-3.04-0.02-6.29,1.1-6.18-4.44
		c0.36-17.71-0.04-35.43,0.24-53.14c0.08-5.01-0.79-7.59-6.45-6.69c-2.75,0.44-5.64-0.08-8.45,0.11c-3.82,0.26-6.3,0.06-6.22-5.18
		c0.08-4.97,2.47-4.86,5.99-4.83c14.3,0.11,28.61,0.22,42.9-0.06c4.33-0.09,4.87,1.68,4.93,5.3c0.05,3.62-0.86,5.12-4.72,4.8
		c-4-0.33-8.06,0.12-12.08-0.13c-3.3-0.2-4.06,1.17-4.01,4.2C-1922.13-218.89-1922.23-209.63-1922.23-200.37z"/>
	<path class="st0" d="M-1995.39-171.27c0.66,2.99-1.04,2.97-3.44,2.66c-19.27-2.48-36.69-19.9-39.6-39.44
		c-0.44-2.93-0.12-3.96,3.09-3.77C-2017.3-210.78-1995.66-188.98-1995.39-171.27z"/>
	<path class="st0" d="M-1756.07-204.51c0,10.68-0.3,21.36,0.12,32.02c0.22,5.54-3.16,4.41-6.2,4.4c-3.03-0.01-6.24,1.11-6.16-4.42
		c0.32-21.75,0.32-43.51,0-65.26c-0.08-5.52,3.15-4.43,6.18-4.42c3.05,0,6.4-1.09,6.18,4.45
		C-1756.37-226.69-1756.07-215.59-1756.07-204.51z"/>
	<path class="st0" d="M-1827.78-135.09c0-4.62,0.17-9.25-0.06-13.86c-0.16-3.23,1.12-4.2,4.19-4.09c5.22,0.18,10.46,0.05,15.68,0.05
		c1.87,0,3.53-0.07,3.58,2.7c0.04,2.73-1.45,2.84-3.43,2.81c-2.61-0.05-5.27,0.29-7.83-0.07c-4.91-0.7-5.7,1.69-5.48,5.88
		c0.15,2.97,1.19,3.86,3.97,3.68c2.6-0.17,5.23,0.05,7.84-0.05c2.25-0.09,2.61,1.12,2.6,3c-0.02,1.87-0.4,3.11-2.64,2.99
		c-2.01-0.1-4.02-0.01-6.03-0.01c-2.99-0.01-5.91-0.71-5.8,4.32c0.09,4.45,1.69,5.58,5.68,5.2c2.59-0.25,5.23,0.01,7.84-0.06
		c2.09-0.06,3.45,0.33,3.37,2.93c-0.08,2.3-1.36,2.55-3.13,2.54c-5.63-0.02-11.26-0.09-16.89,0.03c-2.59,0.06-3.56-0.89-3.48-3.5
		C-1827.67-125.44-1827.78-130.27-1827.78-135.09z"/>
	<path class="st0" d="M-1919.32-135.06c0-4.63,0.07-9.25-0.03-13.88c-0.05-2.46,0.11-4.12,3.4-4.15c3.45-0.03,3.92,1.52,3.87,4.39
		c-0.14,7.04,0.19,14.09-0.14,21.11c-0.19,4.04,1.15,5.5,5.08,5.01c1.78-0.22,3.62-0.06,5.43-0.03c1.98,0.03,4.12-0.38,4.01,2.89
		c-0.1,2.86-1.97,2.54-3.74,2.55c-4.83,0.03-9.66-0.1-14.49,0.06c-2.64,0.09-3.53-0.88-3.44-3.47
		C-1919.22-125.4-1919.32-130.23-1919.32-135.06z"/>
</g>
<g>
	<path class="st0" d="M-2137.66,44.42c-1.69,1.69-3.8,0.31-5.66,0.76c-2.66,0.65-3.1-1.31-3.89-3.11
		c-3.73-8.52-11.76-12.78-20.84-11.06c-3.65,0.69-6.54,2.53-7.58,6.34c-1.02,3.76,0.45,7.34,3.89,9.83c3.55,2.57,7.7,3.84,11.79,5.2
		c4.7,1.55,9.36,3.21,13.89,5.22c12.88,5.7,18.75,14.48,18.05,27.02c-0.7,12.63-8.62,22.86-21.1,26.71
		c-9.2,2.84-18.3,2.41-26.97-2.16c-1.78-0.94-3.33-2.23-4.94-3.97c-0.58,1.73-1.05,3.15-1.53,4.57c-0.93,0.29-1.97,0.35-2.68,1.16
		c-0.32-0.01-0.64-0.01-0.96-0.02c-2.81,0.62-5.21-1.39-7.97-1.21c-0.82,0.05-1.24-0.91-0.91-1.35c1.6-2.09,0.1-4.01,0-6.03
		c-0.23-4.95,0.04-9.92-0.15-14.87c-0.05-1.32,1.61-2.09,0.88-3.22c-1.85-2.87,0.73-2.45,1.94-2.5c1.99-0.08,4,0.46,5.99,0.43
		c1.52-0.02,2.4,0.58,3.1,1.77c0.34,0.59,0.25,1.53,1.27,1.59c2.93,5.83,7,10.53,13.25,12.97c5.05,1.98,10.07,2.06,14.79-0.89
		c6.86-4.28,6.87-12.58,0.04-16.85c-4.71-2.94-10.03-4.49-15.22-6.29c-6.37-2.2-12.55-4.78-17.68-9.28
		c-8.57-7.5-10.82-17.06-8.02-27.72c2.82-10.74,10.46-16.72,21.04-19.05c6.01-1.32,12.04-1.12,17.89,1.09
		c0.22,0.11,0.43,0.22,0.65,0.33c0,0-0.03-0.04-0.03-0.04c-0.02,2.99,2.07,1.46,3.39,1.57c0,0,0.05,0,0.05,0
		c0.38,2.63,2.99,3,4.58,4.38c0.49,0.43,0.65-0.59,0.8-1.07c-0.07-0.15-0.04-0.26,0.11-0.34c0.1-0.22,0.2-0.44,0.3-0.67
		c0,0-0.04,0.03-0.04,0.03c0.62,0.03,1.62,0.16,1.6-0.56c-0.13-3.49,2.36-2.47,4.25-2.71c1.26-0.16,3.01,0.99,3.67-1.13
		c0.72,0,1.44,0,2.17,0.01c0,1.05,1.09,1.55,1.16,2.67c0.31,4.65-0.7,9.1-1.77,13.56C-2135.77,38.54-2137.87,41.14-2137.66,44.42z"
		/>
	<path class="st0" d="M-2004.29,93.95c-4.09,9.64-11.45,15.55-21.44,18.09c-13.08,3.34-25.12,1.24-35.46-7.88
		c-3.12-2.75-5.5-6.13-6.97-10.08c-0.57-1.12,1.06-3.05-1.3-3.51c0,0,0.04,0,0.04,0c-0.08-1.03,0.73-2.33-0.87-2.9
		c-0.11-0.06-0.14-0.14-0.1-0.25c0,0-0.04,0.1-0.04,0.1c-0.12-0.87-0.24-1.74-0.36-2.61c0.62-4.75,0.63-9.49-0.01-14.24
		c0.12-0.67,0.24-1.34,0.36-2.01c0,0,0.04,0.09,0.04,0.09c1.59-8.06,5.42-14.74,12.18-19.6c1.46,0.01,2.72-0.16,4.05-1.12
		c4.45-3.22,9.44-4.81,15.03-4.44c3,0.2,6.04-0.13,9.05,0.08c3.69,0.25,7.21,1.22,10.35,3.35c1.6,1.09,3.11,2.61,5.37,2.17
		c4.02,2.94,7.17,6.59,9.18,11.18c-0.68,2.6,1.73,4.28,2.02,6.49c0.62,4.74,1.7,9.46,1.23,14.31c-0.1,1.04-0.33,2.19,0.32,3.19
		c-0.06,0.38-0.13,0.76-0.19,1.14c-0.56,0.06-1.11,0.14-1.23,0.83C-2003.47,88.87-2004.68,91.28-2004.29,93.95z M-2050.54,77.41
		c0.01,5.16,0.43,10.25,2.64,15.02c2.3,4.98,6.17,7.68,11.66,7.72c5.43,0.04,9.42-2.69,11.45-7.57c4.01-9.63,3.99-19.48,0.12-29.16
		c-2.05-5.14-6.12-7.97-11.78-7.88c-5.91,0.09-9.7,3.35-11.85,8.67C-2050.01,68.45-2050.55,72.89-2050.54,77.41z"/>
	<path class="st0" d="M-1963.89,57.73c0,12.22,0.04,24.44-0.04,36.65c-0.01,1.96,0.4,2.68,2.53,2.76c6.81,0.26,6.8,0.36,6.79,7.21
		c-0.01,6.67-0.01,6.68-6.68,6.68c-9.66,0-19.31-0.05-28.97,0.03c-1.86,0.02-2.6-0.36-2.47-2.38c0.18-3.02,0.16-6.07,0.01-9.09
		c-0.09-1.73,0.53-2.35,2.16-2.22c0.09,0.01,0.18-0.01,0.27-0.03c2.23-0.38,5.27,0.71,6.51-0.97c1.06-1.44,0.3-4.23,0.3-6.43
		c0.01-17.64-0.03-35.28,0.07-52.91c0.01-2.1-0.61-2.29-2.35-1.79c-1.85,0.54-3.77,0.81-5.63,1.28c-1.13,0.28-1.7,0.17-1.68-1.21
		c0.07-3.95,0.07-7.9,0.02-11.85c-0.01-1.14,0.41-1.61,1.51-1.84c7.73-1.62,15.44-3.33,23.17-4.92c3.09-0.63,4.47,0.58,4.48,3.81
		C-1963.87,32.93-1963.89,45.33-1963.89,57.73z"/>
	<path class="st0" d="M-2084.83,97.3c5.39-0.1,5.39-0.1,5.38,5.11c0,1.93-0.18,3.87,0.03,5.78c0.24,2.23-0.36,2.96-2.75,2.93
		c-10.93-0.14-21.87-0.1-32.8-0.02c-1.92,0.01-2.8-0.27-2.63-2.49c0.23-2.92,0.2-5.88,0-8.8c-0.14-2.03,0.71-2.54,2.48-2.52
		c1.56,0.02,3.12-0.22,4.68-0.19c1.72,0.04,2.13-0.74,2.12-2.35c-0.07-10.65-0.08-21.3-0.01-31.95c0.01-1.82-0.4-2.5-2.31-1.98
		c-1.85,0.51-3.8,0.69-5.66,1.18c-1.33,0.35-1.6-0.15-1.59-1.32c0.03-3.58,0.07-7.16-0.01-10.74c-0.03-1.19,0.43-1.59,1.51-1.8
		c4.32-0.85,8.63-1.76,12.94-2.66c3.27,1.29,6.31-0.29,9.3-1.02c3.5-0.85,3.87-0.89,3.87,2.76c0,15.3,0,30.59,0,45.89
		C-2090.29,97.63-2089.38,98.32-2084.83,97.3z"/>
	<path class="st0" d="M-1844.15,104.15c0.34,0,0.68,0.01,1.01,0.01c0.75,1.01,1.85,0.63,2.81,0.63c6.43,0.03,12.87-0.04,19.3,0.03
		c7.24,0.08,14.47-0.2,21.72,0.43c3.16,0.28,1.14,2.24,1.59,3.3c0.68,1.62-0.89,1.09-1.64,1.2c-5.84,0.85-11.71,0.53-17.57,0.55
		c-8.73,0.03-17.46,0.01-26.19,0.01c-0.9,0-1.79,0-3.15,0c1.29,0.81,2.22,0.53,3.09,0.53c8.64,0.03,17.28-0.01,25.92,0.02
		c4.95,0.02,9.91,0.12,14.86,0.19c-1,0.06-2.01,0.18-3.01,0.18c-14.89,0.01-29.78-0.04-44.67,0.05c-2.09,0.01-2.83-0.36-2.82-2.65
		c0.09-28.92,0.08-57.85,0.02-86.77c0-1.98,0.38-2.66,2.53-2.65c17.19,0.09,34.37,0.1,51.56,0c2.22-0.01,2.54,0.79,2.49,2.7
		c-0.11,4.61-0.03,4.61-4.66,4.61c-13.97,0-27.94,0.05-41.91-0.04c-2.13-0.01-2.81,0.49-2.79,2.72c0.08,10-0.04,20.01-0.08,30.01
		c0-10.52,0-21.04,0-31.56c-0.51,0.24-0.64,0.5-0.64,0.75c-0.01,9.91-0.01,19.83-0.01,29.74c0,0.71-0.17,1.5,0.65,1.95
		c0.19,1.83,1.58,1.4,2.7,1.4c9.88,0.02,19.75,0.01,29.63,0.03c0.71,0,1.47-0.22,2.12,0.27c-11.49,0-22.99,0-34.48,0
		c0,0.18,0,0.37,0,0.55c11.54,0,23.08,0,34.62,0c-0.01,2.03-0.02,4.05-0.03,6.08c-0.14,0.13-0.28,0.27-0.43,0.4
		c-8.66,0-17.32,0-25.98-0.01c-0.35-0.45-0.69-0.44-1.04,0c-0.76,0-1.51,0-2.27,0c-4.14-1.87-5.48-1.04-5.48,3.41
		c0,3.95,0,7.89,0,11.84c0,6.06-0.02,12.11,0.02,18.17C-1846.38,103.64-1846.35,105.24-1844.15,104.15z"/>
	<path class="st0" d="M-1917.6,39.82c7.18,11.18,14.36,22.35,21.53,33.54c5.15,8.03,10.27,16.07,15.41,24.1
		c0.23,0.36,0.48,0.72,0.99,1.46c0.16-1.31,0.27-2.16,0.37-3c0.17,0.39,0.33,0.78,0.55,1.29c0.6-1.01,0.33-1.94,0.33-2.82
		c0.02-9.55,0.01-19.1,0.01-28.64c0-14.23,0.04-28.46-0.04-42.69c-0.01-2.1,0.66-2.67,2.69-2.64c1.97,0.04,3.12,0.28,2.92,2.68
		c-0.21,2.55-0.05,5.14-0.05,7.71c0,25.34,0,50.68,0,76.01c0,2.75-1.35,3.84-4.07,3.36c-1.2-0.21-2.31-1.08-3.62-0.49
		c-13.1-20.59-26.21-41.17-39.3-61.76c-0.24-0.38-0.37-0.82-0.55-1.24C-1920.51,43.98-1919.14,41.87-1917.6,39.82z"/>
	<path class="st0" d="M-1750.39,26.44c-0.94,0.92-0.47,2.09-0.47,3.13c-0.03,26.27-0.07,52.53,0.04,78.8
		c0.01,2.55-0.78,3.27-3.09,2.91c-0.63-0.1-1.29-0.09-1.93,0c-1.81,0.23-2.31-0.46-2.3-2.3c0.09-10.65,0.05-21.31,0.04-31.96
		c-0.01-16.81-0.02-33.61-0.04-50.42c0.18-1.6-0.82-1.73-2.05-1.72c-7.29,0.02-14.59,0.02-21.88,0c-1.09,0-2.07,0.03-1.98,1.51
		c-1.06-1.96-0.39-4.07-0.39-6.09c0-1.59,1.52-0.96,2.38-0.96c10.01-0.05,20.03-0.05,30.04-0.03c6.8,0.01,13.59,0.07,20.39,0.11
		c0.96,1.95,2.73,0.88,4.11,1c2.57,0.21,2.98,0.84,1.94,3.21c-0.6,1.36-1.66,1.24-2.74,1.24c-6.52,0.01-13.04-0.01-19.56,0.01
		C-1748.99,24.89-1750.46,24.46-1750.39,26.44z"/>
	<path class="st0" d="M-1917.6,39.82c-1.54,2.05-2.91,4.16-2.82,6.87c-2.94-4.42-5.87-8.84-8.84-13.32
		c-0.87,0.75-0.41,1.72-0.42,2.54c-0.03,24.06-0.05,48.12,0.03,72.18c0.01,2.39-0.42,3.67-3.09,3.17c-0.62-0.11-1.29-0.07-1.92,0.02
		c-1.85,0.26-2.3-0.52-2.28-2.31c0.1-7.62,0.04-15.24,0.04-22.87c0-21.21-0.02-42.43,0.04-63.64c0-1.02-0.86-2.89,0.78-2.99
		c2.03-0.12,4.69-1.37,6.14,0.82C-1925.69,26.7-1921.7,33.3-1917.6,39.82z"/>
	<path class="st0" d="M-1708.13,112.04c-6.88,0.03-12.21-5.25-12.25-12.14c-0.04-6.78,5.4-12.2,12.23-12.18
		c6.67,0.02,12.07,5.36,12.15,12.02C-1695.91,106.52-1701.32,112.01-1708.13,112.04z"/>
	<path class="st0" d="M-2087.29,25.42c-0.02,6.04-5.27,11.08-11.42,10.98c-6.16-0.1-11.43-5.32-11.3-11.19
		c0.13-5.91,5.26-10.77,11.38-10.77C-2092.27,14.43-2087.27,19.27-2087.29,25.42z"/>
	<path class="st0" d="M-1880.58,109.69c1.31-0.59,2.42,0.28,3.62,0.49c2.73,0.47,4.07-0.62,4.07-3.36c0-25.34,0-50.68,0-76.01
		c0-2.57-0.16-5.15,0.05-7.71c0.2-2.4-0.96-2.64-2.92-2.68c-2.02-0.04-2.7,0.54-2.69,2.64c0.08,14.23,0.04,28.46,0.04,42.69
		c0,9.55,0.01,19.1-0.01,28.64c0,0.88,0.27,1.82-0.33,2.82c-0.22-0.51-0.38-0.9-0.55-1.29c-0.17-0.45-0.25-0.88,0.22-1.22
		c-0.08-0.29-0.15-0.58-0.23-0.88c-0.05-2.84-0.13-5.67-0.13-8.51c-0.01-20.35-0.01-40.69,0-61.04c0-1.1,0.09-2.19,0.13-3.29
		c0.05-0.05,0.14-0.11,0.13-0.15c-0.03-0.12-0.09-0.23-0.14-0.34c-0.23-0.86,0.2-1.08,0.98-1.19c5.64-0.83,6.1-0.44,6.1,5.3
		c0,27.89-0.04,55.79,0.08,83.68c0.01,2.51-0.82,3.41-3.03,3.11C-1877.05,111.15-1879.57,112.7-1880.58,109.69z"/>
	<path class="st0" d="M-2084.83,97.3c-4.55,1.02-5.46,0.33-5.46-4.18c0-15.3,0-30.59,0-45.89c0-3.65-0.36-3.61-3.87-2.76
		c-3,0.72-6.04,2.3-9.3,1.02c3.32-0.74,6.63-1.52,9.95-2.2c3.43-0.7,4.82,0.45,4.83,4c0.02,15.16,0.01,30.32,0.01,45.47
		C-2088.67,96.8-2088.67,96.8-2084.83,97.3z"/>
	<path class="st0" d="M-1802.41,111.07c-4.95-0.07-9.91-0.17-14.86-0.19c-8.64-0.03-17.28,0-25.92-0.02c-0.87,0-1.8,0.28-3.09-0.53
		c1.36,0,2.26,0,3.15,0c8.73,0,17.46,0.02,26.19-0.01c5.86-0.02,11.74,0.3,17.57-0.55c0.75-0.11,2.33,0.42,1.64-1.2
		c-0.45-1.07,1.57-3.03-1.59-3.3c-7.25-0.63-14.48-0.35-21.72-0.43c-6.43-0.07-12.87,0-19.3-0.03c-0.96,0-2.06,0.37-2.81-0.63
		c4.48-0.07,8.96-0.18,13.44-0.19c10.36-0.03,20.71,0.04,31.07-0.05c1.83-0.02,2.36,0.45,2.3,2.29c-0.18,6.29,0.8,4.87-5.01,5.01
		C-1801.69,111.23-1802.05,111.12-1802.41,111.07z"/>
	<path class="st0" d="M-2182.02,85.52c-1.01-0.06-0.92-1-1.27-1.59c-0.7-1.19-1.59-1.79-3.1-1.77c-1.99,0.03-4-0.5-5.99-0.43
		c-1.21,0.05-3.8-0.37-1.94,2.5c0.73,1.13-0.93,1.9-0.88,3.22c0.19,4.95-0.08,9.92,0.15,14.87c0.09,2.02,1.6,3.95,0,6.03
		c-0.34,0.44,0.08,1.4,0.91,1.35c2.76-0.18,5.17,1.83,7.97,1.21c-2.66,0.05-5.32,0.07-7.97,0.17c-1.11,0.04-1.64-0.2-1.64-1.49
		c0.05-9.09,0.05-18.17,0.01-27.26c-0.01-1.21,0.43-1.61,1.6-1.6c3.03,0.04,6.06,0.05,9.09,0c1.07-0.02,1.71,0.28,1.98,1.4
		C-2182.83,83.28-2182.39,84.39-2182.02,85.52z"/>
	<path class="st0" d="M-2014.39,49.19c-2.25,0.44-3.77-1.08-5.37-2.17c-3.15-2.14-6.66-3.1-10.35-3.35c-3-0.2-6.04,0.12-9.05-0.08
		c-5.59-0.37-10.58,1.22-15.03,4.44c-1.33,0.96-2.59,1.14-4.05,1.12c7.97-6.45,17.25-7.99,27.08-6.88
		C-2024.98,42.96-2019.27,45.16-2014.39,49.19z"/>
	<path class="st0" d="M-1750.39,26.44c-0.07-1.98,1.4-1.54,2.51-1.55c6.52-0.02,13.04-0.01,19.56-0.01c1.09,0,2.15,0.12,2.74-1.24
		c1.04-2.37,0.63-3-1.94-3.21c-1.38-0.11-3.15,0.95-4.11-1c1.37-0.04,2.76,0.05,4.11-0.15c2.56-0.38,3.24,0.65,3.12,3.13
		c-0.19,4.12-0.04,4.14-4.29,4.12C-1735.92,26.5-1743.16,26.47-1750.39,26.44z"/>
	<path class="st0" d="M-1844.15,104.15c-2.2,1.09-2.23-0.51-2.24-1.89c-0.04-6.06-0.02-12.11-0.02-18.17c0-3.95,0-7.89,0-11.84
		c0-4.45,1.35-5.29,5.48-3.41c-4.7,0.29-4.71,0.29-4.71,5.21c0,9.13,0,18.27,0,27.4C-1845.63,102.62-1845.85,103.91-1844.15,104.15z
		"/>
	<path class="st0" d="M-1784.05,26.39c-0.09-1.48,0.89-1.52,1.98-1.51c7.29,0.02,14.59,0.02,21.88,0c1.24,0,2.23,0.12,2.05,1.72
		C-1766.78,26.52-1775.41,26.45-1784.05,26.39z"/>
	<path class="st0" d="M-2137.66,44.42c-0.21-3.28,1.89-5.88,2.61-8.89c1.07-4.46,2.08-8.91,1.77-13.56
		c-0.08-1.13-1.16-1.63-1.16-2.67c0.97-0.21,2.21-0.7,2.17,0.97C-2132.47,28.66-2133.22,36.96-2137.66,44.42z"/>
	<path class="st0" d="M-2001.65,84.36c-0.65-1.01-0.43-2.15-0.32-3.19c0.47-4.85-0.61-9.57-1.23-14.31
		c-0.29-2.22-2.69-3.89-2.02-6.49C-2001.02,67.92-2000.42,76.01-2001.65,84.36z"/>
	<path class="st0" d="M-2136.62,19.29c-0.67,2.13-2.42,0.97-3.67,1.13c-1.89,0.24-4.38-0.78-4.25,2.71c0.03,0.72-0.97,0.58-1.6,0.56
		c0.76-4.62,0.76-4.64,5.16-4.6C-2139.52,19.11-2138.07,19.23-2136.62,19.29z"/>
	<path class="st0" d="M-1811.16,62.36c-11.54,0-23.08,0-34.62,0c0-0.18,0-0.37,0-0.55c11.49,0,22.99,0,34.48,0
		C-1811.25,62-1811.21,62.18-1811.16,62.36z"/>
	<path class="st0" d="M-1845.75,60.11c-0.82-0.45-0.65-1.24-0.65-1.95c-0.01-9.91,0-19.83,0.01-29.74c0-0.25,0.13-0.51,0.64-0.75
		c0,10.52,0,21.04,0,31.56C-1845.75,59.52-1845.75,59.81-1845.75,60.11z"/>
	<path class="st0" d="M-2070.81,70.67c0.63,4.75,0.62,9.49,0.01,14.24C-2071.77,80.17-2071.71,75.42-2070.81,70.67z"/>
	<path class="st0" d="M-2004.29,93.95c-0.39-2.66,0.82-5.07,1.22-7.61c0.11-0.7,0.67-0.77,1.23-0.83
		C-2002,88.51-2002.98,91.27-2004.29,93.95z"/>
	<path class="st0" d="M-2146.5,24.67c-0.15,0.48-0.31,1.49-0.8,1.07c-1.59-1.38-4.2-1.75-4.58-4.38
		C-2149.75,21.92-2148.53,23.95-2146.5,24.67z"/>
	<path class="st0" d="M-2151.93,21.37c-1.32-0.11-3.41,1.42-3.39-1.57C-2154.04,20.01-2152.91,20.52-2151.93,21.37z"/>
	<path class="st0" d="M-2185.21,110.93c0.71-0.81,1.74-0.86,2.68-1.16C-2182.66,111.94-2184.18,110.86-2185.21,110.93z"/>
	<path class="st0" d="M-2069.46,90.58c2.36,0.46,0.73,2.39,1.3,3.51C-2068.82,93-2069.26,91.83-2069.46,90.58z"/>
	<path class="st0" d="M-2070.29,87.68c1.6,0.57,0.8,1.87,0.87,2.9C-2070.06,89.72-2070.2,88.71-2070.29,87.68z"/>
	<path class="st0" d="M-1838.65,68.84c0.35-0.44,0.7-0.45,1.04,0C-1837.95,68.84-1838.3,68.84-1838.65,68.84z"/>
	<path class="st0" d="M-2155.28,19.83c-0.22-0.11-0.43-0.22-0.65-0.33C-2155.71,19.61-2155.49,19.72-2155.28,19.83z"/>
	<path class="st0" d="M-1879.31,20.5c0.05,0.11,0.11,0.22,0.14,0.34c0.01,0.04-0.09,0.1-0.13,0.15
		C-1879.43,20.83-1879.43,20.66-1879.31,20.5z"/>
	<path class="st0" d="M-2070.41,68.75c0,0-0.04-0.09-0.04-0.09C-2070.45,68.66-2070.41,68.75-2070.41,68.75z"/>
	<path class="st0" d="M-1811.62,68.84c0.14-0.13,0.28-0.27,0.43-0.4C-1811.14,68.79-1811.25,68.95-1811.62,68.84z"/>
	<path class="st0" d="M-2070.44,87.52c0,0,0.04-0.1,0.04-0.1C-2070.4,87.43-2070.44,87.52-2070.44,87.52z"/>
	<path class="st0" d="M-1879.31,93.82c0.08,0.29,0.15,0.58,0.23,0.88C-1879.43,94.48-1879.43,94.16-1879.31,93.82z"/>
	<path class="st0" d="M-2146.09,23.67c-0.1,0.22-0.2,0.44-0.3,0.67C-2146.29,24.11-2146.19,23.89-2146.09,23.67z"/>
</g>
<g>
	<path class="st0" d="M682.06,407c4.09,2.27,8.81,3,12.88,5.44c11.81,7.1,19.1,17.2,21.65,30.81c0.6,3.22-0.19,4.01-3.29,4.46
		c-21.96,3.22-38.93,19.92-42.2,41.58c-0.58,3.82-1.73,4.7-5.61,3.9c-17.72-3.68-31.18-16.97-34.76-34.63
		c-0.7-3.44-0.51-5.1,3.84-5.63c22.48-2.72,41.4-23.66,41.99-45.94C678.39,407,680.23,407,682.06,407z"/>
	<path class="st0" d="M583.15,488.28c1.79-1.11,1.56-3.14,2.17-4.78c5.69-15.42,16.48-25.06,32.49-28.9
		c3.66-0.88,5.62-0.89,6.35,4.1c2.98,20.25,19.08,36.5,39.39,40.7c7.17,1.48,7.31,1.52,5.34,8.61
		c-4.27,15.43-14.18,25.59-29.28,30.81c-1.98,0.69-4.32,0.44-5.91,2.17c-1.1,0-2.2,0-3.3,0c-1.79-2.56-0.93-5.63-1.63-8.42
		c-5.31-21.33-21.35-35.05-45.63-38.8C583.15,491.94,583.15,490.11,583.15,488.28z"/>
	<path class="st0" d="M723.82,541c-1.44-5.92-1.66-12.09-4.49-17.73c-7.7-15.34-19.57-25.29-36.61-28.29
		c-4.8-0.85-5.92-2.65-4.89-7.15c3.82-16.75,17.91-30.43,34.62-33.46c3.19-0.58,4.62-0.19,5.37,3.66
		c4.5,22.99,18.43,37.13,41.42,41.71c4.9,0.97,4.76,3.2,3.89,6.63c-4.14,16.31-14.08,27.26-30.16,32.55
		c-1.63,0.54-3.7,0.22-4.76,2.09C726.75,541,725.28,541,723.82,541z"/>
	<path class="st0" d="M669.97,407c-1.07,19.2-16.52,36.46-35.22,39.49c-3.77,0.61-4.95-0.44-4.04-4.3
		c4.09-17.31,14.53-28.59,31.53-33.85c1.13-0.35,2.68,0.23,3.32-1.34C667.04,407,668.5,407,669.97,407z"/>
	<path class="st0" d="M711.73,541c-0.87-2.09-2.98-1.76-4.61-2.34c-15.5-5.49-25.23-16.26-29.24-32.14
		c-1.35-5.35-0.52-6.07,4.86-5.06c16.65,3.11,31.04,18.02,33.71,34.8c0.27,1.67,0.44,3.2-0.32,4.74C714.66,541,713.2,541,711.73,541
		z"/>
	<path class="st0" d="M583.15,505.85c0-1.46,0-2.93,0-4.39c19.21-1.71,39.53,18.59,39.56,39.54c-1.47,0-2.93,0-4.4,0
		c-0.69-1.6-2.31-1.61-3.63-2.01c-14.87-4.52-24.62-14.2-29.58-28.87C584.62,508.67,584.93,506.74,583.15,505.85z"/>
	<path class="st0" d="M941.42,541c0.09-9.5,0.11-19,0.33-28.5c0.04-1.72-1.32-4.4,1.81-4.9c2.71-0.43,5.19-0.47,6.91,2.74
		c3.25,6.09,7.03,11.9,11.63,17.69c0-5.48,0.05-10.97-0.02-16.45c-0.03-2.38-0.07-4.28,3.31-4.18c3.14,0.08,2.92,1.92,2.91,4.01
		c-0.03,8.41-0.08,16.82,0.04,25.22c0.03,1.79-0.53,3.12-1.64,4.36c-1.83,0-3.66,0-5.49,0c-2.69-8.12-8.29-14.53-12.63-21.82
		c-0.47,3.5-0.28,6.88-0.52,10.22c-0.27,3.87,1.42,7.95-1.14,11.6C945.08,541,943.25,541,941.42,541z"/>
	<path class="st0" d="M863.39,541c-8.64-6.11-11.28-13.46-8.64-24.02c1.56-6.23,6.09-9.83,12.62-10.04
		c7.01-0.22,11.77,3.03,13.68,9.33c1.13,3.73,1.26,7.53,0.87,11.36c-0.7,6.8-4.36,11.23-10.83,13.36
		C868.52,541,865.96,541,863.39,541z M875.59,524.44c-0.2-2.06-0.18-3.92-0.59-5.68c-0.86-3.67-2.71-6.41-7.05-6.29
		c-4.25,0.12-6.02,2.68-6.84,6.51c-0.75,3.48-0.67,6.87,0.06,10.32c0.78,3.67,2.8,5.94,6.67,6.05c3.89,0.1,6.08-2.13,6.95-5.73
		C875.21,527.85,875.35,526.03,875.59,524.44z"/>
	<path class="st0" d="M1007.36,541c0.02-0.84-0.94-1.27-0.51-2.44c3.48-9.38,6.84-18.8,10.11-28.25c0.62-1.78,1.36-2.99,3.36-2.81
		c1.9,0.17,4.68-0.96,5.41,1.4c3.28,10.74,8.84,20.76,10.2,32.1c-1.83,0-3.66,0-5.49,0c-1.63-4.46-2.27-9.51-9.48-8.28
		c-3.56,0.61-6.49,0.69-6.8,4.93c-0.13,1.78-1.76,2.14-2.41,3.36C1010.29,541,1008.82,541,1007.36,541z M1021.52,514.44
		c-1.65,5.24-2.84,9.02-4.04,12.84c8.81,1.05,8.82,1.05,6.19-7.02C1023.18,518.78,1022.59,517.33,1021.52,514.44z"/>
	<path class="st0" d="M893.06,541c-1.42-9.44-5.52-18.11-7.91-27.27c-0.5-1.91-1.14-3.77-1.73-5.74c4.61-1.48,6.89-0.26,7.98,4.48
		c1.5,6.53,3.8,12.87,6.26,20.98c2.47-8.36,4.43-15.14,6.49-21.9c0.41-1.34,0.37-3.25,1.87-3.71c1.49-0.46,3.44-0.62,4.8-0.02
		c2.06,0.9,0.27,2.59-0.12,3.74c-3.3,9.82-5.4,20.05-9.96,29.44C898.19,541,895.63,541,893.06,541z"/>
	<path class="st0" d="M811.74,541c-1.78-1.19-3.66-2.25-5.31-3.6c-1.06-0.87-2.43-2.11-0.72-3.59c1.26-1.09,2.48-3.07,4.46-0.73
		c1.37,1.61,3.31,2.22,5.4,2.31c2.59,0.11,4.94-0.59,5.65-3.3c0.81-3.09-1.69-4.1-3.95-4.96c-1.87-0.72-3.9-1.06-5.73-1.86
		c-3.91-1.7-5.95-4.65-5.64-9.08c0.3-4.32,2.4-7.13,6.53-8.5c4.46-1.47,8.68-0.96,12.6,1.54c1.07,0.68,3.11,1.53,1.63,3.26
		c-1,1.17-2.13,3.31-4.47,1.72c-0.9-0.61-1.86-1.32-2.89-1.51c-2.59-0.48-5.33-0.69-6.44,2.48c-1.15,3.28,0.99,4.65,3.7,5.51
		c1.56,0.5,3.13,1,4.68,1.53c4.23,1.44,6.97,4.21,6.77,8.86c-0.2,4.39-2.38,7.62-6.85,8.87c-0.71,0.2-1.43,0.23-1.72,1.05
		C816.87,541,814.3,541,811.74,541z"/>
	<path class="st0" d="M989.78,541c-0.33-0.41-0.6-0.88-1-1.21c-1.6-1.31-4.52-2.28-3.08-4.86c1.39-2.47,3.55-1.66,5.95-0.23
		c3.42,2.03,6.57-0.29,6.76-4.9c0.24-6.01,0.07-12.04,0.08-18.06c0-2.14-0.55-4.45,3.07-4.32c3.2,0.12,2.82,2.12,2.82,4.11
		c0,5.47-0.25,10.96,0.07,16.42c0.37,6.4-1.91,10.84-8.06,13.05C994.17,541,991.97,541,989.78,541z"/>
	<path class="st0" d="M974.39,541c0.03-9.86,0.14-19.72,0.06-29.58c-0.02-2.62,0.41-4.01,3.5-4.03c3.05-0.02,3.09,1.57,3.08,3.79
		c-0.06,8.58-0.06,17.16,0.01,25.74c0.01,1.54-0.43,2.81-1.15,4.07C978.05,541,976.22,541,974.39,541z"/>
	<path class="st0" d="M947.81,474.12c0-14.19,0.17-28.39-0.11-42.58c-0.08-4.22,1.19-5.28,5.22-5.12c3.72,0.15,5.91,0.19,5.83,5.14
		c-0.34,18.65-0.06,37.31-0.23,55.96c-0.02,2.11,1.92,6-2.02,6.15c-3.75,0.14-8.28,2.34-11.28-2.67
		c-8.35-13.94-16.97-27.71-25.49-41.55c-0.85-1.38-1.74-2.74-2.79-4.4c-1.24,1.68-0.71,3.33-0.71,4.81
		c-0.02,13.35-0.19,26.71,0.17,40.05c0.13,5.02-2.88,3.98-5.64,3.98c-2.75,0-5.69,1.03-5.61-3.99c0.28-19.75,0.21-39.5,0.03-59.25
		c-0.03-3.56,1.23-4.05,4.39-4.23c5.21-0.29,8.49,1.01,11.35,6c8.15,14.23,17.1,28,25.74,41.95
		C947.03,474.29,947.42,474.21,947.81,474.12z"/>
	<path class="st0" d="M1010.61,494.99c-8.42,0.04-15.73-2.25-21.26-9.18c-3.12-3.92,0.43-4.83,2.33-6.64
		c1.97-1.89,3.34-2.52,5.49,0.34c4.46,5.95,13.37,7.98,20.26,5.17c3.68-1.5,5.93-4.26,6.23-8.28c0.31-4.14-1.71-7.21-5.38-8.7
		c-4.55-1.84-9.36-3.01-14-4.65c-10.46-3.69-15.46-10.87-14.09-19.99c1.6-10.69,8.7-16.89,19.84-17.49
		c7.93-0.42,15.36,0.73,21.31,6.51c1.16,1.12,4.2,2.79,1,4.53c-2.31,1.25-3.43,6.66-7.73,2.67c-4.47-4.15-9.77-5.44-15.72-3.92
		c-4.4,1.13-6.86,3.89-7.28,8.45c-0.43,4.63,1.52,7.82,5.86,9.36c3.77,1.34,7.64,2.4,11.46,3.64c12.24,3.95,17.39,10.97,15.77,21.48
		c-1.54,10.01-10.04,16.5-21.9,16.71C1012.08,495,1011.35,494.99,1010.61,494.99z"/>
	<path class="st0" d="M855.24,460.28c0-9.69,0.12-19.38-0.07-29.07c-0.07-3.39,0.64-4.83,4.45-4.75
		c11.34,0.25,22.69,0.26,34.02-0.01c3.94-0.09,3.86,1.86,3.91,4.67c0.06,2.97-0.19,4.69-4,4.54c-7.85-0.32-15.73,0.03-23.6-0.16
		c-3.08-0.08-4,0.84-4.08,3.98c-0.41,15.8-0.51,15.79,15.29,15.79c2.38,0,4.8,0.3,7.13-0.06c4.82-0.75,5.27,1.8,5.15,5.63
		c-0.09,2.68-0.99,3.42-3.54,3.37c-6.58-0.14-13.18,0.14-19.75-0.12c-3.48-0.14-4.5,1.11-4.24,4.39c0.41,5.26-2.12,12.01,0.92,15.41
		c3.12,3.49,9.99,0.81,15.21,1.1c3.65,0.2,7.33,0.24,10.97-0.02c3.41-0.25,4.8,0.61,4.71,4.39c-0.08,3.46-0.84,4.71-4.55,4.63
		c-11.15-0.24-22.32-0.23-33.48-0.01c-3.66,0.07-4.63-1.1-4.55-4.64C855.39,479.67,855.24,469.97,855.24,460.28z"/>
	<path class="st0" d="M829.96,464.56c0,8.41-0.31,16.84,0.11,25.23c0.25,5-2.78,4.12-5.59,4.1c-2.76-0.02-5.71,1-5.61-4.04
		c0.33-16.09-0.04-32.19,0.22-48.28c0.07-4.55-0.72-6.89-5.86-6.08c-2.5,0.4-5.12-0.07-7.67,0.1c-3.47,0.23-5.72,0.05-5.65-4.7
		c0.07-4.51,2.24-4.41,5.44-4.39c12.99,0.1,25.99,0.2,38.98-0.06c3.93-0.08,4.43,1.52,4.48,4.82c0.05,3.29-0.78,4.65-4.29,4.36
		c-3.64-0.3-7.33,0.11-10.97-0.12c-3-0.19-3.69,1.07-3.64,3.81C830.05,447.74,829.97,456.15,829.96,464.56z"/>
	<path class="st0" d="M763.5,491c0.6,2.72-0.95,2.7-3.13,2.42c-17.51-2.25-33.33-18.08-35.97-35.83c-0.4-2.67-0.11-3.59,2.81-3.43
		C743.6,455.11,763.26,474.91,763.5,491z"/>
	<path class="st0" d="M980.91,460.8c0,9.7-0.27,19.41,0.11,29.09c0.2,5.03-2.87,4.01-5.63,4c-2.76-0.01-5.67,1-5.6-4.02
		c0.29-19.76,0.29-39.53,0-59.29c-0.07-5.02,2.86-4.02,5.62-4.02c2.77,0,5.81-0.99,5.62,4.04
		C980.64,440.66,980.91,450.73,980.91,460.8z"/>
	<path class="st0" d="M915.77,523.87c0-4.2,0.15-8.41-0.05-12.6c-0.14-2.93,1.02-3.81,3.81-3.72c4.74,0.16,9.5,0.05,14.25,0.04
		c1.7,0,3.21-0.07,3.25,2.46c0.04,2.48-1.32,2.58-3.12,2.55c-2.37-0.04-4.79,0.26-7.12-0.07c-4.46-0.63-5.17,1.53-4.98,5.34
		c0.14,2.7,1.08,3.5,3.6,3.34c2.36-0.15,4.75,0.05,7.12-0.05c2.04-0.08,2.37,1.02,2.36,2.72c-0.01,1.7-0.36,2.82-2.4,2.72
		c-1.82-0.09-3.65-0.01-5.48-0.01c-2.72-0.01-5.36-0.65-5.27,3.92c0.08,4.05,1.53,5.07,5.16,4.72c2.35-0.23,4.75,0.01,7.12-0.05
		c1.9-0.05,3.14,0.3,3.06,2.66c-0.07,2.09-1.23,2.31-2.84,2.31c-5.11-0.02-10.23-0.08-15.34,0.03c-2.35,0.05-3.24-0.81-3.16-3.18
		C915.86,532.64,915.77,528.25,915.77,523.87z"/>
	<path class="st0" d="M832.6,523.89c0-4.2,0.06-8.41-0.03-12.61c-0.04-2.23,0.1-3.75,3.09-3.77c3.13-0.03,3.57,1.39,3.51,3.99
		c-0.13,6.39,0.18,12.8-0.12,19.18c-0.17,3.67,1.04,4.99,4.61,4.55c1.62-0.2,3.29-0.05,4.93-0.03c1.8,0.03,3.75-0.34,3.64,2.63
		c-0.09,2.6-1.79,2.3-3.39,2.31c-4.39,0.03-8.78-0.09-13.16,0.05c-2.4,0.08-3.2-0.8-3.13-3.15
		C832.7,532.67,832.61,528.28,832.6,523.89z"/>
</g>
<g>
	<path class="st0" d="M66.59,470.43c-1.69,1.69-3.8,0.31-5.66,0.76c-2.66,0.65-3.1-1.31-3.89-3.11
		c-3.73-8.52-11.76-12.78-20.84-11.06c-3.65,0.69-6.54,2.53-7.58,6.34c-1.02,3.76,0.45,7.34,3.89,9.83c3.55,2.57,7.7,3.84,11.79,5.2
		c4.7,1.55,9.36,3.21,13.89,5.22c12.88,5.7,18.75,14.48,18.05,27.02c-0.7,12.63-8.62,22.86-21.1,26.71
		c-9.2,2.84-18.3,2.41-26.97-2.16c-1.78-0.94-3.33-2.23-4.94-3.97c-0.58,1.73-1.05,3.15-1.53,4.57c-0.93,0.29-1.97,0.35-2.68,1.16
		c-0.32-0.01-0.64-0.01-0.96-0.02c-2.81,0.62-5.21-1.39-7.97-1.21c-0.82,0.05-1.24-0.91-0.91-1.35c1.6-2.09,0.1-4.01,0-6.03
		c-0.23-4.95,0.04-9.92-0.15-14.87c-0.05-1.32,1.61-2.09,0.88-3.22c-1.85-2.87,0.73-2.45,1.94-2.5c1.99-0.08,4,0.46,5.99,0.43
		c1.52-0.02,2.4,0.58,3.1,1.77c0.34,0.59,0.25,1.53,1.27,1.59c2.93,5.83,7,10.53,13.25,12.97c5.05,1.98,10.07,2.06,14.79-0.89
		c6.86-4.28,6.87-12.58,0.04-16.85c-4.71-2.94-10.03-4.49-15.22-6.29c-6.37-2.2-12.55-4.78-17.68-9.28
		c-8.57-7.5-10.82-17.05-8.02-27.72c2.82-10.74,10.46-16.72,21.04-19.05c6.01-1.32,12.04-1.12,17.89,1.09
		c0.22,0.11,0.43,0.22,0.65,0.33c0,0-0.03-0.04-0.03-0.04c-0.02,2.99,2.07,1.46,3.39,1.57c0,0,0.05,0,0.05,0
		c0.38,2.63,2.99,3,4.58,4.38c0.49,0.43,0.65-0.59,0.8-1.07c-0.07-0.15-0.04-0.26,0.11-0.34c0.1-0.22,0.2-0.44,0.3-0.67
		c0,0-0.04,0.03-0.04,0.03c0.62,0.03,1.62,0.16,1.6-0.56c-0.13-3.49,2.36-2.47,4.25-2.71c1.26-0.16,3.01,0.99,3.67-1.13
		c0.72,0,1.44,0,2.17,0.01c0,1.05,1.09,1.55,1.16,2.67c0.31,4.65-0.7,9.1-1.77,13.56C68.48,464.56,66.38,467.16,66.59,470.43z"/>
	<path class="st0" d="M199.97,519.96c-4.09,9.64-11.45,15.55-21.44,18.09c-13.08,3.34-25.12,1.24-35.46-7.88
		c-3.12-2.75-5.5-6.13-6.97-10.08c-0.57-1.12,1.06-3.05-1.3-3.51c0,0,0.04,0,0.04,0c-0.08-1.03,0.73-2.33-0.87-2.9
		c-0.11-0.06-0.14-0.14-0.1-0.25c0,0-0.04,0.1-0.04,0.1c-0.12-0.87-0.24-1.74-0.36-2.61c0.62-4.75,0.63-9.49-0.01-14.24
		c0.12-0.67,0.24-1.34,0.36-2.01c0,0,0.04,0.09,0.04,0.09c1.59-8.06,5.42-14.74,12.18-19.6c1.46,0.01,2.72-0.16,4.05-1.12
		c4.45-3.22,9.44-4.81,15.03-4.44c3,0.2,6.04-0.13,9.05,0.08c3.69,0.25,7.21,1.22,10.35,3.35c1.6,1.09,3.12,2.61,5.37,2.17
		c4.02,2.94,7.17,6.59,9.18,11.18c-0.68,2.6,1.73,4.28,2.02,6.49c0.62,4.74,1.7,9.46,1.23,14.31c-0.1,1.04-0.33,2.19,0.32,3.19
		c-0.06,0.38-0.13,0.76-0.19,1.14c-0.56,0.06-1.11,0.14-1.23,0.83C200.78,514.89,199.58,517.3,199.97,519.96z M153.71,503.43
		c0.01,5.16,0.43,10.25,2.64,15.02c2.3,4.98,6.17,7.68,11.66,7.72c5.43,0.04,9.42-2.69,11.45-7.57c4.01-9.63,3.99-19.48,0.12-29.16
		c-2.05-5.14-6.12-7.97-11.78-7.88c-5.91,0.09-9.7,3.35-11.85,8.67C154.24,494.46,153.71,498.9,153.71,503.43z"/>
	<path class="st0" d="M240.37,483.75c0,12.22,0.04,24.44-0.04,36.65c-0.01,1.96,0.4,2.68,2.53,2.76c6.81,0.26,6.8,0.36,6.79,7.21
		c-0.01,6.67-0.01,6.68-6.68,6.68c-9.66,0-19.31-0.05-28.97,0.03c-1.86,0.02-2.6-0.36-2.48-2.38c0.18-3.02,0.16-6.07,0.01-9.09
		c-0.09-1.73,0.53-2.35,2.16-2.22c0.09,0.01,0.18-0.01,0.27-0.03c2.23-0.38,5.27,0.71,6.51-0.97c1.06-1.44,0.3-4.23,0.3-6.43
		c0.01-17.64-0.03-35.28,0.07-52.91c0.01-2.1-0.61-2.29-2.35-1.79c-1.85,0.54-3.77,0.81-5.63,1.28c-1.13,0.28-1.7,0.17-1.68-1.21
		c0.07-3.95,0.07-7.9,0.02-11.85c-0.01-1.14,0.41-1.61,1.51-1.84c7.73-1.62,15.44-3.33,23.17-4.92c3.09-0.63,4.47,0.58,4.48,3.81
		C240.38,458.94,240.37,471.35,240.37,483.75z"/>
	<path class="st0" d="M119.42,523.32c5.39-0.1,5.39-0.1,5.38,5.11c0,1.93-0.18,3.87,0.03,5.78c0.24,2.23-0.36,2.96-2.75,2.93
		c-10.93-0.14-21.87-0.1-32.8-0.02c-1.92,0.01-2.8-0.27-2.63-2.49c0.23-2.92,0.2-5.88,0-8.8c-0.14-2.03,0.71-2.54,2.48-2.52
		c1.56,0.02,3.12-0.22,4.68-0.19c1.72,0.04,2.13-0.74,2.12-2.35c-0.07-10.65-0.08-21.3-0.01-31.95c0.01-1.82-0.4-2.5-2.31-1.98
		c-1.85,0.51-3.8,0.69-5.66,1.18c-1.33,0.35-1.6-0.15-1.59-1.32c0.03-3.58,0.07-7.16-0.01-10.74c-0.03-1.19,0.43-1.59,1.51-1.8
		c4.32-0.85,8.62-1.76,12.94-2.66c3.27,1.29,6.31-0.29,9.3-1.02c3.5-0.85,3.87-0.89,3.87,2.76c0,15.3,0,30.59,0,45.89
		C113.97,523.64,114.88,524.34,119.42,523.32z"/>
	<path class="st0" d="M360.1,530.17c0.34,0,0.68,0.01,1.01,0.01c0.75,1.01,1.85,0.63,2.81,0.63c6.43,0.03,12.87-0.04,19.3,0.03
		c7.24,0.08,14.47-0.2,21.72,0.43c3.16,0.28,1.14,2.24,1.59,3.3c0.68,1.62-0.89,1.09-1.64,1.2c-5.84,0.85-11.71,0.53-17.57,0.55
		c-8.73,0.03-17.46,0.01-26.19,0.01c-0.9,0-1.79,0-3.15,0c1.29,0.81,2.22,0.53,3.09,0.53c8.64,0.03,17.28-0.01,25.92,0.02
		c4.95,0.02,9.91,0.12,14.86,0.19c-1,0.06-2.01,0.18-3.01,0.18c-14.89,0.01-29.78-0.04-44.67,0.05c-2.09,0.01-2.83-0.36-2.82-2.65
		c0.09-28.92,0.08-57.85,0.02-86.77c0-1.98,0.38-2.66,2.53-2.65c17.19,0.09,34.37,0.1,51.56,0c2.22-0.01,2.54,0.79,2.49,2.7
		c-0.11,4.61-0.03,4.61-4.66,4.61c-13.97,0-27.94,0.05-41.91-0.04c-2.13-0.01-2.81,0.49-2.79,2.72c0.08,10-0.04,20.01-0.08,30.01
		c0-10.52,0-21.04,0-31.56c-0.51,0.24-0.64,0.5-0.64,0.75c-0.01,9.91-0.01,19.83-0.01,29.74c0,0.71-0.17,1.5,0.65,1.95
		c0.19,1.83,1.58,1.4,2.7,1.4c9.88,0.02,19.75,0.01,29.63,0.03c0.71,0,1.47-0.22,2.12,0.27c-11.49,0-22.99,0-34.48,0
		c0,0.18,0,0.37,0,0.55c11.54,0,23.08,0,34.62,0c-0.01,2.03-0.02,4.05-0.03,6.08c-0.14,0.13-0.28,0.27-0.43,0.4
		c-8.66,0-17.32,0-25.98-0.01c-0.35-0.45-0.69-0.44-1.04,0c-0.76,0-1.51,0-2.27,0c-4.14-1.87-5.48-1.04-5.48,3.41
		c0,3.95,0,7.89,0,11.84c0,6.06-0.02,12.11,0.02,18.17C357.88,529.66,357.9,531.26,360.1,530.17z"/>
	<path class="st0" d="M286.65,465.84c7.18,11.18,14.36,22.35,21.53,33.54c5.15,8.03,10.27,16.07,15.41,24.1
		c0.23,0.36,0.48,0.72,0.99,1.46c0.16-1.31,0.27-2.16,0.37-3c0.17,0.39,0.33,0.78,0.55,1.29c0.6-1.01,0.33-1.94,0.33-2.82
		c0.02-9.55,0.01-19.1,0.01-28.64c0-14.23,0.04-28.46-0.04-42.69c-0.01-2.1,0.66-2.67,2.69-2.64c1.97,0.04,3.12,0.28,2.92,2.68
		c-0.21,2.55-0.05,5.14-0.05,7.71c0,25.34,0,50.68,0,76.01c0,2.75-1.35,3.84-4.07,3.36c-1.2-0.21-2.31-1.08-3.62-0.49
		c-13.1-20.59-26.21-41.17-39.3-61.76c-0.24-0.38-0.37-0.82-0.55-1.24C283.74,470,285.11,467.88,286.65,465.84z"/>
	<path class="st0" d="M453.86,452.45c-0.94,0.92-0.47,2.09-0.47,3.13c-0.03,26.27-0.07,52.53,0.04,78.8
		c0.01,2.55-0.78,3.27-3.09,2.91c-0.63-0.1-1.29-0.09-1.93,0c-1.81,0.23-2.31-0.46-2.3-2.3c0.09-10.65,0.05-21.31,0.04-31.96
		c-0.01-16.81-0.02-33.61-0.04-50.42c0.18-1.6-0.82-1.73-2.05-1.72c-7.29,0.02-14.59,0.02-21.88,0c-1.09,0-2.07,0.03-1.98,1.51
		c-1.06-1.96-0.39-4.07-0.39-6.09c0-1.59,1.52-0.96,2.38-0.96c10.01-0.05,20.03-0.05,30.04-0.03c6.8,0.01,13.59,0.07,20.39,0.11
		c0.96,1.95,2.73,0.88,4.11,1c2.57,0.21,2.98,0.84,1.94,3.21c-0.6,1.36-1.66,1.24-2.74,1.24c-6.52,0.01-13.04-0.01-19.56,0.01
		C455.26,450.91,453.79,450.48,453.86,452.45z"/>
	<path class="st0" d="M286.65,465.84c-1.54,2.05-2.91,4.16-2.82,6.87c-2.94-4.42-5.87-8.84-8.84-13.32
		c-0.87,0.75-0.41,1.72-0.42,2.54c-0.03,24.06-0.05,48.12,0.03,72.18c0.01,2.39-0.42,3.67-3.09,3.17c-0.62-0.11-1.29-0.07-1.92,0.02
		c-1.85,0.26-2.3-0.52-2.28-2.31c0.1-7.62,0.04-15.24,0.04-22.87c0-21.21-0.02-42.43,0.04-63.64c0-1.02-0.86-2.89,0.78-2.99
		c2.03-0.12,4.69-1.37,6.14,0.82C278.57,452.72,282.55,459.31,286.65,465.84z"/>
	<path class="st0" d="M496.13,538.05c-6.88,0.03-12.21-5.25-12.25-12.14c-0.04-6.78,5.4-12.2,12.23-12.18
		c6.67,0.02,12.07,5.36,12.15,12.02C508.34,532.54,502.93,538.03,496.13,538.05z"/>
	<path class="st0" d="M116.96,451.44c-0.02,6.04-5.27,11.08-11.42,10.98c-6.16-0.1-11.43-5.32-11.3-11.19
		c0.13-5.91,5.26-10.77,11.38-10.77C111.98,440.45,116.98,445.29,116.96,451.44z"/>
	<path class="st0" d="M323.68,535.71c1.31-0.59,2.42,0.28,3.62,0.49c2.73,0.47,4.07-0.62,4.07-3.36c0-25.34,0-50.68,0-76.01
		c0-2.57-0.16-5.15,0.05-7.71c0.2-2.4-0.96-2.64-2.92-2.68c-2.02-0.04-2.7,0.54-2.69,2.64c0.08,14.23,0.04,28.46,0.04,42.69
		c0,9.55,0.01,19.1-0.01,28.64c0,0.88,0.27,1.82-0.33,2.82c-0.22-0.51-0.38-0.9-0.55-1.29c-0.17-0.45-0.25-0.88,0.22-1.22
		c-0.08-0.29-0.15-0.58-0.23-0.88c-0.05-2.84-0.13-5.67-0.13-8.51c-0.01-20.35-0.01-40.69,0-61.04c0-1.1,0.09-2.19,0.13-3.29
		c0.05-0.05,0.14-0.11,0.13-0.15c-0.03-0.12-0.09-0.23-0.14-0.34c-0.23-0.86,0.2-1.08,0.98-1.19c5.64-0.83,6.1-0.44,6.1,5.3
		c0,27.89-0.04,55.79,0.08,83.68c0.01,2.51-0.82,3.41-3.03,3.11C327.21,537.17,324.68,538.71,323.68,535.71z"/>
	<path class="st0" d="M119.42,523.32c-4.55,1.02-5.46,0.33-5.46-4.18c0-15.3,0-30.59,0-45.89c0-3.65-0.36-3.61-3.87-2.76
		c-3,0.72-6.04,2.3-9.3,1.02c3.32-0.74,6.63-1.52,9.95-2.2c3.43-0.7,4.82,0.45,4.83,4c0.02,15.16,0.01,30.32,0.01,45.47
		C115.58,522.82,115.58,522.82,119.42,523.32z"/>
	<path class="st0" d="M401.84,537.08c-4.95-0.07-9.91-0.17-14.86-0.19c-8.64-0.03-17.28,0-25.92-0.02c-0.87,0-1.8,0.28-3.09-0.53
		c1.36,0,2.26,0,3.15,0c8.73,0,17.46,0.02,26.19-0.01c5.86-0.02,11.74,0.3,17.57-0.55c0.75-0.11,2.33,0.42,1.64-1.2
		c-0.45-1.07,1.57-3.03-1.59-3.3c-7.25-0.63-14.48-0.35-21.72-0.43c-6.43-0.07-12.87,0-19.3-0.03c-0.96,0-2.06,0.37-2.81-0.63
		c4.48-0.07,8.96-0.18,13.44-0.19c10.36-0.03,20.71,0.04,31.07-0.05c1.83-0.02,2.36,0.45,2.3,2.29c-0.18,6.29,0.8,4.87-5.01,5.01
		C402.56,537.25,402.2,537.14,401.84,537.08z"/>
	<path class="st0" d="M22.24,511.53c-1.01-0.06-0.92-1-1.27-1.59c-0.7-1.19-1.59-1.79-3.1-1.77c-1.99,0.03-4-0.5-5.99-0.43
		c-1.21,0.05-3.8-0.37-1.94,2.5c0.73,1.13-0.93,1.9-0.88,3.22c0.19,4.95-0.08,9.92,0.15,14.87c0.09,2.02,1.6,3.95,0,6.03
		c-0.34,0.44,0.08,1.4,0.91,1.35c2.76-0.18,5.17,1.83,7.97,1.21c-2.66,0.05-5.32,0.07-7.97,0.17c-1.11,0.04-1.64-0.2-1.64-1.49
		c0.05-9.09,0.05-18.17,0.01-27.26c-0.01-1.21,0.43-1.61,1.6-1.6c3.03,0.04,6.06,0.05,9.09,0c1.07-0.02,1.71,0.28,1.98,1.4
		C21.42,509.3,21.87,510.41,22.24,511.53z"/>
	<path class="st0" d="M189.87,475.2c-2.25,0.44-3.77-1.08-5.37-2.17c-3.15-2.14-6.66-3.1-10.35-3.35c-3-0.2-6.04,0.12-9.05-0.08
		c-5.59-0.37-10.58,1.22-15.03,4.44c-1.33,0.96-2.59,1.14-4.05,1.12c7.97-6.45,17.25-7.99,27.08-6.88
		C179.28,468.98,184.99,471.18,189.87,475.2z"/>
	<path class="st0" d="M453.86,452.45c-0.07-1.98,1.4-1.54,2.51-1.55c6.52-0.02,13.04-0.01,19.56-0.01c1.09,0,2.15,0.12,2.74-1.24
		c1.04-2.37,0.63-3-1.94-3.21c-1.38-0.11-3.15,0.95-4.11-1c1.37-0.04,2.76,0.05,4.11-0.15c2.56-0.38,3.24,0.65,3.12,3.13
		c-0.19,4.12-0.04,4.14-4.29,4.12C468.33,452.52,461.1,452.48,453.86,452.45z"/>
	<path class="st0" d="M360.1,530.17c-2.2,1.09-2.23-0.51-2.24-1.9c-0.04-6.06-0.02-12.11-0.02-18.17c0-3.95,0-7.89,0-11.84
		c0-4.45,1.35-5.29,5.48-3.41c-4.7,0.29-4.71,0.29-4.71,5.21c0,9.13,0,18.27,0,27.4C358.63,528.64,358.4,529.92,360.1,530.17z"/>
	<path class="st0" d="M420.2,452.4c-0.09-1.48,0.89-1.52,1.98-1.51c7.29,0.02,14.59,0.02,21.88,0c1.24,0,2.23,0.12,2.05,1.72
		C437.48,452.54,428.84,452.47,420.2,452.4z"/>
	<path class="st0" d="M66.59,470.43c-0.21-3.28,1.89-5.88,2.61-8.89c1.07-4.46,2.08-8.91,1.77-13.56c-0.08-1.13-1.16-1.63-1.16-2.67
		c0.97-0.21,2.21-0.7,2.17,0.97C71.78,454.68,71.03,462.97,66.59,470.43z"/>
	<path class="st0" d="M202.61,510.38c-0.65-1.01-0.43-2.15-0.32-3.19c0.47-4.85-0.61-9.57-1.23-14.31
		c-0.29-2.22-2.69-3.89-2.02-6.49C203.23,493.94,203.83,502.02,202.61,510.38z"/>
	<path class="st0" d="M67.64,445.31c-0.67,2.13-2.42,0.97-3.67,1.13c-1.89,0.24-4.38-0.78-4.25,2.71c0.03,0.72-0.97,0.58-1.6,0.56
		c0.76-4.62,0.76-4.64,5.16-4.6C64.73,445.13,66.19,445.24,67.64,445.31z"/>
	<path class="st0" d="M393.09,488.38c-11.54,0-23.08,0-34.62,0c0-0.18,0-0.37,0-0.55c11.49,0,22.99,0,34.48,0
		C393,488.01,393.05,488.2,393.09,488.38z"/>
	<path class="st0" d="M358.51,486.13c-0.82-0.45-0.65-1.24-0.65-1.95c-0.01-9.91,0-19.83,0.01-29.74c0-0.25,0.13-0.51,0.64-0.75
		c0,10.52,0,21.04,0,31.56C358.51,485.53,358.51,485.83,358.51,486.13z"/>
	<path class="st0" d="M133.45,496.69c0.63,4.75,0.62,9.49,0.01,14.24C132.48,506.19,132.55,501.44,133.45,496.69z"/>
	<path class="st0" d="M199.97,519.96c-0.39-2.66,0.82-5.07,1.22-7.61c0.11-0.7,0.67-0.77,1.23-0.83
		C202.26,514.53,201.28,517.29,199.97,519.96z"/>
	<path class="st0" d="M57.75,450.69c-0.15,0.48-0.31,1.49-0.8,1.07c-1.59-1.38-4.2-1.75-4.58-4.38
		C54.5,447.94,55.73,449.96,57.75,450.69z"/>
	<path class="st0" d="M52.33,447.38c-1.32-0.11-3.41,1.42-3.39-1.57C50.21,446.03,51.35,446.54,52.33,447.38z"/>
	<path class="st0" d="M19.04,536.94c0.71-0.81,1.74-0.86,2.68-1.16C21.6,537.96,20.07,536.88,19.04,536.94z"/>
	<path class="st0" d="M134.8,516.59c2.36,0.46,0.73,2.39,1.3,3.51C135.43,519.01,134.99,517.85,134.8,516.59z"/>
	<path class="st0" d="M133.96,513.7c1.6,0.57,0.8,1.87,0.87,2.9C134.2,515.73,134.05,514.72,133.96,513.7z"/>
	<path class="st0" d="M365.61,494.85c0.35-0.44,0.7-0.45,1.04,0C366.3,494.85,365.95,494.85,365.61,494.85z"/>
	<path class="st0" d="M48.98,445.85c-0.22-0.11-0.43-0.22-0.65-0.33C48.54,445.63,48.76,445.74,48.98,445.85z"/>
	<path class="st0" d="M324.94,446.51c0.05,0.11,0.11,0.22,0.14,0.34c0.01,0.04-0.09,0.1-0.13,0.15
		C324.83,446.84,324.83,446.68,324.94,446.51z"/>
	<path class="st0" d="M133.84,494.77c0,0-0.04-0.09-0.04-0.09C133.8,494.68,133.84,494.77,133.84,494.77z"/>
	<path class="st0" d="M392.63,494.86c0.14-0.13,0.28-0.27,0.43-0.4C393.12,494.81,393,494.97,392.63,494.86z"/>
	<path class="st0" d="M133.81,513.54c0,0,0.04-0.1,0.04-0.1C133.86,513.44,133.81,513.54,133.81,513.54z"/>
	<path class="st0" d="M324.94,519.84c0.08,0.29,0.15,0.58,0.23,0.88C324.83,520.49,324.83,520.18,324.94,519.84z"/>
	<path class="st0" d="M58.16,449.68c-0.1,0.22-0.2,0.44-0.3,0.67C57.96,450.13,58.06,449.9,58.16,449.68z"/>
</g>
<g>
	<path class="st0" d="M-1594.76-163.04c-9.93,6.41-15.16,15.86-16.6,27.27c-2.62,20.69,5.7,37.05,21.15,50.2
		c2.1,1.79,2.96,3.53,2.95,6.28c-0.1,25.58-0.03,51.15-0.11,76.73c-0.01,2.27,0.5,3.45,2.91,3.63c2.59,0.19,5.14,0.79,7.73,0.91
		c5.19,0.23,9.63-1.62,12.85-5.74c1.18-1.51,2.38-1.95,4.18-1.91c4.99,0.11,9.98,0.13,14.97-0.01c2.3-0.06,2.83,0.4,2.03,2.74
		c-4.48,13.12-18.5,22.4-32.29,21.25c-8.61-0.72-17-2.78-25.49-4.22c-6.9-1.17-12.93,1.04-16.38,6.31
		c-3.43,5.24-3.3,12.08,0.32,17.31c3.5,5.05,10.59,7.73,16.83,6.36c8.05-1.76,15.68-4.63,23.18-8.07
		c15.04-6.91,32.66,1.82,35.93,17.92c2.01,9.89-0.97,18.63-8.56,25.35c-7.94,7.02-17.23,8.86-27.32,5.53
		c-4.63-1.53-9-3.76-13.28-6.12c-7.03-3.88-13.96-2.57-17.56,3.28c-3.87,6.29-2.09,14.72,4.06,19.13c0.9,0.64,1.83,1.24,2.73,1.84
		c-0.43,0.67-0.83,0.58-1.2,0.42c-8.93-3.94-13.4-15.13-9.5-23.82c4.03-9.01,14.71-12.84,23.96-8.42c4.31,2.06,8.63,4.11,13.14,5.68
		c12.26,4.27,25.38-5.99,24.03-18.75c-1.1-10.43-12-16.31-21.37-11.46c-8.24,4.26-16.69,7.92-25.8,9.9
		c-16.66,3.62-31.05-5.44-34.89-21.95c-3.79-16.29,5.31-31.21,21.59-35.22c2.21-0.54,3.18-1.23,3.16-3.79
		c-0.11-28.07-0.1-56.14-0.03-84.21c0.01-2.35-0.46-3.24-3.02-3.15c-5.82,0.2-11.65,0.14-17.47,0.02c-1.9-0.04-2.5,0.53-2.49,2.45
		c0.06,18.19,0.05,36.39-0.01,54.58c-0.01,1.91,0.58,2.52,2.49,2.46c3.84-0.13,7.69,0.04,11.54-0.06c1.82-0.05,2.58,0.39,2.53,2.41
		c-0.14,5.19-0.11,10.4,0,15.59c0.04,1.83-0.63,2.27-2.35,2.26c-10.61-0.06-21.21-0.08-31.82,0.01c-2.11,0.02-2.6-0.76-2.6-2.73
		c0.06-31.5,0.07-63.01,0.01-94.51c0-2.17,0.79-2.56,2.72-2.54c9.25,0.08,18.51-0.01,27.76,0.06c2.02,0.02,2.9-0.16,1.88-2.49
		c-1.95-4.44-2.32-9.22-2.4-14.78c-4.08,3.87-4.63,8.64-5.98,13.17c-2.26-9.4-2.64-23.27,6.32-34.64
		c-4.91,0.89-8.24,3.39-11.22,6.81c0.31-8.5,4.79-14.06,15.25-18.93c-2.86-1.42-5.59-0.99-8.22-0.47c-2.6,0.52-5.13,1.41-8.13,2.26
		c6.7-11.2,16.54-14.44,28.59-13.04c-2.19-3.21-4.94-3.86-15.75-3.75c11.76-8.77,23.54-6.96,35.52-2.77
		c-0.59-1.77-0.59-1.78-3.13-3.1c-1.33-0.69-2.68-1.34-3.96-2.27c8.71,1.44,17.78-2.79,26.39,1.74c-0.28,0.5-0.36,0.84-0.58,0.99
		c-6.11,4.14-8.11,10.26-8.26,17.23c-0.03,1.39,0.04,2.45-1.6,3.23c-22.28,10.55-24.93,36.56-8.82,54.78
		c8.65,9.78,19.89,14.72,32.57,16.76c1,0.16,2.1-0.03,3.13,0.9c-12.54,6.57-25.12,8.01-37.73,0.82c-4.56-2.6-7.71-6.97-10.66-11.24
		c-10.59-15.35-14.12-31.69-6.38-49.43c2.11-4.84,5.44-8.81,9.19-12.46c0.18-0.19,0.37-0.38,0.55-0.57
		c0.24-0.25,0.48-0.51,0.72-0.76c-0.51-0.35-0.87-0.19-1.13,0.32C-1594.24-163.35-1594.5-163.19-1594.76-163.04z"/>
	<path class="st0" d="M-1578.48-111.86c5.74,0,10.81,0,15.87,0c15.39,0.01,30.77,0.03,46.16,0c1.55,0,2.76,0.33,3.88,1.48
		c3.26,3.35,7.62,6.07,9.68,10.02c2.07,3.97,0.61,9.15,0.62,13.8c0.06,19.96,0,39.92,0.07,59.87c0.01,2.06-0.44,3.63-2.08,4.86
		c-0.5,0.37-1,0.78-1.35,1.28c-5.1,7.24-12.02,8.95-20.7,8.61c-17.13-0.67-34.3-0.25-51.45-0.14c-2.43,0.02-3.21-0.58-3.1-3.08
		c0.21-4.77,0.2-9.57,0-14.34c-0.1-2.41,0.7-2.92,2.98-2.91c17.26,0.09,34.51-0.01,51.77,0.11c2.65,0.02,3.5-0.5,3.47-3.36
		c-0.15-17.57-0.16-35.13,0-52.7c0.03-3.01-0.96-3.5-3.65-3.47c-12.02,0.15-23.86-0.93-34.94-6.21
		C-1567.82-101.15-1573.43-105.48-1578.48-111.86z"/>
	<path class="st0" d="M-1567.11-162.23l0.02,0.02c0.01-0.01,0.01-0.02,0.02-0.04C-1567.08-162.24-1567.1-162.23-1567.11-162.23z"/>
	<path class="st0" d="M-1504.89-187.22c-3.85-0.37-7.68-0.07-11.53,0.06c-0.88,0.02-1.95,0.37-2.35-0.9
		c-1.28-4.13-4.82-5.12-8.39-5.98c-5.25-1.26-10.54-2.25-15.82-3.33c-5.26-1.08-8.77-5.05-13.65-6.93
		c-6.48-2.47-13.59-2.56-19.65-6.19c1.04,3.47,3.83,4.7,6.7,5.86c1.79,0.71,3.87,0.94,4.96,2.86c0.05,0.26,0.22,0.65,0.11,0.75
		c-0.37,0.35-0.7,0.05-0.98-0.24c-3.53-1.62-7.29-1.13-11-1.26c-5.87-0.21-11.7-0.92-17.83-3.97c2,4.23,5.11,5.32,8.28,6.13
		c4.66,1.21,9.46,1.17,14.24,1.37c1.01,0.05,2.35,0,2.31,1.43c-0.02,1.23-1.31,1.11-2.2,1.22c-6.33,0.77-12.65,0.6-18.92-0.5
		c-6.12-1.07-11.91-2.92-16.11-7.96c-0.32-0.39-0.66-0.99-1.19-0.48c-0.3,0.3-0.39,0.92-0.41,1.41c-0.19,4.58,3.32,9.71,8.01,11.68
		c3.8,1.6,7.82,1.99,11.9,1.98c6.03-0.02,12.05-0.17,18.08-0.02c3.98,0.09,7.88,0.82,10.98,3.68c2.88,2.69,2.75,3.84-0.55,5.78
		c-4.84,2.85-7.24,7.22-6.34,11.54c11.97-4.84,18.54-4.02,23.86,2.97c0.06,0.24,0.14,0.48,0.21,0.73c-0.24-0.1-0.47-0.19-0.71-0.29
		c-3.16-1.23-6.27-2.54-9.67-2.97c-5.77-0.76-11.8,1.93-14.5,6.55c1.95-0.55,3.88-1.23,5.88-1.57c4.28-0.73,8.5-0.88,12.51,2.85
		c-4.76-0.52-8.96-1.73-12.56,1.67c6.75-0.71,12.97,0.56,18.64,4.25c1.11,0.72,1.73-0.25,2.46-0.7c2.85-1.75,5.55-1.52,8.01,0.67
		c1.7,1.52,3.28,3.17,4.92,4.76c1.95,1.9,4.09,3.54,6.83,4.15c3.54,0.77,6.6-0.61,7.31-3.57c0.77-3.16,0.51-6.3-1.24-9.26
		c-1.23,1.37-0.5,4.29-2.69,4.17c-1.68-0.1-1.7-2.57-2.3-4.08c-0.1-0.26-0.35-0.47-0.55-0.72c-3.46,4.05-5.25,4.08-8.88,0.05
		c-2.8-3.1-4.68-6.84-6.98-10.3c-1.14-1.7-0.63-2.52,0.94-3.34c3.94-2.05,8.12-2.56,12.4-1.79c6.09,1.11,12.15,2.5,18.08-0.87
		c0.14,1.5,0.25,2.62,0.39,4.03c1.57-1.64,1.44-4.53,3.57-4.48c2.21,0.06,1.47,3.1,2.81,4.35
		C-1492.5-180.14-1495.53-186.31-1504.89-187.22z M-1527.08-182.18c-2.11,0.42-4.12,1.5-5.78-1.34c-1.16-1.98-3.72-2.41-6.65-2.49
		c4.81-2.65,10.3-1.53,12.94,2.14C-1525.88-182.93-1525.87-182.43-1527.08-182.18z"/>
	<path class="st0" d="M-1217.81-148.26c0,5.67,0,11.35,0,17.02c0,6.23-0.09,12.47,0.05,18.7c0.05,2.14-0.47,2.85-2.71,2.8
		c-5.45-0.11-5.45,0.02-5.45-5.28c0-26.91,0.04-53.83-0.07-80.74c-0.01-2.6,0.62-3.33,3.23-3.21c5,0.23,4.99,0.06,5.84,4.85
		c1.81,10.21,3.64,20.42,5.45,30.63c0.09,0.49,0.02,1.06,0.71,1.23c0.74-1.01,0.37-2.19,0.38-3.29c0.04-10.29,0.08-20.57-0.02-30.86
		c-0.02-2.07,0.58-2.59,2.61-2.56c5.56,0.08,5.56-0.02,5.56,5.58c0,26.81-0.04,53.62,0.06,80.43c0.01,2.66-0.76,3.31-3.3,3.21
		c-4.78-0.19-4.85-0.03-5.7-4.73c-1.81-10-3.53-20.02-5.29-30.02c-0.23-1.28-0.5-2.56-0.75-3.84
		C-1217.41-148.31-1217.61-148.28-1217.81-148.26z"/>
	<path class="st0" d="M-1441.08-35.88c0-13.72,0.08-27.44-0.06-41.17c-0.03-2.54,0.76-3.06,3.09-2.99
		c5.09,0.16,10.19,0.03,15.28,0.05c3.35,0.01,7,3.53,7,6.86c0.02,25.16,0.02,50.31,0,75.47c0,2.81-3.8,6.48-6.69,6.5
		c-5.2,0.04-10.4-0.11-15.59,0.06c-2.34,0.07-3.13-0.45-3.1-2.99C-1441.01-8.02-1441.09-21.95-1441.08-35.88z M-1424.08-35.25
		c0-10.29,0-20.58,0-30.87c0-5.77-0.01-5.59-5.84-5.83c-2.76-0.11-3.12,0.87-3.1,3.31c0.1,21.1,0.06,42.2,0.06,63.3
		c0,6.13,0,5.96,6.16,6.14c2.56,0.08,2.79-0.9,2.77-3C-1424.13-13.21-1424.08-24.23-1424.08-35.25z"/>
	<path class="st0" d="M-1389.87-35.68c0-13.83,0.07-27.66-0.07-41.48c-0.02-2.38,0.61-2.95,2.9-2.87
		c5.09,0.18,10.19,0.04,15.28,0.05c3.7,0.01,7.26,3.56,7.26,7.2c0.01,9.98-0.06,19.96,0.07,29.94c0.03,2.27-0.44,4.04-2.31,5.37
		c-1.65,1.17-2.21,2.44-0.13,3.75c2.1,1.33,2.46,3.27,2.44,5.62c-0.1,11.33-0.1,22.67,0,34c0.02,2.19-0.33,3.09-2.82,3.01
		c-5.54-0.17-5.54-0.02-5.54-5.54c0-10.71-0.04-21.42,0.04-32.13c0.01-1.8-0.31-2.5-2.34-2.5c-6.67-0.02-6.67-0.11-6.67,6.56
		c0,10.29-0.07,20.59,0.05,30.88c0.02,2.18-0.55,2.78-2.73,2.73c-5.43-0.12-5.43-0.01-5.43-5.29
		C-1389.87-9.48-1389.87-22.58-1389.87-35.68z M-1381.75-55.85c0,3.42,0,6.85,0,10.27c0,6.16,0,6.06,6.18,6.11
		c2.15,0.02,2.86-0.58,2.83-2.77c-0.11-7.67-0.04-15.35-0.04-23.03c0-6.88,0-6.8-6.87-6.65c-1.89,0.04-2.16,0.76-2.13,2.38
		C-1381.7-64.98-1381.75-60.41-1381.75-55.85z"/>
	<path class="st0" d="M-1335.64-154.1c0-13.92,0.06-27.85-0.06-41.77c-0.02-2.38,0.65-2.98,2.95-2.9
		c5.19,0.18,10.39,0.04,15.58,0.07c3.22,0.02,6.84,3.74,6.84,6.96c0.01,9.87-0.06,19.74,0.08,29.61c0.04,2.56-0.32,4.69-2.54,6.23
		c-1.5,1.04-1.79,2.16-0.05,3.3c2.25,1.48,2.62,3.62,2.59,6.19c-0.12,11.22-0.1,22.44-0.01,33.66c0.02,2.17-0.34,3.1-2.84,3.02
		c-5.51-0.18-5.52-0.02-5.52-5.57c0-10.6-0.06-21.2,0.05-31.79c0.02-2.12-0.45-2.84-2.7-2.8c-6.24,0.1-6.25-0.01-6.25,6.34
		c0,10.29-0.07,20.57,0.05,30.86c0.03,2.24-0.4,3.04-2.84,2.96c-5.33-0.18-5.33-0.03-5.33-5.42
		C-1335.64-128.12-1335.64-141.11-1335.64-154.1z M-1327.52-174.58c0,3.33,0,6.65,0,9.98c0,6.39,0,6.27,6.27,6.36
		c2.29,0.03,2.72-0.73,2.68-2.83c-0.12-7.69-0.05-15.39-0.05-23.08c0-6.7,0-6.61-6.78-6.48c-1.86,0.03-2.19,0.67-2.16,2.33
		C-1327.45-183.73-1327.51-179.15-1327.52-174.58z"/>
	<path class="st0" d="M-1364.89-154.1c0,12.36,0.01,24.73,0,37.09c0,3.63-3.57,7.2-7.19,7.21c-3.53,0.01-7.07-0.09-10.6,0.05
		c-1.83,0.07-3.01-0.65-4.36-1.78c-2.26-1.9-2.97-4.05-2.95-7c0.12-24.21,0.06-48.41,0.06-72.62c0-4.12,3.43-7.57,7.51-7.57
		c3.32,0,6.65,0.11,9.97-0.03c1.91-0.08,3.22,0.58,4.69,1.79c2.33,1.92,2.96,4.1,2.92,7.01
		C-1364.98-177.99-1364.89-166.05-1364.89-154.1z M-1373.08-154.09c0-10.28,0-20.55,0-30.83c0-5.66-0.01-5.47-5.64-5.74
		c-2.8-0.13-3.14,0.88-3.13,3.31c0.09,21.07,0.05,42.14,0.05,63.21c0,6.34,0,6.24,6.25,6.3c2.12,0.02,2.53-0.68,2.51-2.62
		C-1373.13-131.67-1373.08-142.88-1373.08-154.09z"/>
	<path class="st0" d="M-1287.21-35.54c0-12.37,0-24.75,0-37.12c0-3.77,3.43-7.3,7.14-7.32c3.33-0.02,6.66,0.13,9.98-0.05
		c2.26-0.13,3.84,0.62,5.5,2.15c1.94,1.79,2.68,3.62,2.57,6.24c-0.21,4.88-0.14,9.77-0.01,14.66c0.05,1.82-0.57,2.23-2.29,2.25
		c-6.03,0.08-6.03,0.15-6.03-5.93c0-3.12-0.03-6.24,0.01-9.36c0.02-1.25-0.29-2.03-1.73-1.85c-0.2,0.03-0.42,0-0.62,0
		c-6.37-0.2-6.37-0.2-6.37,6.2c0,21,0.05,42.01-0.07,63.01c-0.02,2.68,0.49,3.59,3.35,3.46c5.42-0.25,5.43-0.06,5.43-5.36
		c0-5.61-0.06-11.23,0.03-16.84c0.03-1.75-0.49-2.56-2.29-2.24c-2.15,0.38-2.53-0.66-2.5-2.6c0.08-5.52-0.01-5.53,5.52-5.53
		c7.51,0,7.51,0,7.51,7.6c0,8.63,0.01,17.26,0,25.89c0,3.47-3.58,7.09-7.03,7.11c-3.02,0.02-6.07-0.31-9.04,0.08
		c-3.74,0.5-5.98-1.43-8.24-3.84c-1.02-1.09-0.81-2.29-0.82-3.5c-0.02-12.37-0.01-24.75-0.01-37.12
		C-1287.22-35.54-1287.21-35.54-1287.21-35.54z"/>
	<path class="st0" d="M-1326.06-49.32c-1.31,10.35-2.61,20.7-3.92,31.05c-1.06,8.45-2.14,16.89-3.14,25.34
		c-0.15,1.29-0.56,1.84-1.9,1.79c-7.73-0.26-6.6,1.43-5.76-6.16c2.15-19.4,4.29-38.8,6.44-58.19c0.83-7.53,1.72-15.06,2.49-22.6
		c0.16-1.6,0.77-2.03,2.33-2.09c9.21-0.38,9.07-0.41,10.08,8.76c2.58,23.42,5.31,46.83,7.97,70.24c0.18,1.55,0.26,3.11,0.47,4.65
		c0.77,5.49,0.78,5.39-4.78,5.43c-1.85,0.01-2.42-0.51-2.64-2.35c-1.93-16.18-3.95-32.35-6-48.51
		C-1324.71-44.44-1324.7-46.99-1326.06-49.32z"/>
	<path class="st0" d="M-1268.63-168.41c-2.36,18.65-4.75,37.16-6.98,55.7c-0.26,2.15-0.66,3.05-3.07,2.99
		c-5.62-0.14-5.49,0.02-4.83-5.68c2.03-17.54,3.95-35.09,5.91-52.64c1.07-9.6,2.16-19.2,3.16-28.8c0.17-1.6,0.78-2.02,2.34-2.09
		c9-0.36,9-0.4,10.01,8.51c2.91,25.7,5.78,51.4,8.82,77.08c0.38,3.23-0.63,3.61-3.51,3.68c-3.11,0.08-4.18-0.85-4.53-3.91
		c-2-17.43-4.19-34.85-6.32-52.27C-1267.74-166.71-1267.56-167.72-1268.63-168.41z"/>
	<path class="st0" d="M-1444.32-154.09c0-12.47-0.01-24.94,0-37.4c0-3.66,3.56-7.2,7.24-7.22c2.91-0.01,5.86,0.31,8.72-0.08
		c3.62-0.49,5.84,1.33,8.01,3.69c0.75,0.82,1.13,1.61,1.12,2.75c-0.05,5.61-0.07,11.22,0.01,16.83c0.02,1.59-0.39,2.11-2.07,2.16
		c-6.2,0.17-6.19,0.24-6.19-6.03c0-3.01-0.07-6.03,0.03-9.04c0.05-1.59-0.45-2.12-2.1-2.19c-6.66-0.29-6.65-0.36-6.65,6.24
		c0,21.09,0.04,42.18-0.06,63.27c-0.01,2.5,0.44,3.38,3.15,3.28c5.63-0.21,5.63-0.04,5.63-5.75c0-5.4-0.07-10.81,0.04-16.21
		c0.03-1.79-0.28-2.85-2.33-2.48c-2.16,0.4-2.56-0.65-2.55-2.6c0.05-5.51-0.03-5.51,5.55-5.51c7.51,0,7.51,0,7.51,7.54
		c0,8.73,0.01,17.45-0.01,26.18c-0.01,3.15-3.77,6.86-6.93,6.88c-3.64,0.02-7.28-0.1-10.91,0.04c-1.84,0.07-3-0.72-4.36-1.8
		c-2.37-1.88-2.95-4.1-2.92-7.01C-1444.23-130.4-1444.32-142.25-1444.32-154.09z"/>
	<path class="st0" d="M-1184.67-35.74c0-12.27,0-24.54,0-36.8c0-3.94,3.41-7.42,7.28-7.43c3.22-0.01,6.45,0.13,9.67-0.05
		c2.36-0.13,4.05,0.61,5.74,2.28c1.68,1.66,2.49,3.27,2.4,5.68c-0.18,4.98-0.12,9.98-0.03,14.97c0.03,1.64-0.25,2.35-2.15,2.38
		c-6.09,0.1-6.08,0.2-6.08-5.89c0-3.12-0.07-6.24,0.03-9.36c0.05-1.52-0.48-1.88-1.95-1.94c-6.79-0.28-6.79-0.34-6.79,6.41
		c0,21,0.04,42-0.05,63c-0.01,2.46,0.4,3.42,3.15,3.3c5.61-0.24,5.62-0.06,5.62-5.78c0-3.01,0.07-6.03-0.04-9.04
		c-0.05-1.63,0.5-2.07,2.13-2.11c6.11-0.15,6.11-0.22,6.11,5.87c0,3.33-0.35,6.7,0.09,9.97c0.52,3.9-1.48,6.17-4.05,8.41
		c-0.82,0.71-1.67,0.72-2.59,0.72c-3.22,0.01-6.46-0.18-9.67,0.06c-2.94,0.22-5.12-0.63-7.08-2.86c-1.18-1.34-1.79-2.55-1.77-4.36
		C-1184.64-10.79-1184.67-23.27-1184.67-35.74z"/>
	<path class="st0" d="M-1568.58-146.63c1.45,0,2.98,0.29,4.35-0.05c10.36-2.5,15.47,5.09,21.46,11.03c0.67,0.67,0.63,1.48,0.63,2.31
		c-0.01,4.57-0.07,9.14,0.04,13.7c0.04,1.8-0.59,2.31-2.33,2.28c-5.29-0.09-10.59-0.1-15.88,0c-1.82,0.03-2.46-0.66-2.26-2.36
		c0.01-0.1,0-0.21,0-0.31c-0.17-6.6-0.17-6.6-6.93-6.6c-4.57,0-9.14-0.06-13.7,0.03c-1.68,0.03-2.44-0.49-2.59-2.21
		c-0.46-5.22-0.25-10.32,1.58-15.33c0.67-1.85,1.45-2.63,3.5-2.54C-1576.68-146.51-1572.63-146.63-1568.58-146.63z"/>
	<path class="st0" d="M-1223.65,8.84c-2.5,0-4.99-0.06-7.49,0.02c-1.35,0.04-1.89-0.43-1.79-1.79c0.08-1.14,0.14-2.3-0.01-3.43
		c-0.3-2.28,0.46-3.37,2.87-2.92c2.06,0.38,2.57-0.53,2.56-2.54c-0.07-22.56-0.07-45.12,0-67.68c0.01-1.93-0.49-2.71-2.4-2.36
		c-2.49,0.45-3.39-0.6-3.04-3.05c0.15-1.02,0.13-2.08,0.03-3.11c-0.15-1.5,0.4-2,1.92-1.97c5.09,0.08,10.19,0.06,15.28,0
		c1.29-0.01,1.95,0.31,1.8,1.73c-0.09,0.93-0.11,1.88,0,2.8c0.34,2.63-0.31,4.2-3.4,3.61c-1.94-0.37-2.15,0.77-2.15,2.37
		c0.04,22.67,0.05,45.33-0.01,68c-0.01,1.85,0.62,2.5,2.32,2.21c2.54-0.43,3.4,0.45,3.28,3.13c-0.22,4.99-0.05,5-5.11,5
		C-1220.53,8.85-1222.09,8.85-1223.65,8.84z"/>
	<path class="st0" d="M-1574.03-75.65c9.45,2.88,18.5,5.8,27.66,8.36c3.29,0.92,4.55,2.25,4.34,5.86
		c-0.38,6.72-0.16,13.49-0.06,20.23c0.03,1.86-0.44,2.54-2.42,2.49c-5.19-0.14-10.38-0.12-15.57-0.01
		c-1.86,0.04-2.61-0.46-2.51-2.42c0.14-2.9-0.02-5.81,0.06-8.72c0.04-1.49-0.39-2.41-1.97-2.56c-0.2-0.02-0.41-0.08-0.6-0.15
		c-2.87-1.12-7-0.7-8.47-3.07c-1.36-2.18-0.42-5.83-0.44-8.83C-1574.06-68.08-1574.03-71.7-1574.03-75.65z"/>
	<path class="st0" d="M-1164.5,75.92c0.59-9.19-0.15-18.2,0.07-27.22c0.07-2.8,0.1-5.61-0.02-8.42c-0.08-1.96,0.21-3,2.63-3.01
		c2.35-0.01,2.44,1.08,2.44,2.83c-0.03,16.94-0.01,33.88-0.04,50.81c0,1.12,0.5,2.81-1.6,2.56c-1.6-0.18-3.75,1.1-4.26-2.04
		c-1.31-8.09-2.74-16.17-4.46-24.18c-1.04-4.89-1.74-9.84-2.75-14.74c-0.47,4.04,0.18,8.03,0.27,12.04
		c0.19,8.83,0.06,17.66,0.29,26.49c0.09,3.59-2.31,2.38-3.99,2.43c-2.48,0.08-1.85-1.93-1.53-3.12c0.3-1.13,0.45-2.21,0.46-3.34
		c0.01-15.69-0.01-31.38,0.04-47.07c0-0.94-1.11-2.82,1.22-2.58c1.76,0.18,4.27-1.23,4.78,2.21c0.92,6.15,2.09,12.27,3.18,18.4
		C-1166.7,63.96-1165.59,69.94-1164.5,75.92z"/>
	<path class="st0" d="M-1338.81,77.05c0-3.27,0.22-6.56-0.04-9.8c-0.75-9.14-0.21-18.29-0.48-27.43c-0.07-2.31,1-2.39,2.79-2.5
		c2.07-0.12,2.31,0.7,2.3,2.5c-0.05,17.05,0.02,34.1,0.02,51.15c0,1.12,0.5,2.82-1.62,2.51c-1.57-0.23-3.7,1.18-4.25-2.02
		c-2.09-12.07-4.43-24.09-6.69-36.12c-0.09-0.48,0-1.03-0.86-1.47c0.19,3.37,0.36,6.57,0.55,9.77c0.54,9.14,0.18,18.3,0.34,27.44
		c0.03,1.87-0.46,2.51-2.43,2.51c-2,0.01-2.69-0.5-2.68-2.59c0.07-17.05,0.04-34.1,0.04-51.16c0-1.23-0.28-2.69,1.74-2.47
		c1.64,0.18,3.68-0.93,4.19,2.1c1.85,11.06,3.91,22.08,5.89,33.12c0.27,1.5,0.56,3,0.84,4.5
		C-1339.04,77.09-1338.92,77.07-1338.81,77.05z"/>
	<path class="st0" d="M-1317.82,65.22c0-8.42,0.06-16.83-0.04-25.25c-0.02-2.04,0.56-2.77,2.64-2.63c2.48,0.17,4.99,0.01,7.48,0.04
		c4.1,0.04,5.6,1.47,5.63,5.67c0.06,8.83,0.01,17.66,0.01,26.5c0,6.03,0.04,12.05-0.01,18.08c-0.04,4.34-1.53,5.82-5.79,5.89
		c-2.49,0.04-5-0.11-7.48,0.04c-1.93,0.12-2.48-0.57-2.47-2.46C-1317.77,82.47-1317.82,73.84-1317.82,65.22z M-1312.66,65.2
		c0,6.97,0.06,13.93-0.04,20.9c-0.03,2.06,0.15,3.22,2.76,3.18c2.38-0.03,2.94-0.71,2.92-3.01c-0.1-13.93-0.08-27.86,0-41.79
		c0.01-2.13-0.54-2.84-2.77-2.89c-2.4-0.05-2.97,0.74-2.92,3.02C-1312.56,51.47-1312.65,58.33-1312.66,65.2z"/>
	<path class="st0" d="M-1400.23,65.52c0,7.27,0.02,14.55-0.01,21.82c-0.02,4.74-1.37,6.07-6.12,6.2c-8.86,0.24-9.54-0.42-9.54-9.36
		c0-13.41-0.01-26.81-0.01-40.22c0-5.22,1.47-6.68,6.69-6.62c8.89,0.1,8.99,0.2,9,9.16C-1400.22,52.84-1400.23,59.18-1400.23,65.52z
		 M-1405.3,65.61c0-7.07-0.08-14.14,0.05-21.21c0.04-2.22-0.72-2.79-2.86-2.78c-2.21,0.01-2.82,0.75-2.8,2.89
		c0.08,14.04,0.07,28.07,0,42.11c-0.01,2.08,0.71,2.64,2.71,2.62c2.03-0.02,3-0.38,2.95-2.73
		C-1405.39,79.54-1405.3,72.57-1405.3,65.61z"/>
	<path class="st0" d="M-1208.98,65.24c0-7.47-0.03-14.95,0.01-22.42c0.02-3.98,1.46-5.35,5.49-5.44c9.8-0.23,10.07,0.04,10.07,9.96
		c0,13.18,0,26.37-0.01,39.55c-0.01,5.27-1.38,6.62-6.63,6.65c-1.14,0-2.29,0.03-3.43-0.02c-3.88-0.14-5.5-1.71-5.52-5.54
		c-0.04-7.58-0.01-15.16-0.01-22.73C-1208.99,65.24-1208.98,65.24-1208.98,65.24z M-1198.4,65.46c0-7.05-0.09-14.1,0.05-21.15
		c0.05-2.36-0.97-2.69-2.96-2.66c-1.83,0.03-2.75,0.26-2.74,2.5c0.11,14.21,0.11,28.41,0,42.62c-0.02,2.25,0.92,2.46,2.75,2.47
		c1.95,0.01,3-0.21,2.95-2.63C-1198.5,79.56-1198.4,72.51-1198.4,65.46z"/>
	<path class="st0" d="M-1368.07,63.83c0,7.9,0.02,15.79-0.01,23.69c-0.02,4.43-1.58,5.95-6.02,6c-9.08,0.12-9.57-0.36-9.57-9.31
		c0-14.65,0.02-29.3-0.03-43.94c-0.01-1.89,0.05-3,2.55-3c2.54,0.01,2.5,1.21,2.5,3.05c-0.05,15.06-0.03,30.13-0.02,45.19
		c0,1.86-0.67,3.83,2.71,3.79c3.11-0.03,2.9-1.56,2.9-3.66c-0.04-15.17-0.01-30.33-0.04-45.5c0-1.7-0.06-2.91,2.34-2.87
		c2.23,0.04,2.78,0.74,2.75,2.87C-1368.14,48.04-1368.07,55.94-1368.07,63.83z"/>
	<path class="st0" d="M-1278.53,50.02c-1.39,3.96-1.03,7.85-1.44,11.62c-1.05,9.81-1.91,19.65-2.55,29.5
		c-0.19,2.93-1.88,2.3-3.56,2.4c-2.6,0.16-1.55-1.74-1.44-2.78c1.49-14.57,3.06-29.13,4.61-43.7c0.26-2.48,0.68-4.96,0.73-7.44
		c0.05-2.2,1.36-2.29,2.88-2.12c1.51,0.17,3.59-0.98,3.87,2.04c0.8,8.58,1.83,17.14,2.75,25.71c0.91,8.57,1.81,17.14,2.68,25.71
		c0.11,1.06,1.05,2.65-1.29,2.56c-1.69-0.06-3.5,0.54-3.71-2.31c-0.75-10.05-1.71-20.08-2.59-30.12
		C-1277.89,57.51-1278.19,53.93-1278.53,50.02z"/>
	<path class="st0" d="M-1228.04,93.52c-4.36,0.02-4.7-0.6-2.87-4.73c0.36-0.8,0.32-1.81,0.32-2.73c0.02-13.7,0.01-27.39,0-41.09
		c0-1.32-0.13-2.48-0.94-3.77c-1.43-2.25-0.31-3.85,2.34-3.91c0.31-0.01,0.62,0,0.93-0.01c4.84-0.01,4.97,0.24,3.16,4.76
		c-0.37,0.91-0.28,2.03-0.29,3.06c-0.02,13.59-0.02,27.19-0.01,40.78c0,0.92-0.1,1.94,0.25,2.75
		C-1223.22,93.25-1223.34,93.5-1228.04,93.52z"/>
	<path class="st0" d="M-1442.34,65.31c0-8.51,0.06-17.03-0.05-25.54c-0.03-1.97,0.58-2.54,2.46-2.42c2.17,0.14,4.36,0.07,6.54,0.01
		c1.44-0.04,2.34,0.16,2.29,1.99c-0.04,1.65-0.38,2.73-2.23,2.36c-3.7-0.75-4.26,1.08-4.08,4.26c0.25,4.55,0.24,9.14,0.01,13.7
		c-0.14,2.77,0.56,4.02,3.5,3.58c1.28-0.19,2.68-0.37,2.8,1.81c0.13,2.26-0.92,2.76-2.76,2.45c-2.9-0.48-3.66,0.72-3.57,3.54
		c0.21,6.53,0.02,13.08,0.11,19.62c0.02,1.92-0.14,2.94-2.59,2.96c-2.64,0.02-2.46-1.33-2.46-3.08
		C-1442.32,82.13-1442.34,73.72-1442.34,65.31z"/>
	<path class="st0" d="M-1250.1,67.67c0,7.78-0.07,15.57,0.05,23.35c0.03,2.13-0.74,2.53-2.68,2.57c-2.01,0.04-2.41-0.68-2.4-2.51
		c0.06-15.36,0.02-30.72,0.05-46.08c0-1.98,0.21-3.8-2.78-3.37c-1.52,0.22-1.45-1.13-1.47-2.17c-0.03-1.12,0.11-2.09,1.61-2.08
		c3.53,0.02,7.06,0.04,10.59-0.01c1.56-0.02,1.57,0.94,1.54,2.05c-0.03,1.18,0.05,2.53-1.68,2.24c-2.88-0.48-2.88,1.2-2.86,3.28
		C-1250.06,52.52-1250.11,60.1-1250.1,67.67z"/>
	<path class="st0" d="M-1177.76-100.08c-1.12-5.07-0.41-8.86,4.2-11.58c3.13-1.84,5.79-4.5,8.86-6.95
		c0.79,4.85,0.64,8.74-4.01,11.45C-1171.94-105.27-1174.67-102.54-1177.76-100.08z"/>
</g>
<g>
	<path class="st0" d="M-868.56,112.6c5.55,8.6,10.97,17,16.68,25.84c-8.56,1.94-14.76,1.07-18.22-7.13
		c-1.32-3.13-4.09-5.67-5.33-8.83c-3.79-9.65-10.83-11.34-20.64-8.69c0,7.97,0,16.16,0,24.87c-4.07,0-7.38,0-11.29,0
		c0-20.24,0-40.51,0-60.89c12.54,0,24.91-0.6,37.18,0.23c7.08,0.48,13.04,4.6,15.48,11.99c1.87,5.64,1.18,11.17-3.18,15.34
		C-860.77,108.09-864.56,109.93-868.56,112.6z M-895.79,104.71c7.11,0,13.75,0.43,20.29-0.14c5.36-0.46,9.88-3.14,9.8-9.45
		c-0.08-6.23-4.52-8.95-9.92-9.38c-6.54-0.52-13.16-0.12-20.17-0.12C-895.79,92.15-895.79,98.18-895.79,104.71z"/>
	<path class="st0" d="M-744.35,77.62c11.65,0,23.14-0.89,34.43,0.24c12.3,1.24,18.91,9.26,19.87,21.74
		c0.42,5.48,0.42,11.03,0.03,16.51c-0.94,13.13-7.15,20.67-20.23,22.04c-11.07,1.16-22.35,0.24-34.1,0.24
		C-744.35,118.35-744.35,98.1-744.35,77.62z M-732.73,85.25c0,15.78,0,30.35,0,45.55c10.33-0.92,22.36,3.85,28.36-6.81
		c5.48-9.72,5.47-22.18,0.04-31.94C-710.37,81.24-722.47,86.5-732.73,85.25z"/>
	<path class="st0" d="M-981.22,107.84c0-0.46,0-0.92,0-1.38c0.03-22.77,12.09-32.99,34.66-29.36c13.51,2.17,20.57,10.16,20.86,23.88
		c0.12,5.74-0.03,11.49-0.15,17.23c-0.15,7.55-3.64,13.29-10.19,16.84c-11.8,6.39-23.73,6.34-35.45-0.32
		c-5.81-3.3-8.92-8.56-9.41-15.17c-0.29-3.88-0.05-7.81-0.05-11.71C-981.03,107.84-981.12,107.84-981.22,107.84z M-937.04,107.15
		c-0.23-2.77-0.25-6.94-0.97-10.99c-1.32-7.4-7.23-11.47-15.77-11.31c-8.24,0.15-14.17,4.17-14.98,11.34
		c-0.77,6.8-0.88,13.78-0.37,20.61c0.71,9.66,6.36,14.46,15.74,14.45c9.68-0.01,15.04-5.11,15.87-15.15
		C-937.32,113.58-937.25,111.05-937.04,107.15z"/>
	<path class="st0" d="M-617,138.59c-7.63,1.76-13.18,0.94-15.57-7.58c-0.54-1.91-4.11-4.02-6.42-4.2
		c-7.08-0.55-14.25-0.52-21.34-0.03c-2.14,0.15-5.45,2.15-5.96,3.94c-2.35,8.29-7.56,10.08-15.84,7.71c1.22-2.81,2.4-5.67,3.68-8.47
		c7.35-16.07,14.84-32.08,22.02-48.22c1.52-3.42,3.43-5.68,7.11-4.52c2.42,0.77,5.53,2.24,6.5,4.27
		c8.45,17.58,16.49,35.36,24.61,53.09C-617.65,135.78-617.43,137.13-617,138.59z M-637.46,118.49c-3.99-9.31-7.51-17.52-11.74-27.41
		c-4.38,10.04-8.02,18.39-11.96,27.41C-652.87,118.49-645.83,118.49-637.46,118.49z"/>
	<path class="st0" d="M-1046.7,77.46c11.96,0,23.46-0.46,34.88,0.24c4.29,0.26,9.01,2.46,12.51,5.12
		c9.48,7.21,8.72,21.77-1.93,27.14c-6.05,3.05-13.56,3.41-20.49,4.41c-4.23,0.61-8.61,0.11-13.7,0.11c0,8.47,0,16.16,0,24.26
		c-4.13,0-7.46,0-11.27,0C-1046.7,118.45-1046.7,98.32-1046.7,77.46z M-1035.08,105.68c7.69,0,14.54,0.49,21.28-0.15
		c5.53-0.53,9.32-4.1,9.13-10.12c-0.18-5.66-3.98-8.98-9.17-9.43c-6.94-0.61-13.98-0.15-21.24-0.15
		C-1035.08,92.68-1035.08,99.01-1035.08,105.68z"/>
	<path class="st0" d="M-1066.32,83.1c-3.65,4.94-6.64,5.91-12.16,3.84c-5.46-2.05-12.22-2.06-18.08-1.02
		c-2.94,0.52-6.48,4.99-7.33,8.3c-1.28,4.97,3.22,7.13,7.53,7.95c5.86,1.1,11.84,1.62,17.7,2.74c9.75,1.86,15.32,7.6,15.69,15.68
		c0.34,7.6-4.66,14.35-13.69,16.82c-14.25,3.89-28.11,3.21-41.34-5.41c3.59-4.65,6.14-6.52,12.62-4.1
		c7.08,2.65,15.62,2.36,23.39,1.69c2.62-0.22,6.18-5.21,6.88-8.53c1.03-4.88-3.38-7.1-7.73-7.88c-6.1-1.1-12.34-1.53-18.38-2.84
		c-9.35-2.03-14.2-7.37-14.49-15.09c-0.29-7.78,4.06-14.04,12.81-16.7C-1090.32,74.74-1078.05,75.44-1066.32,83.1z"/>
	<path class="st0" d="M-811.95,85.29c0,18.38,0,35.58,0,53.32c-3.86,0-7.17,0-11.26,0c0-17.19,0-34.55,0-52.81
		c-7.45,0-14.2,0-21.44,0c-0.23-3.05-0.39-5.25-0.6-8.1c18.13,0,35.93,0,54.22,0c0,2.25,0,4.59,0,7.6
		C-797.78,85.29-804.38,85.29-811.95,85.29z"/>
	<path class="st0" d="M-765.86,138.8c-3.54,0-6.66,0-10.42,0c0-20.31,0-40.56,0-61.27c3.33,0,6.65,0,10.42,0
		C-765.86,97.72-765.86,117.83-765.86,138.8z"/>
	<path class="st0" d="M-893.95-149.37c-43.51,0-78.78,36.82-78.78,82.23s35.27,82.23,78.78,82.23c43.51,0,78.78-36.82,78.78-82.23
		S-850.44-149.37-893.95-149.37z M-893.95-5.63c-25.96,0-46.99-27.85-46.99-62.19s21.04-62.19,46.99-62.19s46.99,27.85,46.99,62.19
		S-867.99-5.63-893.95-5.63z"/>
	<polygon class="st0" points="-1092.97,-192.22 -1092.97,28.92 -1055.65,28.92 -1055.65,48.27 -1116.46,48.27 -1116.46,-211.57 
		-1055.65,-211.57 -1055.65,-192.22 	"/>
	<polygon class="st0" points="-740.54,-211.57 -740.54,48.27 -801.35,48.27 -801.35,28.92 -764.03,28.92 -764.03,-192.22 
		-801.35,-192.22 -801.35,-211.57 	"/>
	<rect x="-931.26" y="-197.74" class="st0" width="74.63" height="19.35"/>
	<circle class="st0" cx="-1011.42" cy="-120.35" r="19.35"/>
	<path class="st0" d="M-1025.25-27.75l31.79-1.38c0,0-16.59,53.9-31.79,77.4l-17.97,1.38C-1043.21,49.65-1025.94-2.18-1025.25-27.75
		z"/>
</g>
<g>
	<path class="st0" d="M608.42,72.52c-9.93,6.41-15.16,15.86-16.6,27.27c-2.62,20.69,5.7,37.05,21.15,50.2
		c2.1,1.79,2.96,3.53,2.95,6.28c-0.1,25.58-0.03,51.15-0.11,76.73c-0.01,2.27,0.5,3.45,2.91,3.63c2.59,0.19,5.14,0.79,7.73,0.91
		c5.19,0.23,9.63-1.62,12.85-5.74c1.18-1.51,2.38-1.95,4.18-1.91c4.99,0.11,9.98,0.13,14.97-0.01c2.3-0.06,2.83,0.4,2.03,2.74
		c-4.48,13.12-18.5,22.4-32.29,21.25c-8.61-0.72-17-2.78-25.49-4.22c-6.9-1.17-12.93,1.04-16.38,6.31
		c-3.43,5.24-3.3,12.08,0.32,17.31c3.5,5.05,10.59,7.73,16.83,6.36c8.05-1.76,15.68-4.63,23.18-8.07
		c15.04-6.91,32.66,1.82,35.93,17.92c2.01,9.89-0.97,18.63-8.56,25.35c-7.94,7.02-17.23,8.86-27.32,5.53
		c-4.63-1.53-9-3.76-13.28-6.12c-7.03-3.88-13.96-2.57-17.56,3.28c-3.87,6.29-2.09,14.72,4.06,19.13c0.9,0.64,1.83,1.24,2.73,1.84
		c-0.43,0.67-0.83,0.58-1.2,0.42c-8.93-3.94-13.4-15.13-9.5-23.82c4.03-9.01,14.71-12.84,23.96-8.42c4.31,2.06,8.63,4.11,13.14,5.68
		c12.26,4.27,25.38-5.99,24.03-18.75c-1.1-10.43-12-16.31-21.37-11.46c-8.24,4.26-16.69,7.92-25.8,9.9
		c-16.66,3.62-31.05-5.44-34.89-21.95c-3.79-16.29,5.31-31.21,21.59-35.22c2.21-0.54,3.17-1.23,3.16-3.79
		c-0.11-28.07-0.1-56.14-0.03-84.21c0.01-2.35-0.46-3.24-3.02-3.15c-5.82,0.2-11.65,0.14-17.47,0.02c-1.9-0.04-2.5,0.53-2.49,2.45
		c0.06,18.19,0.05,36.39-0.01,54.58c-0.01,1.91,0.58,2.52,2.49,2.46c3.84-0.13,7.69,0.04,11.54-0.06c1.82-0.05,2.58,0.39,2.53,2.41
		c-0.14,5.19-0.11,10.4,0,15.59c0.04,1.83-0.63,2.27-2.35,2.26c-10.61-0.06-21.21-0.08-31.82,0.01c-2.11,0.02-2.6-0.76-2.6-2.73
		c0.06-31.5,0.07-63.01,0.01-94.51c0-2.17,0.79-2.56,2.72-2.54c9.25,0.08,18.51-0.01,27.76,0.06c2.02,0.02,2.9-0.16,1.88-2.49
		c-1.95-4.44-2.32-9.22-2.4-14.78c-4.08,3.87-4.63,8.64-5.98,13.17c-2.26-9.4-2.64-23.27,6.32-34.64
		c-4.91,0.89-8.24,3.39-11.22,6.81c0.31-8.5,4.79-14.06,15.25-18.93c-2.86-1.42-5.59-0.99-8.22-0.47c-2.6,0.52-5.13,1.41-8.13,2.26
		c6.7-11.2,16.54-14.44,28.59-13.04c-2.19-3.21-4.94-3.86-15.75-3.75c11.76-8.77,23.54-6.96,35.52-2.77
		c-0.59-1.77-0.59-1.78-3.13-3.1c-1.33-0.69-2.68-1.34-3.96-2.27c8.71,1.44,17.78-2.79,26.39,1.74c-0.28,0.5-0.36,0.84-0.58,0.99
		c-6.11,4.14-8.11,10.26-8.26,17.23c-0.03,1.39,0.04,2.45-1.6,3.23c-22.28,10.55-24.93,36.56-8.82,54.78
		c8.65,9.78,19.89,14.72,32.57,16.76c1,0.16,2.1-0.03,3.13,0.9c-12.54,6.57-25.12,8.01-37.73,0.82c-4.56-2.6-7.71-6.97-10.66-11.24
		c-10.59-15.35-14.12-31.69-6.38-49.43c2.11-4.84,5.44-8.81,9.19-12.46c0.18-0.19,0.37-0.38,0.55-0.57
		c0.24-0.25,0.48-0.51,0.72-0.76c-0.51-0.35-0.87-0.19-1.13,0.32C608.94,72.2,608.68,72.36,608.42,72.52z"/>
	<path class="st0" d="M624.7,123.69c5.74,0,10.81,0,15.87,0c15.39,0.01,30.77,0.03,46.16,0c1.55,0,2.76,0.33,3.88,1.48
		c3.26,3.35,7.62,6.07,9.68,10.02c2.07,3.97,0.61,9.15,0.62,13.8c0.06,19.96,0,39.92,0.07,59.87c0.01,2.06-0.44,3.63-2.08,4.86
		c-0.5,0.37-1,0.78-1.35,1.28c-5.1,7.24-12.02,8.95-20.7,8.61c-17.13-0.67-34.3-0.25-51.45-0.14c-2.43,0.02-3.21-0.58-3.1-3.08
		c0.21-4.77,0.2-9.57,0-14.34c-0.1-2.41,0.7-2.92,2.98-2.91c17.26,0.09,34.51-0.01,51.77,0.11c2.65,0.02,3.5-0.5,3.47-3.36
		c-0.15-17.57-0.16-35.13,0-52.7c0.03-3.01-0.96-3.5-3.65-3.47c-12.02,0.15-23.86-0.93-34.94-6.21
		C635.36,134.4,629.75,130.07,624.7,123.69z"/>
	<path class="st0" d="M636.07,73.33l0.02,0.02c0.01-0.01,0.01-0.02,0.02-0.04C636.1,73.31,636.08,73.33,636.07,73.33z"/>
	<path class="st0" d="M698.29,48.33c-3.85-0.37-7.68-0.07-11.53,0.06c-0.88,0.02-1.95,0.37-2.35-0.9c-1.28-4.13-4.82-5.12-8.39-5.98
		c-5.25-1.26-10.54-2.25-15.82-3.33c-5.26-1.08-8.77-5.05-13.65-6.93c-6.48-2.47-13.59-2.56-19.65-6.19c1.04,3.47,3.83,4.7,6.7,5.86
		c1.79,0.71,3.87,0.94,4.96,2.86c0.05,0.26,0.22,0.65,0.11,0.75c-0.37,0.35-0.7,0.05-0.98-0.24c-3.53-1.62-7.29-1.13-11-1.26
		c-5.87-0.21-11.7-0.92-17.83-3.97c2,4.23,5.11,5.32,8.28,6.13c4.66,1.21,9.46,1.17,14.24,1.37c1.01,0.05,2.35,0,2.31,1.43
		c-0.02,1.23-1.31,1.11-2.2,1.22c-6.33,0.77-12.65,0.6-18.92-0.5c-6.12-1.07-11.91-2.92-16.11-7.96c-0.32-0.39-0.66-0.99-1.19-0.48
		c-0.3,0.3-0.39,0.92-0.41,1.41c-0.19,4.58,3.32,9.71,8.01,11.68c3.8,1.6,7.82,1.99,11.9,1.98c6.03-0.02,12.05-0.17,18.08-0.02
		c3.98,0.09,7.88,0.82,10.98,3.68c2.88,2.69,2.75,3.84-0.55,5.78c-4.84,2.85-7.24,7.22-6.34,11.54c11.97-4.84,18.54-4.02,23.86,2.97
		c0.06,0.24,0.14,0.48,0.21,0.73c-0.24-0.1-0.47-0.19-0.71-0.29c-3.16-1.23-6.27-2.54-9.67-2.97c-5.77-0.76-11.8,1.93-14.5,6.55
		c1.95-0.55,3.88-1.23,5.88-1.57c4.28-0.73,8.5-0.88,12.51,2.85c-4.76-0.52-8.96-1.73-12.56,1.67c6.75-0.71,12.97,0.56,18.64,4.25
		c1.11,0.72,1.73-0.25,2.46-0.7c2.85-1.75,5.55-1.52,8.01,0.67c1.7,1.52,3.28,3.17,4.92,4.76c1.95,1.9,4.09,3.54,6.83,4.15
		c3.54,0.77,6.6-0.61,7.31-3.57c0.77-3.16,0.51-6.3-1.24-9.26c-1.23,1.37-0.5,4.29-2.69,4.17c-1.68-0.1-1.7-2.57-2.3-4.08
		c-0.1-0.26-0.35-0.47-0.55-0.72c-3.46,4.05-5.25,4.08-8.88,0.05c-2.8-3.1-4.68-6.84-6.98-10.3c-1.14-1.7-0.63-2.52,0.94-3.34
		c3.94-2.05,8.12-2.56,12.4-1.79c6.09,1.11,12.15,2.5,18.08-0.87c0.14,1.5,0.25,2.62,0.39,4.03c1.57-1.64,1.44-4.53,3.57-4.48
		c2.21,0.06,1.47,3.1,2.81,4.35C710.68,55.41,707.65,49.24,698.29,48.33z M676.1,53.37c-2.11,0.42-4.12,1.5-5.78-1.34
		c-1.16-1.98-3.72-2.41-6.65-2.49c4.81-2.65,10.3-1.53,12.94,2.14C677.3,52.62,677.31,53.12,676.1,53.37z"/>
	<path class="st0" d="M985.37,87.29c0,5.67,0,11.35,0,17.02c0,6.23-0.09,12.47,0.05,18.7c0.05,2.14-0.47,2.85-2.71,2.8
		c-5.45-0.11-5.45,0.02-5.45-5.28c0-26.91,0.04-53.83-0.07-80.74c-0.01-2.6,0.62-3.33,3.23-3.21c5,0.23,4.99,0.06,5.84,4.85
		c1.81,10.21,3.64,20.42,5.45,30.63c0.09,0.49,0.02,1.06,0.71,1.23c0.74-1.01,0.37-2.19,0.38-3.29c0.04-10.29,0.08-20.57-0.02-30.86
		c-0.02-2.07,0.58-2.59,2.61-2.56c5.56,0.08,5.56-0.02,5.56,5.58c0,26.81-0.04,53.62,0.06,80.43c0.01,2.66-0.76,3.31-3.3,3.21
		c-4.78-0.19-4.85-0.03-5.7-4.73c-1.81-10-3.53-20.02-5.29-30.02c-0.23-1.28-0.5-2.56-0.75-3.84
		C985.77,87.25,985.57,87.27,985.37,87.29z"/>
	<path class="st0" d="M762.1,199.67c0-13.72,0.08-27.44-0.06-41.17c-0.03-2.54,0.76-3.06,3.09-2.99c5.09,0.16,10.19,0.03,15.28,0.05
		c3.35,0.01,7,3.53,7,6.86c0.02,25.16,0.02,50.31,0,75.47c0,2.81-3.8,6.48-6.69,6.5c-5.2,0.04-10.4-0.11-15.59,0.06
		c-2.34,0.07-3.13-0.45-3.1-2.99C762.17,227.53,762.09,213.6,762.1,199.67z M779.1,200.3c0-10.29,0-20.58,0-30.87
		c0-5.77-0.01-5.59-5.84-5.83c-2.76-0.11-3.12,0.87-3.1,3.31c0.1,21.1,0.06,42.2,0.06,63.3c0,6.13,0,5.96,6.16,6.14
		c2.56,0.08,2.79-0.9,2.77-3C779.05,222.34,779.1,211.32,779.1,200.3z"/>
	<path class="st0" d="M813.31,199.87c0-13.83,0.07-27.66-0.07-41.48c-0.02-2.38,0.61-2.95,2.9-2.87c5.09,0.18,10.19,0.04,15.28,0.05
		c3.7,0.01,7.26,3.56,7.26,7.2c0.01,9.98-0.06,19.96,0.07,29.94c0.03,2.27-0.44,4.04-2.31,5.37c-1.65,1.17-2.21,2.44-0.13,3.75
		c2.1,1.33,2.46,3.27,2.44,5.62c-0.1,11.33-0.1,22.67,0,34c0.02,2.19-0.33,3.09-2.82,3.01c-5.54-0.17-5.54-0.02-5.54-5.54
		c0-10.71-0.04-21.42,0.04-32.13c0.01-1.8-0.31-2.5-2.34-2.5c-6.67-0.02-6.67-0.11-6.67,6.56c0,10.29-0.07,20.59,0.05,30.88
		c0.02,2.18-0.55,2.78-2.73,2.73c-5.43-0.12-5.43-0.01-5.43-5.29C813.31,226.07,813.31,212.97,813.31,199.87z M821.43,179.7
		c0,3.42,0,6.85,0,10.27c0,6.16,0,6.06,6.18,6.11c2.15,0.02,2.86-0.58,2.83-2.77c-0.11-7.67-0.04-15.35-0.04-23.03
		c0-6.88,0-6.8-6.87-6.65c-1.89,0.04-2.16,0.76-2.13,2.38C821.48,170.57,821.43,175.14,821.43,179.7z"/>
	<path class="st0" d="M867.54,81.45c0-13.92,0.06-27.85-0.06-41.77c-0.02-2.38,0.65-2.98,2.95-2.9c5.19,0.18,10.39,0.04,15.58,0.07
		c3.22,0.02,6.84,3.74,6.84,6.96c0.01,9.87-0.06,19.74,0.08,29.61c0.03,2.56-0.32,4.69-2.54,6.23c-1.5,1.04-1.79,2.16-0.05,3.3
		c2.25,1.48,2.62,3.62,2.59,6.19c-0.12,11.22-0.1,22.44-0.01,33.66c0.02,2.17-0.34,3.1-2.84,3.02c-5.51-0.18-5.52-0.02-5.52-5.57
		c0-10.6-0.06-21.2,0.05-31.79c0.02-2.12-0.45-2.84-2.7-2.8c-6.24,0.1-6.25-0.01-6.25,6.34c0,10.29-0.07,20.57,0.05,30.86
		c0.03,2.24-0.4,3.04-2.84,2.96c-5.33-0.18-5.33-0.03-5.33-5.42C867.54,107.43,867.54,94.44,867.54,81.45z M875.66,60.97
		c0,3.33,0,6.65,0,9.98c0,6.39,0,6.27,6.27,6.36c2.29,0.03,2.72-0.73,2.68-2.83c-0.12-7.69-0.05-15.39-0.05-23.08
		c0-6.7,0-6.61-6.78-6.48c-1.86,0.03-2.19,0.67-2.16,2.33C875.73,51.82,875.67,56.4,875.66,60.97z"/>
	<path class="st0" d="M838.29,81.45c0,12.36,0.01,24.73,0,37.09c0,3.63-3.57,7.2-7.19,7.21c-3.53,0.01-7.07-0.09-10.6,0.05
		c-1.83,0.07-3.01-0.65-4.36-1.78c-2.26-1.9-2.97-4.05-2.95-7c0.12-24.21,0.06-48.41,0.06-72.62c0-4.12,3.43-7.57,7.51-7.57
		c3.32,0,6.65,0.11,9.97-0.03c1.91-0.08,3.22,0.58,4.69,1.79c2.33,1.92,2.96,4.1,2.92,7.01C838.2,57.56,838.29,69.51,838.29,81.45z
		 M830.1,81.46c0-10.28,0-20.55,0-30.83c0-5.66-0.01-5.47-5.64-5.74c-2.8-0.13-3.14,0.88-3.13,3.31
		c0.09,21.07,0.05,42.14,0.05,63.21c0,6.34,0,6.24,6.25,6.3c2.12,0.02,2.53-0.68,2.51-2.62C830.05,103.88,830.1,92.67,830.1,81.46z"
		/>
	<path class="st0" d="M915.97,200.02c0-12.37,0-24.75,0-37.12c0-3.77,3.43-7.3,7.14-7.32c3.33-0.02,6.66,0.13,9.98-0.05
		c2.26-0.13,3.84,0.62,5.5,2.15c1.94,1.79,2.68,3.62,2.57,6.24c-0.21,4.88-0.14,9.77-0.01,14.66c0.05,1.82-0.57,2.23-2.29,2.25
		c-6.03,0.08-6.03,0.15-6.03-5.93c0-3.12-0.03-6.24,0.01-9.36c0.02-1.25-0.29-2.03-1.73-1.85c-0.2,0.03-0.42,0-0.62,0
		c-6.37-0.2-6.37-0.2-6.37,6.2c0,21,0.05,42.01-0.07,63.01c-0.02,2.68,0.49,3.59,3.35,3.46c5.42-0.25,5.43-0.06,5.43-5.36
		c0-5.61-0.06-11.23,0.03-16.84c0.03-1.75-0.49-2.56-2.29-2.24c-2.15,0.38-2.53-0.66-2.5-2.6c0.08-5.52-0.01-5.53,5.52-5.53
		c7.51,0,7.51,0,7.51,7.6c0,8.63,0.01,17.26,0,25.89c0,3.47-3.58,7.09-7.03,7.11c-3.02,0.02-6.07-0.31-9.04,0.08
		c-3.74,0.5-5.98-1.43-8.24-3.84c-1.02-1.09-0.81-2.29-0.82-3.5c-0.02-12.37-0.01-24.75-0.01-37.12
		C915.96,200.02,915.97,200.02,915.97,200.02z"/>
	<path class="st0" d="M877.12,186.23c-1.31,10.35-2.61,20.7-3.92,31.05c-1.06,8.45-2.14,16.89-3.14,25.34
		c-0.15,1.29-0.56,1.84-1.9,1.79c-7.73-0.26-6.6,1.43-5.76-6.16c2.15-19.4,4.29-38.8,6.44-58.19c0.83-7.53,1.72-15.06,2.49-22.6
		c0.16-1.6,0.77-2.03,2.33-2.09c9.21-0.38,9.07-0.41,10.08,8.76c2.58,23.42,5.31,46.83,7.97,70.24c0.18,1.55,0.26,3.11,0.47,4.65
		c0.77,5.49,0.78,5.39-4.78,5.43c-1.85,0.01-2.42-0.51-2.64-2.35c-1.93-16.18-3.95-32.35-6-48.51
		C878.47,191.12,878.48,188.56,877.12,186.23z"/>
	<path class="st0" d="M934.55,67.14c-2.36,18.65-4.75,37.16-6.98,55.7c-0.26,2.15-0.66,3.05-3.07,2.99
		c-5.62-0.14-5.49,0.02-4.83-5.68c2.03-17.54,3.95-35.09,5.91-52.64c1.07-9.6,2.16-19.2,3.16-28.8c0.17-1.6,0.78-2.02,2.34-2.09
		c9-0.36,9-0.4,10.01,8.51c2.91,25.7,5.78,51.4,8.82,77.08c0.38,3.23-0.63,3.61-3.51,3.68c-3.11,0.08-4.18-0.85-4.53-3.91
		c-2-17.43-4.19-34.85-6.32-52.27C935.44,68.84,935.62,67.83,934.55,67.14z"/>
	<path class="st0" d="M758.86,81.46c0-12.47-0.01-24.94,0-37.4c0-3.66,3.56-7.2,7.24-7.22c2.91-0.01,5.86,0.31,8.72-0.08
		c3.62-0.49,5.84,1.33,8.01,3.69c0.75,0.82,1.13,1.61,1.12,2.75c-0.05,5.61-0.07,11.22,0.01,16.83c0.02,1.59-0.39,2.11-2.07,2.16
		c-6.2,0.17-6.19,0.24-6.19-6.03c0-3.01-0.07-6.03,0.03-9.04c0.05-1.59-0.45-2.12-2.1-2.19c-6.66-0.29-6.65-0.36-6.65,6.24
		c0,21.09,0.04,42.18-0.06,63.27c-0.01,2.5,0.44,3.38,3.15,3.28c5.63-0.21,5.63-0.04,5.63-5.75c0-5.4-0.07-10.81,0.04-16.21
		c0.03-1.79-0.28-2.85-2.33-2.48c-2.16,0.4-2.56-0.65-2.55-2.6c0.05-5.51-0.03-5.51,5.55-5.51c7.51,0,7.51,0,7.51,7.54
		c0,8.73,0.01,17.45-0.01,26.18c-0.01,3.15-3.77,6.86-6.93,6.88c-3.64,0.02-7.28-0.1-10.91,0.04c-1.84,0.07-3-0.72-4.36-1.8
		c-2.37-1.88-2.95-4.1-2.92-7.01C758.95,105.15,758.86,93.31,758.86,81.46z"/>
	<path class="st0" d="M1018.51,199.81c0-12.27,0-24.54,0-36.8c0-3.94,3.41-7.42,7.28-7.43c3.22-0.01,6.45,0.13,9.67-0.05
		c2.36-0.13,4.05,0.61,5.74,2.28c1.68,1.66,2.49,3.27,2.4,5.68c-0.18,4.98-0.12,9.98-0.03,14.97c0.03,1.64-0.25,2.35-2.15,2.38
		c-6.09,0.1-6.08,0.2-6.08-5.89c0-3.12-0.07-6.24,0.03-9.36c0.05-1.52-0.48-1.88-1.95-1.94c-6.79-0.28-6.79-0.34-6.79,6.41
		c0,21,0.04,42-0.05,63c-0.01,2.46,0.4,3.42,3.15,3.3c5.61-0.24,5.62-0.06,5.62-5.78c0-3.01,0.07-6.03-0.04-9.04
		c-0.05-1.63,0.5-2.07,2.13-2.11c6.11-0.15,6.11-0.22,6.11,5.87c0,3.33-0.35,6.7,0.09,9.97c0.52,3.9-1.48,6.17-4.05,8.41
		c-0.82,0.71-1.67,0.72-2.59,0.72c-3.22,0.01-6.46-0.18-9.67,0.06c-2.94,0.22-5.12-0.63-7.08-2.86c-1.18-1.34-1.79-2.55-1.77-4.36
		C1018.54,224.76,1018.51,212.29,1018.51,199.81z"/>
	<path class="st0" d="M634.6,88.92c1.45,0,2.98,0.29,4.35-0.05c10.36-2.5,15.47,5.09,21.46,11.03c0.67,0.67,0.63,1.48,0.63,2.31
		c-0.01,4.57-0.07,9.14,0.04,13.7c0.04,1.8-0.59,2.31-2.33,2.28c-5.29-0.09-10.59-0.1-15.88,0c-1.82,0.03-2.46-0.66-2.26-2.36
		c0.01-0.1,0-0.21,0-0.31c-0.17-6.6-0.17-6.6-6.93-6.6c-4.57,0-9.14-0.06-13.7,0.03c-1.68,0.03-2.44-0.49-2.59-2.21
		c-0.46-5.22-0.25-10.32,1.58-15.33c0.67-1.85,1.45-2.63,3.5-2.54C626.5,89.04,630.55,88.92,634.6,88.92z"/>
	<path class="st0" d="M979.53,244.4c-2.5,0-4.99-0.06-7.49,0.02c-1.35,0.04-1.89-0.43-1.79-1.79c0.08-1.14,0.14-2.3-0.01-3.43
		c-0.3-2.28,0.46-3.37,2.87-2.92c2.06,0.38,2.57-0.53,2.56-2.54c-0.07-22.56-0.07-45.12,0-67.68c0.01-1.93-0.49-2.71-2.4-2.36
		c-2.49,0.45-3.39-0.6-3.04-3.05c0.15-1.02,0.13-2.08,0.03-3.11c-0.15-1.5,0.4-2,1.92-1.97c5.09,0.08,10.19,0.06,15.28,0
		c1.29-0.01,1.95,0.31,1.8,1.73c-0.09,0.93-0.11,1.88,0,2.8c0.34,2.63-0.31,4.2-3.4,3.61c-1.94-0.37-2.15,0.77-2.15,2.37
		c0.04,22.67,0.05,45.33-0.01,68c-0.01,1.85,0.62,2.5,2.32,2.21c2.54-0.43,3.4,0.45,3.28,3.13c-0.22,4.99-0.05,5-5.11,5
		C982.65,244.4,981.09,244.4,979.53,244.4z"/>
	<path class="st0" d="M629.15,159.91c9.45,2.88,18.5,5.8,27.66,8.36c3.29,0.92,4.55,2.25,4.34,5.86
		c-0.38,6.72-0.16,13.49-0.07,20.23c0.03,1.86-0.44,2.54-2.42,2.49c-5.19-0.14-10.38-0.12-15.57-0.01
		c-1.86,0.04-2.61-0.46-2.51-2.42c0.14-2.9-0.02-5.81,0.06-8.72c0.04-1.49-0.39-2.41-1.97-2.56c-0.2-0.02-0.41-0.08-0.6-0.15
		c-2.87-1.12-7-0.7-8.47-3.07c-1.36-2.18-0.42-5.83-0.44-8.83C629.12,167.47,629.15,163.86,629.15,159.91z"/>
	<path class="st0" d="M1038.68,311.47c0.59-9.19-0.15-18.2,0.07-27.22c0.07-2.8,0.1-5.61-0.02-8.42c-0.08-1.96,0.21-3,2.63-3.01
		c2.35-0.01,2.44,1.08,2.44,2.83c-0.03,16.94-0.01,33.88-0.04,50.81c0,1.12,0.5,2.81-1.6,2.56c-1.6-0.18-3.75,1.1-4.26-2.04
		c-1.31-8.09-2.74-16.17-4.46-24.18c-1.04-4.89-1.74-9.84-2.75-14.74c-0.47,4.04,0.18,8.03,0.27,12.04
		c0.19,8.83,0.06,17.66,0.29,26.49c0.09,3.59-2.31,2.38-3.99,2.43c-2.48,0.08-1.85-1.93-1.53-3.12c0.3-1.13,0.45-2.21,0.46-3.34
		c0.01-15.69-0.01-31.38,0.04-47.07c0-0.94-1.11-2.82,1.22-2.58c1.76,0.18,4.27-1.23,4.78,2.21c0.92,6.15,2.09,12.27,3.18,18.4
		C1036.48,299.52,1037.59,305.49,1038.68,311.47z"/>
	<path class="st0" d="M864.37,312.6c0-3.27,0.22-6.56-0.04-9.8c-0.75-9.14-0.21-18.29-0.48-27.43c-0.07-2.31,1-2.39,2.79-2.5
		c2.07-0.12,2.31,0.7,2.3,2.5c-0.05,17.05,0.02,34.1,0.02,51.15c0,1.12,0.5,2.82-1.62,2.51c-1.57-0.23-3.7,1.18-4.25-2.02
		c-2.09-12.07-4.43-24.09-6.69-36.12c-0.09-0.48,0-1.03-0.86-1.47c0.19,3.37,0.36,6.57,0.55,9.77c0.54,9.14,0.18,18.3,0.34,27.44
		c0.03,1.87-0.46,2.51-2.43,2.51c-2,0.01-2.69-0.5-2.68-2.59c0.07-17.05,0.04-34.1,0.04-51.16c0-1.23-0.28-2.69,1.74-2.47
		c1.64,0.18,3.68-0.93,4.19,2.1c1.85,11.06,3.91,22.08,5.89,33.12c0.27,1.5,0.56,3,0.84,4.5
		C864.14,312.64,864.26,312.62,864.37,312.6z"/>
	<path class="st0" d="M885.36,300.77c0-8.42,0.06-16.83-0.04-25.25c-0.02-2.04,0.56-2.77,2.64-2.63c2.48,0.17,4.99,0.01,7.48,0.04
		c4.1,0.04,5.6,1.47,5.63,5.67c0.06,8.83,0.01,17.66,0.01,26.5c0,6.03,0.04,12.05-0.01,18.08c-0.04,4.34-1.53,5.82-5.79,5.89
		c-2.49,0.04-5-0.11-7.48,0.04c-1.93,0.12-2.48-0.57-2.47-2.46C885.41,318.02,885.36,309.4,885.36,300.77z M890.52,300.75
		c0,6.97,0.06,13.93-0.04,20.9c-0.03,2.06,0.15,3.22,2.76,3.18c2.38-0.03,2.94-0.71,2.92-3.01c-0.1-13.93-0.08-27.86,0-41.79
		c0.01-2.13-0.54-2.84-2.77-2.89c-2.4-0.05-2.97,0.74-2.92,3.02C890.62,287.02,890.53,293.89,890.52,300.75z"/>
	<path class="st0" d="M802.95,301.07c0,7.27,0.02,14.55-0.01,21.82c-0.02,4.74-1.37,6.07-6.12,6.2c-8.86,0.24-9.54-0.42-9.54-9.36
		c0-13.41-0.01-26.81-0.01-40.22c0-5.22,1.47-6.68,6.69-6.62c8.89,0.1,8.99,0.2,9,9.16C802.96,288.39,802.95,294.73,802.95,301.07z
		 M797.88,301.16c0-7.07-0.08-14.14,0.05-21.21c0.04-2.22-0.72-2.79-2.86-2.78c-2.21,0.01-2.82,0.75-2.8,2.89
		c0.08,14.04,0.07,28.07,0,42.11c-0.01,2.08,0.71,2.64,2.71,2.62c2.03-0.02,3-0.38,2.95-2.73
		C797.79,315.09,797.88,308.12,797.88,301.16z"/>
	<path class="st0" d="M994.2,300.79c0-7.47-0.03-14.95,0.01-22.42c0.02-3.98,1.46-5.35,5.49-5.44c9.8-0.23,10.07,0.04,10.07,9.96
		c0,13.18,0,26.37-0.01,39.55c-0.01,5.27-1.38,6.62-6.63,6.65c-1.14,0-2.29,0.03-3.43-0.02c-3.88-0.14-5.5-1.71-5.52-5.54
		c-0.04-7.58-0.01-15.16-0.01-22.73C994.19,300.79,994.2,300.79,994.2,300.79z M1004.78,301.01c0-7.05-0.09-14.1,0.05-21.15
		c0.05-2.36-0.97-2.69-2.96-2.66c-1.83,0.03-2.75,0.26-2.74,2.5c0.11,14.21,0.11,28.41,0,42.62c-0.02,2.25,0.92,2.46,2.75,2.47
		c1.95,0.01,3-0.21,2.95-2.63C1004.68,315.11,1004.78,308.06,1004.78,301.01z"/>
	<path class="st0" d="M835.11,299.39c0,7.9,0.02,15.79-0.01,23.69c-0.02,4.43-1.58,5.95-6.02,6c-9.08,0.12-9.57-0.36-9.57-9.31
		c0-14.65,0.02-29.3-0.03-43.94c-0.01-1.89,0.05-3,2.55-3c2.54,0.01,2.5,1.21,2.5,3.05c-0.05,15.06-0.03,30.13-0.02,45.19
		c0,1.86-0.67,3.83,2.71,3.79c3.11-0.03,2.9-1.56,2.9-3.66c-0.04-15.17-0.01-30.33-0.04-45.5c0-1.7-0.06-2.91,2.34-2.87
		c2.23,0.04,2.78,0.74,2.75,2.87C835.04,283.6,835.11,291.49,835.11,299.39z"/>
	<path class="st0" d="M924.65,285.57c-1.39,3.96-1.03,7.85-1.44,11.62c-1.05,9.81-1.91,19.65-2.55,29.5
		c-0.19,2.93-1.88,2.3-3.56,2.4c-2.6,0.16-1.55-1.74-1.44-2.78c1.49-14.57,3.06-29.13,4.61-43.7c0.26-2.48,0.68-4.96,0.73-7.44
		c0.05-2.2,1.36-2.29,2.88-2.12c1.51,0.17,3.59-0.98,3.87,2.04c0.8,8.58,1.83,17.14,2.75,25.71c0.91,8.57,1.81,17.14,2.68,25.71
		c0.11,1.06,1.05,2.65-1.29,2.56c-1.69-0.06-3.5,0.54-3.71-2.31c-0.75-10.05-1.71-20.08-2.59-30.12
		C925.29,293.07,924.99,289.49,924.65,285.57z"/>
	<path class="st0" d="M975.14,329.07c-4.36,0.02-4.7-0.6-2.87-4.73c0.36-0.8,0.32-1.81,0.32-2.73c0.02-13.7,0.01-27.39,0-41.09
		c0-1.32-0.13-2.48-0.94-3.77c-1.43-2.25-0.31-3.85,2.34-3.91c0.31-0.01,0.62,0,0.93-0.01c4.84-0.01,4.97,0.24,3.16,4.76
		c-0.37,0.91-0.28,2.03-0.29,3.06c-0.02,13.59-0.02,27.19-0.01,40.78c0,0.92-0.1,1.94,0.25,2.75
		C979.96,328.8,979.84,329.06,975.14,329.07z"/>
	<path class="st0" d="M760.84,300.86c0-8.51,0.06-17.03-0.05-25.54c-0.03-1.97,0.58-2.54,2.46-2.42c2.17,0.14,4.36,0.07,6.54,0.01
		c1.44-0.04,2.34,0.16,2.29,1.99c-0.04,1.65-0.38,2.73-2.23,2.36c-3.7-0.75-4.26,1.08-4.08,4.26c0.25,4.55,0.24,9.14,0.01,13.7
		c-0.14,2.77,0.56,4.02,3.5,3.58c1.28-0.19,2.68-0.37,2.8,1.81c0.13,2.26-0.92,2.76-2.76,2.45c-2.9-0.48-3.66,0.72-3.57,3.54
		c0.21,6.53,0.02,13.08,0.11,19.62c0.02,1.92-0.14,2.94-2.59,2.96c-2.64,0.02-2.46-1.33-2.46-3.08
		C760.86,317.68,760.84,309.27,760.84,300.86z"/>
	<path class="st0" d="M953.08,303.23c0,7.78-0.07,15.57,0.05,23.35c0.03,2.13-0.74,2.53-2.68,2.57c-2.01,0.04-2.41-0.68-2.4-2.51
		c0.06-15.36,0.02-30.72,0.05-46.08c0-1.98,0.21-3.8-2.78-3.37c-1.52,0.22-1.45-1.13-1.47-2.17c-0.03-1.12,0.11-2.09,1.61-2.08
		c3.53,0.02,7.06,0.04,10.59-0.01c1.56-0.02,1.57,0.94,1.54,2.05c-0.03,1.18,0.05,2.53-1.68,2.24c-2.88-0.48-2.88,1.2-2.86,3.28
		C953.12,288.07,953.07,295.65,953.08,303.23z"/>
	<path class="st0" d="M1025.42,135.47c-1.12-5.07-0.41-8.86,4.2-11.58c3.13-1.84,5.79-4.5,8.86-6.95c0.79,4.85,0.64,8.74-4.01,11.45
		C1031.24,130.28,1028.51,133.01,1025.42,135.47z"/>
</g>
<g>
	<path class="st0" d="M259.62,330.54c5.55,8.6,10.97,17,16.68,25.84c-8.56,1.94-14.76,1.07-18.22-7.13
		c-1.32-3.13-4.09-5.67-5.33-8.83c-3.79-9.65-10.83-11.34-20.64-8.69c0,7.97,0,16.16,0,24.87c-4.07,0-7.38,0-11.29,0
		c0-20.24,0-40.51,0-60.89c12.54,0,24.91-0.6,37.18,0.23c7.08,0.48,13.04,4.6,15.48,11.99c1.87,5.64,1.18,11.17-3.18,15.34
		C267.41,326.04,263.62,327.88,259.62,330.54z M232.39,322.66c7.11,0,13.75,0.43,20.29-0.14c5.36-0.46,9.88-3.14,9.8-9.45
		c-0.08-6.23-4.52-8.95-9.92-9.38c-6.54-0.52-13.16-0.12-20.17-0.12C232.39,310.1,232.39,316.13,232.39,322.66z"/>
	<path class="st0" d="M383.83,295.57c11.65,0,23.14-0.89,34.43,0.24c12.3,1.24,18.91,9.26,19.87,21.74
		c0.42,5.48,0.42,11.03,0.03,16.51c-0.94,13.13-7.15,20.67-20.23,22.04c-11.07,1.16-22.35,0.24-34.1,0.24
		C383.83,336.3,383.83,316.05,383.83,295.57z M395.45,303.2c0,15.78,0,30.35,0,45.55c10.33-0.92,22.36,3.85,28.36-6.81
		c5.48-9.72,5.47-22.18,0.04-31.94C417.81,299.19,405.71,304.45,395.45,303.2z"/>
	<path class="st0" d="M146.96,325.78c0-0.46,0-0.92,0-1.38c0.03-22.77,12.09-32.99,34.66-29.36c13.51,2.17,20.57,10.16,20.86,23.88
		c0.12,5.74-0.03,11.49-0.15,17.23c-0.15,7.55-3.64,13.29-10.19,16.84c-11.8,6.39-23.73,6.34-35.45-0.32
		c-5.81-3.3-8.92-8.56-9.41-15.17c-0.29-3.88-0.05-7.81-0.05-11.71C147.15,325.78,147.06,325.78,146.96,325.78z M191.14,325.1
		c-0.23-2.77-0.25-6.94-0.97-10.99c-1.32-7.4-7.23-11.47-15.77-11.31c-8.24,0.15-14.17,4.17-14.98,11.34
		c-0.77,6.8-0.88,13.78-0.37,20.61c0.71,9.66,6.36,14.46,15.74,14.45c9.68-0.01,15.04-5.11,15.87-15.15
		C190.86,331.52,190.93,328.99,191.14,325.1z"/>
	<path class="st0" d="M511.18,356.53c-7.63,1.76-13.18,0.94-15.57-7.58c-0.54-1.91-4.11-4.02-6.42-4.2
		c-7.08-0.55-14.25-0.52-21.34-0.03c-2.14,0.15-5.45,2.15-5.96,3.94c-2.35,8.29-7.56,10.08-15.84,7.71c1.22-2.81,2.4-5.67,3.68-8.47
		c7.35-16.07,14.84-32.08,22.02-48.22c1.52-3.42,3.43-5.68,7.11-4.52c2.42,0.77,5.53,2.24,6.5,4.27
		c8.45,17.58,16.49,35.36,24.61,53.09C510.53,353.73,510.75,355.08,511.18,356.53z M490.72,336.43
		c-3.99-9.31-7.51-17.52-11.74-27.41c-4.38,10.04-8.02,18.39-11.96,27.41C475.31,336.43,482.35,336.43,490.72,336.43z"/>
	<path class="st0" d="M81.48,295.41c11.96,0,23.46-0.46,34.88,0.24c4.29,0.26,9.01,2.46,12.51,5.12c9.48,7.21,8.72,21.77-1.93,27.14
		c-6.05,3.05-13.56,3.41-20.49,4.41c-4.23,0.61-8.61,0.11-13.7,0.11c0,8.47,0,16.16,0,24.26c-4.13,0-7.46,0-11.27,0
		C81.48,336.4,81.48,316.27,81.48,295.41z M93.1,323.62c7.69,0,14.54,0.49,21.28-0.15c5.53-0.53,9.32-4.1,9.13-10.12
		c-0.18-5.66-3.98-8.98-9.17-9.43c-6.94-0.61-13.98-0.15-21.24-0.15C93.1,310.63,93.1,316.95,93.1,323.62z"/>
	<path class="st0" d="M61.86,301.05c-3.65,4.94-6.64,5.91-12.16,3.84c-5.46-2.05-12.22-2.06-18.08-1.02
		c-2.94,0.52-6.48,4.99-7.33,8.3c-1.28,4.97,3.22,7.13,7.53,7.95c5.86,1.1,11.84,1.62,17.7,2.74c9.75,1.86,15.32,7.6,15.69,15.68
		c0.34,7.6-4.66,14.35-13.69,16.82c-14.25,3.89-28.11,3.21-41.34-5.41c3.59-4.65,6.14-6.52,12.62-4.1
		c7.08,2.65,15.62,2.36,23.39,1.69c2.62-0.22,6.18-5.21,6.88-8.53c1.03-4.88-3.38-7.1-7.73-7.88c-6.1-1.1-12.34-1.53-18.38-2.84
		c-9.35-2.03-14.2-7.37-14.49-15.09c-0.29-7.78,4.06-14.04,12.81-16.7C37.86,292.68,50.13,293.38,61.86,301.05z"/>
	<path class="st0" d="M316.23,303.24c0,18.38,0,35.58,0,53.32c-3.86,0-7.17,0-11.26,0c0-17.19,0-34.55,0-52.81
		c-7.45,0-14.2,0-21.44,0c-0.23-3.05-0.39-5.25-0.6-8.1c18.13,0,35.93,0,54.22,0c0,2.25,0,4.59,0,7.6
		C330.4,303.24,323.8,303.24,316.23,303.24z"/>
	<path class="st0" d="M362.32,356.75c-3.54,0-6.66,0-10.42,0c0-20.31,0-40.56,0-61.27c3.33,0,6.65,0,10.42,0
		C362.32,315.67,362.32,335.78,362.32,356.75z"/>
	<path class="st0" d="M234.23,68.58c-43.51,0-78.78,36.82-78.78,82.23s35.27,82.23,78.78,82.23s78.78-36.82,78.78-82.23
		S277.74,68.58,234.23,68.58z M234.23,212.31c-25.96,0-46.99-27.85-46.99-62.19s21.04-62.19,46.99-62.19s46.99,27.85,46.99,62.19
		S260.19,212.31,234.23,212.31z"/>
	<polygon class="st0" points="35.21,25.73 35.21,246.87 72.53,246.87 72.53,266.21 11.72,266.21 11.72,6.38 72.53,6.38 72.53,25.73 
			"/>
	<polygon class="st0" points="387.64,6.38 387.64,266.21 326.83,266.21 326.83,246.87 364.15,246.87 364.15,25.73 326.83,25.73 
		326.83,6.38 	"/>
	<rect x="196.92" y="20.2" class="st0" width="74.63" height="19.35"/>
	<circle class="st0" cx="116.76" cy="97.6" r="19.35"/>
	<path class="st0" d="M102.93,190.2l31.79-1.38c0,0-16.59,53.9-31.79,77.4l-17.97,1.38C84.97,267.6,102.24,215.77,102.93,190.2z"/>
</g>
</svg>
