<?xml version="1.0" encoding="utf-8"?>
<!-- Generator: Adobe Illustrator 24.1.1, SVG Export Plug-In . SVG Version: 6.00 Build 0)  -->
<svg version="1.1" id="Layer_1" xmlns="http://www.w3.org/2000/svg" xmlns:xlink="http://www.w3.org/1999/xlink" x="0px" y="0px"
	 viewBox="0 0 76 51" style="enable-background:new 0 0 76 51;" xml:space="preserve">
<style type="text/css">
	.st0{fill:#FFFFFF;}
	.st1{fill:#B3B3B3;}
	.st2{fill:#CCCCCC;}
	.st3{fill:#E6E6E6;}
	.st4{fill:#4D4D4D;}
	.st5{fill:#333333;}
	.st6{fill:#1A1A1A;}
</style>
<rect x="904" y="1365" class="st0" width="33" height="34"/>
<polygon class="st1" points="1112.43,499.5 558.93,1053 1112.43,1053 "/>
<polygon class="st2" points="1112.43,972.96 696.6,557.13 515.87,737.87 832,1053 1112.43,1053 "/>
<polygon class="st3" points="281.57,499.5 835.07,1053 281.57,1053 "/>
<polygon class="st1" points="75.53,0.5 25.53,50.5 75.53,50.5 "/>
<polygon class="st2" points="75.53,43.27 37.96,5.71 21.64,22.03 50.2,50.5 75.53,50.5 "/>
<polygon class="st3" points="0.47,0.5 50.47,50.5 0.47,50.5 "/>
<polygon class="st4" points="929.76,1375 916.76,1388 929.76,1388 "/>
<polygon class="st5" points="929.76,1386.12 919.99,1376.35 915.75,1380.6 923.17,1388 929.76,1388 "/>
<polygon class="st6" points="910.24,1375 923.24,1388 910.24,1388 "/>
</svg>
